%TF.GenerationSoftware,KiCad,Pcbnew,9.0.2*%
%TF.CreationDate,2025-07-02T14:38:08-04:00*%
%TF.ProjectId,PaperCam_Kicad,50617065-7243-4616-9d5f-4b696361642e,rev?*%
%TF.SameCoordinates,Original*%
%TF.FileFunction,Soldermask,Top*%
%TF.FilePolarity,Negative*%
%FSLAX46Y46*%
G04 Gerber Fmt 4.6, Leading zero omitted, Abs format (unit mm)*
G04 Created by KiCad (PCBNEW 9.0.2) date 2025-07-02 14:38:08*
%MOMM*%
%LPD*%
G01*
G04 APERTURE LIST*
G04 Aperture macros list*
%AMRoundRect*
0 Rectangle with rounded corners*
0 $1 Rounding radius*
0 $2 $3 $4 $5 $6 $7 $8 $9 X,Y pos of 4 corners*
0 Add a 4 corners polygon primitive as box body*
4,1,4,$2,$3,$4,$5,$6,$7,$8,$9,$2,$3,0*
0 Add four circle primitives for the rounded corners*
1,1,$1+$1,$2,$3*
1,1,$1+$1,$4,$5*
1,1,$1+$1,$6,$7*
1,1,$1+$1,$8,$9*
0 Add four rect primitives between the rounded corners*
20,1,$1+$1,$2,$3,$4,$5,0*
20,1,$1+$1,$4,$5,$6,$7,0*
20,1,$1+$1,$6,$7,$8,$9,0*
20,1,$1+$1,$8,$9,$2,$3,0*%
G04 Aperture macros list end*
%ADD10C,1.600000*%
%ADD11RoundRect,0.250000X0.550000X-0.550000X0.550000X0.550000X-0.550000X0.550000X-0.550000X-0.550000X0*%
%ADD12C,2.700000*%
%ADD13C,6.000000*%
%ADD14R,1.700000X1.700000*%
%ADD15O,1.700000X1.700000*%
%ADD16RoundRect,0.102000X0.754000X0.754000X-0.754000X0.754000X-0.754000X-0.754000X0.754000X-0.754000X0*%
%ADD17C,1.712000*%
%ADD18C,3.720000*%
%ADD19C,3.000000*%
%ADD20RoundRect,0.102000X0.704000X-0.704000X0.704000X0.704000X-0.704000X0.704000X-0.704000X-0.704000X0*%
%ADD21C,1.612000*%
%ADD22C,1.700000*%
%ADD23O,3.200000X1.900000*%
G04 APERTURE END LIST*
D10*
%TO.C,C1*%
X83343750Y-102512500D03*
X83343750Y-100012500D03*
%TD*%
D11*
%TO.C,C3*%
X97631250Y-102393750D03*
D10*
X97631250Y-99893750D03*
%TD*%
D12*
%TO.C,H1*%
X5000000Y-5000000D03*
%TD*%
%TO.C,H2*%
X105000000Y-105000000D03*
%TD*%
D10*
%TO.C,C2*%
X90487500Y-102512500D03*
X90487500Y-100012500D03*
%TD*%
D13*
%TO.C,RaspberryPiGPIO1*%
X5993750Y-103012500D03*
X63993750Y-103012500D03*
X5993750Y-80012500D03*
X63993750Y-80012500D03*
D14*
X10863750Y-101742500D03*
D15*
X10863750Y-104282500D03*
X13403750Y-101742500D03*
X13403750Y-104282500D03*
X15943750Y-101742500D03*
X15943750Y-104282500D03*
X18483750Y-101742500D03*
X18483750Y-104282500D03*
X21023750Y-101742500D03*
X21023750Y-104282500D03*
X23563750Y-101742500D03*
X23563750Y-104282500D03*
X26103750Y-101742500D03*
X26103750Y-104282500D03*
X28643750Y-101742500D03*
X28643750Y-104282500D03*
X31183750Y-101742500D03*
X31183750Y-104282500D03*
X33723750Y-101742500D03*
X33723750Y-104282500D03*
X36263750Y-101742500D03*
X36263750Y-104282500D03*
X38803750Y-101742500D03*
X38803750Y-104282500D03*
X41343750Y-101742500D03*
X41343750Y-104282500D03*
X43883750Y-101742500D03*
X43883750Y-104282500D03*
X46423750Y-101742500D03*
X46423750Y-104282500D03*
X48963750Y-101742500D03*
X48963750Y-104282500D03*
X51503750Y-101742500D03*
X51503750Y-104282500D03*
X54043750Y-101742500D03*
X54043750Y-104282500D03*
X56583750Y-101742500D03*
X56583750Y-104282500D03*
X59123750Y-101742500D03*
X59123750Y-104282500D03*
%TD*%
D16*
%TO.C,U1*%
X94488000Y-4127500D03*
D17*
X91948000Y-4127500D03*
X89408000Y-4127500D03*
X86868000Y-4127500D03*
X84328000Y-4127500D03*
X81788000Y-4127500D03*
X79248000Y-4127500D03*
X76708000Y-4127500D03*
D18*
X104775000Y-5397500D03*
X104775000Y-23177500D03*
%TD*%
D19*
%TO.C,H3*%
X103428148Y-91202021D03*
%TD*%
D20*
%TO.C,PowerSwitch1*%
X35694745Y-10142305D03*
D21*
X35694745Y-7642305D03*
X35694745Y-5142305D03*
%TD*%
D14*
%TO.C,Display1*%
X103460219Y-46071437D03*
D22*
X103460219Y-48611437D03*
X103460219Y-51151437D03*
X103460219Y-53691437D03*
X103460219Y-56231437D03*
X103460219Y-58771437D03*
X103460219Y-61311437D03*
X103460219Y-63851437D03*
%TD*%
D23*
%TO.C,CameraButton1*%
X28791828Y-4908870D03*
X16291828Y-4908870D03*
X28791828Y-9908870D03*
X16291828Y-9908870D03*
%TD*%
D19*
%TO.C,H4*%
X6502751Y-18739839D03*
%TD*%
M02*
