%TF.GenerationSoftware,KiCad,Pcbnew,9.0.2*%
%TF.CreationDate,2025-07-02T14:38:08-04:00*%
%TF.ProjectId,PaperCam_Kicad,50617065-7243-4616-9d5f-4b696361642e,rev?*%
%TF.SameCoordinates,Original*%
%TF.FileFunction,Legend,Top*%
%TF.FilePolarity,Positive*%
%FSLAX46Y46*%
G04 Gerber Fmt 4.6, Leading zero omitted, Abs format (unit mm)*
G04 Created by KiCad (PCBNEW 9.0.2) date 2025-07-02 14:38:08*
%MOMM*%
%LPD*%
G01*
G04 APERTURE LIST*
%ADD10C,0.100000*%
%ADD11C,0.375000*%
%ADD12C,0.300000*%
%ADD13C,1.000000*%
%ADD14C,0.150000*%
%ADD15C,0.120000*%
%ADD16C,0.000000*%
%ADD17C,0.127000*%
%ADD18C,0.200000*%
G04 APERTURE END LIST*
D10*
X42500000Y-43000000D02*
X67500000Y-43000000D01*
X67500000Y-67000000D01*
X42500000Y-67000000D01*
X42500000Y-43000000D01*
D11*
X50300281Y-51580478D02*
X50157424Y-51723336D01*
X50157424Y-51723336D02*
X49728852Y-51866193D01*
X49728852Y-51866193D02*
X49443138Y-51866193D01*
X49443138Y-51866193D02*
X49014567Y-51723336D01*
X49014567Y-51723336D02*
X48728852Y-51437621D01*
X48728852Y-51437621D02*
X48585995Y-51151907D01*
X48585995Y-51151907D02*
X48443138Y-50580478D01*
X48443138Y-50580478D02*
X48443138Y-50151907D01*
X48443138Y-50151907D02*
X48585995Y-49580478D01*
X48585995Y-49580478D02*
X48728852Y-49294764D01*
X48728852Y-49294764D02*
X49014567Y-49009050D01*
X49014567Y-49009050D02*
X49443138Y-48866193D01*
X49443138Y-48866193D02*
X49728852Y-48866193D01*
X49728852Y-48866193D02*
X50157424Y-49009050D01*
X50157424Y-49009050D02*
X50300281Y-49151907D01*
X52871710Y-51866193D02*
X52871710Y-50294764D01*
X52871710Y-50294764D02*
X52728852Y-50009050D01*
X52728852Y-50009050D02*
X52443138Y-49866193D01*
X52443138Y-49866193D02*
X51871710Y-49866193D01*
X51871710Y-49866193D02*
X51585995Y-50009050D01*
X52871710Y-51723336D02*
X52585995Y-51866193D01*
X52585995Y-51866193D02*
X51871710Y-51866193D01*
X51871710Y-51866193D02*
X51585995Y-51723336D01*
X51585995Y-51723336D02*
X51443138Y-51437621D01*
X51443138Y-51437621D02*
X51443138Y-51151907D01*
X51443138Y-51151907D02*
X51585995Y-50866193D01*
X51585995Y-50866193D02*
X51871710Y-50723336D01*
X51871710Y-50723336D02*
X52585995Y-50723336D01*
X52585995Y-50723336D02*
X52871710Y-50580478D01*
X54300281Y-51866193D02*
X54300281Y-49866193D01*
X54300281Y-50151907D02*
X54443138Y-50009050D01*
X54443138Y-50009050D02*
X54728853Y-49866193D01*
X54728853Y-49866193D02*
X55157424Y-49866193D01*
X55157424Y-49866193D02*
X55443138Y-50009050D01*
X55443138Y-50009050D02*
X55585996Y-50294764D01*
X55585996Y-50294764D02*
X55585996Y-51866193D01*
X55585996Y-50294764D02*
X55728853Y-50009050D01*
X55728853Y-50009050D02*
X56014567Y-49866193D01*
X56014567Y-49866193D02*
X56443138Y-49866193D01*
X56443138Y-49866193D02*
X56728853Y-50009050D01*
X56728853Y-50009050D02*
X56871710Y-50294764D01*
X56871710Y-50294764D02*
X56871710Y-51866193D01*
X59443138Y-51723336D02*
X59157424Y-51866193D01*
X59157424Y-51866193D02*
X58585996Y-51866193D01*
X58585996Y-51866193D02*
X58300281Y-51723336D01*
X58300281Y-51723336D02*
X58157424Y-51437621D01*
X58157424Y-51437621D02*
X58157424Y-50294764D01*
X58157424Y-50294764D02*
X58300281Y-50009050D01*
X58300281Y-50009050D02*
X58585996Y-49866193D01*
X58585996Y-49866193D02*
X59157424Y-49866193D01*
X59157424Y-49866193D02*
X59443138Y-50009050D01*
X59443138Y-50009050D02*
X59585996Y-50294764D01*
X59585996Y-50294764D02*
X59585996Y-50580478D01*
X59585996Y-50580478D02*
X58157424Y-50866193D01*
X60871710Y-51866193D02*
X60871710Y-49866193D01*
X60871710Y-50437621D02*
X61014567Y-50151907D01*
X61014567Y-50151907D02*
X61157425Y-50009050D01*
X61157425Y-50009050D02*
X61443139Y-49866193D01*
X61443139Y-49866193D02*
X61728853Y-49866193D01*
X64014568Y-51866193D02*
X64014568Y-50294764D01*
X64014568Y-50294764D02*
X63871710Y-50009050D01*
X63871710Y-50009050D02*
X63585996Y-49866193D01*
X63585996Y-49866193D02*
X63014568Y-49866193D01*
X63014568Y-49866193D02*
X62728853Y-50009050D01*
X64014568Y-51723336D02*
X63728853Y-51866193D01*
X63728853Y-51866193D02*
X63014568Y-51866193D01*
X63014568Y-51866193D02*
X62728853Y-51723336D01*
X62728853Y-51723336D02*
X62585996Y-51437621D01*
X62585996Y-51437621D02*
X62585996Y-51151907D01*
X62585996Y-51151907D02*
X62728853Y-50866193D01*
X62728853Y-50866193D02*
X63014568Y-50723336D01*
X63014568Y-50723336D02*
X63728853Y-50723336D01*
X63728853Y-50723336D02*
X64014568Y-50580478D01*
X49871710Y-54696025D02*
X49871710Y-57124596D01*
X49871710Y-57124596D02*
X49728852Y-57410310D01*
X49728852Y-57410310D02*
X49585995Y-57553168D01*
X49585995Y-57553168D02*
X49300281Y-57696025D01*
X49300281Y-57696025D02*
X48871710Y-57696025D01*
X48871710Y-57696025D02*
X48585995Y-57553168D01*
X49871710Y-56553168D02*
X49585995Y-56696025D01*
X49585995Y-56696025D02*
X49014567Y-56696025D01*
X49014567Y-56696025D02*
X48728852Y-56553168D01*
X48728852Y-56553168D02*
X48585995Y-56410310D01*
X48585995Y-56410310D02*
X48443138Y-56124596D01*
X48443138Y-56124596D02*
X48443138Y-55267453D01*
X48443138Y-55267453D02*
X48585995Y-54981739D01*
X48585995Y-54981739D02*
X48728852Y-54838882D01*
X48728852Y-54838882D02*
X49014567Y-54696025D01*
X49014567Y-54696025D02*
X49585995Y-54696025D01*
X49585995Y-54696025D02*
X49871710Y-54838882D01*
X51728853Y-56696025D02*
X51443138Y-56553168D01*
X51443138Y-56553168D02*
X51300281Y-56410310D01*
X51300281Y-56410310D02*
X51157424Y-56124596D01*
X51157424Y-56124596D02*
X51157424Y-55267453D01*
X51157424Y-55267453D02*
X51300281Y-54981739D01*
X51300281Y-54981739D02*
X51443138Y-54838882D01*
X51443138Y-54838882D02*
X51728853Y-54696025D01*
X51728853Y-54696025D02*
X52157424Y-54696025D01*
X52157424Y-54696025D02*
X52443138Y-54838882D01*
X52443138Y-54838882D02*
X52585996Y-54981739D01*
X52585996Y-54981739D02*
X52728853Y-55267453D01*
X52728853Y-55267453D02*
X52728853Y-56124596D01*
X52728853Y-56124596D02*
X52585996Y-56410310D01*
X52585996Y-56410310D02*
X52443138Y-56553168D01*
X52443138Y-56553168D02*
X52157424Y-56696025D01*
X52157424Y-56696025D02*
X51728853Y-56696025D01*
X55157424Y-56553168D02*
X54871710Y-56696025D01*
X54871710Y-56696025D02*
X54300282Y-56696025D01*
X54300282Y-56696025D02*
X54014567Y-56553168D01*
X54014567Y-56553168D02*
X53871710Y-56267453D01*
X53871710Y-56267453D02*
X53871710Y-55124596D01*
X53871710Y-55124596D02*
X54014567Y-54838882D01*
X54014567Y-54838882D02*
X54300282Y-54696025D01*
X54300282Y-54696025D02*
X54871710Y-54696025D01*
X54871710Y-54696025D02*
X55157424Y-54838882D01*
X55157424Y-54838882D02*
X55300282Y-55124596D01*
X55300282Y-55124596D02*
X55300282Y-55410310D01*
X55300282Y-55410310D02*
X53871710Y-55696025D01*
X56443139Y-56553168D02*
X56728853Y-56696025D01*
X56728853Y-56696025D02*
X57300282Y-56696025D01*
X57300282Y-56696025D02*
X57585996Y-56553168D01*
X57585996Y-56553168D02*
X57728853Y-56267453D01*
X57728853Y-56267453D02*
X57728853Y-56124596D01*
X57728853Y-56124596D02*
X57585996Y-55838882D01*
X57585996Y-55838882D02*
X57300282Y-55696025D01*
X57300282Y-55696025D02*
X56871711Y-55696025D01*
X56871711Y-55696025D02*
X56585996Y-55553168D01*
X56585996Y-55553168D02*
X56443139Y-55267453D01*
X56443139Y-55267453D02*
X56443139Y-55124596D01*
X56443139Y-55124596D02*
X56585996Y-54838882D01*
X56585996Y-54838882D02*
X56871711Y-54696025D01*
X56871711Y-54696025D02*
X57300282Y-54696025D01*
X57300282Y-54696025D02*
X57585996Y-54838882D01*
X48585995Y-61525857D02*
X48585995Y-58525857D01*
X49871710Y-61525857D02*
X49871710Y-59954428D01*
X49871710Y-59954428D02*
X49728852Y-59668714D01*
X49728852Y-59668714D02*
X49443138Y-59525857D01*
X49443138Y-59525857D02*
X49014567Y-59525857D01*
X49014567Y-59525857D02*
X48728852Y-59668714D01*
X48728852Y-59668714D02*
X48585995Y-59811571D01*
X52443138Y-61383000D02*
X52157424Y-61525857D01*
X52157424Y-61525857D02*
X51585996Y-61525857D01*
X51585996Y-61525857D02*
X51300281Y-61383000D01*
X51300281Y-61383000D02*
X51157424Y-61097285D01*
X51157424Y-61097285D02*
X51157424Y-59954428D01*
X51157424Y-59954428D02*
X51300281Y-59668714D01*
X51300281Y-59668714D02*
X51585996Y-59525857D01*
X51585996Y-59525857D02*
X52157424Y-59525857D01*
X52157424Y-59525857D02*
X52443138Y-59668714D01*
X52443138Y-59668714D02*
X52585996Y-59954428D01*
X52585996Y-59954428D02*
X52585996Y-60240142D01*
X52585996Y-60240142D02*
X51157424Y-60525857D01*
X53871710Y-61525857D02*
X53871710Y-59525857D01*
X53871710Y-60097285D02*
X54014567Y-59811571D01*
X54014567Y-59811571D02*
X54157425Y-59668714D01*
X54157425Y-59668714D02*
X54443139Y-59525857D01*
X54443139Y-59525857D02*
X54728853Y-59525857D01*
X56871710Y-61383000D02*
X56585996Y-61525857D01*
X56585996Y-61525857D02*
X56014568Y-61525857D01*
X56014568Y-61525857D02*
X55728853Y-61383000D01*
X55728853Y-61383000D02*
X55585996Y-61097285D01*
X55585996Y-61097285D02*
X55585996Y-59954428D01*
X55585996Y-59954428D02*
X55728853Y-59668714D01*
X55728853Y-59668714D02*
X56014568Y-59525857D01*
X56014568Y-59525857D02*
X56585996Y-59525857D01*
X56585996Y-59525857D02*
X56871710Y-59668714D01*
X56871710Y-59668714D02*
X57014568Y-59954428D01*
X57014568Y-59954428D02*
X57014568Y-60240142D01*
X57014568Y-60240142D02*
X55585996Y-60525857D01*
D12*
G36*
X88189105Y-91678751D02*
G01*
X90254849Y-84791652D01*
X89236723Y-84791652D01*
X88090797Y-88529911D01*
X87032493Y-84791652D01*
X86014366Y-84791652D01*
X87992062Y-91678751D01*
X88189105Y-91678751D01*
G37*
G36*
X93430190Y-89544190D02*
G01*
X93812308Y-89544190D01*
X93812308Y-90502477D01*
X93430190Y-90502477D01*
X93430190Y-91678751D01*
X92471903Y-91678751D01*
X92471903Y-90502477D01*
X90413852Y-90502477D01*
X90413852Y-90289619D01*
X90795838Y-89544190D01*
X91801700Y-89544190D01*
X92471903Y-89544190D01*
X92471903Y-88148220D01*
X91801700Y-89544190D01*
X90795838Y-89544190D01*
X93231437Y-84791224D01*
X93430190Y-84791224D01*
X93430190Y-89544190D01*
G37*
G36*
X94694513Y-89816887D02*
G01*
X95653227Y-89816887D01*
X95672461Y-84791652D01*
X94665448Y-84791652D01*
X94694513Y-89816887D01*
G37*
G36*
X94694513Y-90720464D02*
G01*
X94694513Y-91678751D01*
X95653227Y-91678751D01*
X95653227Y-90720464D01*
X94694513Y-90720464D01*
G37*
D13*
X3991524Y-27957803D02*
X6372477Y-27957803D01*
X3515334Y-29386375D02*
X5182001Y-24386375D01*
X5182001Y-24386375D02*
X6848667Y-29386375D01*
X8515334Y-29386375D02*
X8515334Y-26053041D01*
X8515334Y-27005422D02*
X8753429Y-26529232D01*
X8753429Y-26529232D02*
X8991524Y-26291137D01*
X8991524Y-26291137D02*
X9467715Y-26053041D01*
X9467715Y-26053041D02*
X9943905Y-26053041D01*
X11134381Y-26053041D02*
X12324857Y-29386375D01*
X13515334Y-26053041D02*
X12324857Y-29386375D01*
X12324857Y-29386375D02*
X11848667Y-30576851D01*
X11848667Y-30576851D02*
X11610572Y-30814946D01*
X11610572Y-30814946D02*
X11134381Y-31053041D01*
X17562953Y-29386375D02*
X17562953Y-26767327D01*
X17562953Y-26767327D02*
X17324858Y-26291137D01*
X17324858Y-26291137D02*
X16848667Y-26053041D01*
X16848667Y-26053041D02*
X15896286Y-26053041D01*
X15896286Y-26053041D02*
X15420096Y-26291137D01*
X17562953Y-29148280D02*
X17086762Y-29386375D01*
X17086762Y-29386375D02*
X15896286Y-29386375D01*
X15896286Y-29386375D02*
X15420096Y-29148280D01*
X15420096Y-29148280D02*
X15182000Y-28672089D01*
X15182000Y-28672089D02*
X15182000Y-28195899D01*
X15182000Y-28195899D02*
X15420096Y-27719708D01*
X15420096Y-27719708D02*
X15896286Y-27481613D01*
X15896286Y-27481613D02*
X17086762Y-27481613D01*
X17086762Y-27481613D02*
X17562953Y-27243518D01*
X20182001Y-24386375D02*
X19705810Y-25338756D01*
X22086762Y-29148280D02*
X22562953Y-29386375D01*
X22562953Y-29386375D02*
X23515334Y-29386375D01*
X23515334Y-29386375D02*
X23991524Y-29148280D01*
X23991524Y-29148280D02*
X24229620Y-28672089D01*
X24229620Y-28672089D02*
X24229620Y-28433994D01*
X24229620Y-28433994D02*
X23991524Y-27957803D01*
X23991524Y-27957803D02*
X23515334Y-27719708D01*
X23515334Y-27719708D02*
X22801048Y-27719708D01*
X22801048Y-27719708D02*
X22324858Y-27481613D01*
X22324858Y-27481613D02*
X22086762Y-27005422D01*
X22086762Y-27005422D02*
X22086762Y-26767327D01*
X22086762Y-26767327D02*
X22324858Y-26291137D01*
X22324858Y-26291137D02*
X22801048Y-26053041D01*
X22801048Y-26053041D02*
X23515334Y-26053041D01*
X23515334Y-26053041D02*
X23991524Y-26291137D01*
X4229620Y-37436095D02*
X4229620Y-32436095D01*
X4229620Y-32436095D02*
X6134382Y-32436095D01*
X6134382Y-32436095D02*
X6610572Y-32674190D01*
X6610572Y-32674190D02*
X6848667Y-32912285D01*
X6848667Y-32912285D02*
X7086763Y-33388476D01*
X7086763Y-33388476D02*
X7086763Y-34102761D01*
X7086763Y-34102761D02*
X6848667Y-34578952D01*
X6848667Y-34578952D02*
X6610572Y-34817047D01*
X6610572Y-34817047D02*
X6134382Y-35055142D01*
X6134382Y-35055142D02*
X4229620Y-35055142D01*
X11372477Y-37436095D02*
X11372477Y-34817047D01*
X11372477Y-34817047D02*
X11134382Y-34340857D01*
X11134382Y-34340857D02*
X10658191Y-34102761D01*
X10658191Y-34102761D02*
X9705810Y-34102761D01*
X9705810Y-34102761D02*
X9229620Y-34340857D01*
X11372477Y-37198000D02*
X10896286Y-37436095D01*
X10896286Y-37436095D02*
X9705810Y-37436095D01*
X9705810Y-37436095D02*
X9229620Y-37198000D01*
X9229620Y-37198000D02*
X8991524Y-36721809D01*
X8991524Y-36721809D02*
X8991524Y-36245619D01*
X8991524Y-36245619D02*
X9229620Y-35769428D01*
X9229620Y-35769428D02*
X9705810Y-35531333D01*
X9705810Y-35531333D02*
X10896286Y-35531333D01*
X10896286Y-35531333D02*
X11372477Y-35293238D01*
X13753430Y-34102761D02*
X13753430Y-39102761D01*
X13753430Y-34340857D02*
X14229620Y-34102761D01*
X14229620Y-34102761D02*
X15182001Y-34102761D01*
X15182001Y-34102761D02*
X15658192Y-34340857D01*
X15658192Y-34340857D02*
X15896287Y-34578952D01*
X15896287Y-34578952D02*
X16134382Y-35055142D01*
X16134382Y-35055142D02*
X16134382Y-36483714D01*
X16134382Y-36483714D02*
X15896287Y-36959904D01*
X15896287Y-36959904D02*
X15658192Y-37198000D01*
X15658192Y-37198000D02*
X15182001Y-37436095D01*
X15182001Y-37436095D02*
X14229620Y-37436095D01*
X14229620Y-37436095D02*
X13753430Y-37198000D01*
X20182002Y-37198000D02*
X19705811Y-37436095D01*
X19705811Y-37436095D02*
X18753430Y-37436095D01*
X18753430Y-37436095D02*
X18277240Y-37198000D01*
X18277240Y-37198000D02*
X18039144Y-36721809D01*
X18039144Y-36721809D02*
X18039144Y-34817047D01*
X18039144Y-34817047D02*
X18277240Y-34340857D01*
X18277240Y-34340857D02*
X18753430Y-34102761D01*
X18753430Y-34102761D02*
X19705811Y-34102761D01*
X19705811Y-34102761D02*
X20182002Y-34340857D01*
X20182002Y-34340857D02*
X20420097Y-34817047D01*
X20420097Y-34817047D02*
X20420097Y-35293238D01*
X20420097Y-35293238D02*
X18039144Y-35769428D01*
X22562954Y-37436095D02*
X22562954Y-34102761D01*
X22562954Y-35055142D02*
X22801049Y-34578952D01*
X22801049Y-34578952D02*
X23039144Y-34340857D01*
X23039144Y-34340857D02*
X23515335Y-34102761D01*
X23515335Y-34102761D02*
X23991525Y-34102761D01*
X28515335Y-36959904D02*
X28277239Y-37198000D01*
X28277239Y-37198000D02*
X27562954Y-37436095D01*
X27562954Y-37436095D02*
X27086763Y-37436095D01*
X27086763Y-37436095D02*
X26372477Y-37198000D01*
X26372477Y-37198000D02*
X25896287Y-36721809D01*
X25896287Y-36721809D02*
X25658192Y-36245619D01*
X25658192Y-36245619D02*
X25420096Y-35293238D01*
X25420096Y-35293238D02*
X25420096Y-34578952D01*
X25420096Y-34578952D02*
X25658192Y-33626571D01*
X25658192Y-33626571D02*
X25896287Y-33150380D01*
X25896287Y-33150380D02*
X26372477Y-32674190D01*
X26372477Y-32674190D02*
X27086763Y-32436095D01*
X27086763Y-32436095D02*
X27562954Y-32436095D01*
X27562954Y-32436095D02*
X28277239Y-32674190D01*
X28277239Y-32674190D02*
X28515335Y-32912285D01*
X32801049Y-37436095D02*
X32801049Y-34817047D01*
X32801049Y-34817047D02*
X32562954Y-34340857D01*
X32562954Y-34340857D02*
X32086763Y-34102761D01*
X32086763Y-34102761D02*
X31134382Y-34102761D01*
X31134382Y-34102761D02*
X30658192Y-34340857D01*
X32801049Y-37198000D02*
X32324858Y-37436095D01*
X32324858Y-37436095D02*
X31134382Y-37436095D01*
X31134382Y-37436095D02*
X30658192Y-37198000D01*
X30658192Y-37198000D02*
X30420096Y-36721809D01*
X30420096Y-36721809D02*
X30420096Y-36245619D01*
X30420096Y-36245619D02*
X30658192Y-35769428D01*
X30658192Y-35769428D02*
X31134382Y-35531333D01*
X31134382Y-35531333D02*
X32324858Y-35531333D01*
X32324858Y-35531333D02*
X32801049Y-35293238D01*
X35182002Y-37436095D02*
X35182002Y-34102761D01*
X35182002Y-34578952D02*
X35420097Y-34340857D01*
X35420097Y-34340857D02*
X35896287Y-34102761D01*
X35896287Y-34102761D02*
X36610573Y-34102761D01*
X36610573Y-34102761D02*
X37086764Y-34340857D01*
X37086764Y-34340857D02*
X37324859Y-34817047D01*
X37324859Y-34817047D02*
X37324859Y-37436095D01*
X37324859Y-34817047D02*
X37562954Y-34340857D01*
X37562954Y-34340857D02*
X38039145Y-34102761D01*
X38039145Y-34102761D02*
X38753430Y-34102761D01*
X38753430Y-34102761D02*
X39229621Y-34340857D01*
X39229621Y-34340857D02*
X39467716Y-34817047D01*
X39467716Y-34817047D02*
X39467716Y-37436095D01*
D14*
X81203330Y-101429166D02*
X81250950Y-101476785D01*
X81250950Y-101476785D02*
X81298569Y-101619642D01*
X81298569Y-101619642D02*
X81298569Y-101714880D01*
X81298569Y-101714880D02*
X81250950Y-101857737D01*
X81250950Y-101857737D02*
X81155711Y-101952975D01*
X81155711Y-101952975D02*
X81060473Y-102000594D01*
X81060473Y-102000594D02*
X80869997Y-102048213D01*
X80869997Y-102048213D02*
X80727140Y-102048213D01*
X80727140Y-102048213D02*
X80536664Y-102000594D01*
X80536664Y-102000594D02*
X80441426Y-101952975D01*
X80441426Y-101952975D02*
X80346188Y-101857737D01*
X80346188Y-101857737D02*
X80298569Y-101714880D01*
X80298569Y-101714880D02*
X80298569Y-101619642D01*
X80298569Y-101619642D02*
X80346188Y-101476785D01*
X80346188Y-101476785D02*
X80393807Y-101429166D01*
X81298569Y-100476785D02*
X81298569Y-101048213D01*
X81298569Y-100762499D02*
X80298569Y-100762499D01*
X80298569Y-100762499D02*
X80441426Y-100857737D01*
X80441426Y-100857737D02*
X80536664Y-100952975D01*
X80536664Y-100952975D02*
X80584283Y-101048213D01*
D12*
X70116072Y-30731762D02*
X69973215Y-30660333D01*
X69973215Y-30660333D02*
X69758929Y-30660333D01*
X69758929Y-30660333D02*
X69544643Y-30731762D01*
X69544643Y-30731762D02*
X69401786Y-30874619D01*
X69401786Y-30874619D02*
X69330357Y-31017476D01*
X69330357Y-31017476D02*
X69258929Y-31303190D01*
X69258929Y-31303190D02*
X69258929Y-31517476D01*
X69258929Y-31517476D02*
X69330357Y-31803190D01*
X69330357Y-31803190D02*
X69401786Y-31946047D01*
X69401786Y-31946047D02*
X69544643Y-32088905D01*
X69544643Y-32088905D02*
X69758929Y-32160333D01*
X69758929Y-32160333D02*
X69901786Y-32160333D01*
X69901786Y-32160333D02*
X70116072Y-32088905D01*
X70116072Y-32088905D02*
X70187500Y-32017476D01*
X70187500Y-32017476D02*
X70187500Y-31517476D01*
X70187500Y-31517476D02*
X69901786Y-31517476D01*
X71044643Y-30660333D02*
X71044643Y-31017476D01*
X70687500Y-30874619D02*
X71044643Y-31017476D01*
X71044643Y-31017476D02*
X71401786Y-30874619D01*
X70830357Y-31303190D02*
X71044643Y-31017476D01*
X71044643Y-31017476D02*
X71258929Y-31303190D01*
X72187500Y-30660333D02*
X72187500Y-31017476D01*
X71830357Y-30874619D02*
X72187500Y-31017476D01*
X72187500Y-31017476D02*
X72544643Y-30874619D01*
X71973214Y-31303190D02*
X72187500Y-31017476D01*
X72187500Y-31017476D02*
X72401786Y-31303190D01*
X73330357Y-30660333D02*
X73330357Y-31017476D01*
X72973214Y-30874619D02*
X73330357Y-31017476D01*
X73330357Y-31017476D02*
X73687500Y-30874619D01*
X73116071Y-31303190D02*
X73330357Y-31017476D01*
X73330357Y-31017476D02*
X73544643Y-31303190D01*
X34397322Y-55861766D02*
X34254465Y-55790337D01*
X34254465Y-55790337D02*
X34040179Y-55790337D01*
X34040179Y-55790337D02*
X33825893Y-55861766D01*
X33825893Y-55861766D02*
X33683036Y-56004623D01*
X33683036Y-56004623D02*
X33611607Y-56147480D01*
X33611607Y-56147480D02*
X33540179Y-56433194D01*
X33540179Y-56433194D02*
X33540179Y-56647480D01*
X33540179Y-56647480D02*
X33611607Y-56933194D01*
X33611607Y-56933194D02*
X33683036Y-57076051D01*
X33683036Y-57076051D02*
X33825893Y-57218909D01*
X33825893Y-57218909D02*
X34040179Y-57290337D01*
X34040179Y-57290337D02*
X34183036Y-57290337D01*
X34183036Y-57290337D02*
X34397322Y-57218909D01*
X34397322Y-57218909D02*
X34468750Y-57147480D01*
X34468750Y-57147480D02*
X34468750Y-56647480D01*
X34468750Y-56647480D02*
X34183036Y-56647480D01*
X35325893Y-55790337D02*
X35325893Y-56147480D01*
X34968750Y-56004623D02*
X35325893Y-56147480D01*
X35325893Y-56147480D02*
X35683036Y-56004623D01*
X35111607Y-56433194D02*
X35325893Y-56147480D01*
X35325893Y-56147480D02*
X35540179Y-56433194D01*
X36468750Y-55790337D02*
X36468750Y-56147480D01*
X36111607Y-56004623D02*
X36468750Y-56147480D01*
X36468750Y-56147480D02*
X36825893Y-56004623D01*
X36254464Y-56433194D02*
X36468750Y-56147480D01*
X36468750Y-56147480D02*
X36683036Y-56433194D01*
X37611607Y-55790337D02*
X37611607Y-56147480D01*
X37254464Y-56004623D02*
X37611607Y-56147480D01*
X37611607Y-56147480D02*
X37968750Y-56004623D01*
X37397321Y-56433194D02*
X37611607Y-56147480D01*
X37611607Y-56147480D02*
X37825893Y-56433194D01*
D14*
X100372080Y-97797916D02*
X100419700Y-97845535D01*
X100419700Y-97845535D02*
X100467319Y-97988392D01*
X100467319Y-97988392D02*
X100467319Y-98083630D01*
X100467319Y-98083630D02*
X100419700Y-98226487D01*
X100419700Y-98226487D02*
X100324461Y-98321725D01*
X100324461Y-98321725D02*
X100229223Y-98369344D01*
X100229223Y-98369344D02*
X100038747Y-98416963D01*
X100038747Y-98416963D02*
X99895890Y-98416963D01*
X99895890Y-98416963D02*
X99705414Y-98369344D01*
X99705414Y-98369344D02*
X99610176Y-98321725D01*
X99610176Y-98321725D02*
X99514938Y-98226487D01*
X99514938Y-98226487D02*
X99467319Y-98083630D01*
X99467319Y-98083630D02*
X99467319Y-97988392D01*
X99467319Y-97988392D02*
X99514938Y-97845535D01*
X99514938Y-97845535D02*
X99562557Y-97797916D01*
X99467319Y-97464582D02*
X99467319Y-96845535D01*
X99467319Y-96845535D02*
X99848271Y-97178868D01*
X99848271Y-97178868D02*
X99848271Y-97036011D01*
X99848271Y-97036011D02*
X99895890Y-96940773D01*
X99895890Y-96940773D02*
X99943509Y-96893154D01*
X99943509Y-96893154D02*
X100038747Y-96845535D01*
X100038747Y-96845535D02*
X100276842Y-96845535D01*
X100276842Y-96845535D02*
X100372080Y-96893154D01*
X100372080Y-96893154D02*
X100419700Y-96940773D01*
X100419700Y-96940773D02*
X100467319Y-97036011D01*
X100467319Y-97036011D02*
X100467319Y-97321725D01*
X100467319Y-97321725D02*
X100419700Y-97416963D01*
X100419700Y-97416963D02*
X100372080Y-97464582D01*
X4238095Y-1804819D02*
X4238095Y-804819D01*
X4238095Y-1281009D02*
X4809523Y-1281009D01*
X4809523Y-1804819D02*
X4809523Y-804819D01*
X5809523Y-1804819D02*
X5238095Y-1804819D01*
X5523809Y-1804819D02*
X5523809Y-804819D01*
X5523809Y-804819D02*
X5428571Y-947676D01*
X5428571Y-947676D02*
X5333333Y-1042914D01*
X5333333Y-1042914D02*
X5238095Y-1090533D01*
D12*
X96309822Y-53773995D02*
X96166965Y-53702566D01*
X96166965Y-53702566D02*
X95952679Y-53702566D01*
X95952679Y-53702566D02*
X95738393Y-53773995D01*
X95738393Y-53773995D02*
X95595536Y-53916852D01*
X95595536Y-53916852D02*
X95524107Y-54059709D01*
X95524107Y-54059709D02*
X95452679Y-54345423D01*
X95452679Y-54345423D02*
X95452679Y-54559709D01*
X95452679Y-54559709D02*
X95524107Y-54845423D01*
X95524107Y-54845423D02*
X95595536Y-54988280D01*
X95595536Y-54988280D02*
X95738393Y-55131138D01*
X95738393Y-55131138D02*
X95952679Y-55202566D01*
X95952679Y-55202566D02*
X96095536Y-55202566D01*
X96095536Y-55202566D02*
X96309822Y-55131138D01*
X96309822Y-55131138D02*
X96381250Y-55059709D01*
X96381250Y-55059709D02*
X96381250Y-54559709D01*
X96381250Y-54559709D02*
X96095536Y-54559709D01*
X97238393Y-53702566D02*
X97238393Y-54059709D01*
X96881250Y-53916852D02*
X97238393Y-54059709D01*
X97238393Y-54059709D02*
X97595536Y-53916852D01*
X97024107Y-54345423D02*
X97238393Y-54059709D01*
X97238393Y-54059709D02*
X97452679Y-54345423D01*
X98381250Y-53702566D02*
X98381250Y-54059709D01*
X98024107Y-53916852D02*
X98381250Y-54059709D01*
X98381250Y-54059709D02*
X98738393Y-53916852D01*
X98166964Y-54345423D02*
X98381250Y-54059709D01*
X98381250Y-54059709D02*
X98595536Y-54345423D01*
X99524107Y-53702566D02*
X99524107Y-54059709D01*
X99166964Y-53916852D02*
X99524107Y-54059709D01*
X99524107Y-54059709D02*
X99881250Y-53916852D01*
X99309821Y-54345423D02*
X99524107Y-54059709D01*
X99524107Y-54059709D02*
X99738393Y-54345423D01*
D14*
X104238095Y-101804819D02*
X104238095Y-100804819D01*
X104238095Y-101281009D02*
X104809523Y-101281009D01*
X104809523Y-101804819D02*
X104809523Y-100804819D01*
X105238095Y-100900057D02*
X105285714Y-100852438D01*
X105285714Y-100852438D02*
X105380952Y-100804819D01*
X105380952Y-100804819D02*
X105619047Y-100804819D01*
X105619047Y-100804819D02*
X105714285Y-100852438D01*
X105714285Y-100852438D02*
X105761904Y-100900057D01*
X105761904Y-100900057D02*
X105809523Y-100995295D01*
X105809523Y-100995295D02*
X105809523Y-101090533D01*
X105809523Y-101090533D02*
X105761904Y-101233390D01*
X105761904Y-101233390D02*
X105190476Y-101804819D01*
X105190476Y-101804819D02*
X105809523Y-101804819D01*
X88347080Y-101429166D02*
X88394700Y-101476785D01*
X88394700Y-101476785D02*
X88442319Y-101619642D01*
X88442319Y-101619642D02*
X88442319Y-101714880D01*
X88442319Y-101714880D02*
X88394700Y-101857737D01*
X88394700Y-101857737D02*
X88299461Y-101952975D01*
X88299461Y-101952975D02*
X88204223Y-102000594D01*
X88204223Y-102000594D02*
X88013747Y-102048213D01*
X88013747Y-102048213D02*
X87870890Y-102048213D01*
X87870890Y-102048213D02*
X87680414Y-102000594D01*
X87680414Y-102000594D02*
X87585176Y-101952975D01*
X87585176Y-101952975D02*
X87489938Y-101857737D01*
X87489938Y-101857737D02*
X87442319Y-101714880D01*
X87442319Y-101714880D02*
X87442319Y-101619642D01*
X87442319Y-101619642D02*
X87489938Y-101476785D01*
X87489938Y-101476785D02*
X87537557Y-101429166D01*
X87537557Y-101048213D02*
X87489938Y-101000594D01*
X87489938Y-101000594D02*
X87442319Y-100905356D01*
X87442319Y-100905356D02*
X87442319Y-100667261D01*
X87442319Y-100667261D02*
X87489938Y-100572023D01*
X87489938Y-100572023D02*
X87537557Y-100524404D01*
X87537557Y-100524404D02*
X87632795Y-100476785D01*
X87632795Y-100476785D02*
X87728033Y-100476785D01*
X87728033Y-100476785D02*
X87870890Y-100524404D01*
X87870890Y-100524404D02*
X88442319Y-101095832D01*
X88442319Y-101095832D02*
X88442319Y-100476785D01*
X29136606Y-108467319D02*
X28803273Y-107991128D01*
X28565178Y-108467319D02*
X28565178Y-107467319D01*
X28565178Y-107467319D02*
X28946130Y-107467319D01*
X28946130Y-107467319D02*
X29041368Y-107514938D01*
X29041368Y-107514938D02*
X29088987Y-107562557D01*
X29088987Y-107562557D02*
X29136606Y-107657795D01*
X29136606Y-107657795D02*
X29136606Y-107800652D01*
X29136606Y-107800652D02*
X29088987Y-107895890D01*
X29088987Y-107895890D02*
X29041368Y-107943509D01*
X29041368Y-107943509D02*
X28946130Y-107991128D01*
X28946130Y-107991128D02*
X28565178Y-107991128D01*
X29993749Y-108467319D02*
X29993749Y-107943509D01*
X29993749Y-107943509D02*
X29946130Y-107848271D01*
X29946130Y-107848271D02*
X29850892Y-107800652D01*
X29850892Y-107800652D02*
X29660416Y-107800652D01*
X29660416Y-107800652D02*
X29565178Y-107848271D01*
X29993749Y-108419700D02*
X29898511Y-108467319D01*
X29898511Y-108467319D02*
X29660416Y-108467319D01*
X29660416Y-108467319D02*
X29565178Y-108419700D01*
X29565178Y-108419700D02*
X29517559Y-108324461D01*
X29517559Y-108324461D02*
X29517559Y-108229223D01*
X29517559Y-108229223D02*
X29565178Y-108133985D01*
X29565178Y-108133985D02*
X29660416Y-108086366D01*
X29660416Y-108086366D02*
X29898511Y-108086366D01*
X29898511Y-108086366D02*
X29993749Y-108038747D01*
X30422321Y-108419700D02*
X30517559Y-108467319D01*
X30517559Y-108467319D02*
X30708035Y-108467319D01*
X30708035Y-108467319D02*
X30803273Y-108419700D01*
X30803273Y-108419700D02*
X30850892Y-108324461D01*
X30850892Y-108324461D02*
X30850892Y-108276842D01*
X30850892Y-108276842D02*
X30803273Y-108181604D01*
X30803273Y-108181604D02*
X30708035Y-108133985D01*
X30708035Y-108133985D02*
X30565178Y-108133985D01*
X30565178Y-108133985D02*
X30469940Y-108086366D01*
X30469940Y-108086366D02*
X30422321Y-107991128D01*
X30422321Y-107991128D02*
X30422321Y-107943509D01*
X30422321Y-107943509D02*
X30469940Y-107848271D01*
X30469940Y-107848271D02*
X30565178Y-107800652D01*
X30565178Y-107800652D02*
X30708035Y-107800652D01*
X30708035Y-107800652D02*
X30803273Y-107848271D01*
X31279464Y-107800652D02*
X31279464Y-108800652D01*
X31279464Y-107848271D02*
X31374702Y-107800652D01*
X31374702Y-107800652D02*
X31565178Y-107800652D01*
X31565178Y-107800652D02*
X31660416Y-107848271D01*
X31660416Y-107848271D02*
X31708035Y-107895890D01*
X31708035Y-107895890D02*
X31755654Y-107991128D01*
X31755654Y-107991128D02*
X31755654Y-108276842D01*
X31755654Y-108276842D02*
X31708035Y-108372080D01*
X31708035Y-108372080D02*
X31660416Y-108419700D01*
X31660416Y-108419700D02*
X31565178Y-108467319D01*
X31565178Y-108467319D02*
X31374702Y-108467319D01*
X31374702Y-108467319D02*
X31279464Y-108419700D01*
X32184226Y-108467319D02*
X32184226Y-107467319D01*
X32184226Y-107848271D02*
X32279464Y-107800652D01*
X32279464Y-107800652D02*
X32469940Y-107800652D01*
X32469940Y-107800652D02*
X32565178Y-107848271D01*
X32565178Y-107848271D02*
X32612797Y-107895890D01*
X32612797Y-107895890D02*
X32660416Y-107991128D01*
X32660416Y-107991128D02*
X32660416Y-108276842D01*
X32660416Y-108276842D02*
X32612797Y-108372080D01*
X32612797Y-108372080D02*
X32565178Y-108419700D01*
X32565178Y-108419700D02*
X32469940Y-108467319D01*
X32469940Y-108467319D02*
X32279464Y-108467319D01*
X32279464Y-108467319D02*
X32184226Y-108419700D01*
X33469940Y-108419700D02*
X33374702Y-108467319D01*
X33374702Y-108467319D02*
X33184226Y-108467319D01*
X33184226Y-108467319D02*
X33088988Y-108419700D01*
X33088988Y-108419700D02*
X33041369Y-108324461D01*
X33041369Y-108324461D02*
X33041369Y-107943509D01*
X33041369Y-107943509D02*
X33088988Y-107848271D01*
X33088988Y-107848271D02*
X33184226Y-107800652D01*
X33184226Y-107800652D02*
X33374702Y-107800652D01*
X33374702Y-107800652D02*
X33469940Y-107848271D01*
X33469940Y-107848271D02*
X33517559Y-107943509D01*
X33517559Y-107943509D02*
X33517559Y-108038747D01*
X33517559Y-108038747D02*
X33041369Y-108133985D01*
X33946131Y-108467319D02*
X33946131Y-107800652D01*
X33946131Y-107991128D02*
X33993750Y-107895890D01*
X33993750Y-107895890D02*
X34041369Y-107848271D01*
X34041369Y-107848271D02*
X34136607Y-107800652D01*
X34136607Y-107800652D02*
X34231845Y-107800652D01*
X34565179Y-108467319D02*
X34565179Y-107800652D01*
X34565179Y-107991128D02*
X34612798Y-107895890D01*
X34612798Y-107895890D02*
X34660417Y-107848271D01*
X34660417Y-107848271D02*
X34755655Y-107800652D01*
X34755655Y-107800652D02*
X34850893Y-107800652D01*
X35088989Y-107800652D02*
X35327084Y-108467319D01*
X35565179Y-107800652D02*
X35327084Y-108467319D01*
X35327084Y-108467319D02*
X35231846Y-108705414D01*
X35231846Y-108705414D02*
X35184227Y-108753033D01*
X35184227Y-108753033D02*
X35088989Y-108800652D01*
X35946132Y-108467319D02*
X35946132Y-107467319D01*
X35946132Y-107467319D02*
X36327084Y-107467319D01*
X36327084Y-107467319D02*
X36422322Y-107514938D01*
X36422322Y-107514938D02*
X36469941Y-107562557D01*
X36469941Y-107562557D02*
X36517560Y-107657795D01*
X36517560Y-107657795D02*
X36517560Y-107800652D01*
X36517560Y-107800652D02*
X36469941Y-107895890D01*
X36469941Y-107895890D02*
X36422322Y-107943509D01*
X36422322Y-107943509D02*
X36327084Y-107991128D01*
X36327084Y-107991128D02*
X35946132Y-107991128D01*
X36946132Y-108467319D02*
X36946132Y-107800652D01*
X36946132Y-107467319D02*
X36898513Y-107514938D01*
X36898513Y-107514938D02*
X36946132Y-107562557D01*
X36946132Y-107562557D02*
X36993751Y-107514938D01*
X36993751Y-107514938D02*
X36946132Y-107467319D01*
X36946132Y-107467319D02*
X36946132Y-107562557D01*
X37946131Y-107514938D02*
X37850893Y-107467319D01*
X37850893Y-107467319D02*
X37708036Y-107467319D01*
X37708036Y-107467319D02*
X37565179Y-107514938D01*
X37565179Y-107514938D02*
X37469941Y-107610176D01*
X37469941Y-107610176D02*
X37422322Y-107705414D01*
X37422322Y-107705414D02*
X37374703Y-107895890D01*
X37374703Y-107895890D02*
X37374703Y-108038747D01*
X37374703Y-108038747D02*
X37422322Y-108229223D01*
X37422322Y-108229223D02*
X37469941Y-108324461D01*
X37469941Y-108324461D02*
X37565179Y-108419700D01*
X37565179Y-108419700D02*
X37708036Y-108467319D01*
X37708036Y-108467319D02*
X37803274Y-108467319D01*
X37803274Y-108467319D02*
X37946131Y-108419700D01*
X37946131Y-108419700D02*
X37993750Y-108372080D01*
X37993750Y-108372080D02*
X37993750Y-108038747D01*
X37993750Y-108038747D02*
X37803274Y-108038747D01*
X38422322Y-108467319D02*
X38422322Y-107467319D01*
X38422322Y-107467319D02*
X38803274Y-107467319D01*
X38803274Y-107467319D02*
X38898512Y-107514938D01*
X38898512Y-107514938D02*
X38946131Y-107562557D01*
X38946131Y-107562557D02*
X38993750Y-107657795D01*
X38993750Y-107657795D02*
X38993750Y-107800652D01*
X38993750Y-107800652D02*
X38946131Y-107895890D01*
X38946131Y-107895890D02*
X38898512Y-107943509D01*
X38898512Y-107943509D02*
X38803274Y-107991128D01*
X38803274Y-107991128D02*
X38422322Y-107991128D01*
X39422322Y-108467319D02*
X39422322Y-107467319D01*
X40088988Y-107467319D02*
X40279464Y-107467319D01*
X40279464Y-107467319D02*
X40374702Y-107514938D01*
X40374702Y-107514938D02*
X40469940Y-107610176D01*
X40469940Y-107610176D02*
X40517559Y-107800652D01*
X40517559Y-107800652D02*
X40517559Y-108133985D01*
X40517559Y-108133985D02*
X40469940Y-108324461D01*
X40469940Y-108324461D02*
X40374702Y-108419700D01*
X40374702Y-108419700D02*
X40279464Y-108467319D01*
X40279464Y-108467319D02*
X40088988Y-108467319D01*
X40088988Y-108467319D02*
X39993750Y-108419700D01*
X39993750Y-108419700D02*
X39898512Y-108324461D01*
X39898512Y-108324461D02*
X39850893Y-108133985D01*
X39850893Y-108133985D02*
X39850893Y-107800652D01*
X39850893Y-107800652D02*
X39898512Y-107610176D01*
X39898512Y-107610176D02*
X39993750Y-107514938D01*
X39993750Y-107514938D02*
X40088988Y-107467319D01*
X41469940Y-108467319D02*
X40898512Y-108467319D01*
X41184226Y-108467319D02*
X41184226Y-107467319D01*
X41184226Y-107467319D02*
X41088988Y-107610176D01*
X41088988Y-107610176D02*
X40993750Y-107705414D01*
X40993750Y-107705414D02*
X40898512Y-107753033D01*
X103378095Y-26447319D02*
X103378095Y-27256842D01*
X103378095Y-27256842D02*
X103425714Y-27352080D01*
X103425714Y-27352080D02*
X103473333Y-27399700D01*
X103473333Y-27399700D02*
X103568571Y-27447319D01*
X103568571Y-27447319D02*
X103759047Y-27447319D01*
X103759047Y-27447319D02*
X103854285Y-27399700D01*
X103854285Y-27399700D02*
X103901904Y-27352080D01*
X103901904Y-27352080D02*
X103949523Y-27256842D01*
X103949523Y-27256842D02*
X103949523Y-26447319D01*
X104949523Y-27447319D02*
X104378095Y-27447319D01*
X104663809Y-27447319D02*
X104663809Y-26447319D01*
X104663809Y-26447319D02*
X104568571Y-26590176D01*
X104568571Y-26590176D02*
X104473333Y-26685414D01*
X104473333Y-26685414D02*
X104378095Y-26733033D01*
D15*
%TO.C,C1*%
X81973750Y-98642500D02*
X84713750Y-98642500D01*
X81973750Y-103882500D02*
X81973750Y-98642500D01*
X81973750Y-103882500D02*
X84713750Y-103882500D01*
X84713750Y-103882500D02*
X84713750Y-98642500D01*
D16*
%TO.C,G\u002A\u002A\u002A*%
G36*
X56854160Y-29177618D02*
G01*
X56854160Y-31630601D01*
X54401177Y-31630601D01*
X51948195Y-31630601D01*
X51948195Y-29177618D01*
X51948195Y-26724635D01*
X54401177Y-26724635D01*
X56854160Y-26724635D01*
X56854160Y-29177618D01*
G37*
G36*
X59449671Y-29175118D02*
G01*
X59449671Y-34226112D01*
X54401177Y-34226112D01*
X49352684Y-34226112D01*
X49352684Y-31915657D01*
X51663138Y-31915657D01*
X54403678Y-31915657D01*
X57144217Y-31915657D01*
X57144217Y-29175118D01*
X57144217Y-26434578D01*
X54403678Y-26434578D01*
X51663138Y-26434578D01*
X51663138Y-29175118D01*
X51663138Y-31915657D01*
X49352684Y-31915657D01*
X49352684Y-29175118D01*
X49352684Y-24124123D01*
X54401177Y-24124123D01*
X59449671Y-24124123D01*
X59449671Y-29175118D01*
G37*
G36*
X63377772Y-17982988D02*
G01*
X63431098Y-17998809D01*
X63480854Y-18022848D01*
X63526099Y-18054520D01*
X63565894Y-18093239D01*
X63599297Y-18138421D01*
X63625369Y-18189479D01*
X63632152Y-18207370D01*
X63643916Y-18252767D01*
X63649859Y-18302532D01*
X63649758Y-18352741D01*
X63643385Y-18399470D01*
X63643225Y-18400193D01*
X63626745Y-18452222D01*
X63601592Y-18501654D01*
X63568951Y-18546928D01*
X63530010Y-18586481D01*
X63485953Y-18618751D01*
X63470670Y-18627443D01*
X63436417Y-18643821D01*
X63404063Y-18654985D01*
X63370075Y-18661820D01*
X63330922Y-18665209D01*
X63317933Y-18665678D01*
X63293240Y-18666130D01*
X63271198Y-18666128D01*
X63254312Y-18665697D01*
X63245418Y-18664931D01*
X63194610Y-18650986D01*
X63145354Y-18629417D01*
X63099828Y-18601494D01*
X63060209Y-18568485D01*
X63037912Y-18543979D01*
X63005227Y-18496457D01*
X62981771Y-18446567D01*
X62967231Y-18393327D01*
X62961293Y-18335751D01*
X62961501Y-18303785D01*
X62966972Y-18249206D01*
X62979249Y-18200741D01*
X62999138Y-18156551D01*
X63027448Y-18114797D01*
X63060510Y-18078061D01*
X63103215Y-18040691D01*
X63148005Y-18012484D01*
X63196577Y-17992609D01*
X63250631Y-17980234D01*
X63264172Y-17978342D01*
X63321817Y-17975971D01*
X63377772Y-17982988D01*
G37*
G36*
X66920211Y-25533357D02*
G01*
X66986271Y-25550787D01*
X67051433Y-25577568D01*
X67067731Y-25585892D01*
X67126954Y-25622826D01*
X67179543Y-25666620D01*
X67225210Y-25716404D01*
X67263668Y-25771311D01*
X67294631Y-25830470D01*
X67317811Y-25893012D01*
X67332921Y-25958067D01*
X67339675Y-26024765D01*
X67337784Y-26092239D01*
X67326962Y-26159617D01*
X67306922Y-26226031D01*
X67291321Y-26263002D01*
X67270384Y-26303945D01*
X67247836Y-26339666D01*
X67221168Y-26373793D01*
X67194680Y-26402914D01*
X67142534Y-26450569D01*
X67085195Y-26490252D01*
X67023702Y-26521309D01*
X66982861Y-26536289D01*
X66913919Y-26553311D01*
X66844340Y-26560875D01*
X66772394Y-26559163D01*
X66768612Y-26558829D01*
X66699967Y-26547756D01*
X66634881Y-26527840D01*
X66573920Y-26499784D01*
X66517653Y-26464287D01*
X66466646Y-26422053D01*
X66421468Y-26373782D01*
X66382685Y-26320176D01*
X66350866Y-26261937D01*
X66326577Y-26199766D01*
X66310386Y-26134365D01*
X66302861Y-26066436D01*
X66304570Y-25996679D01*
X66305619Y-25986439D01*
X66318165Y-25916564D01*
X66339127Y-25851146D01*
X66367787Y-25790561D01*
X66403431Y-25735185D01*
X66445340Y-25685395D01*
X66492799Y-25641567D01*
X66545091Y-25604078D01*
X66601499Y-25573306D01*
X66661307Y-25549625D01*
X66723799Y-25533413D01*
X66788258Y-25525047D01*
X66853967Y-25524903D01*
X66920211Y-25533357D01*
G37*
G36*
X45952474Y-35375346D02*
G01*
X46005081Y-35387252D01*
X46053512Y-35407690D01*
X46098954Y-35437146D01*
X46137687Y-35471187D01*
X46158228Y-35492184D01*
X46173395Y-35509788D01*
X46185440Y-35527076D01*
X46196613Y-35547127D01*
X46203649Y-35561375D01*
X46224614Y-35613684D01*
X46237598Y-35665998D01*
X46242071Y-35716182D01*
X46242071Y-35716405D01*
X46237638Y-35766575D01*
X46224692Y-35818884D01*
X46203763Y-35871198D01*
X46203649Y-35871436D01*
X46175967Y-35917971D01*
X46140407Y-35959995D01*
X46098475Y-35996295D01*
X46051680Y-36025658D01*
X46001528Y-36046871D01*
X45977019Y-36053729D01*
X45949849Y-36058068D01*
X45916653Y-36060368D01*
X45881084Y-36060637D01*
X45846798Y-36058881D01*
X45817451Y-36055106D01*
X45809486Y-36053422D01*
X45759104Y-36036357D01*
X45711066Y-36010536D01*
X45666845Y-35977167D01*
X45627916Y-35937457D01*
X45595751Y-35892614D01*
X45581746Y-35866757D01*
X45568143Y-35836049D01*
X45558865Y-35807968D01*
X45553211Y-35779202D01*
X45550480Y-35746439D01*
X45549928Y-35716405D01*
X45550886Y-35678308D01*
X45554227Y-35646758D01*
X45560653Y-35618443D01*
X45570864Y-35590051D01*
X45581746Y-35566054D01*
X45609999Y-35518375D01*
X45645827Y-35475477D01*
X45687828Y-35438497D01*
X45734604Y-35408571D01*
X45784755Y-35386836D01*
X45811987Y-35379082D01*
X45832025Y-35375660D01*
X45857648Y-35373038D01*
X45884446Y-35371623D01*
X45894503Y-35371485D01*
X45952474Y-35375346D01*
G37*
G36*
X42970745Y-32984005D02*
G01*
X42997026Y-32984378D01*
X43017223Y-32985223D01*
X43033295Y-32986724D01*
X43047201Y-32989065D01*
X43060899Y-32992428D01*
X43076348Y-32996997D01*
X43076448Y-32997028D01*
X43147386Y-33023683D01*
X43211818Y-33057853D01*
X43269615Y-33099433D01*
X43320642Y-33148316D01*
X43364768Y-33204397D01*
X43393147Y-33250920D01*
X43421962Y-33314083D01*
X43441749Y-33380334D01*
X43452548Y-33448544D01*
X43454401Y-33517586D01*
X43447348Y-33586330D01*
X43431431Y-33653648D01*
X43406691Y-33718413D01*
X43373954Y-33778270D01*
X43332265Y-33834316D01*
X43283290Y-33884121D01*
X43228060Y-33927002D01*
X43167608Y-33962271D01*
X43102963Y-33989245D01*
X43035158Y-34007238D01*
X43027034Y-34008730D01*
X42990669Y-34013189D01*
X42949085Y-34015216D01*
X42906336Y-34014813D01*
X42866476Y-34011981D01*
X42843073Y-34008666D01*
X42775580Y-33991433D01*
X42710961Y-33965118D01*
X42650284Y-33930464D01*
X42594614Y-33888215D01*
X42545019Y-33839116D01*
X42502564Y-33783910D01*
X42488314Y-33761126D01*
X42457064Y-33698462D01*
X42434938Y-33633116D01*
X42421802Y-33566054D01*
X42417524Y-33498243D01*
X42421972Y-33430648D01*
X42435013Y-33364236D01*
X42456515Y-33299973D01*
X42486345Y-33238825D01*
X42524370Y-33181759D01*
X42570458Y-33129741D01*
X42575588Y-33124775D01*
X42624530Y-33082669D01*
X42675488Y-33048438D01*
X42730874Y-33020683D01*
X42793099Y-32998003D01*
X42794972Y-32997425D01*
X42810853Y-32992719D01*
X42824751Y-32989252D01*
X42838640Y-32986837D01*
X42854491Y-32985285D01*
X42874278Y-32984407D01*
X42899975Y-32984015D01*
X42933552Y-32983922D01*
X42936421Y-32983921D01*
X42970745Y-32984005D01*
G37*
G36*
X57506808Y-16017417D02*
G01*
X57572619Y-16055407D01*
X57636008Y-16091976D01*
X57696437Y-16126815D01*
X57753370Y-16159617D01*
X57806270Y-16190072D01*
X57854600Y-16217872D01*
X57897823Y-16242709D01*
X57935404Y-16264274D01*
X57966803Y-16282258D01*
X57991486Y-16296353D01*
X58008915Y-16306250D01*
X58018553Y-16311641D01*
X58020380Y-16312586D01*
X58024257Y-16308908D01*
X58032938Y-16298935D01*
X58045075Y-16284258D01*
X58057189Y-16269162D01*
X58081165Y-16240590D01*
X58110841Y-16207841D01*
X58144137Y-16173021D01*
X58178969Y-16138236D01*
X58213257Y-16105590D01*
X58244919Y-16077191D01*
X58257472Y-16066590D01*
X58355105Y-15992412D01*
X58457226Y-15927006D01*
X58563351Y-15870495D01*
X58672995Y-15823002D01*
X58785674Y-15784649D01*
X58900906Y-15755559D01*
X59018205Y-15735855D01*
X59137088Y-15725660D01*
X59257071Y-15725097D01*
X59377669Y-15734288D01*
X59494680Y-15752620D01*
X59612264Y-15780781D01*
X59726288Y-15818154D01*
X59836323Y-15864453D01*
X59941941Y-15919389D01*
X60042711Y-15982677D01*
X60138206Y-16054028D01*
X60227997Y-16133156D01*
X60311654Y-16219774D01*
X60388748Y-16313595D01*
X60439721Y-16385100D01*
X60501890Y-16486729D01*
X60555459Y-16593222D01*
X60600224Y-16704011D01*
X60635982Y-16818529D01*
X60662532Y-16936208D01*
X60679669Y-17056480D01*
X60679796Y-17057732D01*
X60682252Y-17090487D01*
X60683918Y-17130515D01*
X60684795Y-17175120D01*
X60684885Y-17221605D01*
X60684190Y-17267274D01*
X60682709Y-17309429D01*
X60680445Y-17345373D01*
X60679655Y-17354122D01*
X60665686Y-17455843D01*
X60643897Y-17559547D01*
X60615074Y-17662119D01*
X60580001Y-17760443D01*
X60572834Y-17778055D01*
X60574230Y-17779910D01*
X60579318Y-17783823D01*
X60588353Y-17789943D01*
X60601591Y-17798420D01*
X60619286Y-17809404D01*
X60641696Y-17823045D01*
X60669075Y-17839492D01*
X60701678Y-17858895D01*
X60739762Y-17881404D01*
X60783583Y-17907169D01*
X60833394Y-17936340D01*
X60889453Y-17969066D01*
X60952015Y-18005497D01*
X61021335Y-18045784D01*
X61097668Y-18090075D01*
X61181271Y-18138520D01*
X61272399Y-18191271D01*
X61371308Y-18248475D01*
X61478253Y-18310283D01*
X61593489Y-18376846D01*
X61654250Y-18411930D01*
X62738858Y-19038122D01*
X63639743Y-19038122D01*
X64540627Y-19038122D01*
X64541901Y-19559007D01*
X64543174Y-20079892D01*
X65048190Y-20371418D01*
X65113601Y-20409205D01*
X65176566Y-20445633D01*
X65236546Y-20480388D01*
X65293001Y-20513155D01*
X65345393Y-20543619D01*
X65393182Y-20571465D01*
X65435829Y-20596379D01*
X65472795Y-20618045D01*
X65503541Y-20636150D01*
X65527527Y-20650377D01*
X65544215Y-20660413D01*
X65553064Y-20665943D01*
X65554394Y-20666944D01*
X65550303Y-20669907D01*
X65538074Y-20677540D01*
X65518242Y-20689529D01*
X65491343Y-20705559D01*
X65457911Y-20725319D01*
X65418481Y-20748493D01*
X65373589Y-20774770D01*
X65323769Y-20803835D01*
X65269556Y-20835375D01*
X65211485Y-20869077D01*
X65150092Y-20904628D01*
X65085912Y-20941713D01*
X65048142Y-20963501D01*
X64540702Y-21256059D01*
X64540688Y-22202790D01*
X64540706Y-22299276D01*
X64540762Y-22393031D01*
X64540853Y-22483571D01*
X64540979Y-22570410D01*
X64541136Y-22653064D01*
X64541323Y-22731048D01*
X64541539Y-22803876D01*
X64541781Y-22871064D01*
X64542047Y-22932125D01*
X64542335Y-22986576D01*
X64542644Y-23033931D01*
X64542971Y-23073704D01*
X64543315Y-23105412D01*
X64543674Y-23128568D01*
X64544045Y-23142688D01*
X64544424Y-23147290D01*
X64554052Y-23141639D01*
X64571765Y-23131331D01*
X64597210Y-23116568D01*
X64630032Y-23097555D01*
X64669880Y-23074496D01*
X64716397Y-23047594D01*
X64769232Y-23017054D01*
X64828029Y-22983080D01*
X64892436Y-22945876D01*
X64962098Y-22905645D01*
X65036662Y-22862592D01*
X65115774Y-22816921D01*
X65199080Y-22768835D01*
X65286226Y-22718539D01*
X65376860Y-22666236D01*
X65470626Y-22612131D01*
X65567171Y-22556428D01*
X65666142Y-22499330D01*
X65767184Y-22441042D01*
X65869945Y-22381768D01*
X65974069Y-22321711D01*
X66079204Y-22261075D01*
X66184996Y-22200065D01*
X66291090Y-22138885D01*
X66397134Y-22077738D01*
X66502773Y-22016828D01*
X66607653Y-21956361D01*
X66711422Y-21896538D01*
X66813724Y-21837565D01*
X66914207Y-21779646D01*
X67012516Y-21722984D01*
X67108299Y-21667783D01*
X67201200Y-21614248D01*
X67290866Y-21562582D01*
X67376944Y-21512990D01*
X67459080Y-21465675D01*
X67536920Y-21420841D01*
X67610110Y-21378693D01*
X67678297Y-21339434D01*
X67741126Y-21303268D01*
X67798245Y-21270400D01*
X67849298Y-21241033D01*
X67893933Y-21215371D01*
X67931796Y-21193619D01*
X67962533Y-21175980D01*
X67985790Y-21162658D01*
X68001213Y-21153858D01*
X68008449Y-21149782D01*
X68008982Y-21149510D01*
X68012647Y-21154972D01*
X68020304Y-21167620D01*
X68031210Y-21186144D01*
X68044618Y-21209234D01*
X68059786Y-21235582D01*
X68075968Y-21263877D01*
X68092421Y-21292809D01*
X68108398Y-21321070D01*
X68123157Y-21347350D01*
X68135953Y-21370339D01*
X68146040Y-21388727D01*
X68152675Y-21401205D01*
X68155114Y-21406464D01*
X68155099Y-21406541D01*
X68150665Y-21409163D01*
X68137853Y-21416622D01*
X68116948Y-21428751D01*
X68088235Y-21445387D01*
X68051998Y-21466365D01*
X68008521Y-21491520D01*
X67958091Y-21520688D01*
X67900991Y-21553705D01*
X67837506Y-21590405D01*
X67767922Y-21630625D01*
X67692521Y-21674200D01*
X67611591Y-21720965D01*
X67525414Y-21770755D01*
X67434276Y-21823408D01*
X67338461Y-21878757D01*
X67238255Y-21936638D01*
X67133942Y-21996887D01*
X67025806Y-22059339D01*
X66914132Y-22123830D01*
X66799206Y-22190195D01*
X66681311Y-22258270D01*
X66560733Y-22327891D01*
X66437756Y-22398892D01*
X66350557Y-22449234D01*
X66226055Y-22521113D01*
X66103747Y-22591734D01*
X65983916Y-22660930D01*
X65866848Y-22728537D01*
X65752828Y-22794391D01*
X65642142Y-22858327D01*
X65535074Y-22920179D01*
X65431909Y-22979783D01*
X65332932Y-23036974D01*
X65238429Y-23091588D01*
X65148685Y-23143459D01*
X65063984Y-23192423D01*
X64984612Y-23238315D01*
X64910853Y-23280970D01*
X64842994Y-23320223D01*
X64781318Y-23355910D01*
X64726111Y-23387866D01*
X64677658Y-23415925D01*
X64636244Y-23439924D01*
X64602154Y-23459697D01*
X64575673Y-23475080D01*
X64557087Y-23485908D01*
X64546680Y-23492015D01*
X64544415Y-23493393D01*
X64544097Y-23498639D01*
X64543796Y-23513478D01*
X64543512Y-23537500D01*
X64543245Y-23570295D01*
X64542998Y-23611453D01*
X64542769Y-23660565D01*
X64542561Y-23717221D01*
X64542374Y-23781012D01*
X64542208Y-23851528D01*
X64542065Y-23928359D01*
X64541944Y-24011095D01*
X64541848Y-24099328D01*
X64541777Y-24192647D01*
X64541731Y-24290643D01*
X64541711Y-24392906D01*
X64541718Y-24499026D01*
X64541753Y-24608595D01*
X64541816Y-24721201D01*
X64541909Y-24836437D01*
X64541915Y-24842685D01*
X64543174Y-26188351D01*
X65023268Y-25911083D01*
X65087584Y-25873940D01*
X65149840Y-25837988D01*
X65209444Y-25803569D01*
X65265804Y-25771025D01*
X65318329Y-25740697D01*
X65366428Y-25712926D01*
X65409509Y-25688055D01*
X65446980Y-25666424D01*
X65478251Y-25648375D01*
X65502729Y-25634250D01*
X65519823Y-25624390D01*
X65528942Y-25619136D01*
X65529618Y-25618748D01*
X65555873Y-25603681D01*
X65555727Y-28078285D01*
X65555580Y-30552889D01*
X65048128Y-30845446D01*
X64540676Y-31138004D01*
X64540675Y-35225059D01*
X64540673Y-39312113D01*
X56301552Y-39312113D01*
X55954497Y-39312113D01*
X55617302Y-39312114D01*
X55289826Y-39312116D01*
X54971928Y-39312119D01*
X54663464Y-39312123D01*
X54364294Y-39312129D01*
X54074275Y-39312136D01*
X53793267Y-39312144D01*
X53521127Y-39312154D01*
X53257714Y-39312166D01*
X53002886Y-39312181D01*
X52756502Y-39312197D01*
X52518419Y-39312216D01*
X52288496Y-39312237D01*
X52066592Y-39312261D01*
X51852564Y-39312288D01*
X51646271Y-39312318D01*
X51447571Y-39312351D01*
X51256323Y-39312387D01*
X51072385Y-39312427D01*
X50895615Y-39312470D01*
X50725872Y-39312517D01*
X50563013Y-39312568D01*
X50406898Y-39312622D01*
X50257384Y-39312681D01*
X50114330Y-39312745D01*
X49977594Y-39312813D01*
X49847034Y-39312885D01*
X49722509Y-39312962D01*
X49603877Y-39313044D01*
X49490996Y-39313132D01*
X49383725Y-39313224D01*
X49281922Y-39313322D01*
X49185445Y-39313425D01*
X49094152Y-39313534D01*
X49007903Y-39313649D01*
X48926555Y-39313770D01*
X48849966Y-39313897D01*
X48777995Y-39314030D01*
X48710500Y-39314170D01*
X48647340Y-39314316D01*
X48588372Y-39314469D01*
X48533455Y-39314629D01*
X48482448Y-39314796D01*
X48435208Y-39314970D01*
X48391595Y-39315152D01*
X48351466Y-39315341D01*
X48314679Y-39315537D01*
X48281093Y-39315742D01*
X48250567Y-39315954D01*
X48222958Y-39316175D01*
X48198125Y-39316403D01*
X48175926Y-39316640D01*
X48156219Y-39316886D01*
X48138864Y-39317140D01*
X48123717Y-39317403D01*
X48110638Y-39317675D01*
X48099485Y-39317957D01*
X48090116Y-39318247D01*
X48082389Y-39318547D01*
X48076162Y-39318857D01*
X48071295Y-39319176D01*
X48067645Y-39319505D01*
X48065071Y-39319845D01*
X48063430Y-39320194D01*
X48062582Y-39320554D01*
X48062378Y-39320865D01*
X48061483Y-39343042D01*
X48059164Y-39373099D01*
X48055658Y-39409053D01*
X48051201Y-39448922D01*
X48046031Y-39490722D01*
X48040385Y-39532471D01*
X48034499Y-39572186D01*
X48028610Y-39607883D01*
X48027020Y-39616745D01*
X47996095Y-39758003D01*
X47955789Y-39896435D01*
X47906434Y-40031608D01*
X47848360Y-40163092D01*
X47781898Y-40290455D01*
X47707379Y-40413265D01*
X47625132Y-40531090D01*
X47535489Y-40643500D01*
X47438781Y-40750061D01*
X47335337Y-40850344D01*
X47225490Y-40943916D01*
X47109569Y-41030346D01*
X46987906Y-41109201D01*
X46860830Y-41180051D01*
X46809705Y-41205502D01*
X46675022Y-41265232D01*
X46539069Y-41315258D01*
X46401173Y-41355751D01*
X46260661Y-41386883D01*
X46116858Y-41408825D01*
X45969092Y-41421748D01*
X45957015Y-41422401D01*
X45918537Y-41424310D01*
X45886804Y-41425626D01*
X45859256Y-41426346D01*
X45833331Y-41426465D01*
X45806470Y-41425979D01*
X45776110Y-41424884D01*
X45739690Y-41423176D01*
X45716968Y-41422016D01*
X45574006Y-41409662D01*
X45431432Y-41387590D01*
X45290099Y-41356070D01*
X45150861Y-41315377D01*
X45014571Y-41265781D01*
X44882084Y-41207555D01*
X44754254Y-41140972D01*
X44661760Y-41085592D01*
X44538242Y-41001441D01*
X44421401Y-40910114D01*
X44311487Y-40811984D01*
X44208749Y-40707423D01*
X44113440Y-40596802D01*
X44025808Y-40480495D01*
X43946104Y-40358872D01*
X43874578Y-40232306D01*
X43811481Y-40101170D01*
X43757063Y-39965834D01*
X43711574Y-39826672D01*
X43675264Y-39684054D01*
X43657139Y-39592168D01*
X43636921Y-39448445D01*
X43626149Y-39302437D01*
X43624821Y-39155135D01*
X43632934Y-39007530D01*
X43650483Y-38860614D01*
X43659735Y-38804562D01*
X43689679Y-38664507D01*
X43729217Y-38526158D01*
X43777988Y-38390228D01*
X43804385Y-38329420D01*
X45210249Y-38329420D01*
X45210585Y-38357873D01*
X45211880Y-38379545D01*
X45214545Y-38397640D01*
X45218993Y-38415365D01*
X45222892Y-38427772D01*
X45243141Y-38478210D01*
X45269023Y-38522267D01*
X45302282Y-38562772D01*
X45312123Y-38572844D01*
X45334522Y-38593890D01*
X45354820Y-38609774D01*
X45376956Y-38623306D01*
X45397615Y-38633834D01*
X45422042Y-38644672D01*
X45447869Y-38654576D01*
X45470938Y-38662005D01*
X45479421Y-38664153D01*
X45511443Y-38668676D01*
X45548573Y-38669939D01*
X45586879Y-38668091D01*
X45622429Y-38663283D01*
X45644870Y-38657840D01*
X45697970Y-38636337D01*
X45746690Y-38606601D01*
X45790019Y-38569658D01*
X45826945Y-38526533D01*
X45856458Y-38478251D01*
X45877544Y-38425839D01*
X45879206Y-38420216D01*
X45889852Y-38365566D01*
X45891057Y-38311075D01*
X45883349Y-38257704D01*
X45867260Y-38206413D01*
X45843316Y-38158163D01*
X45812047Y-38113914D01*
X45773983Y-38074625D01*
X45729652Y-38041257D01*
X45679584Y-38014770D01*
X45649560Y-38003408D01*
X45629819Y-37997424D01*
X45612184Y-37993547D01*
X45593389Y-37991348D01*
X45570168Y-37990398D01*
X45549435Y-37990245D01*
X45521187Y-37990573D01*
X45499670Y-37991841D01*
X45481628Y-37994480D01*
X45463803Y-37998919D01*
X45449415Y-38003424D01*
X45397293Y-38024866D01*
X45351163Y-38053316D01*
X45309464Y-38089449D01*
X45272756Y-38131928D01*
X45244443Y-38178145D01*
X45223439Y-38229400D01*
X45217452Y-38249070D01*
X45213571Y-38266640D01*
X45211366Y-38285367D01*
X45210408Y-38308509D01*
X45210249Y-38329420D01*
X43804385Y-38329420D01*
X43835635Y-38257431D01*
X43901796Y-38128481D01*
X43976113Y-38004093D01*
X44058227Y-37884981D01*
X44147778Y-37771858D01*
X44220423Y-37690507D01*
X44261682Y-37646654D01*
X44261682Y-37390257D01*
X44561741Y-37390257D01*
X44628004Y-37346721D01*
X44752655Y-37270696D01*
X44881990Y-37203194D01*
X45015369Y-37144420D01*
X45152150Y-37094579D01*
X45291693Y-37053875D01*
X45433358Y-37022514D01*
X45576503Y-37000701D01*
X45720488Y-36988639D01*
X45751975Y-36987323D01*
X45814855Y-36986058D01*
X45880641Y-36986346D01*
X45946567Y-36988093D01*
X46009867Y-36991206D01*
X46067775Y-36995592D01*
X46100923Y-36999048D01*
X46124888Y-37002149D01*
X46153521Y-37006273D01*
X46185053Y-37011121D01*
X46217721Y-37016394D01*
X46249759Y-37021793D01*
X46279401Y-37027019D01*
X46304881Y-37031772D01*
X46324434Y-37035753D01*
X46336294Y-37038664D01*
X46337843Y-37039187D01*
X46341350Y-37038232D01*
X46345018Y-37031833D01*
X46349260Y-37018794D01*
X46354491Y-36997918D01*
X46358889Y-36978332D01*
X46385375Y-36878951D01*
X46420313Y-36784852D01*
X46463857Y-36695750D01*
X46516165Y-36611361D01*
X46577391Y-36531400D01*
X46641903Y-36461331D01*
X46693765Y-36412213D01*
X46744596Y-36369947D01*
X46797308Y-36332195D01*
X46823584Y-36315330D01*
X46912021Y-36266103D01*
X47003288Y-36226168D01*
X47096756Y-36195453D01*
X47191791Y-36173885D01*
X47287762Y-36161392D01*
X47384038Y-36157901D01*
X47479987Y-36163341D01*
X47574978Y-36177639D01*
X47668379Y-36200723D01*
X47759558Y-36232519D01*
X47847883Y-36272957D01*
X47932724Y-36321964D01*
X48013449Y-36379466D01*
X48089426Y-36445393D01*
X48106707Y-36462284D01*
X48175113Y-36537594D01*
X48235187Y-36618105D01*
X48286753Y-36703228D01*
X48329635Y-36792373D01*
X48363655Y-36884951D01*
X48388638Y-36980372D01*
X48404408Y-37078048D01*
X48410788Y-37177389D01*
X48407601Y-37277805D01*
X48394672Y-37378708D01*
X48389328Y-37406738D01*
X48364484Y-37503529D01*
X48330285Y-37597153D01*
X48287032Y-37687054D01*
X48235029Y-37772674D01*
X48174574Y-37853456D01*
X48108178Y-37926631D01*
X48051811Y-37979198D01*
X47991337Y-38028163D01*
X47928934Y-38071952D01*
X47866779Y-38108991D01*
X47830195Y-38127468D01*
X47814322Y-38135427D01*
X47803005Y-38142124D01*
X47798388Y-38146271D01*
X47798403Y-38146589D01*
X47801009Y-38152035D01*
X47807306Y-38164904D01*
X47816541Y-38183661D01*
X47827957Y-38206772D01*
X47838111Y-38227279D01*
X47898644Y-38360626D01*
X47949874Y-38497645D01*
X47991798Y-38638324D01*
X48024413Y-38782655D01*
X48047716Y-38930628D01*
X48047854Y-38931737D01*
X48051147Y-38958544D01*
X48053952Y-38981843D01*
X48056054Y-38999830D01*
X48057242Y-39010701D01*
X48057429Y-39013003D01*
X48062385Y-39013231D01*
X48077076Y-39013455D01*
X48101234Y-39013676D01*
X48134592Y-39013892D01*
X48176882Y-39014103D01*
X48227836Y-39014309D01*
X48287188Y-39014510D01*
X48354670Y-39014706D01*
X48430014Y-39014895D01*
X48512954Y-39015078D01*
X48603221Y-39015254D01*
X48700548Y-39015423D01*
X48804667Y-39015585D01*
X48915312Y-39015739D01*
X49032215Y-39015886D01*
X49155108Y-39016023D01*
X49283724Y-39016153D01*
X49417796Y-39016273D01*
X49557055Y-39016383D01*
X49701235Y-39016485D01*
X49850069Y-39016576D01*
X50003288Y-39016656D01*
X50160625Y-39016726D01*
X50321813Y-39016785D01*
X50486585Y-39016833D01*
X50654672Y-39016869D01*
X50825808Y-39016893D01*
X50999725Y-39016905D01*
X51176156Y-39016904D01*
X51191796Y-39016903D01*
X51417089Y-39016887D01*
X51632540Y-39016863D01*
X51838307Y-39016829D01*
X52034550Y-39016785D01*
X52221429Y-39016731D01*
X52399102Y-39016667D01*
X52567729Y-39016593D01*
X52727470Y-39016507D01*
X52878483Y-39016411D01*
X53020928Y-39016303D01*
X53154964Y-39016183D01*
X53280750Y-39016052D01*
X53398447Y-39015907D01*
X53508212Y-39015751D01*
X53610206Y-39015581D01*
X53704588Y-39015398D01*
X53791517Y-39015202D01*
X53871152Y-39014992D01*
X53943653Y-39014767D01*
X54009179Y-39014528D01*
X54067889Y-39014275D01*
X54119943Y-39014006D01*
X54165500Y-39013722D01*
X54204720Y-39013423D01*
X54237761Y-39013108D01*
X54264783Y-39012776D01*
X54285945Y-39012428D01*
X54301407Y-39012063D01*
X54311327Y-39011681D01*
X54315866Y-39011282D01*
X54316161Y-39011072D01*
X54311630Y-39008466D01*
X54495254Y-39008466D01*
X54495599Y-39008941D01*
X54496735Y-39009399D01*
X54498845Y-39009838D01*
X54502113Y-39010260D01*
X54506724Y-39010665D01*
X54512862Y-39011053D01*
X54520710Y-39011425D01*
X54530453Y-39011780D01*
X54542274Y-39012120D01*
X54556359Y-39012444D01*
X54572891Y-39012754D01*
X54592055Y-39013049D01*
X54614034Y-39013329D01*
X54639012Y-39013596D01*
X54667174Y-39013849D01*
X54698703Y-39014089D01*
X54733785Y-39014316D01*
X54772602Y-39014531D01*
X54815340Y-39014733D01*
X54862182Y-39014924D01*
X54913312Y-39015103D01*
X54968914Y-39015272D01*
X55029173Y-39015429D01*
X55094273Y-39015577D01*
X55164397Y-39015714D01*
X55239731Y-39015842D01*
X55320457Y-39015960D01*
X55406761Y-39016070D01*
X55498826Y-39016171D01*
X55596836Y-39016264D01*
X55700975Y-39016349D01*
X55811428Y-39016427D01*
X55928379Y-39016498D01*
X56052012Y-39016562D01*
X56182511Y-39016620D01*
X56320060Y-39016671D01*
X56464843Y-39016717D01*
X56617044Y-39016758D01*
X56776847Y-39016794D01*
X56944437Y-39016825D01*
X57119998Y-39016852D01*
X57303714Y-39016875D01*
X57495768Y-39016895D01*
X57696345Y-39016911D01*
X57905630Y-39016925D01*
X58123806Y-39016937D01*
X58351057Y-39016946D01*
X58587567Y-39016954D01*
X58833521Y-39016960D01*
X59089103Y-39016966D01*
X59354496Y-39016971D01*
X59363404Y-39016971D01*
X64245615Y-39017055D01*
X64245615Y-35163380D01*
X64245610Y-34967399D01*
X64245594Y-34773887D01*
X64245567Y-34583083D01*
X64245530Y-34395229D01*
X64245483Y-34210566D01*
X64245427Y-34029336D01*
X64245361Y-33851778D01*
X64245286Y-33678135D01*
X64245202Y-33508646D01*
X64245109Y-33343554D01*
X64245008Y-33183099D01*
X64244899Y-33027523D01*
X64244783Y-32877066D01*
X64244658Y-32731970D01*
X64244526Y-32592475D01*
X64244388Y-32458822D01*
X64244242Y-32331253D01*
X64244090Y-32210009D01*
X64243932Y-32095331D01*
X64243768Y-31987460D01*
X64243598Y-31886636D01*
X64243423Y-31793101D01*
X64243242Y-31707096D01*
X64243057Y-31628862D01*
X64242867Y-31558641D01*
X64242673Y-31496672D01*
X64242474Y-31443197D01*
X64242272Y-31398458D01*
X64242066Y-31362695D01*
X64241857Y-31336149D01*
X64241645Y-31319062D01*
X64241430Y-31311674D01*
X64241374Y-31311371D01*
X64236627Y-31314023D01*
X64223703Y-31321400D01*
X64203084Y-31333225D01*
X64175252Y-31349220D01*
X64140692Y-31369107D01*
X64099884Y-31392607D01*
X64053312Y-31419442D01*
X64001458Y-31449334D01*
X63944805Y-31482005D01*
X63883836Y-31517177D01*
X63819034Y-31554571D01*
X63750880Y-31593910D01*
X63679858Y-31634914D01*
X63606449Y-31677307D01*
X63601248Y-31680311D01*
X62965363Y-32047584D01*
X62965159Y-33083087D01*
X62964954Y-34118591D01*
X62521322Y-34374226D01*
X62486112Y-34394519D01*
X62443338Y-34419181D01*
X62393232Y-34448077D01*
X62336025Y-34481074D01*
X62271951Y-34518036D01*
X62201240Y-34558831D01*
X62124126Y-34603324D01*
X62040840Y-34651381D01*
X61951615Y-34702867D01*
X61856683Y-34757650D01*
X61756277Y-34815594D01*
X61650628Y-34876566D01*
X61539969Y-34940432D01*
X61424532Y-35007057D01*
X61304549Y-35076307D01*
X61180252Y-35148049D01*
X61051875Y-35222148D01*
X60919648Y-35298470D01*
X60783804Y-35376882D01*
X60644576Y-35457248D01*
X60502195Y-35539436D01*
X60356895Y-35623310D01*
X60208906Y-35708737D01*
X60058461Y-35795583D01*
X59905794Y-35883714D01*
X59751134Y-35972995D01*
X59594716Y-36063293D01*
X59436771Y-36154473D01*
X59277532Y-36246402D01*
X59117230Y-36338945D01*
X58956099Y-36431968D01*
X58794369Y-36525337D01*
X58632274Y-36618918D01*
X58470045Y-36712578D01*
X58307915Y-36806181D01*
X58146117Y-36899594D01*
X57984881Y-36992683D01*
X57824442Y-37085313D01*
X57665029Y-37177351D01*
X57506877Y-37268663D01*
X57350218Y-37359114D01*
X57195282Y-37448571D01*
X57042304Y-37536898D01*
X56891514Y-37623963D01*
X56743145Y-37709631D01*
X56597430Y-37793769D01*
X56454601Y-37876241D01*
X56314889Y-37956914D01*
X56178527Y-38035654D01*
X56045748Y-38112326D01*
X55916783Y-38186798D01*
X55791865Y-38258934D01*
X55671226Y-38328600D01*
X55555099Y-38395663D01*
X55443714Y-38459989D01*
X55337306Y-38521443D01*
X55236105Y-38579890D01*
X55140345Y-38635199D01*
X55050257Y-38687233D01*
X54966073Y-38735859D01*
X54888027Y-38780943D01*
X54816349Y-38822351D01*
X54751273Y-38859949D01*
X54693030Y-38893602D01*
X54641854Y-38923177D01*
X54597975Y-38948540D01*
X54561626Y-38969556D01*
X54533040Y-38986091D01*
X54512449Y-38998012D01*
X54500084Y-39005184D01*
X54496196Y-39007458D01*
X54495514Y-39007971D01*
X54495254Y-39008466D01*
X54311630Y-39008466D01*
X54310648Y-39007901D01*
X54296721Y-38999871D01*
X54274624Y-38987124D01*
X54244605Y-38969804D01*
X54206911Y-38948051D01*
X54161787Y-38922010D01*
X54109481Y-38891820D01*
X54050238Y-38857626D01*
X53984306Y-38819570D01*
X53911931Y-38777793D01*
X53833359Y-38732439D01*
X53748838Y-38683649D01*
X53658612Y-38631565D01*
X53562930Y-38576331D01*
X53462037Y-38518088D01*
X53356181Y-38456979D01*
X53245607Y-38393146D01*
X53130562Y-38326732D01*
X53011293Y-38257878D01*
X52888046Y-38186727D01*
X52761068Y-38113422D01*
X52630605Y-38038104D01*
X52496904Y-37960917D01*
X52360211Y-37882002D01*
X52220773Y-37801501D01*
X52078837Y-37719558D01*
X51934648Y-37636314D01*
X51788454Y-37551912D01*
X51640501Y-37466494D01*
X51491036Y-37380202D01*
X51340304Y-37293179D01*
X51188553Y-37205567D01*
X51036029Y-37117508D01*
X50882979Y-37029145D01*
X50729649Y-36940620D01*
X50576286Y-36852075D01*
X50423136Y-36763653D01*
X50270445Y-36675496D01*
X50118461Y-36587746D01*
X49967430Y-36500546D01*
X49853310Y-36434657D01*
X52777067Y-36434657D01*
X52778737Y-36501560D01*
X52789873Y-36570430D01*
X52809935Y-36636125D01*
X52838246Y-36697947D01*
X52874130Y-36755196D01*
X52916910Y-36807176D01*
X52965912Y-36853188D01*
X53020457Y-36892535D01*
X53079871Y-36924517D01*
X53143476Y-36948438D01*
X53210596Y-36963599D01*
X53228737Y-36966043D01*
X53255162Y-36968919D01*
X53275433Y-36970434D01*
X53293306Y-36970600D01*
X53312533Y-36969434D01*
X53336869Y-36966950D01*
X53340969Y-36966490D01*
X53412249Y-36953652D01*
X53479760Y-36931913D01*
X53542827Y-36901741D01*
X53600775Y-36863604D01*
X53652929Y-36817967D01*
X53698616Y-36765298D01*
X53737162Y-36706065D01*
X53748728Y-36684096D01*
X53775896Y-36618834D01*
X53793559Y-36552578D01*
X53802062Y-36486073D01*
X53801749Y-36420068D01*
X53792964Y-36355309D01*
X53776051Y-36292544D01*
X53751356Y-36232520D01*
X53719221Y-36175984D01*
X53679992Y-36123684D01*
X53634012Y-36076366D01*
X53581626Y-36034779D01*
X53523179Y-35999668D01*
X53459014Y-35971782D01*
X53414078Y-35957797D01*
X53373240Y-35949731D01*
X53326602Y-35945050D01*
X53277799Y-35943833D01*
X53230471Y-35946160D01*
X53188256Y-35952109D01*
X53184792Y-35952833D01*
X53117402Y-35972261D01*
X53054449Y-36000077D01*
X52996486Y-36035531D01*
X52944070Y-36077874D01*
X52897753Y-36126358D01*
X52858090Y-36180232D01*
X52825635Y-36238748D01*
X52800944Y-36301157D01*
X52784570Y-36366710D01*
X52777067Y-36434657D01*
X49853310Y-36434657D01*
X49817598Y-36414038D01*
X49669212Y-36328364D01*
X49522518Y-36243667D01*
X49377764Y-36160089D01*
X49235194Y-36077772D01*
X49095057Y-35996859D01*
X48957599Y-35917492D01*
X48823065Y-35839813D01*
X48691703Y-35763965D01*
X48609335Y-35716405D01*
X49991210Y-35716405D01*
X49993364Y-35759030D01*
X50000421Y-35797995D01*
X50013272Y-35836984D01*
X50028697Y-35871436D01*
X50053940Y-35913082D01*
X50086894Y-35952336D01*
X50125269Y-35986911D01*
X50166774Y-36014521D01*
X50177846Y-36020301D01*
X50200834Y-36030751D01*
X50224693Y-36040212D01*
X50245243Y-36047063D01*
X50250360Y-36048421D01*
X50284914Y-36053984D01*
X50324575Y-36055982D01*
X50365121Y-36054456D01*
X50402330Y-36049449D01*
X50414060Y-36046811D01*
X50469576Y-36027666D01*
X50519809Y-36000218D01*
X50564248Y-35964952D01*
X50602382Y-35922358D01*
X50633697Y-35872921D01*
X50657682Y-35817129D01*
X50658766Y-35813924D01*
X50664025Y-35796414D01*
X50667469Y-35779604D01*
X50669448Y-35760570D01*
X50670313Y-35736385D01*
X50670443Y-35716405D01*
X50670117Y-35687275D01*
X50668906Y-35665207D01*
X50666458Y-35647276D01*
X50662425Y-35630554D01*
X50658766Y-35618886D01*
X50635059Y-35562191D01*
X50604044Y-35512320D01*
X50565730Y-35469285D01*
X50520129Y-35433098D01*
X50481157Y-35410462D01*
X50435911Y-35392491D01*
X50385740Y-35381000D01*
X50333617Y-35376333D01*
X50282514Y-35378833D01*
X50252861Y-35384083D01*
X50203306Y-35400455D01*
X50155741Y-35425314D01*
X50111870Y-35457312D01*
X50073394Y-35495103D01*
X50042018Y-35537340D01*
X50028697Y-35561375D01*
X50010451Y-35603118D01*
X49998726Y-35641827D01*
X49992631Y-35681186D01*
X49991210Y-35716405D01*
X48609335Y-35716405D01*
X48563759Y-35690089D01*
X48439480Y-35618329D01*
X48319112Y-35548827D01*
X48202901Y-35481724D01*
X48102438Y-35423713D01*
X47967860Y-35346013D01*
X47835441Y-35269575D01*
X47705442Y-35194551D01*
X47578130Y-35121095D01*
X47453769Y-35049358D01*
X47332622Y-34979492D01*
X47214954Y-34911649D01*
X47101030Y-34845981D01*
X46991114Y-34782642D01*
X46885470Y-34721782D01*
X46784363Y-34663554D01*
X46688058Y-34608110D01*
X46596818Y-34555602D01*
X46519573Y-34511168D01*
X49067628Y-34511168D01*
X54403678Y-34511168D01*
X59739728Y-34511168D01*
X59739728Y-29175118D01*
X59739728Y-27099323D01*
X62965345Y-27099323D01*
X63071625Y-27037959D01*
X63089838Y-27027447D01*
X63116039Y-27012328D01*
X63149552Y-26992993D01*
X63189700Y-26969832D01*
X63235808Y-26943234D01*
X63287198Y-26913592D01*
X63343195Y-26881293D01*
X63403122Y-26846729D01*
X63466302Y-26810289D01*
X63532060Y-26772364D01*
X63599719Y-26733344D01*
X63668602Y-26693618D01*
X63705509Y-26672335D01*
X63772502Y-26633684D01*
X63837132Y-26596364D01*
X63898866Y-26560684D01*
X63957169Y-26526954D01*
X64011507Y-26495485D01*
X64061346Y-26466586D01*
X64106151Y-26440569D01*
X64145389Y-26417743D01*
X64178524Y-26398418D01*
X64205024Y-26382904D01*
X64224353Y-26371512D01*
X64235978Y-26364552D01*
X64239373Y-26362380D01*
X64240033Y-26360018D01*
X64240643Y-26353971D01*
X64241207Y-26343940D01*
X64241723Y-26329619D01*
X64242195Y-26310708D01*
X64242622Y-26286902D01*
X64243006Y-26257901D01*
X64243348Y-26223400D01*
X64243649Y-26183098D01*
X64243911Y-26136691D01*
X64244134Y-26083878D01*
X64244319Y-26024355D01*
X64244468Y-25957820D01*
X64244582Y-25883970D01*
X64244662Y-25802502D01*
X64244708Y-25713115D01*
X64244723Y-25615505D01*
X64244707Y-25509369D01*
X64244661Y-25394406D01*
X64244587Y-25270312D01*
X64244485Y-25136784D01*
X64244374Y-25011352D01*
X64243115Y-23666017D01*
X63605489Y-24034184D01*
X62967864Y-24402351D01*
X62966604Y-25750837D01*
X62965345Y-27099323D01*
X59739728Y-27099323D01*
X59739728Y-23839067D01*
X54403678Y-23839067D01*
X49067628Y-23839067D01*
X49067628Y-29175118D01*
X49067628Y-34511168D01*
X46519573Y-34511168D01*
X46510907Y-34506183D01*
X46430592Y-34460004D01*
X46356135Y-34417217D01*
X46287801Y-34377976D01*
X46225855Y-34342431D01*
X46170561Y-34310735D01*
X46122183Y-34283040D01*
X46080986Y-34259499D01*
X46047234Y-34240263D01*
X46021191Y-34225484D01*
X46003123Y-34215316D01*
X45993292Y-34209909D01*
X45991461Y-34209014D01*
X45986315Y-34211430D01*
X45972969Y-34218592D01*
X45951885Y-34230240D01*
X45923520Y-34246112D01*
X45888335Y-34265946D01*
X45846787Y-34289480D01*
X45799337Y-34316453D01*
X45746444Y-34346603D01*
X45688566Y-34379668D01*
X45626163Y-34415387D01*
X45559693Y-34453498D01*
X45489617Y-34493739D01*
X45416392Y-34535849D01*
X45340479Y-34579566D01*
X45272630Y-34618689D01*
X44561860Y-35028770D01*
X44561800Y-36209513D01*
X44561741Y-37390257D01*
X44261682Y-37390257D01*
X44261682Y-36423864D01*
X44261682Y-35201073D01*
X44250429Y-35208319D01*
X44244140Y-35212082D01*
X44229673Y-35220554D01*
X44207430Y-35233505D01*
X44177809Y-35250704D01*
X44141211Y-35271920D01*
X44098035Y-35296923D01*
X44048682Y-35325482D01*
X43993551Y-35357367D01*
X43933043Y-35392347D01*
X43867556Y-35430190D01*
X43797491Y-35470668D01*
X43723248Y-35513549D01*
X43645227Y-35558602D01*
X43563828Y-35605597D01*
X43479449Y-35654304D01*
X43392493Y-35704491D01*
X43303357Y-35755928D01*
X43212442Y-35808385D01*
X43120149Y-35861630D01*
X43026876Y-35915434D01*
X42933024Y-35969565D01*
X42838993Y-36023793D01*
X42745182Y-36077888D01*
X42651991Y-36131619D01*
X42559821Y-36184754D01*
X42469071Y-36237064D01*
X42380140Y-36288319D01*
X42293430Y-36338286D01*
X42209340Y-36386736D01*
X42128269Y-36433439D01*
X42050617Y-36478163D01*
X41976785Y-36520677D01*
X41907173Y-36560752D01*
X41842179Y-36598157D01*
X41782205Y-36632661D01*
X41727649Y-36664033D01*
X41678913Y-36692043D01*
X41636394Y-36716461D01*
X41600495Y-36737054D01*
X41571614Y-36753594D01*
X41550151Y-36765850D01*
X41536507Y-36773590D01*
X41531080Y-36776584D01*
X41531002Y-36776614D01*
X41527480Y-36772466D01*
X41519860Y-36760903D01*
X41508906Y-36743244D01*
X41495379Y-36720808D01*
X41480042Y-36694915D01*
X41463657Y-36666886D01*
X41446985Y-36638038D01*
X41430790Y-36609692D01*
X41415832Y-36583168D01*
X41402874Y-36559785D01*
X41392678Y-36540862D01*
X41386007Y-36527720D01*
X41383622Y-36521677D01*
X41383661Y-36521490D01*
X41388108Y-36518750D01*
X41400901Y-36511197D01*
X41421721Y-36499017D01*
X41450248Y-36482394D01*
X41486163Y-36461513D01*
X41529147Y-36436558D01*
X41578882Y-36407714D01*
X41635048Y-36375165D01*
X41697327Y-36339096D01*
X41765399Y-36299692D01*
X41838945Y-36257137D01*
X41917646Y-36211615D01*
X42001183Y-36163312D01*
X42089238Y-36112412D01*
X42181491Y-36059100D01*
X42277623Y-36003559D01*
X42377315Y-35945975D01*
X42480248Y-35886532D01*
X42586104Y-35825415D01*
X42694562Y-35762809D01*
X42805305Y-35698897D01*
X42823559Y-35688364D01*
X44261295Y-34858736D01*
X44261487Y-27007726D01*
X44261488Y-26948429D01*
X44261675Y-19333180D01*
X44561741Y-19333180D01*
X44561741Y-27007726D01*
X44561742Y-27353218D01*
X44561746Y-27688835D01*
X44561753Y-28014704D01*
X44561763Y-28330950D01*
X44561777Y-28637702D01*
X44561793Y-28935085D01*
X44561813Y-29223227D01*
X44561836Y-29502254D01*
X44561863Y-29772292D01*
X44561894Y-30033469D01*
X44561928Y-30285912D01*
X44561966Y-30529746D01*
X44562008Y-30765100D01*
X44562054Y-30992098D01*
X44562105Y-31210869D01*
X44562159Y-31421539D01*
X44562218Y-31624234D01*
X44562282Y-31819082D01*
X44562350Y-32006209D01*
X44562423Y-32185741D01*
X44562500Y-32357807D01*
X44562582Y-32522531D01*
X44562670Y-32680042D01*
X44562762Y-32830465D01*
X44562860Y-32973927D01*
X44562963Y-33110556D01*
X44563071Y-33240478D01*
X44563185Y-33363819D01*
X44563305Y-33480707D01*
X44563430Y-33591267D01*
X44563561Y-33695628D01*
X44563698Y-33793915D01*
X44563841Y-33886255D01*
X44563990Y-33972775D01*
X44564145Y-34053602D01*
X44564307Y-34128863D01*
X44564475Y-34198683D01*
X44564650Y-34263191D01*
X44564831Y-34322512D01*
X44565019Y-34376773D01*
X44565214Y-34426101D01*
X44565416Y-34470623D01*
X44565625Y-34510466D01*
X44565841Y-34545756D01*
X44566064Y-34576619D01*
X44566295Y-34603184D01*
X44566533Y-34625576D01*
X44566779Y-34643922D01*
X44567032Y-34658349D01*
X44567293Y-34668983D01*
X44567563Y-34675952D01*
X44567840Y-34679381D01*
X44567992Y-34679807D01*
X44572976Y-34677061D01*
X44586134Y-34669591D01*
X44606980Y-34657675D01*
X44635028Y-34641594D01*
X44669793Y-34621628D01*
X44710787Y-34598055D01*
X44757526Y-34571157D01*
X44809523Y-34541212D01*
X44866293Y-34508500D01*
X44927349Y-34473302D01*
X44992206Y-34435897D01*
X45060378Y-34396564D01*
X45131378Y-34355584D01*
X45204721Y-34313236D01*
X45206868Y-34311996D01*
X45839492Y-33946650D01*
X45840407Y-30521101D01*
X47033427Y-30521101D01*
X47033851Y-30557890D01*
X47041653Y-30616009D01*
X47058526Y-30670356D01*
X47084037Y-30720278D01*
X47117754Y-30765125D01*
X47159244Y-30804244D01*
X47208075Y-30836982D01*
X47224765Y-30845797D01*
X47260489Y-30861595D01*
X47294457Y-30871920D01*
X47330068Y-30877471D01*
X47370720Y-30878945D01*
X47384796Y-30878686D01*
X47413331Y-30877373D01*
X47435855Y-30874858D01*
X47456343Y-30870469D01*
X47478773Y-30863532D01*
X47482904Y-30862107D01*
X47536290Y-30838504D01*
X47583830Y-30807348D01*
X47624915Y-30769484D01*
X47658932Y-30725761D01*
X47685270Y-30677024D01*
X47703317Y-30624120D01*
X47712462Y-30567895D01*
X47713506Y-30542887D01*
X47711828Y-30500582D01*
X47705668Y-30462714D01*
X47694129Y-30425468D01*
X47676473Y-30385356D01*
X47664581Y-30362945D01*
X47651896Y-30343692D01*
X47636147Y-30324561D01*
X47615061Y-30302515D01*
X47612736Y-30300197D01*
X47568444Y-30261767D01*
X47522169Y-30232903D01*
X47473031Y-30213228D01*
X47420148Y-30202366D01*
X47377295Y-30199776D01*
X47318143Y-30204121D01*
X47262466Y-30217544D01*
X47210972Y-30239616D01*
X47164369Y-30269903D01*
X47123364Y-30307973D01*
X47088666Y-30353395D01*
X47069234Y-30387856D01*
X47049939Y-30432974D01*
X47038252Y-30476190D01*
X47033427Y-30521101D01*
X45840407Y-30521101D01*
X45840766Y-29175118D01*
X45840789Y-29089147D01*
X45842085Y-24231645D01*
X47137290Y-23483997D01*
X47628867Y-23200238D01*
X61181284Y-23200238D01*
X61185667Y-23203094D01*
X61198201Y-23210643D01*
X61218369Y-23222588D01*
X61245655Y-23238628D01*
X61279542Y-23258466D01*
X61319513Y-23281803D01*
X61365053Y-23308340D01*
X61415644Y-23337778D01*
X61470771Y-23369819D01*
X61529916Y-23404164D01*
X61592564Y-23440515D01*
X61658197Y-23478573D01*
X61726299Y-23518039D01*
X61796355Y-23558614D01*
X61867847Y-23600000D01*
X61940258Y-23641898D01*
X62013073Y-23684010D01*
X62085775Y-23726036D01*
X62157847Y-23767679D01*
X62228773Y-23808639D01*
X62298037Y-23848618D01*
X62365122Y-23887317D01*
X62429511Y-23924438D01*
X62490688Y-23959681D01*
X62548136Y-23992749D01*
X62601340Y-24023342D01*
X62649782Y-24051162D01*
X62692946Y-24075910D01*
X62730316Y-24097287D01*
X62761375Y-24114996D01*
X62785607Y-24128736D01*
X62802494Y-24138210D01*
X62811522Y-24143119D01*
X62812928Y-24143769D01*
X62817745Y-24141348D01*
X62830765Y-24134181D01*
X62851530Y-24122528D01*
X62879585Y-24106651D01*
X62914474Y-24086811D01*
X62955740Y-24063269D01*
X63002928Y-24036287D01*
X63055582Y-24006126D01*
X63113245Y-23973046D01*
X63175462Y-23937310D01*
X63241776Y-23899178D01*
X63311731Y-23858911D01*
X63384871Y-23816772D01*
X63460741Y-23773020D01*
X63530569Y-23732719D01*
X64243115Y-23321310D01*
X64244378Y-22374530D01*
X64244485Y-22278033D01*
X64244545Y-22184261D01*
X64244561Y-22093700D01*
X64244534Y-22006834D01*
X64244464Y-21924149D01*
X64244355Y-21846131D01*
X64244207Y-21773266D01*
X64244022Y-21706038D01*
X64243802Y-21644933D01*
X64243548Y-21590437D01*
X64243261Y-21543034D01*
X64242943Y-21503211D01*
X64242596Y-21471454D01*
X64242221Y-21448246D01*
X64241819Y-21434074D01*
X64241397Y-21429422D01*
X64235929Y-21432364D01*
X64222233Y-21440078D01*
X64200683Y-21452346D01*
X64171656Y-21468950D01*
X64135529Y-21489674D01*
X64092677Y-21514299D01*
X64043476Y-21542607D01*
X63988302Y-21574382D01*
X63927532Y-21609405D01*
X63861541Y-21647460D01*
X63790706Y-21688327D01*
X63715402Y-21731791D01*
X63636006Y-21777632D01*
X63552893Y-21825634D01*
X63466440Y-21875578D01*
X63377023Y-21927248D01*
X63285018Y-21980426D01*
X63190800Y-22034893D01*
X63094746Y-22090433D01*
X62997232Y-22146828D01*
X62898634Y-22203860D01*
X62799329Y-22261312D01*
X62699691Y-22318965D01*
X62600097Y-22376603D01*
X62500923Y-22434008D01*
X62402546Y-22490962D01*
X62305341Y-22547247D01*
X62209684Y-22602646D01*
X62115952Y-22656942D01*
X62024520Y-22709916D01*
X61935764Y-22761351D01*
X61850061Y-22811030D01*
X61767787Y-22858735D01*
X61689317Y-22904248D01*
X61615028Y-22947351D01*
X61545295Y-22987828D01*
X61480496Y-23025460D01*
X61421005Y-23060030D01*
X61367199Y-23091320D01*
X61319453Y-23119112D01*
X61278145Y-23143190D01*
X61243650Y-23163335D01*
X61216344Y-23179330D01*
X61196603Y-23190956D01*
X61184803Y-23197998D01*
X61181284Y-23200238D01*
X47628867Y-23200238D01*
X48432494Y-22736350D01*
X48432539Y-21701146D01*
X48432560Y-21227356D01*
X61231199Y-21227356D01*
X61235245Y-21265196D01*
X61244047Y-21300514D01*
X61258308Y-21336761D01*
X61265420Y-21351731D01*
X61293980Y-21398598D01*
X61330445Y-21440635D01*
X61373435Y-21476740D01*
X61421572Y-21505809D01*
X61473479Y-21526739D01*
X61489655Y-21531284D01*
X61513887Y-21535245D01*
X61546739Y-21536971D01*
X61580091Y-21536756D01*
X61608112Y-21535783D01*
X61629205Y-21534183D01*
X61646440Y-21531450D01*
X61662890Y-21527080D01*
X61681627Y-21520569D01*
X61683977Y-21519694D01*
X61736528Y-21495138D01*
X61782651Y-21463747D01*
X61822088Y-21426475D01*
X61854582Y-21384271D01*
X61879875Y-21338089D01*
X61897710Y-21288878D01*
X61907830Y-21237591D01*
X61909977Y-21185180D01*
X61903894Y-21132595D01*
X61889324Y-21080789D01*
X61866010Y-21030713D01*
X61833694Y-20983319D01*
X61830184Y-20979036D01*
X61790883Y-20939340D01*
X61746111Y-20907306D01*
X61697057Y-20883137D01*
X61644914Y-20867037D01*
X61590873Y-20859209D01*
X61536126Y-20859856D01*
X61481863Y-20869181D01*
X61429276Y-20887388D01*
X61395241Y-20904851D01*
X61373439Y-20920107D01*
X61348720Y-20941242D01*
X61323601Y-20965734D01*
X61300596Y-20991063D01*
X61282219Y-21014707D01*
X61275927Y-21024468D01*
X61255306Y-21064816D01*
X61241526Y-21105341D01*
X61233667Y-21149320D01*
X61231208Y-21183544D01*
X61231199Y-21227356D01*
X48432560Y-21227356D01*
X48432585Y-20665943D01*
X49558640Y-20015815D01*
X49657164Y-19958932D01*
X49753597Y-19903256D01*
X49847567Y-19849002D01*
X49938702Y-19796385D01*
X50026631Y-19745619D01*
X50110983Y-19696919D01*
X50191385Y-19650498D01*
X50267466Y-19606572D01*
X50338855Y-19565356D01*
X50405180Y-19527063D01*
X50466070Y-19491908D01*
X50521152Y-19460106D01*
X50570056Y-19431871D01*
X50612410Y-19407418D01*
X50647841Y-19386961D01*
X50675980Y-19370715D01*
X50696453Y-19358894D01*
X50708890Y-19351713D01*
X50712576Y-19349585D01*
X50736651Y-19335681D01*
X63254112Y-19335681D01*
X63748613Y-19621130D01*
X64243115Y-19906580D01*
X64244406Y-19621588D01*
X64244614Y-19569172D01*
X64244753Y-19519815D01*
X64244823Y-19474410D01*
X64244826Y-19433853D01*
X64244763Y-19399036D01*
X64244637Y-19370855D01*
X64244448Y-19350204D01*
X64244197Y-19337976D01*
X64243965Y-19334864D01*
X64238829Y-19334633D01*
X64224368Y-19334437D01*
X64201259Y-19334275D01*
X64170178Y-19334149D01*
X64131802Y-19334059D01*
X64086808Y-19334006D01*
X64035873Y-19333990D01*
X63979673Y-19334012D01*
X63918885Y-19334073D01*
X63854187Y-19334173D01*
X63786254Y-19334313D01*
X63748172Y-19334406D01*
X63254112Y-19335681D01*
X50736651Y-19335681D01*
X50740457Y-19333483D01*
X47651099Y-19333332D01*
X44561741Y-19333180D01*
X44261675Y-19333180D01*
X44261682Y-19038122D01*
X47757027Y-19038122D01*
X51252373Y-19038122D01*
X54124003Y-17380185D01*
X54413986Y-17212763D01*
X57732376Y-17212763D01*
X57732640Y-17256240D01*
X57733310Y-17291910D01*
X57734516Y-17321964D01*
X57736383Y-17348592D01*
X57739040Y-17373985D01*
X57742614Y-17400333D01*
X57743739Y-17407801D01*
X57754483Y-17471805D01*
X57766412Y-17529720D01*
X57780460Y-17585460D01*
X57797561Y-17642934D01*
X57806485Y-17670353D01*
X57849468Y-17784157D01*
X57900931Y-17892682D01*
X57960936Y-17996033D01*
X58029547Y-18094311D01*
X58106826Y-18187617D01*
X58164234Y-18248151D01*
X58253345Y-18330344D01*
X58347899Y-18404363D01*
X58447381Y-18470027D01*
X58551279Y-18527151D01*
X58659080Y-18575556D01*
X58770269Y-18615057D01*
X58884334Y-18645473D01*
X59000762Y-18666622D01*
X59119038Y-18678321D01*
X59238650Y-18680389D01*
X59359083Y-18672642D01*
X59359654Y-18672582D01*
X59478611Y-18655043D01*
X59594965Y-18628027D01*
X59708222Y-18591834D01*
X59817885Y-18546765D01*
X59923459Y-18493120D01*
X60024449Y-18431200D01*
X60120358Y-18361304D01*
X60210691Y-18283734D01*
X60294952Y-18198790D01*
X60372647Y-18106773D01*
X60434716Y-18020895D01*
X60451915Y-17994277D01*
X60469750Y-17964973D01*
X60487556Y-17934258D01*
X60504668Y-17903410D01*
X60520424Y-17873703D01*
X60534159Y-17846415D01*
X60545209Y-17822822D01*
X60552911Y-17804200D01*
X60556601Y-17791825D01*
X60556225Y-17787289D01*
X60551488Y-17784370D01*
X60538501Y-17776700D01*
X60517679Y-17764518D01*
X60489439Y-17748065D01*
X60454197Y-17727581D01*
X60412368Y-17703305D01*
X60364369Y-17675478D01*
X60310615Y-17644340D01*
X60251522Y-17610131D01*
X60187507Y-17573090D01*
X60118985Y-17533459D01*
X60046373Y-17491476D01*
X59970086Y-17447382D01*
X59890540Y-17401417D01*
X59808151Y-17353821D01*
X59723336Y-17304833D01*
X59636510Y-17254695D01*
X59548089Y-17203646D01*
X59458489Y-17151925D01*
X59368126Y-17099774D01*
X59277417Y-17047431D01*
X59186777Y-16995138D01*
X59096621Y-16943133D01*
X59007367Y-16891658D01*
X58919430Y-16840952D01*
X58833225Y-16791254D01*
X58749170Y-16742806D01*
X58667679Y-16695847D01*
X58589170Y-16650617D01*
X58514057Y-16607356D01*
X58442757Y-16566305D01*
X58375686Y-16527702D01*
X58313260Y-16491789D01*
X58255894Y-16458805D01*
X58204006Y-16428990D01*
X58158010Y-16402585D01*
X58118322Y-16379828D01*
X58085359Y-16360961D01*
X58059537Y-16346224D01*
X58041272Y-16335855D01*
X58030979Y-16330096D01*
X58028760Y-16328938D01*
X58021892Y-16331948D01*
X58011207Y-16342806D01*
X57997386Y-16360425D01*
X57981112Y-16383719D01*
X57963064Y-16411603D01*
X57943924Y-16442991D01*
X57924372Y-16476795D01*
X57905090Y-16511930D01*
X57886759Y-16547310D01*
X57870060Y-16581849D01*
X57869694Y-16582639D01*
X57829233Y-16677280D01*
X57796604Y-16770005D01*
X57770866Y-16863696D01*
X57757485Y-16925958D01*
X57749389Y-16969724D01*
X57743164Y-17008420D01*
X57738588Y-17044565D01*
X57735443Y-17080677D01*
X57733507Y-17119275D01*
X57732559Y-17162878D01*
X57732376Y-17212763D01*
X54413986Y-17212763D01*
X56995632Y-15722248D01*
X57506808Y-16017417D01*
G37*
G36*
X8260224Y-65530571D02*
G01*
X8327637Y-65556083D01*
X8401003Y-65614734D01*
X8494637Y-65719721D01*
X8622853Y-65884240D01*
X8731608Y-66029474D01*
X9322521Y-66787058D01*
X9920980Y-67477196D01*
X10540895Y-68111975D01*
X11196172Y-68703488D01*
X11900723Y-69263822D01*
X12668454Y-69805069D01*
X13513276Y-70339317D01*
X14056250Y-70657701D01*
X14224013Y-70761235D01*
X14320046Y-70844698D01*
X14364269Y-70928021D01*
X14373039Y-70974641D01*
X14353796Y-71122443D01*
X14300982Y-71185034D01*
X14236468Y-71196351D01*
X14080923Y-71206702D01*
X13842936Y-71216083D01*
X13531095Y-71224488D01*
X13153989Y-71231914D01*
X12720207Y-71238355D01*
X12238338Y-71243807D01*
X11716970Y-71248266D01*
X11164693Y-71251727D01*
X10590094Y-71254185D01*
X10001764Y-71255636D01*
X9408290Y-71256075D01*
X8818261Y-71255497D01*
X8240266Y-71253899D01*
X7682893Y-71251275D01*
X7154733Y-71247621D01*
X6664372Y-71242932D01*
X6220401Y-71237204D01*
X5831407Y-71230431D01*
X5505980Y-71222611D01*
X5252708Y-71213737D01*
X5080180Y-71203806D01*
X4996985Y-71192812D01*
X4991250Y-71190000D01*
X4945545Y-71096286D01*
X4933441Y-71002500D01*
X4958463Y-70935704D01*
X5030160Y-70789437D01*
X5144754Y-70570566D01*
X5298471Y-70285961D01*
X5487535Y-69942490D01*
X5708168Y-69547022D01*
X5956594Y-69106425D01*
X6229039Y-68627569D01*
X6474144Y-68200000D01*
X8012655Y-65525000D01*
X8184452Y-65525000D01*
X8260224Y-65530571D01*
G37*
G36*
X19460948Y-42880967D02*
G01*
X19538261Y-42959744D01*
X19542688Y-43088405D01*
X19479558Y-43271031D01*
X19407500Y-43415628D01*
X19366903Y-43488241D01*
X19278833Y-43643435D01*
X19145648Y-43877094D01*
X18969709Y-44185100D01*
X18753377Y-44563337D01*
X18499012Y-45007688D01*
X18208974Y-45514036D01*
X17885623Y-46078265D01*
X17531319Y-46696258D01*
X17148422Y-47363897D01*
X16739294Y-48077067D01*
X16306294Y-48831650D01*
X15851781Y-49623530D01*
X15378118Y-50448589D01*
X14887663Y-51302712D01*
X14382777Y-52181781D01*
X13865820Y-53081680D01*
X13842970Y-53121452D01*
X13151531Y-54324315D01*
X12505177Y-55447446D01*
X11904214Y-56490321D01*
X11348946Y-57452419D01*
X10839677Y-58333216D01*
X10376713Y-59132189D01*
X9960357Y-59848817D01*
X9590914Y-60482577D01*
X9268689Y-61032946D01*
X8993987Y-61499402D01*
X8767111Y-61881422D01*
X8588366Y-62178484D01*
X8458058Y-62390064D01*
X8376490Y-62515641D01*
X8345085Y-62554666D01*
X8224583Y-62561321D01*
X8133688Y-62533214D01*
X8048059Y-62445225D01*
X7949524Y-62270054D01*
X7841417Y-62019191D01*
X7727074Y-61704126D01*
X7609829Y-61336350D01*
X7493018Y-60927352D01*
X7379977Y-60488623D01*
X7274040Y-60031653D01*
X7178542Y-59567932D01*
X7096819Y-59108950D01*
X7050063Y-58800000D01*
X7016175Y-58484011D01*
X6990094Y-58093607D01*
X6971993Y-57651862D01*
X6962045Y-57181850D01*
X6960420Y-56706649D01*
X6967292Y-56249332D01*
X6982832Y-55832975D01*
X7007213Y-55480654D01*
X7024135Y-55325000D01*
X7228418Y-54113373D01*
X7523015Y-52940832D01*
X7905716Y-51810765D01*
X8374306Y-50726559D01*
X8926575Y-49691602D01*
X9560309Y-48709283D01*
X10273297Y-47782990D01*
X11063325Y-46916109D01*
X11928181Y-46112031D01*
X12865653Y-45374142D01*
X13873529Y-44705830D01*
X14013350Y-44622020D01*
X14942250Y-44124045D01*
X15932997Y-43690535D01*
X16965344Y-43328856D01*
X18019044Y-43046374D01*
X18738406Y-42903114D01*
X19066350Y-42856734D01*
X19305421Y-42847991D01*
X19460948Y-42880967D01*
G37*
G36*
X33101101Y-62288556D02*
G01*
X33139352Y-62329504D01*
X33210928Y-62433896D01*
X33317247Y-62604209D01*
X33459726Y-62842919D01*
X33639782Y-63152505D01*
X33858834Y-63535442D01*
X34118299Y-63994207D01*
X34419594Y-64531278D01*
X34764137Y-65149132D01*
X35153345Y-65850244D01*
X35558356Y-66582284D01*
X35891692Y-67186621D01*
X36211291Y-67768060D01*
X36513806Y-68320400D01*
X36795890Y-68837439D01*
X37054198Y-69312977D01*
X37285381Y-69740813D01*
X37486094Y-70114745D01*
X37652990Y-70428573D01*
X37782721Y-70676095D01*
X37871942Y-70851111D01*
X37917305Y-70947419D01*
X37922435Y-70962613D01*
X37930747Y-71003666D01*
X37939719Y-71040630D01*
X37944415Y-71073716D01*
X37939899Y-71103140D01*
X37921234Y-71129114D01*
X37883484Y-71151853D01*
X37821713Y-71171570D01*
X37730983Y-71188479D01*
X37606359Y-71202794D01*
X37442905Y-71214728D01*
X37235683Y-71224496D01*
X36979758Y-71232310D01*
X36670193Y-71238385D01*
X36302052Y-71242935D01*
X35870398Y-71246172D01*
X35370296Y-71248312D01*
X34796807Y-71249567D01*
X34144997Y-71250151D01*
X33409929Y-71250279D01*
X32586667Y-71250163D01*
X31670273Y-71250018D01*
X31285127Y-71250000D01*
X30293635Y-71249793D01*
X29398176Y-71249151D01*
X28594787Y-71248035D01*
X27879503Y-71246411D01*
X27248357Y-71244243D01*
X26697386Y-71241493D01*
X26222624Y-71238127D01*
X25820106Y-71234107D01*
X25485868Y-71229399D01*
X25215944Y-71223965D01*
X25006370Y-71217770D01*
X24853180Y-71210778D01*
X24752409Y-71202953D01*
X24700093Y-71194258D01*
X24691250Y-71190000D01*
X24632957Y-71073895D01*
X24661883Y-70925713D01*
X24779367Y-70741285D01*
X24868750Y-70637418D01*
X24997476Y-70499017D01*
X25182666Y-70302240D01*
X25419055Y-70052565D01*
X25701377Y-69755469D01*
X26024366Y-69416433D01*
X26382759Y-69040934D01*
X26771289Y-68634451D01*
X27184691Y-68202461D01*
X27617701Y-67750444D01*
X28065053Y-67283878D01*
X28521482Y-66808242D01*
X28981723Y-66329013D01*
X29440511Y-65851670D01*
X29892580Y-65381692D01*
X30332665Y-64924557D01*
X30755502Y-64485744D01*
X31155824Y-64070730D01*
X31528368Y-63684995D01*
X31867867Y-63334016D01*
X32169057Y-63023273D01*
X32426672Y-62758243D01*
X32635447Y-62544406D01*
X32790118Y-62387239D01*
X32885418Y-62292221D01*
X32915805Y-62264414D01*
X33014436Y-62262348D01*
X33101101Y-62288556D01*
G37*
G36*
X20987786Y-43376337D02*
G01*
X21081250Y-43450000D01*
X21091327Y-43460902D01*
X21100705Y-43475071D01*
X21109406Y-43496011D01*
X21117457Y-43527226D01*
X21124883Y-43572221D01*
X21131709Y-43634499D01*
X21137960Y-43717564D01*
X21143663Y-43824922D01*
X21148841Y-43960076D01*
X21153520Y-44126529D01*
X21157726Y-44327788D01*
X21161483Y-44567354D01*
X21164817Y-44848733D01*
X21167754Y-45175430D01*
X21170318Y-45550947D01*
X21172535Y-45978789D01*
X21174430Y-46462461D01*
X21176028Y-47005466D01*
X21177355Y-47611309D01*
X21178435Y-48283493D01*
X21179295Y-49025524D01*
X21179959Y-49840905D01*
X21180452Y-50733140D01*
X21180801Y-51705733D01*
X21181029Y-52762190D01*
X21181163Y-53906013D01*
X21181228Y-55140707D01*
X21181248Y-56469776D01*
X21181250Y-57321428D01*
X21181212Y-58717874D01*
X21181088Y-60017754D01*
X21180858Y-61224501D01*
X21180501Y-62341549D01*
X21179998Y-63372332D01*
X21179331Y-64320284D01*
X21178479Y-65188838D01*
X21177424Y-65981428D01*
X21176144Y-66701487D01*
X21174622Y-67352450D01*
X21172838Y-67937750D01*
X21170771Y-68460821D01*
X21168403Y-68925096D01*
X21165715Y-69334010D01*
X21162686Y-69690995D01*
X21159297Y-69999486D01*
X21155529Y-70262916D01*
X21151362Y-70484720D01*
X21146777Y-70668330D01*
X21141754Y-70817180D01*
X21136274Y-70934705D01*
X21130317Y-71024337D01*
X21123864Y-71089511D01*
X21116896Y-71133660D01*
X21109392Y-71160218D01*
X21102678Y-71171428D01*
X21004241Y-71213577D01*
X20817793Y-71238009D01*
X20553769Y-71244559D01*
X20222605Y-71233061D01*
X19834737Y-71203350D01*
X19731250Y-71193171D01*
X18550705Y-71022509D01*
X17395858Y-70755923D01*
X16270981Y-70395166D01*
X15180346Y-69941992D01*
X14128223Y-69398153D01*
X13118886Y-68765403D01*
X12254130Y-68124187D01*
X11916971Y-67839699D01*
X11544857Y-67500680D01*
X11162067Y-67131055D01*
X10792878Y-66754749D01*
X10461570Y-66395688D01*
X10250824Y-66150000D01*
X10004655Y-65842357D01*
X9763773Y-65526230D01*
X9536259Y-65213639D01*
X9330194Y-64916604D01*
X9153657Y-64647143D01*
X9014732Y-64417277D01*
X8921497Y-64239024D01*
X8882034Y-64124403D01*
X8881250Y-64112895D01*
X8905801Y-64060413D01*
X8977689Y-63925939D01*
X9094264Y-63714093D01*
X9252876Y-63429492D01*
X9450877Y-63076757D01*
X9685616Y-62660505D01*
X9954444Y-62185356D01*
X10254712Y-61655929D01*
X10583770Y-61076842D01*
X10938968Y-60452715D01*
X11317657Y-59788165D01*
X11717188Y-59087814D01*
X12134911Y-58356278D01*
X12568177Y-57598177D01*
X13014335Y-56818130D01*
X13470737Y-56020756D01*
X13934733Y-55210674D01*
X14403674Y-54392502D01*
X14874910Y-53570859D01*
X15345791Y-52750365D01*
X15813668Y-51935638D01*
X16275892Y-51131298D01*
X16729813Y-50341962D01*
X17172782Y-49572250D01*
X17602148Y-48826781D01*
X18015263Y-48110174D01*
X18409477Y-47427047D01*
X18782141Y-46782020D01*
X19130605Y-46179711D01*
X19452219Y-45624739D01*
X19744334Y-45121723D01*
X20004301Y-44675283D01*
X20229470Y-44290036D01*
X20417191Y-43970603D01*
X20564816Y-43721601D01*
X20669694Y-43547649D01*
X20729176Y-43453367D01*
X20741119Y-43437500D01*
X20870618Y-43359945D01*
X20987786Y-43376337D01*
G37*
G36*
X22582032Y-43399675D02*
G01*
X22621454Y-43428118D01*
X22669398Y-43476325D01*
X22727910Y-43547769D01*
X22799036Y-43645922D01*
X22884823Y-43774259D01*
X22987318Y-43936251D01*
X23108567Y-44135372D01*
X23250617Y-44375095D01*
X23415514Y-44658892D01*
X23605305Y-44990237D01*
X23822037Y-45372602D01*
X24067756Y-45809461D01*
X24344508Y-46304285D01*
X24654341Y-46860549D01*
X24999301Y-47481725D01*
X25381434Y-48171286D01*
X25802787Y-48932705D01*
X26265407Y-49769455D01*
X26771339Y-50685009D01*
X27322632Y-51682840D01*
X27616484Y-52214702D01*
X28191228Y-53255125D01*
X28719343Y-54211584D01*
X29202708Y-55087563D01*
X29643203Y-55886544D01*
X30042708Y-56612009D01*
X30403103Y-57267441D01*
X30726269Y-57856323D01*
X31014084Y-58382138D01*
X31268428Y-58848369D01*
X31491183Y-59258497D01*
X31684226Y-59616006D01*
X31849439Y-59924378D01*
X31988701Y-60187096D01*
X32103893Y-60407643D01*
X32196893Y-60589501D01*
X32269582Y-60736154D01*
X32323840Y-60851083D01*
X32361547Y-60937772D01*
X32384582Y-60999703D01*
X32394826Y-61040358D01*
X32394158Y-61063221D01*
X32393545Y-61064702D01*
X32354829Y-61110412D01*
X32251709Y-61223250D01*
X32088998Y-61398171D01*
X31871511Y-61630130D01*
X31604060Y-61914082D01*
X31291459Y-62244983D01*
X30938522Y-62617787D01*
X30550062Y-63027449D01*
X30130893Y-63468925D01*
X29685829Y-63937170D01*
X29219683Y-64427138D01*
X28737268Y-64933785D01*
X28243398Y-65452066D01*
X27742887Y-65976937D01*
X27240548Y-66503351D01*
X26741195Y-67026264D01*
X26249642Y-67540632D01*
X25770701Y-68041409D01*
X25309187Y-68523550D01*
X24869912Y-68982011D01*
X24457692Y-69411747D01*
X24077338Y-69807712D01*
X23733665Y-70164862D01*
X23431487Y-70478152D01*
X23175616Y-70742536D01*
X22970867Y-70952971D01*
X22822053Y-71104411D01*
X22733987Y-71191811D01*
X22711844Y-71211734D01*
X22577350Y-71245207D01*
X22431440Y-71189627D01*
X22418660Y-71180332D01*
X22409835Y-71170222D01*
X22401631Y-71151455D01*
X22394028Y-71120554D01*
X22387009Y-71074045D01*
X22380553Y-71008452D01*
X22374644Y-70920300D01*
X22369261Y-70806112D01*
X22364386Y-70662415D01*
X22360000Y-70485731D01*
X22356084Y-70272586D01*
X22352620Y-70019505D01*
X22349589Y-69723012D01*
X22346972Y-69379631D01*
X22344751Y-68985888D01*
X22342906Y-68538306D01*
X22341418Y-68033410D01*
X22340270Y-67467726D01*
X22339441Y-66837776D01*
X22338914Y-66140087D01*
X22338670Y-65371182D01*
X22338689Y-64527586D01*
X22338954Y-63605824D01*
X22339444Y-62602421D01*
X22340143Y-61513900D01*
X22341029Y-60336787D01*
X22342086Y-59067605D01*
X22343294Y-57702880D01*
X22343660Y-57299871D01*
X22344956Y-55906236D01*
X22346231Y-54609140D01*
X22347508Y-53405120D01*
X22348812Y-52290716D01*
X22350167Y-51262466D01*
X22351597Y-50316908D01*
X22353128Y-49450581D01*
X22354783Y-48660024D01*
X22356586Y-47941773D01*
X22358562Y-47292370D01*
X22360735Y-46708351D01*
X22363130Y-46186254D01*
X22365771Y-45722620D01*
X22368682Y-45313986D01*
X22371887Y-44956890D01*
X22375411Y-44647871D01*
X22379278Y-44383468D01*
X22383513Y-44160219D01*
X22388139Y-43974662D01*
X22393182Y-43823336D01*
X22398665Y-43702779D01*
X22404612Y-43609530D01*
X22411049Y-43540127D01*
X22417999Y-43491110D01*
X22425487Y-43459015D01*
X22433537Y-43440382D01*
X22441111Y-43432369D01*
X22468625Y-43414085D01*
X22494428Y-43398201D01*
X22520565Y-43388189D01*
X22549085Y-43387523D01*
X22582032Y-43399675D01*
G37*
D15*
%TO.C,C3*%
X95051250Y-101103750D02*
X100211250Y-101103750D01*
X95051250Y-101143750D02*
X100211250Y-101143750D01*
X95052250Y-101063750D02*
X100210250Y-101063750D01*
X95054250Y-101023750D02*
X100208250Y-101023750D01*
X95056250Y-100983750D02*
X100206250Y-100983750D01*
X95059250Y-100943750D02*
X100203250Y-100943750D01*
X95062250Y-100903750D02*
X96591250Y-100903750D01*
X95066250Y-100863750D02*
X96591250Y-100863750D01*
X95071250Y-100823750D02*
X96591250Y-100823750D01*
X95076250Y-100783750D02*
X96591250Y-100783750D01*
X95082250Y-100743750D02*
X96591250Y-100743750D01*
X95088250Y-100703750D02*
X96591250Y-100703750D01*
X95095250Y-100663750D02*
X96591250Y-100663750D01*
X95103250Y-100623750D02*
X96591250Y-100623750D01*
X95112250Y-100583750D02*
X96591250Y-100583750D01*
X95121250Y-100543750D02*
X96591250Y-100543750D01*
X95130250Y-100503750D02*
X96591250Y-100503750D01*
X95141250Y-100463750D02*
X96591250Y-100463750D01*
X95152250Y-100423750D02*
X96591250Y-100423750D01*
X95164250Y-100383750D02*
X96591250Y-100383750D01*
X95176250Y-100343750D02*
X96591250Y-100343750D01*
X95189250Y-100303750D02*
X96591250Y-100303750D01*
X95203250Y-100263750D02*
X96591250Y-100263750D01*
X95218250Y-100223750D02*
X96591250Y-100223750D01*
X95233250Y-100183750D02*
X96591250Y-100183750D01*
X95249250Y-100143750D02*
X96591250Y-100143750D01*
X95266250Y-100103750D02*
X96591250Y-100103750D01*
X95284250Y-100063750D02*
X96591250Y-100063750D01*
X95302250Y-100023750D02*
X96591250Y-100023750D01*
X95322250Y-99983750D02*
X96591250Y-99983750D01*
X95342250Y-99943750D02*
X96591250Y-99943750D01*
X95363250Y-99903750D02*
X96591250Y-99903750D01*
X95385250Y-99863750D02*
X96591250Y-99863750D01*
X95408250Y-99823750D02*
X96591250Y-99823750D01*
X95432250Y-99783750D02*
X96591250Y-99783750D01*
X95456250Y-99743750D02*
X96591250Y-99743750D01*
X95482250Y-99703750D02*
X96591250Y-99703750D01*
X95509250Y-99663750D02*
X96591250Y-99663750D01*
X95537250Y-99623750D02*
X96591250Y-99623750D01*
X95566250Y-99583750D02*
X96591250Y-99583750D01*
X95596250Y-99543750D02*
X96591250Y-99543750D01*
X95628250Y-99503750D02*
X96591250Y-99503750D01*
X95661250Y-99463750D02*
X96591250Y-99463750D01*
X95695250Y-99423750D02*
X96591250Y-99423750D01*
X95730250Y-99383750D02*
X96591250Y-99383750D01*
X95767250Y-99343750D02*
X96591250Y-99343750D01*
X95806250Y-99303750D02*
X96591250Y-99303750D01*
X95846250Y-99263750D02*
X96591250Y-99263750D01*
X95888250Y-99223750D02*
X96591250Y-99223750D01*
X95906250Y-103698525D02*
X96406250Y-103698525D01*
X95932250Y-99183750D02*
X96591250Y-99183750D01*
X95979250Y-99143750D02*
X96591250Y-99143750D01*
X96027250Y-99103750D02*
X96591250Y-99103750D01*
X96078250Y-99063750D02*
X96591250Y-99063750D01*
X96132250Y-99023750D02*
X96591250Y-99023750D01*
X96156250Y-103948525D02*
X96156250Y-103448525D01*
X96188250Y-98983750D02*
X96591250Y-98983750D01*
X96248250Y-98943750D02*
X96591250Y-98943750D01*
X96312250Y-98903750D02*
X96591250Y-98903750D01*
X96380250Y-98863750D02*
X96591250Y-98863750D01*
X96454250Y-98823750D02*
X98808250Y-98823750D01*
X96533250Y-98783750D02*
X98729250Y-98783750D01*
X96620250Y-98743750D02*
X98642250Y-98743750D01*
X96717250Y-98703750D02*
X98545250Y-98703750D01*
X96826250Y-98663750D02*
X98436250Y-98663750D01*
X96954250Y-98623750D02*
X98308250Y-98623750D01*
X97114250Y-98583750D02*
X98148250Y-98583750D01*
X97348250Y-98543750D02*
X97914250Y-98543750D01*
X98671250Y-98863750D02*
X98882250Y-98863750D01*
X98671250Y-98903750D02*
X98950250Y-98903750D01*
X98671250Y-98943750D02*
X99014250Y-98943750D01*
X98671250Y-98983750D02*
X99074250Y-98983750D01*
X98671250Y-99023750D02*
X99130250Y-99023750D01*
X98671250Y-99063750D02*
X99184250Y-99063750D01*
X98671250Y-99103750D02*
X99235250Y-99103750D01*
X98671250Y-99143750D02*
X99283250Y-99143750D01*
X98671250Y-99183750D02*
X99330250Y-99183750D01*
X98671250Y-99223750D02*
X99374250Y-99223750D01*
X98671250Y-99263750D02*
X99416250Y-99263750D01*
X98671250Y-99303750D02*
X99456250Y-99303750D01*
X98671250Y-99343750D02*
X99495250Y-99343750D01*
X98671250Y-99383750D02*
X99532250Y-99383750D01*
X98671250Y-99423750D02*
X99567250Y-99423750D01*
X98671250Y-99463750D02*
X99601250Y-99463750D01*
X98671250Y-99503750D02*
X99634250Y-99503750D01*
X98671250Y-99543750D02*
X99666250Y-99543750D01*
X98671250Y-99583750D02*
X99696250Y-99583750D01*
X98671250Y-99623750D02*
X99725250Y-99623750D01*
X98671250Y-99663750D02*
X99753250Y-99663750D01*
X98671250Y-99703750D02*
X99780250Y-99703750D01*
X98671250Y-99743750D02*
X99806250Y-99743750D01*
X98671250Y-99783750D02*
X99830250Y-99783750D01*
X98671250Y-99823750D02*
X99854250Y-99823750D01*
X98671250Y-99863750D02*
X99877250Y-99863750D01*
X98671250Y-99903750D02*
X99899250Y-99903750D01*
X98671250Y-99943750D02*
X99920250Y-99943750D01*
X98671250Y-99983750D02*
X99940250Y-99983750D01*
X98671250Y-100023750D02*
X99960250Y-100023750D01*
X98671250Y-100063750D02*
X99978250Y-100063750D01*
X98671250Y-100103750D02*
X99996250Y-100103750D01*
X98671250Y-100143750D02*
X100013250Y-100143750D01*
X98671250Y-100183750D02*
X100029250Y-100183750D01*
X98671250Y-100223750D02*
X100044250Y-100223750D01*
X98671250Y-100263750D02*
X100059250Y-100263750D01*
X98671250Y-100303750D02*
X100073250Y-100303750D01*
X98671250Y-100343750D02*
X100086250Y-100343750D01*
X98671250Y-100383750D02*
X100098250Y-100383750D01*
X98671250Y-100423750D02*
X100110250Y-100423750D01*
X98671250Y-100463750D02*
X100121250Y-100463750D01*
X98671250Y-100503750D02*
X100132250Y-100503750D01*
X98671250Y-100543750D02*
X100141250Y-100543750D01*
X98671250Y-100583750D02*
X100150250Y-100583750D01*
X98671250Y-100623750D02*
X100159250Y-100623750D01*
X98671250Y-100663750D02*
X100167250Y-100663750D01*
X98671250Y-100703750D02*
X100174250Y-100703750D01*
X98671250Y-100743750D02*
X100180250Y-100743750D01*
X98671250Y-100783750D02*
X100186250Y-100783750D01*
X98671250Y-100823750D02*
X100191250Y-100823750D01*
X98671250Y-100863750D02*
X100196250Y-100863750D01*
X98671250Y-100903750D02*
X100200250Y-100903750D01*
X100251250Y-101143750D02*
G75*
G02*
X95011250Y-101143750I-2620000J0D01*
G01*
X95011250Y-101143750D02*
G75*
G02*
X100251250Y-101143750I2620000J0D01*
G01*
D16*
%TO.C,G\u002A\u002A\u002A*%
G36*
X88724809Y-64114964D02*
G01*
X88724809Y-64297500D01*
X88017170Y-64297500D01*
X87309531Y-64297500D01*
X87309531Y-64114964D01*
X87309531Y-63932428D01*
X88017170Y-63932428D01*
X88724809Y-63932428D01*
X88724809Y-64114964D01*
G37*
G36*
X88724809Y-64747589D02*
G01*
X88724809Y-64932625D01*
X88017170Y-64932625D01*
X87309531Y-64932625D01*
X87309531Y-64747589D01*
X87309531Y-64562552D01*
X88017170Y-64562552D01*
X88724809Y-64562552D01*
X88724809Y-64747589D01*
G37*
G36*
X88724809Y-65380213D02*
G01*
X88724809Y-65562749D01*
X88017170Y-65562749D01*
X87309531Y-65562749D01*
X87309531Y-65380213D01*
X87309531Y-65197677D01*
X88017170Y-65197677D01*
X88724809Y-65197677D01*
X88724809Y-65380213D01*
G37*
G36*
X78432783Y-64269995D02*
G01*
X78432783Y-64607561D01*
X78825360Y-64607561D01*
X79217938Y-64607561D01*
X79217938Y-64269995D01*
X79217938Y-63932428D01*
X79352964Y-63932428D01*
X79487991Y-63932428D01*
X79487991Y-64747589D01*
X79487991Y-65562749D01*
X79352964Y-65562749D01*
X79217938Y-65562749D01*
X79217938Y-65225183D01*
X79217938Y-64887616D01*
X78825360Y-64887616D01*
X78432783Y-64887616D01*
X78432783Y-65225183D01*
X78432783Y-65562749D01*
X78165230Y-65562749D01*
X77897678Y-65562749D01*
X77897678Y-64747589D01*
X77897678Y-63932428D01*
X78165230Y-63932428D01*
X78432783Y-63932428D01*
X78432783Y-64269995D01*
G37*
G36*
X77091877Y-52854038D02*
G01*
X77132941Y-52867448D01*
X77169726Y-52888678D01*
X77201170Y-52916811D01*
X77226208Y-52950930D01*
X77243775Y-52990119D01*
X77251843Y-53025281D01*
X77253513Y-53070715D01*
X77246270Y-53113353D01*
X77231007Y-53152351D01*
X77208620Y-53186868D01*
X77180005Y-53216059D01*
X77146056Y-53239083D01*
X77107668Y-53255096D01*
X77065738Y-53263254D01*
X77021159Y-53262716D01*
X77002728Y-53259866D01*
X76962693Y-53247153D01*
X76926692Y-53226272D01*
X76895641Y-53198557D01*
X76870457Y-53165344D01*
X76852054Y-53127967D01*
X76841348Y-53087760D01*
X76839255Y-53046060D01*
X76841714Y-53025122D01*
X76854276Y-52979962D01*
X76874612Y-52940352D01*
X76901905Y-52906988D01*
X76935339Y-52880568D01*
X76974097Y-52861789D01*
X77017360Y-52851348D01*
X77047600Y-52849364D01*
X77091877Y-52854038D01*
G37*
G36*
X91204047Y-64475719D02*
G01*
X91264348Y-64483056D01*
X91317812Y-64494462D01*
X91367012Y-64510604D01*
X91407837Y-64528766D01*
X91469216Y-64564845D01*
X91525167Y-64608866D01*
X91574972Y-64659948D01*
X91617912Y-64717208D01*
X91653268Y-64779766D01*
X91680321Y-64846738D01*
X91688124Y-64872613D01*
X91695964Y-64909442D01*
X91701514Y-64952667D01*
X91704592Y-64998908D01*
X91705015Y-65044784D01*
X91702599Y-65086914D01*
X91700624Y-65103157D01*
X91685457Y-65173814D01*
X91661569Y-65240542D01*
X91629612Y-65302723D01*
X91590239Y-65359742D01*
X91544101Y-65410982D01*
X91491851Y-65455825D01*
X91434141Y-65493657D01*
X91371623Y-65523860D01*
X91304951Y-65545817D01*
X91234775Y-65558912D01*
X91216527Y-65560748D01*
X91175291Y-65564187D01*
X91175291Y-65018722D01*
X91175291Y-64473257D01*
X91204047Y-64475719D01*
G37*
G36*
X75648485Y-64474578D02*
G01*
X75661804Y-64476270D01*
X75680888Y-64478276D01*
X75700907Y-64480100D01*
X75750381Y-64487675D01*
X75801391Y-64502518D01*
X75855810Y-64525181D01*
X75859777Y-64527066D01*
X75923550Y-64562981D01*
X75980878Y-64606440D01*
X76031414Y-64657057D01*
X76074814Y-64714450D01*
X76110730Y-64778235D01*
X76132401Y-64829633D01*
X76151245Y-64894762D01*
X76161653Y-64963136D01*
X76163753Y-65033104D01*
X76157672Y-65103016D01*
X76143541Y-65171221D01*
X76121488Y-65236070D01*
X76096757Y-65287058D01*
X76062133Y-65340452D01*
X76020449Y-65391106D01*
X75973950Y-65436560D01*
X75927498Y-65472590D01*
X75873585Y-65504013D01*
X75813819Y-65529686D01*
X75751167Y-65548574D01*
X75688597Y-65559642D01*
X75673985Y-65561015D01*
X75632232Y-65564225D01*
X75632232Y-65018153D01*
X75632232Y-64472081D01*
X75648485Y-64474578D01*
G37*
G36*
X77092863Y-51256859D02*
G01*
X77131485Y-51269486D01*
X77167112Y-51289526D01*
X77198453Y-51316760D01*
X77224215Y-51350969D01*
X77233801Y-51368916D01*
X77248597Y-51411264D01*
X77254100Y-51454820D01*
X77250535Y-51498113D01*
X77238131Y-51539672D01*
X77217115Y-51578026D01*
X77197865Y-51601690D01*
X77163164Y-51631441D01*
X77124015Y-51652411D01*
X77081245Y-51664316D01*
X77035684Y-51666872D01*
X77013970Y-51664823D01*
X76979482Y-51655935D01*
X76944642Y-51639862D01*
X76913218Y-51618538D01*
X76899724Y-51606266D01*
X76871794Y-51571171D01*
X76852428Y-51532382D01*
X76841624Y-51491259D01*
X76839382Y-51449158D01*
X76845699Y-51407440D01*
X76860573Y-51367461D01*
X76884003Y-51330580D01*
X76900090Y-51312553D01*
X76934291Y-51284843D01*
X76971961Y-51265636D01*
X77011809Y-51254716D01*
X77052540Y-51251863D01*
X77092863Y-51256859D01*
G37*
G36*
X77099327Y-53654332D02*
G01*
X77139318Y-53669445D01*
X77175480Y-53692190D01*
X77206324Y-53721793D01*
X77230362Y-53757482D01*
X77233801Y-53764388D01*
X77248597Y-53806735D01*
X77254100Y-53850291D01*
X77250535Y-53893584D01*
X77238131Y-53935144D01*
X77217115Y-53973498D01*
X77197865Y-53997162D01*
X77163171Y-54026864D01*
X77123928Y-54047928D01*
X77081220Y-54059980D01*
X77036132Y-54062648D01*
X77013970Y-54060486D01*
X76978928Y-54051243D01*
X76943720Y-54034808D01*
X76912183Y-54013153D01*
X76899724Y-54001738D01*
X76871816Y-53966904D01*
X76852688Y-53929190D01*
X76841966Y-53889746D01*
X76839277Y-53849724D01*
X76844246Y-53810274D01*
X76856502Y-53772548D01*
X76875670Y-53737697D01*
X76901376Y-53706872D01*
X76933248Y-53681225D01*
X76970912Y-53661906D01*
X77013814Y-53650097D01*
X77056996Y-53647625D01*
X77099327Y-53654332D01*
G37*
G36*
X84300467Y-31062441D02*
G01*
X84328141Y-31066775D01*
X84336805Y-31069245D01*
X84378841Y-31088304D01*
X84414384Y-31114597D01*
X84442823Y-31147267D01*
X84463550Y-31185459D01*
X84475955Y-31228316D01*
X84479501Y-31269464D01*
X84475072Y-31314887D01*
X84461880Y-31355613D01*
X84439752Y-31392076D01*
X84421860Y-31412339D01*
X84386009Y-31441618D01*
X84346401Y-31462004D01*
X84304065Y-31473212D01*
X84260025Y-31474962D01*
X84219445Y-31468125D01*
X84176538Y-31451746D01*
X84139679Y-31427647D01*
X84109459Y-31396484D01*
X84086463Y-31358918D01*
X84071279Y-31315605D01*
X84067748Y-31298191D01*
X84065408Y-31254919D01*
X84072265Y-31212931D01*
X84087510Y-31173512D01*
X84110338Y-31137949D01*
X84139941Y-31107525D01*
X84175514Y-31083527D01*
X84211843Y-31068523D01*
X84238132Y-31063291D01*
X84269068Y-31061272D01*
X84300467Y-31062441D01*
G37*
G36*
X84936018Y-31863360D02*
G01*
X84974721Y-31875590D01*
X85010672Y-31895382D01*
X85042560Y-31922721D01*
X85066618Y-31953633D01*
X85085392Y-31989386D01*
X85095875Y-32025869D01*
X85099095Y-32066155D01*
X85094491Y-32111062D01*
X85081314Y-32152129D01*
X85060522Y-32188559D01*
X85033072Y-32219553D01*
X84999920Y-32244313D01*
X84962024Y-32262040D01*
X84920339Y-32271937D01*
X84875822Y-32273205D01*
X84854107Y-32270579D01*
X84813212Y-32258798D01*
X84776149Y-32238652D01*
X84743944Y-32211377D01*
X84717628Y-32178209D01*
X84698228Y-32140383D01*
X84686773Y-32099136D01*
X84684014Y-32066155D01*
X84687538Y-32032183D01*
X84697179Y-31996228D01*
X84711532Y-31962905D01*
X84719393Y-31949639D01*
X84747088Y-31916177D01*
X84779893Y-31890368D01*
X84816500Y-31872197D01*
X84855597Y-31861649D01*
X84895873Y-31858708D01*
X84936018Y-31863360D01*
G37*
G36*
X77084160Y-55248331D02*
G01*
X77113967Y-55255325D01*
X77154594Y-55274263D01*
X77188985Y-55300201D01*
X77216643Y-55331945D01*
X77237071Y-55368303D01*
X77249773Y-55408081D01*
X77254252Y-55450088D01*
X77250011Y-55493130D01*
X77236554Y-55536016D01*
X77233614Y-55542564D01*
X77210947Y-55579725D01*
X77181345Y-55610560D01*
X77146100Y-55634437D01*
X77106501Y-55650722D01*
X77063838Y-55658785D01*
X77019401Y-55657992D01*
X77003383Y-55655449D01*
X76962952Y-55642651D01*
X76926684Y-55621742D01*
X76895479Y-55594028D01*
X76870235Y-55560814D01*
X76851850Y-55523406D01*
X76841225Y-55483110D01*
X76839257Y-55441232D01*
X76841714Y-55420593D01*
X76854209Y-55376160D01*
X76874751Y-55336478D01*
X76902482Y-55302542D01*
X76936545Y-55275351D01*
X76976082Y-55255899D01*
X76986298Y-55252491D01*
X77015877Y-55246815D01*
X77049980Y-55245462D01*
X77084160Y-55248331D01*
G37*
G36*
X77709219Y-50458303D02*
G01*
X77751713Y-50471477D01*
X77789444Y-50492943D01*
X77821580Y-50522113D01*
X77847291Y-50558398D01*
X77864351Y-50596944D01*
X77869904Y-50622104D01*
X77872292Y-50652580D01*
X77871489Y-50684192D01*
X77867470Y-50712761D01*
X77865107Y-50721906D01*
X77847930Y-50762161D01*
X77823130Y-50797056D01*
X77791952Y-50825855D01*
X77755641Y-50847825D01*
X77715443Y-50862230D01*
X77672602Y-50868334D01*
X77628364Y-50865404D01*
X77623505Y-50864506D01*
X77584418Y-50852015D01*
X77547366Y-50830917D01*
X77519777Y-50807671D01*
X77491807Y-50773443D01*
X77472562Y-50736445D01*
X77461601Y-50697768D01*
X77458482Y-50658502D01*
X77462766Y-50619737D01*
X77474010Y-50582563D01*
X77491775Y-50548072D01*
X77515618Y-50517353D01*
X77545100Y-50491497D01*
X77579779Y-50471595D01*
X77619215Y-50458736D01*
X77662793Y-50454012D01*
X77709219Y-50458303D01*
G37*
G36*
X77710512Y-52854244D02*
G01*
X77752896Y-52867637D01*
X77790486Y-52889304D01*
X77822450Y-52918652D01*
X77847954Y-52955088D01*
X77864351Y-52992416D01*
X77869904Y-53017575D01*
X77872292Y-53048052D01*
X77871489Y-53079664D01*
X77867470Y-53108233D01*
X77865107Y-53117377D01*
X77847817Y-53158076D01*
X77822979Y-53193206D01*
X77791788Y-53222063D01*
X77755433Y-53243944D01*
X77715109Y-53258145D01*
X77672006Y-53263963D01*
X77627317Y-53260693D01*
X77623505Y-53259977D01*
X77582789Y-53247112D01*
X77546352Y-53226115D01*
X77515062Y-53198258D01*
X77489787Y-53164815D01*
X77471397Y-53127055D01*
X77460760Y-53086252D01*
X77458744Y-53043676D01*
X77461203Y-53022340D01*
X77473428Y-52978576D01*
X77493698Y-52939839D01*
X77521044Y-52906950D01*
X77554498Y-52880736D01*
X77593089Y-52862019D01*
X77635851Y-52851624D01*
X77664166Y-52849719D01*
X77710512Y-52854244D01*
G37*
G36*
X77722371Y-53654952D02*
G01*
X77762837Y-53671082D01*
X77799032Y-53695537D01*
X77814270Y-53709908D01*
X77840707Y-53741770D01*
X77858539Y-53773910D01*
X77868808Y-53808933D01*
X77872555Y-53849444D01*
X77872619Y-53855804D01*
X77868063Y-53900432D01*
X77854900Y-53941309D01*
X77834088Y-53977617D01*
X77806584Y-54008534D01*
X77773345Y-54033239D01*
X77735328Y-54050913D01*
X77693489Y-54060735D01*
X77648786Y-54061884D01*
X77634092Y-54060295D01*
X77595921Y-54050241D01*
X77558953Y-54031868D01*
X77525422Y-54006796D01*
X77497564Y-53976647D01*
X77480213Y-53948652D01*
X77464797Y-53906702D01*
X77458613Y-53864318D01*
X77461069Y-53822643D01*
X77471572Y-53782824D01*
X77489530Y-53746008D01*
X77514351Y-53713340D01*
X77545440Y-53685965D01*
X77582207Y-53665030D01*
X77624058Y-53651681D01*
X77634792Y-53649734D01*
X77679175Y-53647663D01*
X77722371Y-53654952D01*
G37*
G36*
X78307799Y-52051385D02*
G01*
X78347032Y-52059366D01*
X78384611Y-52075146D01*
X78419344Y-52098926D01*
X78450041Y-52130910D01*
X78452740Y-52134430D01*
X78474306Y-52171174D01*
X78487692Y-52211983D01*
X78492749Y-52254964D01*
X78489332Y-52298224D01*
X78477294Y-52339871D01*
X78469912Y-52355887D01*
X78446374Y-52390985D01*
X78416012Y-52419994D01*
X78380352Y-52442338D01*
X78340917Y-52457436D01*
X78299231Y-52464713D01*
X78256820Y-52463588D01*
X78215206Y-52453485D01*
X78213895Y-52453003D01*
X78174079Y-52433214D01*
X78140263Y-52406346D01*
X78113075Y-52373665D01*
X78093142Y-52336437D01*
X78081092Y-52295928D01*
X78077554Y-52253403D01*
X78083155Y-52210129D01*
X78086829Y-52196814D01*
X78104313Y-52155891D01*
X78128476Y-52121346D01*
X78158127Y-52093381D01*
X78192075Y-52072200D01*
X78229130Y-52058005D01*
X78268101Y-52050999D01*
X78307799Y-52051385D01*
G37*
G36*
X78338953Y-54452782D02*
G01*
X78375179Y-54465506D01*
X78408679Y-54484990D01*
X78438323Y-54511251D01*
X78462979Y-54544304D01*
X78481514Y-54584167D01*
X78482267Y-54586362D01*
X78492067Y-54630323D01*
X78492348Y-54674399D01*
X78483436Y-54717186D01*
X78465658Y-54757279D01*
X78439339Y-54793273D01*
X78432545Y-54800393D01*
X78397888Y-54828272D01*
X78358752Y-54847874D01*
X78316668Y-54858862D01*
X78273169Y-54860898D01*
X78229789Y-54853646D01*
X78213895Y-54848475D01*
X78174079Y-54828685D01*
X78140263Y-54801817D01*
X78113075Y-54769136D01*
X78093142Y-54731909D01*
X78081092Y-54691399D01*
X78077554Y-54648875D01*
X78083155Y-54605600D01*
X78086829Y-54592285D01*
X78104119Y-54551546D01*
X78127737Y-54517430D01*
X78156551Y-54489955D01*
X78189429Y-54469137D01*
X78225240Y-54454994D01*
X78262852Y-54447543D01*
X78301133Y-54446799D01*
X78338953Y-54452782D01*
G37*
G36*
X78341901Y-53655100D02*
G01*
X78379630Y-53669673D01*
X78414428Y-53691918D01*
X78445055Y-53721902D01*
X78460719Y-53743332D01*
X78480115Y-53782289D01*
X78490608Y-53823525D01*
X78492509Y-53865592D01*
X78486132Y-53907038D01*
X78471790Y-53946416D01*
X78449794Y-53982276D01*
X78420457Y-54013168D01*
X78399128Y-54028929D01*
X78359222Y-54048841D01*
X78316341Y-54060001D01*
X78272529Y-54061967D01*
X78255248Y-54060087D01*
X78227822Y-54054826D01*
X78205872Y-54047710D01*
X78184875Y-54037017D01*
X78170309Y-54027811D01*
X78135870Y-53999294D01*
X78109098Y-53965262D01*
X78090335Y-53927016D01*
X78079928Y-53885856D01*
X78078220Y-53843082D01*
X78085557Y-53799995D01*
X78099979Y-53762423D01*
X78123477Y-53725123D01*
X78152730Y-53695036D01*
X78186499Y-53672228D01*
X78223540Y-53656765D01*
X78262615Y-53648712D01*
X78302483Y-53648136D01*
X78341901Y-53655100D01*
G37*
G36*
X83698715Y-31065457D02*
G01*
X83739042Y-31078236D01*
X83774657Y-31098317D01*
X83804956Y-31124666D01*
X83829338Y-31156250D01*
X83847200Y-31192037D01*
X83857939Y-31230994D01*
X83860953Y-31272088D01*
X83855639Y-31314286D01*
X83841395Y-31356555D01*
X83834684Y-31370245D01*
X83811218Y-31404210D01*
X83780795Y-31432305D01*
X83744998Y-31453868D01*
X83705408Y-31468238D01*
X83663606Y-31474754D01*
X83621175Y-31472755D01*
X83600054Y-31468312D01*
X83563609Y-31455464D01*
X83532756Y-31437248D01*
X83506367Y-31414230D01*
X83478817Y-31380035D01*
X83459576Y-31341903D01*
X83448636Y-31301265D01*
X83445985Y-31259552D01*
X83451616Y-31218196D01*
X83465519Y-31178628D01*
X83487685Y-31142278D01*
X83508274Y-31119361D01*
X83540089Y-31092955D01*
X83572174Y-31075134D01*
X83607137Y-31064857D01*
X83647582Y-31061082D01*
X83654278Y-31061012D01*
X83698715Y-31065457D01*
G37*
G36*
X84300482Y-35054370D02*
G01*
X84306880Y-35055355D01*
X84350644Y-35067580D01*
X84389382Y-35087850D01*
X84422270Y-35115196D01*
X84448484Y-35148650D01*
X84467201Y-35187241D01*
X84477596Y-35230003D01*
X84479501Y-35258318D01*
X84474974Y-35304593D01*
X84461584Y-35346959D01*
X84439941Y-35384560D01*
X84410655Y-35416542D01*
X84374336Y-35442048D01*
X84336805Y-35458538D01*
X84310857Y-35464182D01*
X84279608Y-35466388D01*
X84247133Y-35465196D01*
X84217508Y-35460649D01*
X84205287Y-35457215D01*
X84165024Y-35438581D01*
X84130929Y-35412915D01*
X84103477Y-35381406D01*
X84083140Y-35345244D01*
X84070391Y-35305616D01*
X84065703Y-35263712D01*
X84069549Y-35220722D01*
X84082401Y-35177835D01*
X84088668Y-35163972D01*
X84111322Y-35128859D01*
X84141120Y-35099447D01*
X84176498Y-35076514D01*
X84215894Y-35060838D01*
X84257743Y-35053197D01*
X84300482Y-35054370D01*
G37*
G36*
X84324194Y-32663410D02*
G01*
X84326643Y-32664033D01*
X84368757Y-32679867D01*
X84405221Y-32703437D01*
X84435274Y-32733753D01*
X84458155Y-32769826D01*
X84473103Y-32810666D01*
X84479358Y-32855285D01*
X84479501Y-32862847D01*
X84475057Y-32909434D01*
X84461710Y-32951640D01*
X84439766Y-32988989D01*
X84409530Y-33021006D01*
X84371307Y-33047217D01*
X84356100Y-33054930D01*
X84327455Y-33064442D01*
X84293471Y-33069776D01*
X84257979Y-33070746D01*
X84224810Y-33067164D01*
X84206184Y-33062261D01*
X84165947Y-33043235D01*
X84131390Y-33016991D01*
X84103272Y-32984779D01*
X84082348Y-32947848D01*
X84069376Y-32907444D01*
X84065112Y-32864817D01*
X84067777Y-32833942D01*
X84079758Y-32789602D01*
X84099529Y-32750491D01*
X84126063Y-32717283D01*
X84158331Y-32690654D01*
X84195306Y-32671277D01*
X84235960Y-32659828D01*
X84279265Y-32656981D01*
X84324194Y-32663410D01*
G37*
G36*
X84910367Y-35852849D02*
G01*
X84947335Y-35859166D01*
X84980332Y-35870590D01*
X84980503Y-35870670D01*
X85018365Y-35893569D01*
X85049506Y-35922980D01*
X85073505Y-35957645D01*
X85089943Y-35996307D01*
X85098397Y-36037709D01*
X85098449Y-36080594D01*
X85089676Y-36123706D01*
X85076298Y-36156961D01*
X85053907Y-36191116D01*
X85024361Y-36219711D01*
X84989229Y-36242076D01*
X84950079Y-36257540D01*
X84908480Y-36265436D01*
X84866002Y-36265092D01*
X84836105Y-36259462D01*
X84802620Y-36247169D01*
X84772173Y-36228514D01*
X84747537Y-36207421D01*
X84719055Y-36173903D01*
X84699200Y-36137087D01*
X84687657Y-36098160D01*
X84684111Y-36058309D01*
X84688249Y-36018722D01*
X84699756Y-35980585D01*
X84718319Y-35945086D01*
X84743623Y-35913412D01*
X84775355Y-35886750D01*
X84813200Y-35866288D01*
X84840226Y-35857063D01*
X84873355Y-35852021D01*
X84910367Y-35852849D01*
G37*
G36*
X77063028Y-50454848D02*
G01*
X77090615Y-50457891D01*
X77106230Y-50461430D01*
X77147061Y-50478416D01*
X77182106Y-50502702D01*
X77210832Y-50533078D01*
X77232707Y-50568332D01*
X77247197Y-50607254D01*
X77253768Y-50648631D01*
X77251887Y-50691253D01*
X77241022Y-50733908D01*
X77233803Y-50751218D01*
X77211210Y-50788198D01*
X77181624Y-50818970D01*
X77146367Y-50842887D01*
X77106760Y-50859303D01*
X77064123Y-50867570D01*
X77019779Y-50867041D01*
X77002728Y-50864394D01*
X76966725Y-50852741D01*
X76931702Y-50832993D01*
X76899992Y-50806965D01*
X76873930Y-50776472D01*
X76860463Y-50753783D01*
X76844888Y-50711424D01*
X76838713Y-50668639D01*
X76841457Y-50626558D01*
X76852642Y-50586312D01*
X76871788Y-50549031D01*
X76898413Y-50515846D01*
X76932039Y-50487888D01*
X76972185Y-50466288D01*
X76984512Y-50461539D01*
X77006144Y-50456676D01*
X77033594Y-50454444D01*
X77063028Y-50454848D01*
G37*
G36*
X77701301Y-55247734D02*
G01*
X77727891Y-55253245D01*
X77729392Y-55253725D01*
X77771320Y-55272375D01*
X77806761Y-55298617D01*
X77835813Y-55332541D01*
X77854632Y-55365505D01*
X77867738Y-55404130D01*
X77872830Y-55445804D01*
X77870053Y-55488046D01*
X77859551Y-55528373D01*
X77843222Y-55561601D01*
X77815404Y-55596713D01*
X77781726Y-55624643D01*
X77743560Y-55644845D01*
X77702278Y-55656769D01*
X77659254Y-55659869D01*
X77615861Y-55653597D01*
X77613875Y-55653073D01*
X77570870Y-55636622D01*
X77533781Y-55612396D01*
X77503274Y-55581129D01*
X77480012Y-55543559D01*
X77464660Y-55500421D01*
X77461255Y-55484006D01*
X77458660Y-55440687D01*
X77465257Y-55398677D01*
X77480238Y-55359227D01*
X77502792Y-55323590D01*
X77532110Y-55293016D01*
X77567384Y-55268758D01*
X77607803Y-55252066D01*
X77612029Y-55250879D01*
X77638796Y-55246440D01*
X77670078Y-55245429D01*
X77701301Y-55247734D01*
G37*
G36*
X77710714Y-51256837D02*
G01*
X77748945Y-51269007D01*
X77784297Y-51288200D01*
X77815531Y-51314109D01*
X77841406Y-51346426D01*
X77860683Y-51384842D01*
X77865107Y-51397883D01*
X77870349Y-51424212D01*
X77872365Y-51455165D01*
X77871180Y-51486563D01*
X77866821Y-51514224D01*
X77864351Y-51522845D01*
X77845318Y-51564509D01*
X77819012Y-51600013D01*
X77786522Y-51628685D01*
X77748935Y-51649855D01*
X77707339Y-51662852D01*
X77662824Y-51667004D01*
X77634092Y-51664823D01*
X77599912Y-51656019D01*
X77565133Y-51640057D01*
X77533435Y-51618817D01*
X77519036Y-51605959D01*
X77491201Y-51571471D01*
X77471868Y-51533103D01*
X77461033Y-51492241D01*
X77458694Y-51450267D01*
X77464846Y-51408565D01*
X77479486Y-51368519D01*
X77502611Y-51331511D01*
X77519777Y-51312118D01*
X77553802Y-51284551D01*
X77591149Y-51265547D01*
X77630576Y-51254799D01*
X77670844Y-51251998D01*
X77710714Y-51256837D01*
G37*
G36*
X78323607Y-55248271D02*
G01*
X78364070Y-55260154D01*
X78401371Y-55279886D01*
X78434196Y-55306993D01*
X78461231Y-55341003D01*
X78474091Y-55364452D01*
X78486244Y-55399562D01*
X78492358Y-55438067D01*
X78492163Y-55476421D01*
X78485389Y-55511077D01*
X78485263Y-55511469D01*
X78466976Y-55552993D01*
X78441606Y-55588669D01*
X78410315Y-55617844D01*
X78374264Y-55639866D01*
X78334614Y-55654083D01*
X78292528Y-55659845D01*
X78249165Y-55656499D01*
X78233267Y-55652886D01*
X78191266Y-55636820D01*
X78155135Y-55613462D01*
X78125365Y-55583951D01*
X78102443Y-55549425D01*
X78086859Y-55511023D01*
X78079102Y-55469884D01*
X78079661Y-55427146D01*
X78089025Y-55383948D01*
X78103137Y-55349918D01*
X78118109Y-55327649D01*
X78139640Y-55304681D01*
X78164860Y-55283644D01*
X78190897Y-55267171D01*
X78196389Y-55264449D01*
X78238452Y-55249945D01*
X78281296Y-55244710D01*
X78323607Y-55248271D01*
G37*
G36*
X78328541Y-52854116D02*
G01*
X78367367Y-52866372D01*
X78403358Y-52885948D01*
X78435212Y-52912617D01*
X78461627Y-52946153D01*
X78474091Y-52968980D01*
X78482795Y-52989627D01*
X78488053Y-53008541D01*
X78490918Y-53030261D01*
X78491896Y-53045897D01*
X78490125Y-53091550D01*
X78479920Y-53132240D01*
X78460888Y-53168950D01*
X78432638Y-53202662D01*
X78427458Y-53207636D01*
X78391379Y-53234762D01*
X78350985Y-53253232D01*
X78307551Y-53262686D01*
X78262349Y-53262764D01*
X78242746Y-53259838D01*
X78202003Y-53246985D01*
X78165302Y-53225809D01*
X78133706Y-53197533D01*
X78108275Y-53163379D01*
X78090072Y-53124574D01*
X78080160Y-53082339D01*
X78079095Y-53071288D01*
X78080301Y-53025048D01*
X78090644Y-52982790D01*
X78110267Y-52944121D01*
X78137455Y-52910536D01*
X78170926Y-52882805D01*
X78208072Y-52863523D01*
X78247591Y-52852465D01*
X78288182Y-52849405D01*
X78328541Y-52854116D01*
G37*
G36*
X78328609Y-50458546D02*
G01*
X78367426Y-50470820D01*
X78403409Y-50490428D01*
X78435257Y-50517144D01*
X78461671Y-50550742D01*
X78474091Y-50573508D01*
X78482795Y-50594156D01*
X78488053Y-50613069D01*
X78490918Y-50634790D01*
X78491896Y-50650425D01*
X78489942Y-50696443D01*
X78479260Y-50737791D01*
X78459590Y-50775129D01*
X78430667Y-50809114D01*
X78427528Y-50812099D01*
X78391409Y-50839265D01*
X78350995Y-50857757D01*
X78307548Y-50867218D01*
X78262329Y-50867292D01*
X78242746Y-50864366D01*
X78202003Y-50851514D01*
X78165302Y-50830338D01*
X78133706Y-50802061D01*
X78108275Y-50767908D01*
X78090072Y-50729102D01*
X78080160Y-50686867D01*
X78079095Y-50675816D01*
X78080301Y-50629576D01*
X78090644Y-50587319D01*
X78110267Y-50548650D01*
X78137455Y-50515064D01*
X78170965Y-50487290D01*
X78208134Y-50467976D01*
X78247663Y-50456898D01*
X78288255Y-50453830D01*
X78328609Y-50458546D01*
G37*
G36*
X78336650Y-51257970D02*
G01*
X78374648Y-51271523D01*
X78409916Y-51292808D01*
X78441232Y-51321908D01*
X78460719Y-51347861D01*
X78479645Y-51384874D01*
X78489914Y-51424223D01*
X78492021Y-51467892D01*
X78491832Y-51472019D01*
X78484851Y-51515848D01*
X78469396Y-51555711D01*
X78446488Y-51590776D01*
X78417149Y-51620214D01*
X78382404Y-51643191D01*
X78343273Y-51658878D01*
X78300781Y-51666444D01*
X78255949Y-51665057D01*
X78254533Y-51664862D01*
X78224336Y-51657366D01*
X78192158Y-51644005D01*
X78162275Y-51626714D01*
X78149872Y-51617481D01*
X78121207Y-51587770D01*
X78099552Y-51552315D01*
X78085284Y-51512857D01*
X78078780Y-51471139D01*
X78080416Y-51428900D01*
X78090569Y-51387883D01*
X78096919Y-51372593D01*
X78119795Y-51334354D01*
X78148499Y-51303264D01*
X78181808Y-51279407D01*
X78218501Y-51262866D01*
X78257353Y-51253724D01*
X78297144Y-51252064D01*
X78336650Y-51257970D01*
G37*
G36*
X83683555Y-33457984D02*
G01*
X83712881Y-33463520D01*
X83716683Y-33464716D01*
X83757501Y-33483208D01*
X83791971Y-33508357D01*
X83819813Y-33538958D01*
X83840745Y-33573808D01*
X83854486Y-33611702D01*
X83860754Y-33651434D01*
X83859269Y-33691799D01*
X83849750Y-33731594D01*
X83831915Y-33769613D01*
X83805484Y-33804651D01*
X83797827Y-33812485D01*
X83762516Y-33840160D01*
X83722899Y-33859242D01*
X83680337Y-33869376D01*
X83636192Y-33870210D01*
X83600054Y-33863784D01*
X83563609Y-33850935D01*
X83532756Y-33832720D01*
X83506367Y-33809702D01*
X83478497Y-33775339D01*
X83459301Y-33737756D01*
X83448490Y-33698174D01*
X83445777Y-33657810D01*
X83450871Y-33617884D01*
X83463484Y-33579615D01*
X83483328Y-33544223D01*
X83510114Y-33512926D01*
X83543552Y-33486944D01*
X83583354Y-33467496D01*
X83587800Y-33465914D01*
X83616724Y-33459221D01*
X83650073Y-33456564D01*
X83683555Y-33457984D01*
G37*
G36*
X83703524Y-32663165D02*
G01*
X83743328Y-32677236D01*
X83779871Y-32699638D01*
X83797143Y-32714631D01*
X83825889Y-32748968D01*
X83845945Y-32786536D01*
X83857589Y-32826135D01*
X83861098Y-32866566D01*
X83856749Y-32906627D01*
X83844819Y-32945118D01*
X83825586Y-32980840D01*
X83799327Y-33012591D01*
X83766318Y-33039172D01*
X83726838Y-33059382D01*
X83716683Y-33063066D01*
X83690490Y-33068763D01*
X83659111Y-33070947D01*
X83626703Y-33069666D01*
X83597427Y-33064968D01*
X83585877Y-33061573D01*
X83545525Y-33042385D01*
X83511614Y-33016587D01*
X83484423Y-32985401D01*
X83464231Y-32950047D01*
X83451318Y-32911746D01*
X83445963Y-32871718D01*
X83448444Y-32831185D01*
X83459041Y-32791368D01*
X83478034Y-32753487D01*
X83505700Y-32718763D01*
X83507149Y-32717299D01*
X83541160Y-32689918D01*
X83579276Y-32670801D01*
X83620025Y-32659961D01*
X83661932Y-32657411D01*
X83703524Y-32663165D01*
G37*
G36*
X83704029Y-35058954D02*
G01*
X83744037Y-35073327D01*
X83780889Y-35096094D01*
X83798397Y-35111324D01*
X83826796Y-35145338D01*
X83846545Y-35182641D01*
X83857926Y-35222027D01*
X83861224Y-35262289D01*
X83856723Y-35302222D01*
X83844707Y-35340619D01*
X83825459Y-35376274D01*
X83799264Y-35407980D01*
X83766404Y-35434532D01*
X83727165Y-35454723D01*
X83716683Y-35458538D01*
X83691136Y-35464105D01*
X83660284Y-35466357D01*
X83628247Y-35465327D01*
X83599144Y-35461049D01*
X83586298Y-35457469D01*
X83546182Y-35438745D01*
X83512399Y-35413292D01*
X83485233Y-35382347D01*
X83464968Y-35347145D01*
X83451886Y-35308923D01*
X83446274Y-35268918D01*
X83448413Y-35228367D01*
X83458589Y-35188505D01*
X83477085Y-35150569D01*
X83504184Y-35115796D01*
X83507149Y-35112770D01*
X83541293Y-35085274D01*
X83579496Y-35066137D01*
X83620315Y-35055367D01*
X83662307Y-35052970D01*
X83704029Y-35058954D01*
G37*
G36*
X83707697Y-34261440D02*
G01*
X83747367Y-34276881D01*
X83783225Y-34299811D01*
X83813709Y-34329407D01*
X83837257Y-34364849D01*
X83839839Y-34370079D01*
X83854845Y-34412408D01*
X83860599Y-34455023D01*
X83857691Y-34496786D01*
X83846711Y-34536559D01*
X83828252Y-34573207D01*
X83802902Y-34605590D01*
X83771253Y-34632572D01*
X83733896Y-34653016D01*
X83691421Y-34665785D01*
X83685752Y-34666789D01*
X83667043Y-34669628D01*
X83653902Y-34670720D01*
X83642072Y-34670182D01*
X83628806Y-34668369D01*
X83582561Y-34656679D01*
X83541938Y-34637130D01*
X83507562Y-34610298D01*
X83480059Y-34576760D01*
X83460054Y-34537091D01*
X83450448Y-34504135D01*
X83445811Y-34459795D01*
X83450414Y-34417095D01*
X83463510Y-34377105D01*
X83484354Y-34340895D01*
X83512200Y-34309536D01*
X83546302Y-34284099D01*
X83585913Y-34265654D01*
X83623175Y-34256301D01*
X83665779Y-34254306D01*
X83707697Y-34261440D01*
G37*
G36*
X84283594Y-33457240D02*
G01*
X84308489Y-33458958D01*
X84327861Y-33462423D01*
X84346158Y-33468650D01*
X84359187Y-33474470D01*
X84399523Y-33498555D01*
X84431983Y-33528696D01*
X84456271Y-33564422D01*
X84472088Y-33605264D01*
X84479139Y-33650750D01*
X84479501Y-33664936D01*
X84474804Y-33709446D01*
X84461583Y-33750120D01*
X84440835Y-33786185D01*
X84413554Y-33816873D01*
X84380739Y-33841411D01*
X84343385Y-33859029D01*
X84302488Y-33868957D01*
X84259045Y-33870424D01*
X84221423Y-33864579D01*
X84180565Y-33849946D01*
X84145348Y-33828045D01*
X84116114Y-33800091D01*
X84093206Y-33767300D01*
X84076967Y-33730888D01*
X84067739Y-33692069D01*
X84065864Y-33652059D01*
X84071686Y-33612074D01*
X84085547Y-33573329D01*
X84107789Y-33537039D01*
X84123849Y-33518433D01*
X84156591Y-33490197D01*
X84191992Y-33470884D01*
X84231362Y-33459993D01*
X84276012Y-33457020D01*
X84283594Y-33457240D01*
G37*
G36*
X84319619Y-35856878D02*
G01*
X84351540Y-35866361D01*
X84356100Y-35868368D01*
X84396857Y-35892337D01*
X84429887Y-35922423D01*
X84454826Y-35958057D01*
X84471309Y-35998674D01*
X84478971Y-36043705D01*
X84479501Y-36060408D01*
X84475066Y-36105819D01*
X84461825Y-36146658D01*
X84439552Y-36183486D01*
X84422650Y-36202980D01*
X84388682Y-36231116D01*
X84349905Y-36251425D01*
X84308029Y-36263433D01*
X84264761Y-36266664D01*
X84221812Y-36260645D01*
X84218384Y-36259734D01*
X84177114Y-36243465D01*
X84141131Y-36219550D01*
X84111208Y-36189203D01*
X84088117Y-36153643D01*
X84072628Y-36114086D01*
X84065513Y-36071748D01*
X84067545Y-36027846D01*
X84068329Y-36023147D01*
X84080949Y-35979474D01*
X84101890Y-35940473D01*
X84130257Y-35907151D01*
X84165155Y-35880516D01*
X84205692Y-35861574D01*
X84214119Y-35858880D01*
X84246941Y-35852873D01*
X84283430Y-35852294D01*
X84319619Y-35856878D01*
G37*
G36*
X77093214Y-52055375D02*
G01*
X77135816Y-52069596D01*
X77144433Y-52073694D01*
X77178027Y-52095900D01*
X77206613Y-52125454D01*
X77229287Y-52160581D01*
X77245144Y-52199509D01*
X77253278Y-52240463D01*
X77252784Y-52281669D01*
X77252314Y-52285136D01*
X77246223Y-52316016D01*
X77236887Y-52342053D01*
X77222387Y-52368316D01*
X77218699Y-52374043D01*
X77191421Y-52407174D01*
X77156997Y-52433921D01*
X77129677Y-52448545D01*
X77100783Y-52458032D01*
X77066659Y-52463361D01*
X77031280Y-52464294D01*
X76998617Y-52460592D01*
X76985372Y-52457196D01*
X76945327Y-52439527D01*
X76910462Y-52414370D01*
X76881588Y-52383036D01*
X76859515Y-52346840D01*
X76845052Y-52307093D01*
X76839008Y-52265108D01*
X76841782Y-52224473D01*
X76854063Y-52181045D01*
X76874057Y-52142869D01*
X76900641Y-52110504D01*
X76932696Y-52084508D01*
X76969101Y-52065438D01*
X77008736Y-52053854D01*
X77050481Y-52050314D01*
X77093214Y-52055375D01*
G37*
G36*
X83709715Y-31866741D02*
G01*
X83745764Y-31880151D01*
X83779707Y-31901114D01*
X83809858Y-31929507D01*
X83833741Y-31962844D01*
X83839872Y-31974607D01*
X83854858Y-32016977D01*
X83860593Y-32059620D01*
X83857669Y-32101399D01*
X83846674Y-32141179D01*
X83828200Y-32177824D01*
X83802836Y-32210197D01*
X83771171Y-32237165D01*
X83733796Y-32257589D01*
X83691301Y-32270336D01*
X83685752Y-32271318D01*
X83667508Y-32274135D01*
X83654410Y-32275275D01*
X83642065Y-32274719D01*
X83626081Y-32272444D01*
X83617379Y-32270997D01*
X83575493Y-32259170D01*
X83538077Y-32239225D01*
X83505932Y-32212350D01*
X83479860Y-32179732D01*
X83460662Y-32142560D01*
X83449140Y-32102020D01*
X83446094Y-32059300D01*
X83450448Y-32023647D01*
X83464252Y-31980658D01*
X83485575Y-31943278D01*
X83513314Y-31912041D01*
X83546369Y-31887482D01*
X83583638Y-31870138D01*
X83624020Y-31860543D01*
X83666413Y-31859232D01*
X83709715Y-31866741D01*
G37*
G36*
X84294592Y-34254777D02*
G01*
X84334141Y-34262820D01*
X84372357Y-34279191D01*
X84408105Y-34304312D01*
X84414222Y-34309825D01*
X84444259Y-34343930D01*
X84465036Y-34381607D01*
X84476788Y-34423399D01*
X84479856Y-34462163D01*
X84475165Y-34507280D01*
X84461646Y-34548818D01*
X84440124Y-34585804D01*
X84411429Y-34617265D01*
X84376387Y-34642227D01*
X84335825Y-34659718D01*
X84305875Y-34666789D01*
X84288577Y-34669488D01*
X84275984Y-34670697D01*
X84264208Y-34670372D01*
X84249363Y-34668469D01*
X84233925Y-34665990D01*
X84193639Y-34654546D01*
X84157184Y-34634792D01*
X84125496Y-34607989D01*
X84099509Y-34575400D01*
X84080158Y-34538287D01*
X84068377Y-34497914D01*
X84065101Y-34455541D01*
X84066242Y-34439519D01*
X84075644Y-34396153D01*
X84092782Y-34357735D01*
X84116523Y-34324686D01*
X84145734Y-34297429D01*
X84179280Y-34276388D01*
X84216027Y-34261983D01*
X84254843Y-34254639D01*
X84294592Y-34254777D01*
G37*
G36*
X84314319Y-31862546D02*
G01*
X84351479Y-31873948D01*
X84385940Y-31891895D01*
X84416620Y-31915939D01*
X84442434Y-31945631D01*
X84462299Y-31980525D01*
X84475133Y-32020172D01*
X84479851Y-32064125D01*
X84479856Y-32065619D01*
X84475167Y-32110729D01*
X84461662Y-32152347D01*
X84440185Y-32189479D01*
X84411580Y-32221129D01*
X84376691Y-32246300D01*
X84336360Y-32263997D01*
X84305543Y-32271371D01*
X84286921Y-32274192D01*
X84273817Y-32275257D01*
X84261923Y-32274683D01*
X84248928Y-32272898D01*
X84203606Y-32261847D01*
X84164332Y-32243374D01*
X84129787Y-32216823D01*
X84123065Y-32210215D01*
X84096101Y-32175896D01*
X84077534Y-32137605D01*
X84067349Y-32096786D01*
X84065531Y-32054880D01*
X84072066Y-32013331D01*
X84086940Y-31973580D01*
X84110138Y-31937070D01*
X84125961Y-31919369D01*
X84160363Y-31891334D01*
X84197483Y-31872082D01*
X84236238Y-31861165D01*
X84275544Y-31858135D01*
X84314319Y-31862546D01*
G37*
G36*
X84948034Y-34261527D02*
G01*
X84988440Y-34277232D01*
X85024553Y-34301192D01*
X85055197Y-34332886D01*
X85066618Y-34349105D01*
X85085392Y-34384858D01*
X85095875Y-34421340D01*
X85099095Y-34461627D01*
X85094414Y-34506622D01*
X85080937Y-34548156D01*
X85059515Y-34585224D01*
X85030998Y-34616820D01*
X84996237Y-34641936D01*
X84956082Y-34659567D01*
X84925665Y-34666843D01*
X84908531Y-34669514D01*
X84896025Y-34670705D01*
X84884277Y-34670369D01*
X84869414Y-34668461D01*
X84854047Y-34665995D01*
X84812406Y-34654287D01*
X84774779Y-34633980D01*
X84742239Y-34606035D01*
X84715858Y-34571411D01*
X84696710Y-34531070D01*
X84693896Y-34522574D01*
X84685314Y-34479042D01*
X84685987Y-34436272D01*
X84695202Y-34395411D01*
X84712248Y-34357601D01*
X84736414Y-34323988D01*
X84766987Y-34295715D01*
X84803257Y-34273927D01*
X84844512Y-34259769D01*
X84859048Y-34256974D01*
X84904512Y-34254601D01*
X84948034Y-34261527D01*
G37*
G36*
X84943575Y-35059098D02*
G01*
X84981702Y-35072616D01*
X85017126Y-35093857D01*
X85048627Y-35122899D01*
X85069543Y-35150783D01*
X85087217Y-35187544D01*
X85097114Y-35228384D01*
X85099100Y-35270934D01*
X85093043Y-35312822D01*
X85080602Y-35348005D01*
X85057060Y-35386346D01*
X85025957Y-35418856D01*
X84988706Y-35444122D01*
X84980276Y-35448356D01*
X84962435Y-35456236D01*
X84947081Y-35461147D01*
X84930510Y-35463868D01*
X84909021Y-35465179D01*
X84899056Y-35465464D01*
X84871007Y-35465231D01*
X84847363Y-35463280D01*
X84831543Y-35460036D01*
X84790255Y-35441606D01*
X84753740Y-35415515D01*
X84723704Y-35383120D01*
X84711655Y-35364987D01*
X84695020Y-35327185D01*
X84686338Y-35285631D01*
X84685716Y-35242779D01*
X84693261Y-35201080D01*
X84703323Y-35174182D01*
X84726262Y-35135817D01*
X84755026Y-35104631D01*
X84788397Y-35080701D01*
X84825155Y-35064104D01*
X84864083Y-35054920D01*
X84903963Y-35053225D01*
X84943575Y-35059098D01*
G37*
G36*
X84938394Y-32662436D02*
G01*
X84975595Y-32674262D01*
X85010595Y-32693524D01*
X85042297Y-32720485D01*
X85069604Y-32755407D01*
X85069644Y-32755471D01*
X85087286Y-32792203D01*
X85097100Y-32833013D01*
X85098959Y-32875602D01*
X85092738Y-32917669D01*
X85080392Y-32952620D01*
X85057160Y-32990730D01*
X85026304Y-33023115D01*
X84989214Y-33048381D01*
X84980276Y-33052884D01*
X84962435Y-33060764D01*
X84947081Y-33065675D01*
X84930510Y-33068396D01*
X84909021Y-33069707D01*
X84899056Y-33069992D01*
X84871007Y-33069760D01*
X84847363Y-33067808D01*
X84831543Y-33064565D01*
X84789264Y-33045777D01*
X84753227Y-33019739D01*
X84724101Y-32987444D01*
X84702556Y-32949890D01*
X84689260Y-32908070D01*
X84684883Y-32862981D01*
X84685526Y-32847341D01*
X84693176Y-32804047D01*
X84708497Y-32765828D01*
X84730392Y-32732947D01*
X84757765Y-32705665D01*
X84789518Y-32684246D01*
X84824554Y-32668951D01*
X84861776Y-32660042D01*
X84900089Y-32657783D01*
X84938394Y-32662436D01*
G37*
G36*
X83683555Y-35853455D02*
G01*
X83712881Y-35858991D01*
X83716683Y-35860188D01*
X83757213Y-35878680D01*
X83792188Y-35904386D01*
X83820830Y-35936072D01*
X83842360Y-35972504D01*
X83856000Y-36012448D01*
X83860971Y-36054671D01*
X83858810Y-36085360D01*
X83853962Y-36112606D01*
X83847967Y-36133767D01*
X83839386Y-36152753D01*
X83826778Y-36173477D01*
X83825895Y-36174811D01*
X83798214Y-36208126D01*
X83764386Y-36234903D01*
X83730086Y-36252138D01*
X83703212Y-36259579D01*
X83671976Y-36264021D01*
X83640207Y-36265229D01*
X83611733Y-36262971D01*
X83598800Y-36260148D01*
X83558318Y-36244052D01*
X83523023Y-36220424D01*
X83506367Y-36205173D01*
X83478497Y-36170810D01*
X83459301Y-36133228D01*
X83448490Y-36093645D01*
X83445777Y-36053281D01*
X83450871Y-36013355D01*
X83463484Y-35975087D01*
X83483328Y-35939695D01*
X83510114Y-35908398D01*
X83543552Y-35882416D01*
X83583354Y-35862968D01*
X83587800Y-35861386D01*
X83616724Y-35854692D01*
X83650073Y-35852036D01*
X83683555Y-35853455D01*
G37*
G36*
X84916515Y-31063659D02*
G01*
X84934460Y-31064620D01*
X84948374Y-31066879D01*
X84961242Y-31070972D01*
X84976048Y-31077437D01*
X84980276Y-31079427D01*
X85018634Y-31103001D01*
X85051138Y-31134114D01*
X85076376Y-31171353D01*
X85080602Y-31179777D01*
X85093988Y-31218961D01*
X85099249Y-31260953D01*
X85096518Y-31303373D01*
X85085926Y-31343840D01*
X85069644Y-31376840D01*
X85041314Y-31412668D01*
X85007192Y-31440890D01*
X84968484Y-31461017D01*
X84926401Y-31472559D01*
X84882150Y-31475029D01*
X84841545Y-31469108D01*
X84800860Y-31454263D01*
X84764589Y-31431271D01*
X84733821Y-31401417D01*
X84709644Y-31365986D01*
X84693148Y-31326265D01*
X84685526Y-31284970D01*
X84686748Y-31238956D01*
X84697121Y-31195820D01*
X84716049Y-31156596D01*
X84742938Y-31122319D01*
X84777194Y-31094023D01*
X84804037Y-31078894D01*
X84819313Y-31071994D01*
X84832200Y-31067522D01*
X84845655Y-31064957D01*
X84862634Y-31063778D01*
X84886092Y-31063463D01*
X84891555Y-31063458D01*
X84916515Y-31063659D01*
G37*
G36*
X77071883Y-54448815D02*
G01*
X77092146Y-54450792D01*
X77109150Y-54454633D01*
X77123394Y-54459669D01*
X77162815Y-54480562D01*
X77196208Y-54508756D01*
X77222734Y-54543022D01*
X77241558Y-54582132D01*
X77251840Y-54624858D01*
X77253560Y-54650601D01*
X77249173Y-54697245D01*
X77235840Y-54739684D01*
X77213945Y-54777320D01*
X77183869Y-54809554D01*
X77145997Y-54835788D01*
X77129677Y-54844043D01*
X77102864Y-54853019D01*
X77071147Y-54858433D01*
X77038041Y-54860100D01*
X77007064Y-54857836D01*
X76982498Y-54851758D01*
X76950378Y-54837671D01*
X76924827Y-54822096D01*
X76902437Y-54802839D01*
X76895758Y-54795943D01*
X76868709Y-54760312D01*
X76850474Y-54721667D01*
X76840809Y-54681241D01*
X76839470Y-54640266D01*
X76846214Y-54599972D01*
X76860797Y-54561591D01*
X76882977Y-54526356D01*
X76912508Y-54495497D01*
X76949149Y-54470245D01*
X76961377Y-54464002D01*
X76977967Y-54456552D01*
X76991732Y-54451879D01*
X77006002Y-54449352D01*
X77024105Y-54448345D01*
X77045010Y-54448213D01*
X77071883Y-54448815D01*
G37*
G36*
X84916515Y-33459131D02*
G01*
X84934460Y-33460092D01*
X84948374Y-33462351D01*
X84961242Y-33466444D01*
X84976048Y-33472909D01*
X84980276Y-33474898D01*
X85018561Y-33498396D01*
X85050920Y-33529320D01*
X85075965Y-33566280D01*
X85080392Y-33575162D01*
X85093868Y-33614848D01*
X85099154Y-33657091D01*
X85096374Y-33699593D01*
X85085655Y-33740052D01*
X85069644Y-33772312D01*
X85042011Y-33807211D01*
X85008508Y-33835141D01*
X84970564Y-33855532D01*
X84929610Y-33867812D01*
X84887076Y-33871412D01*
X84844391Y-33865760D01*
X84839044Y-33864355D01*
X84796983Y-33847752D01*
X84759923Y-33823204D01*
X84729098Y-33791745D01*
X84705741Y-33754408D01*
X84704353Y-33751460D01*
X84689918Y-33708979D01*
X84684789Y-33665881D01*
X84688503Y-33623450D01*
X84700600Y-33582969D01*
X84720617Y-33545722D01*
X84748093Y-33512993D01*
X84782566Y-33486064D01*
X84804023Y-33474342D01*
X84819313Y-33467450D01*
X84832221Y-33462984D01*
X84845703Y-33460424D01*
X84862719Y-33459247D01*
X84886225Y-33458934D01*
X84891555Y-33458930D01*
X84916515Y-33459131D01*
G37*
G36*
X77689891Y-52051977D02*
G01*
X77733788Y-52061330D01*
X77768624Y-52075605D01*
X77790941Y-52090618D01*
X77813966Y-52112282D01*
X77835139Y-52137797D01*
X77851904Y-52164360D01*
X77854622Y-52169804D01*
X77861571Y-52185202D01*
X77866075Y-52198147D01*
X77868659Y-52211602D01*
X77869848Y-52228534D01*
X77870167Y-52251905D01*
X77870172Y-52257630D01*
X77869965Y-52282650D01*
X77868993Y-52300636D01*
X77866730Y-52314551D01*
X77862654Y-52327360D01*
X77856238Y-52342028D01*
X77854622Y-52345456D01*
X77838151Y-52373327D01*
X77816436Y-52400289D01*
X77792113Y-52423489D01*
X77767818Y-52440072D01*
X77766716Y-52440644D01*
X77725427Y-52456633D01*
X77681812Y-52464326D01*
X77638260Y-52463502D01*
X77602620Y-52455795D01*
X77562116Y-52437891D01*
X77527579Y-52412833D01*
X77499505Y-52381842D01*
X77478392Y-52346138D01*
X77464737Y-52306943D01*
X77459037Y-52265477D01*
X77461790Y-52222960D01*
X77473493Y-52180614D01*
X77482414Y-52160749D01*
X77499473Y-52134432D01*
X77522617Y-52108388D01*
X77548472Y-52086130D01*
X77563776Y-52076113D01*
X77603161Y-52059373D01*
X77645774Y-52051326D01*
X77689891Y-52051977D01*
G37*
G36*
X77712233Y-54451007D02*
G01*
X77753350Y-54464823D01*
X77785190Y-54482870D01*
X77816900Y-54509694D01*
X77842334Y-54542699D01*
X77856751Y-54569454D01*
X77862831Y-54583455D01*
X77866752Y-54596167D01*
X77868975Y-54610462D01*
X77869961Y-54629213D01*
X77870172Y-54653102D01*
X77869973Y-54678051D01*
X77869013Y-54695988D01*
X77866755Y-54709903D01*
X77862659Y-54722782D01*
X77856184Y-54737615D01*
X77854123Y-54741996D01*
X77831187Y-54779169D01*
X77800629Y-54811334D01*
X77764318Y-54836636D01*
X77752739Y-54842538D01*
X77735060Y-54850183D01*
X77719364Y-54854954D01*
X77701946Y-54857621D01*
X77679100Y-54858951D01*
X77672633Y-54859150D01*
X77645226Y-54859245D01*
X77624459Y-54857523D01*
X77607079Y-54853626D01*
X77599699Y-54851142D01*
X77558703Y-54831300D01*
X77524307Y-54805003D01*
X77496802Y-54773434D01*
X77476477Y-54737778D01*
X77463623Y-54699221D01*
X77458530Y-54658946D01*
X77461489Y-54618139D01*
X77472788Y-54577983D01*
X77492720Y-54539664D01*
X77516119Y-54510004D01*
X77549191Y-54481621D01*
X77586804Y-54461382D01*
X77627493Y-54449435D01*
X77669792Y-54445928D01*
X77712233Y-54451007D01*
G37*
G36*
X91075272Y-64477536D02*
G01*
X91075251Y-64566209D01*
X91075185Y-64645349D01*
X91075068Y-64715425D01*
X91074895Y-64776903D01*
X91074660Y-64830253D01*
X91074358Y-64875944D01*
X91073985Y-64914443D01*
X91073533Y-64946219D01*
X91072999Y-64971740D01*
X91072376Y-64991476D01*
X91071660Y-65005893D01*
X91070844Y-65015461D01*
X91069924Y-65020649D01*
X91069021Y-65021962D01*
X91061411Y-65021197D01*
X91046595Y-65019755D01*
X91027322Y-65017903D01*
X91020261Y-65017228D01*
X90952450Y-65005828D01*
X90886659Y-64985096D01*
X90823906Y-64955652D01*
X90765212Y-64918116D01*
X90711595Y-64873106D01*
X90664076Y-64821244D01*
X90636965Y-64784189D01*
X90601873Y-64722712D01*
X90575034Y-64656759D01*
X90556621Y-64587655D01*
X90546807Y-64516728D01*
X90545764Y-64445303D01*
X90553667Y-64374706D01*
X90570689Y-64306265D01*
X90573465Y-64297932D01*
X90601310Y-64231529D01*
X90637484Y-64169417D01*
X90681142Y-64112572D01*
X90731440Y-64061970D01*
X90787535Y-64018589D01*
X90842726Y-63986303D01*
X90876641Y-63971562D01*
X90916165Y-63958107D01*
X90958177Y-63946722D01*
X90999560Y-63938193D01*
X91037195Y-63933306D01*
X91056518Y-63932448D01*
X91075272Y-63932428D01*
X91075272Y-64477536D01*
G37*
G36*
X75535985Y-64476217D02*
G01*
X75535771Y-64562473D01*
X75535551Y-64639263D01*
X75535315Y-64707124D01*
X75535055Y-64766591D01*
X75534762Y-64818201D01*
X75534428Y-64862490D01*
X75534044Y-64899995D01*
X75533601Y-64931250D01*
X75533091Y-64956793D01*
X75532505Y-64977160D01*
X75531835Y-64992886D01*
X75531071Y-65004509D01*
X75530206Y-65012564D01*
X75529230Y-65017587D01*
X75528135Y-65020115D01*
X75527211Y-65020698D01*
X75518995Y-65020548D01*
X75503677Y-65019542D01*
X75484103Y-65017878D01*
X75477201Y-65017220D01*
X75408195Y-65005484D01*
X75341727Y-64984218D01*
X75278390Y-64953700D01*
X75218780Y-64914211D01*
X75170044Y-64872424D01*
X75120348Y-64817916D01*
X75078911Y-64757952D01*
X75046067Y-64693173D01*
X75022154Y-64624218D01*
X75009794Y-64567190D01*
X75002750Y-64494678D01*
X75004965Y-64423582D01*
X75015953Y-64354598D01*
X75035224Y-64288422D01*
X75062293Y-64225749D01*
X75096670Y-64167275D01*
X75137869Y-64113695D01*
X75185400Y-64065706D01*
X75238777Y-64024003D01*
X75297512Y-63989281D01*
X75361117Y-63962236D01*
X75429104Y-63943564D01*
X75449696Y-63939795D01*
X75472781Y-63936425D01*
X75494831Y-63933868D01*
X75512059Y-63932543D01*
X75515981Y-63932448D01*
X75537258Y-63932428D01*
X75535985Y-64476217D01*
G37*
G36*
X84758859Y-63932442D02*
G01*
X84816545Y-63932498D01*
X84865847Y-63932617D01*
X84907576Y-63932818D01*
X84942539Y-63933124D01*
X84971546Y-63933554D01*
X84995407Y-63934129D01*
X85014930Y-63934870D01*
X85030925Y-63935797D01*
X85044201Y-63936932D01*
X85055568Y-63938294D01*
X85065834Y-63939905D01*
X85075808Y-63941785D01*
X85078306Y-63942290D01*
X85145832Y-63960925D01*
X85208266Y-63988010D01*
X85265201Y-64023162D01*
X85316233Y-64065996D01*
X85360957Y-64116127D01*
X85398968Y-64173172D01*
X85429862Y-64236746D01*
X85450112Y-64295244D01*
X85454433Y-64311398D01*
X85457528Y-64326656D01*
X85459595Y-64343195D01*
X85460829Y-64363189D01*
X85461426Y-64388815D01*
X85461583Y-64422249D01*
X85461583Y-64422525D01*
X85461429Y-64456023D01*
X85460835Y-64481698D01*
X85459607Y-64501726D01*
X85457547Y-64518281D01*
X85454459Y-64533541D01*
X85450148Y-64549680D01*
X85450112Y-64549806D01*
X85425987Y-64617008D01*
X85394174Y-64678919D01*
X85355253Y-64734907D01*
X85309802Y-64784342D01*
X85258399Y-64826592D01*
X85201622Y-64861025D01*
X85141542Y-64886505D01*
X85117506Y-64893675D01*
X85089274Y-64900505D01*
X85060105Y-64906355D01*
X85033258Y-64910585D01*
X85011994Y-64912555D01*
X85008525Y-64912621D01*
X84989074Y-64912621D01*
X84989074Y-65237685D01*
X84989074Y-65562749D01*
X84671511Y-65562749D01*
X84353949Y-65562749D01*
X84353949Y-64747589D01*
X84353949Y-63932428D01*
X84691980Y-63932428D01*
X84758859Y-63932442D01*
G37*
G36*
X88051064Y-37079619D02*
G01*
X88089968Y-37083795D01*
X88097186Y-37084959D01*
X88171213Y-37102735D01*
X88241996Y-37129556D01*
X88308791Y-37164781D01*
X88370855Y-37207770D01*
X88427445Y-37257882D01*
X88477818Y-37314478D01*
X88521231Y-37376918D01*
X88556941Y-37444561D01*
X88578698Y-37499725D01*
X88596242Y-37565209D01*
X88606425Y-37635025D01*
X88609189Y-37706675D01*
X88604478Y-37777660D01*
X88592236Y-37845480D01*
X88586983Y-37865191D01*
X88560552Y-37939376D01*
X88525834Y-38008570D01*
X88483442Y-38072228D01*
X88433985Y-38129805D01*
X88378077Y-38180759D01*
X88316327Y-38224543D01*
X88249347Y-38260615D01*
X88177748Y-38288429D01*
X88102142Y-38307442D01*
X88087472Y-38309999D01*
X88057005Y-38313614D01*
X88020996Y-38315820D01*
X87982847Y-38316585D01*
X87945961Y-38315874D01*
X87913738Y-38313654D01*
X87899647Y-38311844D01*
X87820537Y-38294486D01*
X87746156Y-38268356D01*
X87676655Y-38233532D01*
X87612183Y-38190093D01*
X87552891Y-38138116D01*
X87539472Y-38124404D01*
X87489862Y-38065245D01*
X87447946Y-38000598D01*
X87414325Y-37931651D01*
X87389602Y-37859592D01*
X87377359Y-37804785D01*
X87372719Y-37767434D01*
X87370275Y-37724196D01*
X87370027Y-37678785D01*
X87371976Y-37634916D01*
X87376125Y-37596305D01*
X87377284Y-37589170D01*
X87395250Y-37514481D01*
X87422101Y-37443463D01*
X87457189Y-37376765D01*
X87499865Y-37315036D01*
X87549479Y-37258925D01*
X87605383Y-37209081D01*
X87666927Y-37166152D01*
X87733463Y-37130789D01*
X87804341Y-37103639D01*
X87878913Y-37085353D01*
X87881570Y-37084883D01*
X87918595Y-37080269D01*
X87961662Y-37077855D01*
X88007057Y-37077639D01*
X88051064Y-37079619D01*
G37*
G36*
X81803246Y-63939200D02*
G01*
X81810509Y-63951663D01*
X81822086Y-63971795D01*
X81837683Y-63999073D01*
X81857004Y-64032972D01*
X81879753Y-64072970D01*
X81905634Y-64118543D01*
X81934353Y-64169167D01*
X81965613Y-64224320D01*
X81999119Y-64283476D01*
X82034575Y-64346114D01*
X82071686Y-64411708D01*
X82110156Y-64479737D01*
X82149689Y-64549676D01*
X82189990Y-64621001D01*
X82230764Y-64693190D01*
X82271714Y-64765719D01*
X82312545Y-64838064D01*
X82352962Y-64909702D01*
X82392668Y-64980109D01*
X82431369Y-65048762D01*
X82468769Y-65115136D01*
X82504571Y-65178710D01*
X82538482Y-65238959D01*
X82570204Y-65295359D01*
X82599442Y-65347388D01*
X82625901Y-65394521D01*
X82649286Y-65436235D01*
X82669300Y-65472007D01*
X82685647Y-65501313D01*
X82698033Y-65523630D01*
X82706162Y-65538434D01*
X82709135Y-65543996D01*
X82718830Y-65562749D01*
X81801048Y-65562749D01*
X81706033Y-65562738D01*
X81613735Y-65562706D01*
X81524648Y-65562654D01*
X81439266Y-65562583D01*
X81358084Y-65562494D01*
X81281595Y-65562389D01*
X81210295Y-65562267D01*
X81144677Y-65562132D01*
X81085236Y-65561982D01*
X81032465Y-65561821D01*
X80986860Y-65561648D01*
X80948913Y-65561465D01*
X80919120Y-65561273D01*
X80897975Y-65561073D01*
X80885972Y-65560866D01*
X80883265Y-65560709D01*
X80885676Y-65555995D01*
X80892711Y-65543112D01*
X80904077Y-65522581D01*
X80919479Y-65494923D01*
X80938624Y-65460660D01*
X80961217Y-65420312D01*
X80986964Y-65374402D01*
X81015571Y-65323450D01*
X81046745Y-65267977D01*
X81080191Y-65208505D01*
X81115614Y-65145555D01*
X81152721Y-65079647D01*
X81191218Y-65011305D01*
X81230811Y-64941047D01*
X81271205Y-64869397D01*
X81312107Y-64796874D01*
X81353222Y-64724000D01*
X81394256Y-64651297D01*
X81434916Y-64579285D01*
X81474907Y-64508486D01*
X81513934Y-64439422D01*
X81551705Y-64372612D01*
X81587924Y-64308579D01*
X81622298Y-64247843D01*
X81654533Y-64190926D01*
X81684335Y-64138350D01*
X81711409Y-64090634D01*
X81735461Y-64048301D01*
X81756198Y-64011872D01*
X81773324Y-63981868D01*
X81786547Y-63958809D01*
X81795572Y-63943219D01*
X81800105Y-63935616D01*
X81800595Y-63934929D01*
X81803246Y-63939200D01*
G37*
G36*
X85583918Y-52252922D02*
G01*
X85694218Y-52263787D01*
X85802179Y-52284233D01*
X85907416Y-52314169D01*
X86009538Y-52353504D01*
X86106794Y-52401395D01*
X86201265Y-52458754D01*
X86288960Y-52523104D01*
X86369686Y-52593909D01*
X86443249Y-52670630D01*
X86509458Y-52752730D01*
X86568118Y-52839670D01*
X86619037Y-52930912D01*
X86662021Y-53025919D01*
X86696879Y-53124153D01*
X86723416Y-53225075D01*
X86741441Y-53328148D01*
X86750759Y-53432834D01*
X86751178Y-53538596D01*
X86742504Y-53644894D01*
X86724546Y-53751192D01*
X86697110Y-53856951D01*
X86663468Y-53952964D01*
X86619174Y-54051550D01*
X86566525Y-54145167D01*
X86506070Y-54233400D01*
X86438360Y-54315837D01*
X86363943Y-54392065D01*
X86283368Y-54461669D01*
X86197185Y-54524238D01*
X86105943Y-54579356D01*
X86010191Y-54626613D01*
X85910479Y-54665593D01*
X85807355Y-54695885D01*
X85701370Y-54717074D01*
X85637083Y-54725202D01*
X85602974Y-54727667D01*
X85561976Y-54729189D01*
X85517159Y-54729774D01*
X85471590Y-54729427D01*
X85428338Y-54728154D01*
X85390473Y-54725960D01*
X85376650Y-54724738D01*
X85278990Y-54710274D01*
X85180439Y-54686748D01*
X85082670Y-54654766D01*
X84987357Y-54614934D01*
X84896172Y-54567860D01*
X84828632Y-54526264D01*
X84737306Y-54459718D01*
X84653420Y-54386594D01*
X84577181Y-54307221D01*
X84508794Y-54221926D01*
X84448466Y-54131038D01*
X84396402Y-54034885D01*
X84352808Y-53933795D01*
X84317889Y-53828096D01*
X84291852Y-53718117D01*
X84280959Y-53652905D01*
X84276535Y-53612818D01*
X84273735Y-53565653D01*
X84272497Y-53510198D01*
X84272420Y-53490373D01*
X84273169Y-53431990D01*
X84275459Y-53382287D01*
X84279353Y-53340053D01*
X84280959Y-53327841D01*
X84301759Y-53215368D01*
X84331489Y-53107255D01*
X84370066Y-53003669D01*
X84417407Y-52904780D01*
X84473429Y-52810755D01*
X84538049Y-52721762D01*
X84611185Y-52637972D01*
X84631315Y-52617329D01*
X84707517Y-52546139D01*
X84785600Y-52483841D01*
X84867149Y-52429329D01*
X84953751Y-52381496D01*
X85003198Y-52358045D01*
X85100642Y-52319021D01*
X85199519Y-52289080D01*
X85301076Y-52267939D01*
X85406559Y-52255315D01*
X85471669Y-52251731D01*
X85583918Y-52252922D01*
G37*
G36*
X73482589Y-51411256D02*
G01*
X73525787Y-51412958D01*
X73546821Y-51414575D01*
X73657499Y-51430057D01*
X73765794Y-51455155D01*
X73871179Y-51489655D01*
X73973126Y-51533343D01*
X74071107Y-51586007D01*
X74164594Y-51647434D01*
X74211952Y-51683320D01*
X74240642Y-51707518D01*
X74273212Y-51737281D01*
X74307354Y-51770317D01*
X74340762Y-51804332D01*
X74371127Y-51837035D01*
X74396142Y-51866133D01*
X74396868Y-51867028D01*
X74462460Y-51955892D01*
X74519459Y-52049469D01*
X74567733Y-52147142D01*
X74607153Y-52248294D01*
X74637586Y-52352306D01*
X74658903Y-52458561D01*
X74670973Y-52566441D01*
X74673664Y-52675330D01*
X74666846Y-52784608D01*
X74650388Y-52893658D01*
X74631548Y-52975271D01*
X74600562Y-53073185D01*
X74560370Y-53169737D01*
X74511768Y-53263593D01*
X74455550Y-53353417D01*
X74392514Y-53437873D01*
X74323454Y-53515625D01*
X74289946Y-53548713D01*
X74205266Y-53622019D01*
X74115055Y-53687096D01*
X74019789Y-53743710D01*
X73919946Y-53791628D01*
X73816003Y-53830616D01*
X73708437Y-53860441D01*
X73616835Y-53878056D01*
X73586446Y-53881711D01*
X73548709Y-53884620D01*
X73505987Y-53886745D01*
X73460642Y-53888049D01*
X73415036Y-53888491D01*
X73371533Y-53888036D01*
X73332495Y-53886644D01*
X73300284Y-53884277D01*
X73291771Y-53883304D01*
X73179670Y-53864502D01*
X73072957Y-53837429D01*
X72971138Y-53801906D01*
X72873721Y-53757753D01*
X72780213Y-53704790D01*
X72751393Y-53686190D01*
X72660358Y-53620117D01*
X72577398Y-53548229D01*
X72502232Y-53470207D01*
X72434578Y-53385728D01*
X72374153Y-53294474D01*
X72321508Y-53197815D01*
X72285329Y-53118567D01*
X72255997Y-53040793D01*
X72232527Y-52961382D01*
X72213937Y-52877223D01*
X72206222Y-52832743D01*
X72199745Y-52780027D01*
X72195764Y-52720691D01*
X72194281Y-52657802D01*
X72195300Y-52594427D01*
X72198823Y-52533632D01*
X72204852Y-52478485D01*
X72205927Y-52471188D01*
X72222722Y-52380183D01*
X72244721Y-52295102D01*
X72272909Y-52212800D01*
X72308275Y-52130130D01*
X72321507Y-52102600D01*
X72375149Y-52004807D01*
X72436447Y-51913200D01*
X72504952Y-51828110D01*
X72580213Y-51749865D01*
X72661778Y-51678796D01*
X72749198Y-51615231D01*
X72842021Y-51559500D01*
X72939797Y-51511933D01*
X73042075Y-51472858D01*
X73148405Y-51442607D01*
X73251763Y-51422491D01*
X73289963Y-51417878D01*
X73335128Y-51414368D01*
X73384277Y-51412041D01*
X73434425Y-51410977D01*
X73482589Y-51411256D01*
G37*
G36*
X93590764Y-45129090D02*
G01*
X93633213Y-45130079D01*
X93670881Y-45131939D01*
X93694735Y-45133960D01*
X93804612Y-45150743D01*
X93911587Y-45176928D01*
X94015146Y-45212203D01*
X94114775Y-45256260D01*
X94209961Y-45308787D01*
X94300191Y-45369474D01*
X94384951Y-45438010D01*
X94463729Y-45514084D01*
X94536010Y-45597387D01*
X94595475Y-45678864D01*
X94652118Y-45772203D01*
X94699845Y-45869481D01*
X94738619Y-45970030D01*
X94768404Y-46073186D01*
X94789162Y-46178281D01*
X94800858Y-46284650D01*
X94803453Y-46391626D01*
X94796911Y-46498543D01*
X94781196Y-46604735D01*
X94756271Y-46709535D01*
X94722098Y-46812277D01*
X94678640Y-46912295D01*
X94665136Y-46939083D01*
X94610140Y-47034271D01*
X94547357Y-47123610D01*
X94477337Y-47206699D01*
X94400628Y-47283138D01*
X94317780Y-47352528D01*
X94229340Y-47414469D01*
X94135858Y-47468560D01*
X94037882Y-47514402D01*
X93935961Y-47551596D01*
X93830645Y-47579740D01*
X93769813Y-47591496D01*
X93721080Y-47598370D01*
X93668312Y-47603621D01*
X93614305Y-47607112D01*
X93561858Y-47608705D01*
X93513770Y-47608263D01*
X93475744Y-47605937D01*
X93403938Y-47597829D01*
X93338951Y-47587703D01*
X93277699Y-47574933D01*
X93217098Y-47558896D01*
X93168184Y-47543680D01*
X93067403Y-47505320D01*
X92970886Y-47458228D01*
X92879133Y-47402935D01*
X92792639Y-47339976D01*
X92711903Y-47269883D01*
X92637422Y-47193187D01*
X92569694Y-47110424D01*
X92509216Y-47022124D01*
X92456487Y-46928821D01*
X92412003Y-46831048D01*
X92376263Y-46729337D01*
X92362934Y-46681527D01*
X92345574Y-46605175D01*
X92333681Y-46531580D01*
X92326762Y-46456807D01*
X92324321Y-46376925D01*
X92324310Y-46373972D01*
X92324561Y-46339476D01*
X92325420Y-46304451D01*
X92326777Y-46271644D01*
X92328522Y-46243806D01*
X92330188Y-46226443D01*
X92348859Y-46114290D01*
X92376893Y-46005650D01*
X92414268Y-45900580D01*
X92460959Y-45799137D01*
X92516944Y-45701380D01*
X92576236Y-45615285D01*
X92597607Y-45588649D01*
X92624907Y-45557603D01*
X92656361Y-45523925D01*
X92690190Y-45489394D01*
X92724620Y-45455788D01*
X92757873Y-45424886D01*
X92788174Y-45398466D01*
X92810613Y-45380615D01*
X92905352Y-45315890D01*
X93003279Y-45260608D01*
X93104309Y-45214804D01*
X93208359Y-45178510D01*
X93315343Y-45151761D01*
X93425179Y-45134589D01*
X93431789Y-45133871D01*
X93464047Y-45131364D01*
X93503250Y-45129731D01*
X93546466Y-45128974D01*
X93590764Y-45129090D01*
G37*
G36*
X81225343Y-29203402D02*
G01*
X81280091Y-29204879D01*
X81330330Y-29207431D01*
X81373653Y-29211060D01*
X81383364Y-29212165D01*
X81521703Y-29233609D01*
X81655258Y-29263794D01*
X81784243Y-29302800D01*
X81908873Y-29350703D01*
X82029361Y-29407582D01*
X82145923Y-29473515D01*
X82205653Y-29511804D01*
X82316206Y-29591505D01*
X82419817Y-29678138D01*
X82516247Y-29771281D01*
X82605255Y-29870508D01*
X82686601Y-29975394D01*
X82760044Y-30085517D01*
X82825346Y-30200451D01*
X82882264Y-30319772D01*
X82930561Y-30443055D01*
X82969994Y-30569877D01*
X83000325Y-30699812D01*
X83021313Y-30832436D01*
X83032717Y-30967326D01*
X83033024Y-30973944D01*
X83034284Y-31111876D01*
X83025807Y-31247979D01*
X83007739Y-31381888D01*
X82980226Y-31513235D01*
X82943414Y-31641651D01*
X82897447Y-31766770D01*
X82842472Y-31888223D01*
X82778635Y-32005645D01*
X82706082Y-32118667D01*
X82624957Y-32226921D01*
X82535407Y-32330040D01*
X82467982Y-32398784D01*
X82366997Y-32489898D01*
X82260480Y-32572737D01*
X82148695Y-32647175D01*
X82031910Y-32713085D01*
X81910389Y-32770340D01*
X81784400Y-32818815D01*
X81654208Y-32858384D01*
X81520079Y-32888921D01*
X81392188Y-32909084D01*
X81372050Y-32911049D01*
X81344617Y-32912933D01*
X81311632Y-32914688D01*
X81274841Y-32916266D01*
X81235989Y-32917618D01*
X81196821Y-32918695D01*
X81159082Y-32919448D01*
X81124516Y-32919830D01*
X81094869Y-32919791D01*
X81071886Y-32919283D01*
X81058300Y-32918380D01*
X81046219Y-32917087D01*
X81027022Y-32915151D01*
X81003549Y-32912856D01*
X80983285Y-32910920D01*
X80853197Y-32893690D01*
X80725518Y-32867013D01*
X80600672Y-32831242D01*
X80479083Y-32786734D01*
X80361175Y-32733844D01*
X80247373Y-32672926D01*
X80138099Y-32604337D01*
X80033778Y-32528430D01*
X79934835Y-32445561D01*
X79841693Y-32356086D01*
X79754776Y-32260359D01*
X79674509Y-32158736D01*
X79601315Y-32051572D01*
X79535619Y-31939221D01*
X79477844Y-31822040D01*
X79428415Y-31700383D01*
X79387765Y-31574639D01*
X79357213Y-31451475D01*
X79335382Y-31328166D01*
X79322096Y-31203176D01*
X79317179Y-31074969D01*
X79318940Y-30974229D01*
X79329223Y-30841106D01*
X79349143Y-30709879D01*
X79378438Y-30581008D01*
X79416846Y-30454953D01*
X79464105Y-30332176D01*
X79519953Y-30213136D01*
X79584130Y-30098293D01*
X79656372Y-29988109D01*
X79736418Y-29883043D01*
X79824006Y-29783556D01*
X79918875Y-29690108D01*
X80020762Y-29603160D01*
X80129406Y-29523172D01*
X80153122Y-29507258D01*
X80268208Y-29437018D01*
X80386834Y-29375941D01*
X80509290Y-29323923D01*
X80635864Y-29280860D01*
X80766846Y-29246646D01*
X80902523Y-29221178D01*
X80968282Y-29212165D01*
X81009441Y-29208260D01*
X81058136Y-29205431D01*
X81111956Y-29203679D01*
X81168495Y-29203002D01*
X81225343Y-29203402D01*
G37*
G36*
X92697347Y-51413241D02*
G01*
X92748868Y-51414524D01*
X92794876Y-51416798D01*
X92837608Y-51420248D01*
X92879299Y-51425057D01*
X92922183Y-51431409D01*
X92968496Y-51439489D01*
X92973145Y-51440351D01*
X93105104Y-51469902D01*
X93233314Y-51508505D01*
X93357419Y-51555811D01*
X93477063Y-51611467D01*
X93591891Y-51675125D01*
X93701545Y-51746433D01*
X93805670Y-51825041D01*
X93903909Y-51910599D01*
X93995906Y-52002755D01*
X94081305Y-52101158D01*
X94159750Y-52205460D01*
X94230885Y-52315308D01*
X94294353Y-52430353D01*
X94349798Y-52550243D01*
X94396864Y-52674629D01*
X94435195Y-52803160D01*
X94457910Y-52901641D01*
X94479508Y-53033348D01*
X94491489Y-53166698D01*
X94493901Y-53300831D01*
X94486796Y-53434883D01*
X94470222Y-53567992D01*
X94444231Y-53699294D01*
X94408872Y-53827927D01*
X94403116Y-53845861D01*
X94356058Y-53973917D01*
X94300149Y-54097480D01*
X94235644Y-54216196D01*
X94162796Y-54329711D01*
X94081860Y-54437669D01*
X93993090Y-54539718D01*
X93896741Y-54635503D01*
X93793068Y-54724668D01*
X93745797Y-54761263D01*
X93636231Y-54837187D01*
X93521422Y-54904830D01*
X93402009Y-54963999D01*
X93278632Y-55014503D01*
X93151927Y-55056151D01*
X93022535Y-55088751D01*
X92891094Y-55112111D01*
X92758243Y-55126040D01*
X92624620Y-55130347D01*
X92525557Y-55127223D01*
X92390870Y-55114330D01*
X92258249Y-55091809D01*
X92128166Y-55059904D01*
X92001098Y-55018862D01*
X91877517Y-54968929D01*
X91757897Y-54910349D01*
X91642713Y-54843370D01*
X91532439Y-54768236D01*
X91427549Y-54685193D01*
X91328516Y-54594487D01*
X91235816Y-54496365D01*
X91179965Y-54429706D01*
X91099462Y-54320978D01*
X91027382Y-54206982D01*
X90963871Y-54088059D01*
X90909070Y-53964551D01*
X90863123Y-53836798D01*
X90826173Y-53705143D01*
X90798363Y-53569926D01*
X90786848Y-53492873D01*
X90783452Y-53459294D01*
X90780811Y-53418050D01*
X90778923Y-53371091D01*
X90777789Y-53320369D01*
X90777408Y-53267837D01*
X90777780Y-53215446D01*
X90778905Y-53165148D01*
X90780781Y-53118895D01*
X90783410Y-53078638D01*
X90786789Y-53046328D01*
X90786932Y-53045285D01*
X90804716Y-52934602D01*
X90826622Y-52830972D01*
X90853279Y-52732075D01*
X90885315Y-52635593D01*
X90923359Y-52539207D01*
X90925072Y-52535185D01*
X90982093Y-52414244D01*
X91047414Y-52298453D01*
X91120594Y-52188159D01*
X91201192Y-52083709D01*
X91288766Y-51985448D01*
X91382875Y-51893724D01*
X91483079Y-51808883D01*
X91588935Y-51731272D01*
X91700002Y-51661236D01*
X91815839Y-51599122D01*
X91936005Y-51545278D01*
X92060058Y-51500048D01*
X92187558Y-51463781D01*
X92318062Y-51436822D01*
X92325518Y-51435584D01*
X92368239Y-51428799D01*
X92405632Y-51423460D01*
X92439909Y-51419408D01*
X92473279Y-51416479D01*
X92507954Y-51414512D01*
X92546143Y-51413347D01*
X92590059Y-51412822D01*
X92638079Y-51412766D01*
X92697347Y-51413241D01*
G37*
G36*
X92526924Y-31068021D02*
G01*
X92679433Y-31084711D01*
X92808113Y-31106433D01*
X92959923Y-31141440D01*
X93108628Y-31185835D01*
X93253847Y-31239382D01*
X93395196Y-31301844D01*
X93532294Y-31372984D01*
X93664756Y-31452567D01*
X93792201Y-31540355D01*
X93914247Y-31636113D01*
X94030509Y-31739603D01*
X94140606Y-31850589D01*
X94244156Y-31968834D01*
X94284073Y-32018646D01*
X94362031Y-32124932D01*
X94435975Y-32238592D01*
X94504620Y-32357375D01*
X94566682Y-32479033D01*
X94620873Y-32601316D01*
X94629909Y-32623765D01*
X94682542Y-32770081D01*
X94725700Y-32918915D01*
X94759390Y-33069754D01*
X94783623Y-33222084D01*
X94798406Y-33375391D01*
X94803748Y-33529159D01*
X94799659Y-33682877D01*
X94786147Y-33836029D01*
X94763220Y-33988101D01*
X94730888Y-34138579D01*
X94689160Y-34286949D01*
X94638044Y-34432698D01*
X94597229Y-34531641D01*
X94529980Y-34672571D01*
X94454076Y-34808795D01*
X94369880Y-34939885D01*
X94277757Y-35065412D01*
X94178073Y-35184947D01*
X94071193Y-35298061D01*
X93957480Y-35404327D01*
X93837301Y-35503315D01*
X93711020Y-35594597D01*
X93668085Y-35622947D01*
X93533062Y-35704188D01*
X93394032Y-35776272D01*
X93251113Y-35839158D01*
X93104423Y-35892800D01*
X92954079Y-35937155D01*
X92800198Y-35972180D01*
X92668085Y-35994388D01*
X92597299Y-36002843D01*
X92519605Y-36009341D01*
X92437723Y-36013808D01*
X92354373Y-36016172D01*
X92272275Y-36016359D01*
X92194150Y-36014295D01*
X92122718Y-36009907D01*
X92115477Y-36009288D01*
X91956941Y-35990409D01*
X91801407Y-35962067D01*
X91649129Y-35924369D01*
X91500359Y-35877424D01*
X91355350Y-35821342D01*
X91214357Y-35756229D01*
X91077632Y-35682194D01*
X90945430Y-35599346D01*
X90818003Y-35507793D01*
X90695605Y-35407644D01*
X90682695Y-35396316D01*
X90653984Y-35370173D01*
X90620991Y-35338843D01*
X90585597Y-35304216D01*
X90549682Y-35268187D01*
X90515127Y-35232649D01*
X90483815Y-35199494D01*
X90457626Y-35170616D01*
X90452082Y-35164265D01*
X90352510Y-35041584D01*
X90261486Y-34913933D01*
X90179128Y-34781698D01*
X90105552Y-34645265D01*
X90040875Y-34505022D01*
X89985214Y-34361354D01*
X89938685Y-34214648D01*
X89901406Y-34065289D01*
X89873492Y-33913664D01*
X89855062Y-33760160D01*
X89846231Y-33605163D01*
X89847116Y-33449058D01*
X89857834Y-33292233D01*
X89865576Y-33224039D01*
X89890378Y-33068142D01*
X89924626Y-32915336D01*
X89968169Y-32765905D01*
X90020854Y-32620135D01*
X90082526Y-32478310D01*
X90153033Y-32340717D01*
X90232221Y-32207639D01*
X90319939Y-32079363D01*
X90416031Y-31956173D01*
X90520346Y-31838354D01*
X90632730Y-31726192D01*
X90705199Y-31660658D01*
X90819341Y-31567617D01*
X90940584Y-31480939D01*
X91067917Y-31401140D01*
X91200325Y-31328736D01*
X91336797Y-31264242D01*
X91476319Y-31208174D01*
X91617878Y-31161048D01*
X91760407Y-31123392D01*
X91910696Y-31093866D01*
X92063555Y-31073549D01*
X92217921Y-31062457D01*
X92372732Y-31060609D01*
X92526924Y-31068021D01*
G37*
G36*
X89229909Y-35215524D02*
G01*
X89229909Y-36454516D01*
X91709145Y-38933755D01*
X94188381Y-41412995D01*
X92946888Y-41412995D01*
X91705396Y-41412995D01*
X91705396Y-43272115D01*
X91705396Y-45131235D01*
X90467652Y-46368971D01*
X89229909Y-47606707D01*
X89229909Y-48227301D01*
X89229909Y-48847894D01*
X88301189Y-50456493D01*
X88233327Y-50574022D01*
X88166735Y-50689325D01*
X88101589Y-50802100D01*
X88038061Y-50912048D01*
X87976327Y-51018867D01*
X87916561Y-51122255D01*
X87858937Y-51221913D01*
X87803629Y-51317539D01*
X87750812Y-51408832D01*
X87700660Y-51495492D01*
X87653347Y-51577217D01*
X87609047Y-51653706D01*
X87567935Y-51724659D01*
X87530185Y-51789774D01*
X87495971Y-51848751D01*
X87465468Y-51901289D01*
X87438849Y-51947086D01*
X87416290Y-51985842D01*
X87397964Y-52017256D01*
X87384045Y-52041027D01*
X87374708Y-52056854D01*
X87370128Y-52064435D01*
X87369668Y-52065092D01*
X87366992Y-52060810D01*
X87359494Y-52048165D01*
X87347348Y-52027457D01*
X87330728Y-51998988D01*
X87309808Y-51963059D01*
X87284764Y-51919972D01*
X87255768Y-51870026D01*
X87222996Y-51813524D01*
X87186621Y-51750766D01*
X87146818Y-51682053D01*
X87103761Y-51607688D01*
X87057625Y-51527969D01*
X87008584Y-51443200D01*
X86956812Y-51353681D01*
X86902483Y-51259712D01*
X86845772Y-51161596D01*
X86786852Y-51059633D01*
X86725899Y-50954124D01*
X86663087Y-50845371D01*
X86598589Y-50733675D01*
X86532580Y-50619336D01*
X86465234Y-50502656D01*
X86439271Y-50457666D01*
X85511677Y-48850240D01*
X82104756Y-52256769D01*
X78697835Y-55663298D01*
X78697835Y-52874000D01*
X78697835Y-50084702D01*
X77767652Y-50084702D01*
X76837469Y-50084702D01*
X76837469Y-49467081D01*
X76837469Y-48849459D01*
X75599725Y-48849459D01*
X74361982Y-48849459D01*
X74361982Y-47609215D01*
X74361982Y-46368971D01*
X80560710Y-46368971D01*
X81798446Y-47606715D01*
X83036182Y-48844458D01*
X83652557Y-48844458D01*
X84268932Y-48844458D01*
X84268932Y-47606715D01*
X87374543Y-47606715D01*
X87379350Y-47685807D01*
X87393656Y-47761944D01*
X87417289Y-47834724D01*
X87450079Y-47903745D01*
X87491853Y-47968605D01*
X87542441Y-48028904D01*
X87563900Y-48050499D01*
X87623563Y-48101122D01*
X87688077Y-48143230D01*
X87756708Y-48176606D01*
X87828723Y-48201034D01*
X87903388Y-48216297D01*
X87979971Y-48222178D01*
X88057737Y-48218461D01*
X88107187Y-48211059D01*
X88179507Y-48192334D01*
X88249135Y-48164407D01*
X88315172Y-48127917D01*
X88376722Y-48083504D01*
X88432886Y-48031804D01*
X88482767Y-47973457D01*
X88520958Y-47916776D01*
X88554087Y-47851787D01*
X88578998Y-47782291D01*
X88595545Y-47709686D01*
X88603582Y-47635370D01*
X88602963Y-47560741D01*
X88593543Y-47487198D01*
X88575174Y-47416139D01*
X88573680Y-47411676D01*
X88544225Y-47340213D01*
X88506365Y-47273496D01*
X88460813Y-47212190D01*
X88408286Y-47156957D01*
X88349498Y-47108461D01*
X88285166Y-47067366D01*
X88216004Y-47034335D01*
X88142728Y-47010030D01*
X88139694Y-47009242D01*
X88065633Y-46995287D01*
X87990256Y-46990848D01*
X87914672Y-46995736D01*
X87839993Y-47009765D01*
X87767327Y-47032747D01*
X87697786Y-47064493D01*
X87651743Y-47091712D01*
X87623609Y-47112140D01*
X87592629Y-47138107D01*
X87560935Y-47167519D01*
X87530658Y-47198280D01*
X87503932Y-47228297D01*
X87482887Y-47255473D01*
X87478615Y-47261807D01*
X87439062Y-47330381D01*
X87409200Y-47399697D01*
X87388725Y-47470769D01*
X87377329Y-47544613D01*
X87374543Y-47606715D01*
X84268932Y-47606715D01*
X84268932Y-46368971D01*
X82414821Y-46368971D01*
X80560710Y-46368971D01*
X74361982Y-46368971D01*
X73121738Y-46368971D01*
X71881493Y-46368971D01*
X71881493Y-46363970D01*
X74366983Y-46363970D01*
X75602226Y-46363970D01*
X76837469Y-46363970D01*
X76837469Y-45128727D01*
X76837469Y-43893484D01*
X75602226Y-43893484D01*
X74366983Y-43893484D01*
X74366983Y-45128727D01*
X74366983Y-46363970D01*
X71881493Y-46363970D01*
X71881493Y-45128727D01*
X71881493Y-44508605D01*
X72199633Y-44508605D01*
X72203715Y-44563906D01*
X72216690Y-44614776D01*
X72238780Y-44661758D01*
X72270212Y-44705398D01*
X72289339Y-44725973D01*
X72332233Y-44762126D01*
X72378990Y-44789132D01*
X72429128Y-44806850D01*
X72482167Y-44815143D01*
X72537628Y-44813873D01*
X72574130Y-44807986D01*
X72601267Y-44799749D01*
X72632145Y-44786552D01*
X72663162Y-44770232D01*
X72690720Y-44752625D01*
X72705470Y-44741010D01*
X72740162Y-44704400D01*
X72769742Y-44661138D01*
X72792286Y-44614049D01*
X72792824Y-44612632D01*
X72799849Y-44592997D01*
X72804428Y-44576617D01*
X72807094Y-44560188D01*
X72808379Y-44540409D01*
X72808819Y-44513975D01*
X72808822Y-44513606D01*
X72807131Y-44469243D01*
X72800933Y-44431076D01*
X72789431Y-44396011D01*
X72771831Y-44360958D01*
X72767817Y-44354185D01*
X72735916Y-44310366D01*
X72698332Y-44273865D01*
X72656143Y-44244841D01*
X72610430Y-44223456D01*
X72562271Y-44209869D01*
X72512746Y-44204239D01*
X72462936Y-44206728D01*
X72413918Y-44217495D01*
X72366773Y-44236700D01*
X72322580Y-44264503D01*
X72298718Y-44284640D01*
X72260597Y-44325996D01*
X72231954Y-44370142D01*
X72212492Y-44417748D01*
X72201913Y-44469488D01*
X72199633Y-44508605D01*
X71881493Y-44508605D01*
X71881493Y-43888483D01*
X73121738Y-43888483D01*
X74361982Y-43888483D01*
X74361982Y-42655740D01*
X80179151Y-42655740D01*
X80890029Y-43887189D01*
X80949325Y-43989892D01*
X81007329Y-44090325D01*
X81063841Y-44188145D01*
X81118663Y-44283009D01*
X81171595Y-44374571D01*
X81222437Y-44462488D01*
X81270991Y-44546416D01*
X81317056Y-44626011D01*
X81360434Y-44700929D01*
X81400926Y-44770825D01*
X81438332Y-44835357D01*
X81472452Y-44894179D01*
X81503087Y-44946949D01*
X81530039Y-44993321D01*
X81553108Y-45032952D01*
X81572093Y-45065498D01*
X81586797Y-45090615D01*
X81597020Y-45107958D01*
X81602563Y-45117185D01*
X81603556Y-45118682D01*
X81606245Y-45114411D01*
X81613732Y-45101820D01*
X81625819Y-45081253D01*
X81642305Y-45053055D01*
X81662992Y-45017568D01*
X81687680Y-44975137D01*
X81716170Y-44926107D01*
X81748262Y-44870820D01*
X81783757Y-44809621D01*
X81822457Y-44742854D01*
X81864161Y-44670862D01*
X81908670Y-44593991D01*
X81955785Y-44512582D01*
X82005306Y-44426982D01*
X82057035Y-44337533D01*
X82110772Y-44244579D01*
X82166317Y-44148465D01*
X82223471Y-44049535D01*
X82282036Y-43948132D01*
X82316477Y-43888483D01*
X86754421Y-43888483D01*
X87989664Y-43888483D01*
X89224908Y-43888483D01*
X89224908Y-42650739D01*
X89224908Y-41412995D01*
X87989664Y-41412995D01*
X86754421Y-41412995D01*
X86754421Y-42650739D01*
X86754421Y-43888483D01*
X82316477Y-43888483D01*
X82317199Y-43887232D01*
X83028192Y-42655740D01*
X82315800Y-42654473D01*
X82214968Y-42654316D01*
X82105774Y-42654187D01*
X81989855Y-42654086D01*
X81868846Y-42654013D01*
X81744380Y-42653967D01*
X81618093Y-42653950D01*
X81491621Y-42653961D01*
X81366598Y-42654000D01*
X81244660Y-42654066D01*
X81127441Y-42654161D01*
X81016577Y-42654284D01*
X80913703Y-42654434D01*
X80891279Y-42654473D01*
X80179151Y-42655740D01*
X74361982Y-42655740D01*
X74361982Y-42650739D01*
X74361982Y-42648239D01*
X74361982Y-41407994D01*
X75599725Y-41407994D01*
X76837469Y-41407994D01*
X76837469Y-40749783D01*
X77699417Y-40749783D01*
X77700024Y-40852303D01*
X77709197Y-40954525D01*
X77726941Y-41055894D01*
X77753260Y-41155855D01*
X77788159Y-41253856D01*
X77831644Y-41349341D01*
X77883718Y-41441756D01*
X77944388Y-41530547D01*
X78013657Y-41615160D01*
X78063189Y-41667548D01*
X78142771Y-41740229D01*
X78228709Y-41805763D01*
X78320121Y-41863718D01*
X78416123Y-41913663D01*
X78515836Y-41955166D01*
X78618375Y-41987796D01*
X78722861Y-42011121D01*
X78784141Y-42020233D01*
X78818595Y-42023435D01*
X78859787Y-42025721D01*
X78904855Y-42027064D01*
X78950937Y-42027434D01*
X78995172Y-42026805D01*
X79034698Y-42025147D01*
X79061854Y-42022972D01*
X79145594Y-42010899D01*
X79231059Y-41992588D01*
X79314734Y-41968929D01*
X79393105Y-41940815D01*
X79405345Y-41935784D01*
X79493300Y-41895378D01*
X79574356Y-41850476D01*
X79650459Y-41799765D01*
X79723557Y-41741930D01*
X79795596Y-41675658D01*
X79805674Y-41665666D01*
X79816559Y-41654289D01*
X83451359Y-41654289D01*
X83456607Y-41696087D01*
X83470408Y-41735257D01*
X83492040Y-41770665D01*
X83520782Y-41801177D01*
X83555913Y-41825658D01*
X83596712Y-41842974D01*
X83604324Y-41845168D01*
X83638866Y-41851708D01*
X83671271Y-41851290D01*
X83700422Y-41845604D01*
X83735576Y-41833910D01*
X83764734Y-41817914D01*
X83791668Y-41795449D01*
X83796882Y-41790234D01*
X83824293Y-41755600D01*
X83842960Y-41717804D01*
X83853108Y-41678107D01*
X83854031Y-41658047D01*
X84070127Y-41658047D01*
X84076489Y-41698291D01*
X84091117Y-41736496D01*
X84113149Y-41771377D01*
X84141724Y-41801645D01*
X84175979Y-41826015D01*
X84215056Y-41843199D01*
X84226424Y-41846466D01*
X84256772Y-41850733D01*
X84291011Y-41849985D01*
X84324557Y-41844522D01*
X84343216Y-41838817D01*
X84382496Y-41819013D01*
X84415162Y-41792728D01*
X84440953Y-41761205D01*
X84459609Y-41725685D01*
X84470872Y-41687412D01*
X84474481Y-41647628D01*
X84473992Y-41643075D01*
X84689442Y-41643075D01*
X84692677Y-41685254D01*
X84705127Y-41725801D01*
X84726420Y-41763449D01*
X84752538Y-41793520D01*
X84781370Y-41817705D01*
X84810266Y-41834304D01*
X84842521Y-41845199D01*
X84843579Y-41845458D01*
X84870440Y-41850866D01*
X84893380Y-41852356D01*
X84917617Y-41850082D01*
X84929630Y-41848006D01*
X84969312Y-41835675D01*
X85006946Y-41814549D01*
X85035123Y-41791101D01*
X85062279Y-41757853D01*
X85080980Y-41720913D01*
X85091407Y-41681634D01*
X85093744Y-41641367D01*
X85088173Y-41601462D01*
X85074875Y-41563271D01*
X85054035Y-41528143D01*
X85025835Y-41497431D01*
X84992193Y-41473461D01*
X84952046Y-41455956D01*
X84910881Y-41447693D01*
X84869891Y-41448160D01*
X84830271Y-41456846D01*
X84793214Y-41473239D01*
X84759915Y-41496827D01*
X84731567Y-41527098D01*
X84709364Y-41563540D01*
X84695796Y-41600532D01*
X84689442Y-41643075D01*
X84473992Y-41643075D01*
X84470177Y-41607575D01*
X84457700Y-41568496D01*
X84436789Y-41531634D01*
X84413214Y-41503977D01*
X84379711Y-41477162D01*
X84343205Y-41459051D01*
X84304860Y-41449258D01*
X84265842Y-41447396D01*
X84227316Y-41453077D01*
X84190446Y-41465915D01*
X84156399Y-41485522D01*
X84126338Y-41511511D01*
X84101429Y-41543495D01*
X84082836Y-41581088D01*
X84072890Y-41617052D01*
X84070127Y-41658047D01*
X83854031Y-41658047D01*
X83854964Y-41637771D01*
X83848753Y-41598056D01*
X83834701Y-41560225D01*
X83813035Y-41525539D01*
X83783979Y-41495259D01*
X83747761Y-41470646D01*
X83738828Y-41466105D01*
X83723174Y-41458973D01*
X83710018Y-41454417D01*
X83696252Y-41451867D01*
X83678772Y-41450752D01*
X83654470Y-41450503D01*
X83653811Y-41450503D01*
X83629244Y-41450747D01*
X83611555Y-41451855D01*
X83597623Y-41454394D01*
X83584328Y-41458928D01*
X83568780Y-41465915D01*
X83530151Y-41489522D01*
X83498411Y-41520114D01*
X83474210Y-41556859D01*
X83458201Y-41598923D01*
X83455386Y-41610996D01*
X83451359Y-41654289D01*
X79816559Y-41654289D01*
X79860253Y-41608618D01*
X79907550Y-41553456D01*
X79949306Y-41497747D01*
X79987262Y-41439060D01*
X80023157Y-41374963D01*
X80045610Y-41330479D01*
X80086546Y-41238351D01*
X80118738Y-41147350D01*
X80142595Y-41055680D01*
X80158524Y-40961548D01*
X80166935Y-40863160D01*
X80166998Y-40860336D01*
X83450887Y-40860336D01*
X83457584Y-40900550D01*
X83472758Y-40939496D01*
X83495736Y-40975595D01*
X83525846Y-41007264D01*
X83536432Y-41015866D01*
X83568194Y-41034370D01*
X83605265Y-41046627D01*
X83644813Y-41052199D01*
X83684004Y-41050649D01*
X83714821Y-41043439D01*
X83754740Y-41024976D01*
X83788533Y-40999902D01*
X83815857Y-40969447D01*
X83836369Y-40934840D01*
X83849725Y-40897310D01*
X83855585Y-40858086D01*
X83854466Y-40835664D01*
X84071296Y-40835664D01*
X84072636Y-40875932D01*
X84081789Y-40915040D01*
X84098398Y-40951741D01*
X84122104Y-40984788D01*
X84152552Y-41012936D01*
X84189384Y-41034938D01*
X84210288Y-41043314D01*
X84239179Y-41049910D01*
X84272061Y-41052325D01*
X84304564Y-41050512D01*
X84331804Y-41044602D01*
X84373805Y-41025585D01*
X84409369Y-40999526D01*
X84437835Y-40967327D01*
X84458541Y-40929891D01*
X84470826Y-40888120D01*
X84474154Y-40850385D01*
X84473213Y-40841408D01*
X84690076Y-40841408D01*
X84692061Y-40881057D01*
X84702190Y-40920083D01*
X84720761Y-40957287D01*
X84748071Y-40991472D01*
X84749265Y-40992675D01*
X84781786Y-41020248D01*
X84815909Y-41038771D01*
X84853512Y-41048979D01*
X84896470Y-41051611D01*
X84899056Y-41051550D01*
X84923084Y-41050263D01*
X84941561Y-41047301D01*
X84958916Y-41041670D01*
X84975275Y-41034431D01*
X85013615Y-41010889D01*
X85046125Y-40979786D01*
X85071391Y-40942535D01*
X85075625Y-40934105D01*
X85083110Y-40917439D01*
X85087812Y-40903589D01*
X85090367Y-40889214D01*
X85091414Y-40870970D01*
X85091594Y-40850385D01*
X85091318Y-40826361D01*
X85090065Y-40808991D01*
X85087197Y-40794934D01*
X85082077Y-40780848D01*
X85075625Y-40766664D01*
X85052781Y-40729101D01*
X85023567Y-40697945D01*
X84989303Y-40673789D01*
X84951309Y-40657228D01*
X84910907Y-40648852D01*
X84869417Y-40649256D01*
X84832523Y-40657520D01*
X84791894Y-40675748D01*
X84757623Y-40700541D01*
X84730008Y-40730702D01*
X84709347Y-40765032D01*
X84695937Y-40802334D01*
X84690076Y-40841408D01*
X84473213Y-40841408D01*
X84469464Y-40805665D01*
X84455715Y-40764679D01*
X84433385Y-40728149D01*
X84402953Y-40696802D01*
X84364898Y-40671361D01*
X84351372Y-40664670D01*
X84312616Y-40652219D01*
X84271809Y-40648593D01*
X84230713Y-40653373D01*
X84191092Y-40666139D01*
X84154709Y-40686470D01*
X84123327Y-40713945D01*
X84117724Y-40720359D01*
X84093482Y-40756631D01*
X84078125Y-40795481D01*
X84071296Y-40835664D01*
X83854466Y-40835664D01*
X83853604Y-40818396D01*
X83843441Y-40779471D01*
X83824751Y-40742538D01*
X83805665Y-40717694D01*
X83772601Y-40687595D01*
X83736403Y-40666219D01*
X83698195Y-40653239D01*
X83659101Y-40648327D01*
X83620243Y-40651156D01*
X83582746Y-40661397D01*
X83547732Y-40678725D01*
X83516326Y-40702810D01*
X83489649Y-40733325D01*
X83468826Y-40769943D01*
X83454980Y-40812336D01*
X83453338Y-40820436D01*
X83450887Y-40860336D01*
X80166998Y-40860336D01*
X80168567Y-40790373D01*
X80163654Y-40678176D01*
X80149176Y-40568867D01*
X80125146Y-40462499D01*
X80091581Y-40359128D01*
X80048496Y-40258806D01*
X79995906Y-40161589D01*
X79989323Y-40150730D01*
X79929381Y-40062003D01*
X83451183Y-40062003D01*
X83453230Y-40081394D01*
X83464363Y-40122869D01*
X83483457Y-40160068D01*
X83509302Y-40192209D01*
X83540689Y-40218509D01*
X83576407Y-40238187D01*
X83615247Y-40250460D01*
X83655999Y-40254545D01*
X83697453Y-40249662D01*
X83708822Y-40246641D01*
X83749138Y-40229694D01*
X83784197Y-40205253D01*
X83813187Y-40174581D01*
X83835297Y-40138941D01*
X83849714Y-40099599D01*
X83855628Y-40057817D01*
X83855431Y-40054624D01*
X84070782Y-40054624D01*
X84075380Y-40094899D01*
X84088010Y-40133625D01*
X84108561Y-40169469D01*
X84136924Y-40201096D01*
X84161064Y-40219811D01*
X84200825Y-40240627D01*
X84242818Y-40252206D01*
X84285748Y-40254342D01*
X84328317Y-40246827D01*
X84328944Y-40246641D01*
X84369378Y-40229453D01*
X84405344Y-40204004D01*
X84435338Y-40171584D01*
X84455870Y-40137744D01*
X84463001Y-40122091D01*
X84467557Y-40108935D01*
X84470108Y-40095169D01*
X84471222Y-40077688D01*
X84471431Y-40057357D01*
X84689579Y-40057357D01*
X84695236Y-40098291D01*
X84709656Y-40137891D01*
X84732854Y-40174900D01*
X84750824Y-40195171D01*
X84785305Y-40222940D01*
X84823991Y-40242285D01*
X84865452Y-40252834D01*
X84908254Y-40254215D01*
X84949066Y-40246634D01*
X84984107Y-40231863D01*
X85017384Y-40209888D01*
X85046074Y-40182902D01*
X85065741Y-40155967D01*
X85083793Y-40115516D01*
X85092818Y-40073376D01*
X85092986Y-40030997D01*
X85084466Y-39989830D01*
X85067430Y-39951323D01*
X85042047Y-39916929D01*
X85037105Y-39911787D01*
X85003686Y-39883963D01*
X84966607Y-39864565D01*
X84932310Y-39854145D01*
X84890957Y-39849749D01*
X84849339Y-39854687D01*
X84809121Y-39868479D01*
X84771969Y-39890644D01*
X84754282Y-39905445D01*
X84725037Y-39939134D01*
X84704494Y-39976521D01*
X84692670Y-40016348D01*
X84689579Y-40057357D01*
X84471431Y-40057357D01*
X84471472Y-40053387D01*
X84471472Y-40052728D01*
X84471230Y-40028183D01*
X84470126Y-40010508D01*
X84467589Y-39996576D01*
X84463048Y-39983260D01*
X84455935Y-39967430D01*
X84455922Y-39967402D01*
X84433002Y-39929699D01*
X84404056Y-39898980D01*
X84370357Y-39875496D01*
X84333178Y-39859494D01*
X84293794Y-39851223D01*
X84253477Y-39850932D01*
X84213501Y-39858870D01*
X84175140Y-39875285D01*
X84139667Y-39900425D01*
X84134925Y-39904728D01*
X84106288Y-39937853D01*
X84086125Y-39974767D01*
X84074327Y-40014135D01*
X84070782Y-40054624D01*
X83855431Y-40054624D01*
X83853393Y-40021520D01*
X83842291Y-39980637D01*
X83823175Y-39943658D01*
X83797286Y-39911497D01*
X83765865Y-39885068D01*
X83730150Y-39865286D01*
X83691384Y-39853065D01*
X83650807Y-39849319D01*
X83623391Y-39851977D01*
X83580530Y-39864148D01*
X83542400Y-39884092D01*
X83509813Y-39910712D01*
X83483584Y-39942911D01*
X83464527Y-39979590D01*
X83453455Y-40019654D01*
X83451183Y-40062003D01*
X79929381Y-40062003D01*
X79927643Y-40059431D01*
X79858863Y-39974767D01*
X79783539Y-39897038D01*
X79702227Y-39826542D01*
X79615481Y-39763578D01*
X79523859Y-39708447D01*
X79427915Y-39661445D01*
X79328206Y-39622874D01*
X79225287Y-39593031D01*
X79119714Y-39572216D01*
X79012042Y-39560729D01*
X78902828Y-39558867D01*
X78890373Y-39559277D01*
X78778060Y-39568379D01*
X78668844Y-39586957D01*
X78562986Y-39614902D01*
X78460749Y-39652102D01*
X78362391Y-39698445D01*
X78268177Y-39753820D01*
X78178365Y-39818116D01*
X78093218Y-39891221D01*
X78078610Y-39905111D01*
X78002344Y-39985379D01*
X77934600Y-40070336D01*
X77875382Y-40159428D01*
X77824697Y-40252101D01*
X77782548Y-40347801D01*
X77748941Y-40445973D01*
X77723880Y-40546064D01*
X77707370Y-40647519D01*
X77699417Y-40749783D01*
X76837469Y-40749783D01*
X76837469Y-40172751D01*
X76837469Y-39259610D01*
X83451243Y-39259610D01*
X83456808Y-39302148D01*
X83471804Y-39342243D01*
X83495959Y-39378998D01*
X83510175Y-39394642D01*
X83538848Y-39419556D01*
X83568752Y-39437099D01*
X83603785Y-39449539D01*
X83605055Y-39449883D01*
X83630938Y-39455525D01*
X83654007Y-39456932D01*
X83679447Y-39454271D01*
X83689020Y-39452571D01*
X83731089Y-39439739D01*
X83768844Y-39418631D01*
X83801181Y-39390381D01*
X83826999Y-39356118D01*
X83845197Y-39316976D01*
X83853393Y-39283778D01*
X83855378Y-39241125D01*
X83854088Y-39233624D01*
X84071047Y-39233624D01*
X84071610Y-39274993D01*
X84073263Y-39285673D01*
X84086186Y-39329817D01*
X84107337Y-39368737D01*
X84135986Y-39401643D01*
X84171406Y-39427746D01*
X84212867Y-39446253D01*
X84224446Y-39449696D01*
X84250305Y-39455395D01*
X84273106Y-39456952D01*
X84298006Y-39454540D01*
X84309507Y-39452540D01*
X84349350Y-39440244D01*
X84385924Y-39419726D01*
X84417911Y-39392364D01*
X84443992Y-39359538D01*
X84462850Y-39322626D01*
X84473165Y-39283006D01*
X84473417Y-39281110D01*
X84474023Y-39246742D01*
X84689587Y-39246742D01*
X84692604Y-39287856D01*
X84704091Y-39327173D01*
X84723296Y-39363465D01*
X84749463Y-39395503D01*
X84781837Y-39422059D01*
X84819665Y-39441904D01*
X84846546Y-39450554D01*
X84873004Y-39455767D01*
X84896702Y-39456781D01*
X84923036Y-39453723D01*
X84929630Y-39452534D01*
X84969718Y-39440080D01*
X85006920Y-39419070D01*
X85039471Y-39390889D01*
X85065602Y-39356920D01*
X85075768Y-39338071D01*
X85089617Y-39297422D01*
X85094273Y-39256014D01*
X85090336Y-39215131D01*
X85078404Y-39176054D01*
X85059077Y-39140067D01*
X85032954Y-39108451D01*
X85000634Y-39082491D01*
X84962716Y-39063468D01*
X84944842Y-39057741D01*
X84902125Y-39051124D01*
X84860149Y-39053782D01*
X84820124Y-39065000D01*
X84783258Y-39084064D01*
X84750761Y-39110257D01*
X84723843Y-39142864D01*
X84703712Y-39181170D01*
X84695796Y-39205061D01*
X84689587Y-39246742D01*
X84474023Y-39246742D01*
X84474176Y-39238038D01*
X84466028Y-39196657D01*
X84449879Y-39158171D01*
X84426636Y-39123783D01*
X84397207Y-39094698D01*
X84362498Y-39072119D01*
X84323417Y-39057252D01*
X84301559Y-39052953D01*
X84258878Y-39051770D01*
X84218235Y-39059339D01*
X84180591Y-39074680D01*
X84146909Y-39096812D01*
X84118151Y-39124754D01*
X84095280Y-39157523D01*
X84079257Y-39194141D01*
X84071047Y-39233624D01*
X83854088Y-39233624D01*
X83848378Y-39200412D01*
X83833361Y-39162626D01*
X83811299Y-39128752D01*
X83783162Y-39099776D01*
X83749919Y-39076683D01*
X83712541Y-39060458D01*
X83671999Y-39052089D01*
X83629262Y-39052559D01*
X83626185Y-39052953D01*
X83586758Y-39063091D01*
X83549003Y-39081839D01*
X83514950Y-39107809D01*
X83486631Y-39139615D01*
X83476483Y-39155149D01*
X83468562Y-39172076D01*
X83460918Y-39194049D01*
X83455386Y-39215525D01*
X83451243Y-39259610D01*
X76837469Y-39259610D01*
X76837469Y-38937508D01*
X76797148Y-38937508D01*
X76766838Y-38936892D01*
X76729129Y-38935164D01*
X76686606Y-38932507D01*
X86754421Y-38932507D01*
X87989664Y-38932507D01*
X89224908Y-38932507D01*
X89224908Y-37697264D01*
X89224908Y-36462021D01*
X87989664Y-36462021D01*
X86754421Y-36462021D01*
X86754421Y-37697264D01*
X86754421Y-38932507D01*
X76686606Y-38932507D01*
X76686542Y-38932503D01*
X76641595Y-38929088D01*
X76596808Y-38925098D01*
X76554701Y-38920712D01*
X76544911Y-38919578D01*
X76391848Y-38896464D01*
X76240459Y-38863741D01*
X76091406Y-38821650D01*
X75945354Y-38770432D01*
X75802966Y-38710330D01*
X75664905Y-38641586D01*
X75638784Y-38626443D01*
X79558079Y-38626443D01*
X79562952Y-38680807D01*
X79576923Y-38732112D01*
X79599336Y-38779520D01*
X79629537Y-38822193D01*
X79666870Y-38859294D01*
X79710680Y-38889986D01*
X79760313Y-38913431D01*
X79789914Y-38922948D01*
X79823513Y-38929034D01*
X79861678Y-38931053D01*
X79900549Y-38929118D01*
X79936268Y-38923342D01*
X79954459Y-38918124D01*
X80007167Y-38894726D01*
X80053597Y-38864141D01*
X80093156Y-38826996D01*
X80125252Y-38783919D01*
X80149290Y-38735537D01*
X80160723Y-38699961D01*
X80165726Y-38671029D01*
X80167979Y-38636753D01*
X80167488Y-38601211D01*
X80164255Y-38568476D01*
X80160549Y-38550104D01*
X80141953Y-38498461D01*
X80122288Y-38464286D01*
X83450960Y-38464286D01*
X83457523Y-38504073D01*
X83472213Y-38542564D01*
X83494220Y-38577995D01*
X83522732Y-38608604D01*
X83545869Y-38626051D01*
X83581000Y-38643491D01*
X83619900Y-38654066D01*
X83659768Y-38657386D01*
X83697803Y-38653059D01*
X83711682Y-38649166D01*
X83752572Y-38630786D01*
X83786865Y-38606103D01*
X83814402Y-38576283D01*
X83835025Y-38542488D01*
X83848576Y-38505883D01*
X83854899Y-38467632D01*
X83854830Y-38465110D01*
X84070421Y-38465110D01*
X84076988Y-38506651D01*
X84092134Y-38545635D01*
X84115147Y-38580856D01*
X84145316Y-38611112D01*
X84181930Y-38635199D01*
X84205075Y-38645578D01*
X84244009Y-38655326D01*
X84285326Y-38656599D01*
X84326295Y-38649515D01*
X84354652Y-38639024D01*
X84394705Y-38615317D01*
X84427050Y-38585570D01*
X84451291Y-38550395D01*
X84467033Y-38510401D01*
X84473879Y-38466200D01*
X84474154Y-38454913D01*
X84472611Y-38439890D01*
X84690488Y-38439890D01*
X84691899Y-38483014D01*
X84702768Y-38525096D01*
X84722888Y-38564826D01*
X84726324Y-38569970D01*
X84755466Y-38604455D01*
X84789337Y-38630130D01*
X84827959Y-38647007D01*
X84871359Y-38655099D01*
X84899143Y-38655760D01*
X84923482Y-38654376D01*
X84942314Y-38651273D01*
X84960108Y-38645452D01*
X84975361Y-38638749D01*
X85013471Y-38615517D01*
X85045856Y-38584661D01*
X85071122Y-38547572D01*
X85075625Y-38538633D01*
X85083110Y-38521968D01*
X85087812Y-38508118D01*
X85090367Y-38493742D01*
X85091414Y-38475499D01*
X85091594Y-38454913D01*
X85091318Y-38430889D01*
X85090065Y-38413519D01*
X85087197Y-38399462D01*
X85082077Y-38385376D01*
X85075625Y-38371193D01*
X85052755Y-38333160D01*
X85024511Y-38302596D01*
X84992050Y-38279420D01*
X84956528Y-38263553D01*
X84919103Y-38254916D01*
X84880930Y-38253430D01*
X84843167Y-38259016D01*
X84806969Y-38271593D01*
X84773495Y-38291083D01*
X84743901Y-38317406D01*
X84719342Y-38350484D01*
X84700977Y-38390236D01*
X84698745Y-38397035D01*
X84690488Y-38439890D01*
X84472611Y-38439890D01*
X84469519Y-38409794D01*
X84455888Y-38368709D01*
X84433672Y-38332290D01*
X84403283Y-38301173D01*
X84365131Y-38275992D01*
X84354949Y-38270941D01*
X84314508Y-38257139D01*
X84273582Y-38252568D01*
X84233351Y-38256594D01*
X84194992Y-38268586D01*
X84159685Y-38287910D01*
X84128606Y-38313934D01*
X84102935Y-38346026D01*
X84083851Y-38383553D01*
X84073143Y-38422215D01*
X84070421Y-38465110D01*
X83854830Y-38465110D01*
X83853834Y-38428898D01*
X83845225Y-38390845D01*
X83828914Y-38354638D01*
X83804743Y-38321441D01*
X83772553Y-38292417D01*
X83761095Y-38284560D01*
X83722012Y-38264887D01*
X83681743Y-38254437D01*
X83641403Y-38252702D01*
X83602109Y-38259171D01*
X83564978Y-38273337D01*
X83531127Y-38294688D01*
X83501672Y-38322716D01*
X83477729Y-38356911D01*
X83460416Y-38396765D01*
X83453338Y-38424964D01*
X83450960Y-38464286D01*
X80122288Y-38464286D01*
X80115102Y-38451797D01*
X80080810Y-38410868D01*
X80039888Y-38376432D01*
X79993150Y-38349245D01*
X79941408Y-38330064D01*
X79918428Y-38324588D01*
X79866822Y-38319143D01*
X79815593Y-38323072D01*
X79765907Y-38335778D01*
X79718928Y-38356665D01*
X79675820Y-38385135D01*
X79637747Y-38420591D01*
X79605873Y-38462436D01*
X79588574Y-38493733D01*
X79573170Y-38529892D01*
X79563628Y-38563035D01*
X79558965Y-38597438D01*
X79558079Y-38626443D01*
X75638784Y-38626443D01*
X75531835Y-38564441D01*
X75479702Y-38530988D01*
X75352281Y-38441008D01*
X75230923Y-38343484D01*
X75116034Y-38238880D01*
X75008019Y-38127656D01*
X74907285Y-38010275D01*
X74814238Y-37887200D01*
X74729282Y-37758893D01*
X74677473Y-37668716D01*
X83451385Y-37668716D01*
X83458351Y-37709644D01*
X83474037Y-37748945D01*
X83498429Y-37785335D01*
X83513696Y-37801852D01*
X83546776Y-37827575D01*
X83584787Y-37845905D01*
X83625693Y-37856328D01*
X83667460Y-37858330D01*
X83708053Y-37851397D01*
X83708822Y-37851169D01*
X83749138Y-37834222D01*
X83784197Y-37809781D01*
X83813187Y-37779109D01*
X83835297Y-37743470D01*
X83849714Y-37704127D01*
X83855628Y-37662345D01*
X83855569Y-37661391D01*
X84070217Y-37661391D01*
X84075883Y-37702889D01*
X84090176Y-37742491D01*
X84112442Y-37778672D01*
X84142028Y-37809903D01*
X84161709Y-37824768D01*
X84201162Y-37845331D01*
X84243069Y-37856762D01*
X84285984Y-37858832D01*
X84328462Y-37851313D01*
X84328944Y-37851169D01*
X84369673Y-37834022D01*
X84404886Y-37809272D01*
X84433800Y-37778129D01*
X84455633Y-37741803D01*
X84469601Y-37701501D01*
X84474226Y-37664058D01*
X84689567Y-37664058D01*
X84695796Y-37704765D01*
X84712103Y-37747802D01*
X84736096Y-37784857D01*
X84766999Y-37815236D01*
X84804034Y-37838246D01*
X84846421Y-37853193D01*
X84866550Y-37857033D01*
X84886187Y-37859031D01*
X84904635Y-37858596D01*
X84925907Y-37855452D01*
X84943487Y-37851749D01*
X84981806Y-37838134D01*
X85016525Y-37815913D01*
X85046528Y-37786170D01*
X85070699Y-37749985D01*
X85086506Y-37712932D01*
X85089603Y-37697264D01*
X85093370Y-37678207D01*
X85093316Y-37640009D01*
X85086607Y-37601821D01*
X85075768Y-37571755D01*
X85053462Y-37535021D01*
X85024409Y-37504175D01*
X84990069Y-37479994D01*
X84951899Y-37463257D01*
X84911359Y-37454741D01*
X84869907Y-37455223D01*
X84860021Y-37456758D01*
X84817864Y-37469129D01*
X84780368Y-37489174D01*
X84748297Y-37515736D01*
X84722416Y-37547661D01*
X84703491Y-37583793D01*
X84692286Y-37622977D01*
X84689567Y-37664058D01*
X84474226Y-37664058D01*
X84474921Y-37658435D01*
X84473224Y-37628380D01*
X84463723Y-37590996D01*
X84445931Y-37554552D01*
X84421475Y-37521301D01*
X84391978Y-37493499D01*
X84362780Y-37475152D01*
X84321654Y-37460180D01*
X84280010Y-37454478D01*
X84239024Y-37457456D01*
X84199874Y-37468529D01*
X84163735Y-37487106D01*
X84131786Y-37512601D01*
X84105202Y-37544425D01*
X84085161Y-37581991D01*
X84073832Y-37619526D01*
X84070217Y-37661391D01*
X83855569Y-37661391D01*
X83853393Y-37626048D01*
X83841751Y-37583693D01*
X83820752Y-37544667D01*
X83794378Y-37513067D01*
X83760210Y-37485402D01*
X83722405Y-37466418D01*
X83682285Y-37456107D01*
X83641170Y-37454465D01*
X83600382Y-37461484D01*
X83561241Y-37477159D01*
X83525070Y-37501484D01*
X83510957Y-37514402D01*
X83482924Y-37549004D01*
X83463659Y-37587113D01*
X83453150Y-37627445D01*
X83451385Y-37668716D01*
X74677473Y-37668716D01*
X74652826Y-37625816D01*
X74609203Y-37539733D01*
X74544684Y-37394824D01*
X74490044Y-37248619D01*
X74445203Y-37100774D01*
X74410083Y-36950944D01*
X74391250Y-36838469D01*
X83451554Y-36838469D01*
X83451805Y-36879097D01*
X83453090Y-36887689D01*
X83465471Y-36930844D01*
X83486082Y-36969653D01*
X83513886Y-37003029D01*
X83547844Y-37029884D01*
X83586920Y-37049130D01*
X83614685Y-37057069D01*
X83641880Y-37059804D01*
X83673322Y-37058419D01*
X83704345Y-37053329D01*
X83724574Y-37047311D01*
X83756808Y-37030741D01*
X83787652Y-37007020D01*
X83814711Y-36978508D01*
X83835585Y-36947565D01*
X83843681Y-36930053D01*
X83850841Y-36903576D01*
X83854849Y-36872667D01*
X83855188Y-36842545D01*
X83854776Y-36838671D01*
X84070857Y-36838671D01*
X84070895Y-36879388D01*
X84079967Y-36918994D01*
X84097104Y-36956200D01*
X84121339Y-36989718D01*
X84151705Y-37018258D01*
X84187234Y-37040533D01*
X84226959Y-37055252D01*
X84234807Y-37057069D01*
X84259720Y-37059683D01*
X84289080Y-37058908D01*
X84318052Y-37055087D01*
X84338762Y-37049701D01*
X84377987Y-37030902D01*
X84411303Y-37005009D01*
X84438165Y-36973328D01*
X84458024Y-36937167D01*
X84470334Y-36897831D01*
X84473679Y-36865121D01*
X84689746Y-36865121D01*
X84695033Y-36904060D01*
X84707905Y-36941232D01*
X84728041Y-36975492D01*
X84755124Y-37005693D01*
X84788833Y-37030686D01*
X84828850Y-37049325D01*
X84845368Y-37054429D01*
X84870954Y-37060022D01*
X84893788Y-37061470D01*
X84918957Y-37058932D01*
X84929630Y-37057063D01*
X84969511Y-37044649D01*
X85006598Y-37023663D01*
X85039139Y-36995479D01*
X85065381Y-36961473D01*
X85075770Y-36942342D01*
X85084827Y-36920431D01*
X85090123Y-36899427D01*
X85092841Y-36874348D01*
X85093141Y-36869163D01*
X85091243Y-36823966D01*
X85080395Y-36783067D01*
X85060352Y-36745864D01*
X85030871Y-36711749D01*
X85028758Y-36709751D01*
X84993721Y-36683406D01*
X84955190Y-36665768D01*
X84914547Y-36656812D01*
X84873178Y-36656515D01*
X84832465Y-36664851D01*
X84793794Y-36681796D01*
X84758547Y-36707327D01*
X84750824Y-36714656D01*
X84722582Y-36749185D01*
X84703201Y-36786537D01*
X84692362Y-36825565D01*
X84689746Y-36865121D01*
X84473679Y-36865121D01*
X84474547Y-36856628D01*
X84470117Y-36814863D01*
X84456495Y-36773844D01*
X84455335Y-36771353D01*
X84432218Y-36733690D01*
X84402262Y-36702571D01*
X84366707Y-36678787D01*
X84326795Y-36663129D01*
X84283765Y-36656386D01*
X84274605Y-36656177D01*
X84230182Y-36660878D01*
X84189195Y-36674392D01*
X84152632Y-36695835D01*
X84121481Y-36724322D01*
X84096728Y-36758967D01*
X84079363Y-36798887D01*
X84070857Y-36838671D01*
X83854776Y-36838671D01*
X83853731Y-36828859D01*
X83842138Y-36786057D01*
X83822805Y-36748290D01*
X83796876Y-36716168D01*
X83765491Y-36690303D01*
X83729792Y-36671303D01*
X83690922Y-36659780D01*
X83650022Y-36656343D01*
X83608234Y-36661604D01*
X83567423Y-36675831D01*
X83531406Y-36697820D01*
X83500979Y-36726620D01*
X83476973Y-36760689D01*
X83460221Y-36798486D01*
X83451554Y-36838469D01*
X74391250Y-36838469D01*
X74384606Y-36798786D01*
X74368692Y-36643956D01*
X74362265Y-36486109D01*
X74362109Y-36457020D01*
X74367001Y-36298356D01*
X74381628Y-36141713D01*
X74405915Y-35987346D01*
X74439786Y-35835513D01*
X74483165Y-35686470D01*
X74535978Y-35540474D01*
X74598150Y-35397780D01*
X74669604Y-35258647D01*
X74750266Y-35123329D01*
X74755968Y-35114453D01*
X74844331Y-34986578D01*
X74940230Y-34864930D01*
X75043239Y-34749810D01*
X75152935Y-34641514D01*
X75268892Y-34540341D01*
X75390687Y-34446591D01*
X75517894Y-34360562D01*
X75650091Y-34282552D01*
X75786851Y-34212860D01*
X75927751Y-34151785D01*
X76072366Y-34099626D01*
X76220272Y-34056680D01*
X76279859Y-34042241D01*
X76433286Y-34012157D01*
X76587880Y-33991730D01*
X76743083Y-33980918D01*
X76898332Y-33979678D01*
X77053069Y-33987969D01*
X77206732Y-34005748D01*
X77358761Y-34032973D01*
X77508595Y-34069603D01*
X77655674Y-34115596D01*
X77755150Y-34152724D01*
X77898753Y-34215318D01*
X78037432Y-34286451D01*
X78170856Y-34365793D01*
X78298694Y-34453016D01*
X78420616Y-34547789D01*
X78536291Y-34649782D01*
X78645387Y-34758667D01*
X78747574Y-34874112D01*
X78842520Y-34995790D01*
X78929896Y-35123369D01*
X79009370Y-35256520D01*
X79080611Y-35394913D01*
X79141732Y-35534338D01*
X79182106Y-35642875D01*
X79217940Y-35755831D01*
X79248875Y-35871457D01*
X79274554Y-35988003D01*
X79294617Y-36103719D01*
X79308705Y-36216855D01*
X79316459Y-36325663D01*
X79317932Y-36393257D01*
X79317957Y-36457020D01*
X83033689Y-36457020D01*
X86749420Y-36457020D01*
X86749420Y-35216776D01*
X86749420Y-33976532D01*
X87989664Y-33976532D01*
X89229909Y-33976532D01*
X89229909Y-35215524D01*
G37*
D15*
%TO.C,C2*%
X89117500Y-98642500D02*
X91857500Y-98642500D01*
X89117500Y-103882500D02*
X89117500Y-98642500D01*
X89117500Y-103882500D02*
X91857500Y-103882500D01*
X91857500Y-103882500D02*
X91857500Y-98642500D01*
%TO.C,RaspberryPiGPIO1*%
X2433750Y-103512500D02*
X2433750Y-79512500D01*
X9183750Y-75752500D02*
X9183750Y-76452500D01*
X9183750Y-76452500D02*
X5493750Y-76452500D01*
X9533750Y-100412500D02*
X10863750Y-100412500D01*
X9533750Y-101742500D02*
X9533750Y-100412500D01*
X9533750Y-103012500D02*
X12133750Y-103012500D01*
X9533750Y-105612500D02*
X9533750Y-103012500D01*
X9533750Y-105612500D02*
X60453750Y-105612500D01*
X12133750Y-100412500D02*
X60453750Y-100412500D01*
X12133750Y-103012500D02*
X12133750Y-100412500D01*
X20603750Y-75752500D02*
X9183750Y-75752500D01*
X20603750Y-76452500D02*
X20603750Y-75752500D01*
X39833750Y-74652500D02*
X39833750Y-76452500D01*
X39833750Y-76452500D02*
X20603750Y-76452500D01*
X47953750Y-74652500D02*
X39833750Y-74652500D01*
X47953750Y-76452500D02*
X47953750Y-74652500D01*
X52433750Y-74652500D02*
X52433750Y-76452500D01*
X52433750Y-76452500D02*
X47953750Y-76452500D01*
X60453750Y-105612500D02*
X60453750Y-100412500D01*
X60553750Y-74652500D02*
X52433750Y-74652500D01*
X60553750Y-76452500D02*
X60553750Y-74652500D01*
X64493750Y-76452500D02*
X60553750Y-76452500D01*
X64493750Y-106572500D02*
X5493750Y-106572500D01*
X67553750Y-82952500D02*
X67553750Y-79512500D01*
X67553750Y-100072500D02*
X67553750Y-103512500D01*
X67553750Y-100072500D02*
X68753750Y-100072500D01*
X68753750Y-82952500D02*
X67553750Y-82952500D01*
X68753750Y-100072500D02*
X68753750Y-82952500D01*
X2433750Y-79512500D02*
G75*
G02*
X5493750Y-76452500I3060000J0D01*
G01*
X5493750Y-106572500D02*
G75*
G02*
X2433750Y-103512500I-1J3059999D01*
G01*
X64493750Y-76452500D02*
G75*
G02*
X67553750Y-79512500I0J-3060000D01*
G01*
X67553750Y-103512500D02*
G75*
G02*
X64493750Y-106572500I-3059999J-1D01*
G01*
D17*
%TO.C,U1*%
X71247000Y-2857500D02*
X107315000Y-2857500D01*
X71247000Y-25717500D02*
X71247000Y-2857500D01*
X107315000Y-2857500D02*
X107315000Y-25717500D01*
X107315000Y-25717500D02*
X71247000Y-25717500D01*
D18*
X94588000Y-2257500D02*
G75*
G02*
X94388000Y-2257500I-100000J0D01*
G01*
X94388000Y-2257500D02*
G75*
G02*
X94588000Y-2257500I100000J0D01*
G01*
%TD*%
M02*
