%TF.GenerationSoftware,KiCad,Pcbnew,9.0.2*%
%TF.CreationDate,2025-07-02T14:38:04-04:00*%
%TF.ProjectId,PaperCam_Kicad,50617065-7243-4616-9d5f-4b696361642e,rev?*%
%TF.SameCoordinates,Original*%
%TF.FileFunction,Drillmap*%
%TF.FilePolarity,Positive*%
%FSLAX45Y45*%
G04 Gerber Fmt 4.5, Leading zero omitted, Abs format (unit mm)*
G04 Created by KiCad (PCBNEW 9.0.2) date 2025-07-02 14:38:04*
%MOMM*%
%LPD*%
G01*
G04 APERTURE LIST*
%ADD10C,0.050000*%
%ADD11C,0.200000*%
%ADD12C,0.100000*%
%ADD13C,0.130000*%
%ADD14C,0.250000*%
G04 APERTURE END LIST*
D10*
X0Y-10500000D02*
X0Y-500000D01*
X10500000Y-11000000D02*
X500000Y-11000000D01*
X10500000Y0D02*
G75*
G02*
X11000000Y-500000I0J-500000D01*
G01*
X500000Y-11000000D02*
G75*
G02*
X0Y-10500000I0J500000D01*
G01*
X11000000Y-500000D02*
X11000000Y-10500000D01*
X0Y-500000D02*
G75*
G02*
X500000Y0I500000J0D01*
G01*
X500000Y0D02*
X10500000Y0D01*
X4375000Y-162500D02*
X6625000Y-162500D01*
X6625000Y-1412500D01*
X4375000Y-1412500D01*
X4375000Y-162500D01*
X11000000Y-10500000D02*
G75*
G02*
X10500000Y-11000000I-500000J0D01*
G01*
D11*
D12*
X8294375Y-9961250D02*
X8374375Y-10041250D01*
X8374375Y-9961250D02*
X8294375Y-10041250D01*
X8294375Y-10211250D02*
X8374375Y-10291250D01*
X8374375Y-10211250D02*
X8294375Y-10291250D01*
X9008750Y-9961250D02*
X9088750Y-10041250D01*
X9088750Y-9961250D02*
X9008750Y-10041250D01*
X9008750Y-10211250D02*
X9088750Y-10291250D01*
X9088750Y-10211250D02*
X9008750Y-10291250D01*
X9723125Y-9949375D02*
X9803125Y-10029375D01*
X9803125Y-9949375D02*
X9723125Y-10029375D01*
X9723125Y-10199375D02*
X9803125Y-10279375D01*
X9803125Y-10199375D02*
X9723125Y-10279375D01*
X3614474Y-514230D02*
G75*
G02*
X3524474Y-514230I-45000J0D01*
G01*
X3524474Y-514230D02*
G75*
G02*
X3614474Y-514230I45000J0D01*
G01*
X3614474Y-764230D02*
G75*
G02*
X3524474Y-764230I-45000J0D01*
G01*
X3524474Y-764230D02*
G75*
G02*
X3614474Y-764230I45000J0D01*
G01*
X3614474Y-1014230D02*
G75*
G02*
X3524474Y-1014230I-45000J0D01*
G01*
X3524474Y-1014230D02*
G75*
G02*
X3614474Y-1014230I45000J0D01*
G01*
X1086375Y-10124250D02*
X1086375Y-10224250D01*
X1036375Y-10174250D02*
X1136375Y-10174250D01*
X1086375Y-10378250D02*
X1086375Y-10478250D01*
X1036375Y-10428250D02*
X1136375Y-10428250D01*
X1340375Y-10124250D02*
X1340375Y-10224250D01*
X1290375Y-10174250D02*
X1390375Y-10174250D01*
X1340375Y-10378250D02*
X1340375Y-10478250D01*
X1290375Y-10428250D02*
X1390375Y-10428250D01*
X1594375Y-10124250D02*
X1594375Y-10224250D01*
X1544375Y-10174250D02*
X1644375Y-10174250D01*
X1594375Y-10378250D02*
X1594375Y-10478250D01*
X1544375Y-10428250D02*
X1644375Y-10428250D01*
X1848375Y-10124250D02*
X1848375Y-10224250D01*
X1798375Y-10174250D02*
X1898375Y-10174250D01*
X1848375Y-10378250D02*
X1848375Y-10478250D01*
X1798375Y-10428250D02*
X1898375Y-10428250D01*
X2102375Y-10124250D02*
X2102375Y-10224250D01*
X2052375Y-10174250D02*
X2152375Y-10174250D01*
X2102375Y-10378250D02*
X2102375Y-10478250D01*
X2052375Y-10428250D02*
X2152375Y-10428250D01*
X2356375Y-10124250D02*
X2356375Y-10224250D01*
X2306375Y-10174250D02*
X2406375Y-10174250D01*
X2356375Y-10378250D02*
X2356375Y-10478250D01*
X2306375Y-10428250D02*
X2406375Y-10428250D01*
X2610375Y-10124250D02*
X2610375Y-10224250D01*
X2560375Y-10174250D02*
X2660375Y-10174250D01*
X2610375Y-10378250D02*
X2610375Y-10478250D01*
X2560375Y-10428250D02*
X2660375Y-10428250D01*
X2864375Y-10124250D02*
X2864375Y-10224250D01*
X2814375Y-10174250D02*
X2914375Y-10174250D01*
X2864375Y-10378250D02*
X2864375Y-10478250D01*
X2814375Y-10428250D02*
X2914375Y-10428250D01*
X3118375Y-10124250D02*
X3118375Y-10224250D01*
X3068375Y-10174250D02*
X3168375Y-10174250D01*
X3118375Y-10378250D02*
X3118375Y-10478250D01*
X3068375Y-10428250D02*
X3168375Y-10428250D01*
X3372375Y-10124250D02*
X3372375Y-10224250D01*
X3322375Y-10174250D02*
X3422375Y-10174250D01*
X3372375Y-10378250D02*
X3372375Y-10478250D01*
X3322375Y-10428250D02*
X3422375Y-10428250D01*
X3626375Y-10124250D02*
X3626375Y-10224250D01*
X3576375Y-10174250D02*
X3676375Y-10174250D01*
X3626375Y-10378250D02*
X3626375Y-10478250D01*
X3576375Y-10428250D02*
X3676375Y-10428250D01*
X3880375Y-10124250D02*
X3880375Y-10224250D01*
X3830375Y-10174250D02*
X3930375Y-10174250D01*
X3880375Y-10378250D02*
X3880375Y-10478250D01*
X3830375Y-10428250D02*
X3930375Y-10428250D01*
X4134375Y-10124250D02*
X4134375Y-10224250D01*
X4084375Y-10174250D02*
X4184375Y-10174250D01*
X4134375Y-10378250D02*
X4134375Y-10478250D01*
X4084375Y-10428250D02*
X4184375Y-10428250D01*
X4388375Y-10124250D02*
X4388375Y-10224250D01*
X4338375Y-10174250D02*
X4438375Y-10174250D01*
X4388375Y-10378250D02*
X4388375Y-10478250D01*
X4338375Y-10428250D02*
X4438375Y-10428250D01*
X4642375Y-10124250D02*
X4642375Y-10224250D01*
X4592375Y-10174250D02*
X4692375Y-10174250D01*
X4642375Y-10378250D02*
X4642375Y-10478250D01*
X4592375Y-10428250D02*
X4692375Y-10428250D01*
X4896375Y-10124250D02*
X4896375Y-10224250D01*
X4846375Y-10174250D02*
X4946375Y-10174250D01*
X4896375Y-10378250D02*
X4896375Y-10478250D01*
X4846375Y-10428250D02*
X4946375Y-10428250D01*
X5150375Y-10124250D02*
X5150375Y-10224250D01*
X5100375Y-10174250D02*
X5200375Y-10174250D01*
X5150375Y-10378250D02*
X5150375Y-10478250D01*
X5100375Y-10428250D02*
X5200375Y-10428250D01*
X5404375Y-10124250D02*
X5404375Y-10224250D01*
X5354375Y-10174250D02*
X5454375Y-10174250D01*
X5404375Y-10378250D02*
X5404375Y-10478250D01*
X5354375Y-10428250D02*
X5454375Y-10428250D01*
X5658375Y-10124250D02*
X5658375Y-10224250D01*
X5608375Y-10174250D02*
X5708375Y-10174250D01*
X5658375Y-10378250D02*
X5658375Y-10478250D01*
X5608375Y-10428250D02*
X5708375Y-10428250D01*
X5912375Y-10124250D02*
X5912375Y-10224250D01*
X5862375Y-10174250D02*
X5962375Y-10174250D01*
X5912375Y-10378250D02*
X5912375Y-10478250D01*
X5862375Y-10428250D02*
X5962375Y-10428250D01*
X7670800Y-362750D02*
X7670800Y-462750D01*
X7620800Y-412750D02*
X7720800Y-412750D01*
X7924800Y-362750D02*
X7924800Y-462750D01*
X7874800Y-412750D02*
X7974800Y-412750D01*
X8178800Y-362750D02*
X8178800Y-462750D01*
X8128800Y-412750D02*
X8228800Y-412750D01*
X8432800Y-362750D02*
X8432800Y-462750D01*
X8382800Y-412750D02*
X8482800Y-412750D01*
X8686800Y-362750D02*
X8686800Y-462750D01*
X8636800Y-412750D02*
X8736800Y-412750D01*
X8940800Y-362750D02*
X8940800Y-462750D01*
X8890800Y-412750D02*
X8990800Y-412750D01*
X9194800Y-362750D02*
X9194800Y-462750D01*
X9144800Y-412750D02*
X9244800Y-412750D01*
X9448800Y-362750D02*
X9448800Y-462750D01*
X9398800Y-412750D02*
X9498800Y-412750D01*
X10346022Y-4557144D02*
X10346022Y-4657144D01*
X10296022Y-4607144D02*
X10396022Y-4607144D01*
X10346022Y-4811144D02*
X10346022Y-4911144D01*
X10296022Y-4861144D02*
X10396022Y-4861144D01*
X10346022Y-5065144D02*
X10346022Y-5165144D01*
X10296022Y-5115144D02*
X10396022Y-5115144D01*
X10346022Y-5319144D02*
X10346022Y-5419144D01*
X10296022Y-5369144D02*
X10396022Y-5369144D01*
X10346022Y-5573144D02*
X10346022Y-5673144D01*
X10296022Y-5623144D02*
X10396022Y-5623144D01*
X10346022Y-5827144D02*
X10346022Y-5927144D01*
X10296022Y-5877144D02*
X10396022Y-5877144D01*
X10346022Y-6081144D02*
X10346022Y-6181144D01*
X10296022Y-6131144D02*
X10396022Y-6131144D01*
X10346022Y-6335144D02*
X10346022Y-6435144D01*
X10296022Y-6385144D02*
X10396022Y-6385144D01*
D13*
X1675145Y-536849D02*
X1675145Y-444925D01*
X1583220Y-444925D01*
X1583220Y-536849D01*
X1675145Y-536849D01*
X1675145Y-1036849D02*
X1675145Y-944925D01*
X1583220Y-944925D01*
X1583220Y-1036849D01*
X1675145Y-1036849D01*
X2925145Y-536849D02*
X2925145Y-444925D01*
X2833220Y-444925D01*
X2833220Y-536849D01*
X2925145Y-536849D01*
X2925145Y-1036849D02*
X2925145Y-944925D01*
X2833220Y-944925D01*
X2833220Y-1036849D01*
X2925145Y-1036849D01*
D14*
X10477500Y-664750D02*
X10602500Y-539750D01*
X10477500Y-414750D01*
X10352500Y-539750D01*
X10477500Y-664750D01*
X10477500Y-2442750D02*
X10602500Y-2317750D01*
X10477500Y-2192750D01*
X10352500Y-2317750D01*
X10477500Y-2442750D01*
D11*
X258277Y-11313984D02*
X258277Y-11113984D01*
X258277Y-11113984D02*
X305896Y-11113984D01*
X305896Y-11113984D02*
X334467Y-11123508D01*
X334467Y-11123508D02*
X353515Y-11142555D01*
X353515Y-11142555D02*
X363039Y-11161603D01*
X363039Y-11161603D02*
X372562Y-11199698D01*
X372562Y-11199698D02*
X372562Y-11228269D01*
X372562Y-11228269D02*
X363039Y-11266365D01*
X363039Y-11266365D02*
X353515Y-11285412D01*
X353515Y-11285412D02*
X334467Y-11304460D01*
X334467Y-11304460D02*
X305896Y-11313984D01*
X305896Y-11313984D02*
X258277Y-11313984D01*
X458277Y-11313984D02*
X458277Y-11180650D01*
X458277Y-11218746D02*
X467801Y-11199698D01*
X467801Y-11199698D02*
X477324Y-11190174D01*
X477324Y-11190174D02*
X496372Y-11180650D01*
X496372Y-11180650D02*
X515420Y-11180650D01*
X582086Y-11313984D02*
X582086Y-11180650D01*
X582086Y-11113984D02*
X572563Y-11123508D01*
X572563Y-11123508D02*
X582086Y-11133031D01*
X582086Y-11133031D02*
X591610Y-11123508D01*
X591610Y-11123508D02*
X582086Y-11113984D01*
X582086Y-11113984D02*
X582086Y-11133031D01*
X705896Y-11313984D02*
X686848Y-11304460D01*
X686848Y-11304460D02*
X677324Y-11285412D01*
X677324Y-11285412D02*
X677324Y-11113984D01*
X810658Y-11313984D02*
X791610Y-11304460D01*
X791610Y-11304460D02*
X782086Y-11285412D01*
X782086Y-11285412D02*
X782086Y-11113984D01*
X1039229Y-11313984D02*
X1039229Y-11113984D01*
X1039229Y-11113984D02*
X1105896Y-11256841D01*
X1105896Y-11256841D02*
X1172563Y-11113984D01*
X1172563Y-11113984D02*
X1172563Y-11313984D01*
X1353515Y-11313984D02*
X1353515Y-11209222D01*
X1353515Y-11209222D02*
X1343991Y-11190174D01*
X1343991Y-11190174D02*
X1324944Y-11180650D01*
X1324944Y-11180650D02*
X1286848Y-11180650D01*
X1286848Y-11180650D02*
X1267801Y-11190174D01*
X1353515Y-11304460D02*
X1334467Y-11313984D01*
X1334467Y-11313984D02*
X1286848Y-11313984D01*
X1286848Y-11313984D02*
X1267801Y-11304460D01*
X1267801Y-11304460D02*
X1258277Y-11285412D01*
X1258277Y-11285412D02*
X1258277Y-11266365D01*
X1258277Y-11266365D02*
X1267801Y-11247317D01*
X1267801Y-11247317D02*
X1286848Y-11237793D01*
X1286848Y-11237793D02*
X1334467Y-11237793D01*
X1334467Y-11237793D02*
X1353515Y-11228269D01*
X1448753Y-11180650D02*
X1448753Y-11380650D01*
X1448753Y-11190174D02*
X1467801Y-11180650D01*
X1467801Y-11180650D02*
X1505896Y-11180650D01*
X1505896Y-11180650D02*
X1524943Y-11190174D01*
X1524943Y-11190174D02*
X1534467Y-11199698D01*
X1534467Y-11199698D02*
X1543991Y-11218746D01*
X1543991Y-11218746D02*
X1543991Y-11275888D01*
X1543991Y-11275888D02*
X1534467Y-11294936D01*
X1534467Y-11294936D02*
X1524943Y-11304460D01*
X1524943Y-11304460D02*
X1505896Y-11313984D01*
X1505896Y-11313984D02*
X1467801Y-11313984D01*
X1467801Y-11313984D02*
X1448753Y-11304460D01*
X1629705Y-11294936D02*
X1639229Y-11304460D01*
X1639229Y-11304460D02*
X1629705Y-11313984D01*
X1629705Y-11313984D02*
X1620182Y-11304460D01*
X1620182Y-11304460D02*
X1629705Y-11294936D01*
X1629705Y-11294936D02*
X1629705Y-11313984D01*
X1629705Y-11190174D02*
X1639229Y-11199698D01*
X1639229Y-11199698D02*
X1629705Y-11209222D01*
X1629705Y-11209222D02*
X1620182Y-11199698D01*
X1620182Y-11199698D02*
X1629705Y-11190174D01*
X1629705Y-11190174D02*
X1629705Y-11209222D01*
D12*
X-82500Y-11602500D02*
X-2500Y-11682500D01*
X-2500Y-11602500D02*
X-82500Y-11682500D01*
D11*
X296372Y-11533984D02*
X315420Y-11533984D01*
X315420Y-11533984D02*
X334467Y-11543508D01*
X334467Y-11543508D02*
X343991Y-11553031D01*
X343991Y-11553031D02*
X353515Y-11572079D01*
X353515Y-11572079D02*
X363039Y-11610174D01*
X363039Y-11610174D02*
X363039Y-11657793D01*
X363039Y-11657793D02*
X353515Y-11695888D01*
X353515Y-11695888D02*
X343991Y-11714936D01*
X343991Y-11714936D02*
X334467Y-11724460D01*
X334467Y-11724460D02*
X315420Y-11733984D01*
X315420Y-11733984D02*
X296372Y-11733984D01*
X296372Y-11733984D02*
X277324Y-11724460D01*
X277324Y-11724460D02*
X267801Y-11714936D01*
X267801Y-11714936D02*
X258277Y-11695888D01*
X258277Y-11695888D02*
X248753Y-11657793D01*
X248753Y-11657793D02*
X248753Y-11610174D01*
X248753Y-11610174D02*
X258277Y-11572079D01*
X258277Y-11572079D02*
X267801Y-11553031D01*
X267801Y-11553031D02*
X277324Y-11543508D01*
X277324Y-11543508D02*
X296372Y-11533984D01*
X448753Y-11714936D02*
X458277Y-11724460D01*
X458277Y-11724460D02*
X448753Y-11733984D01*
X448753Y-11733984D02*
X439229Y-11724460D01*
X439229Y-11724460D02*
X448753Y-11714936D01*
X448753Y-11714936D02*
X448753Y-11733984D01*
X572563Y-11619698D02*
X553515Y-11610174D01*
X553515Y-11610174D02*
X543991Y-11600650D01*
X543991Y-11600650D02*
X534467Y-11581603D01*
X534467Y-11581603D02*
X534467Y-11572079D01*
X534467Y-11572079D02*
X543991Y-11553031D01*
X543991Y-11553031D02*
X553515Y-11543508D01*
X553515Y-11543508D02*
X572563Y-11533984D01*
X572563Y-11533984D02*
X610658Y-11533984D01*
X610658Y-11533984D02*
X629705Y-11543508D01*
X629705Y-11543508D02*
X639229Y-11553031D01*
X639229Y-11553031D02*
X648753Y-11572079D01*
X648753Y-11572079D02*
X648753Y-11581603D01*
X648753Y-11581603D02*
X639229Y-11600650D01*
X639229Y-11600650D02*
X629705Y-11610174D01*
X629705Y-11610174D02*
X610658Y-11619698D01*
X610658Y-11619698D02*
X572563Y-11619698D01*
X572563Y-11619698D02*
X553515Y-11629222D01*
X553515Y-11629222D02*
X543991Y-11638746D01*
X543991Y-11638746D02*
X534467Y-11657793D01*
X534467Y-11657793D02*
X534467Y-11695888D01*
X534467Y-11695888D02*
X543991Y-11714936D01*
X543991Y-11714936D02*
X553515Y-11724460D01*
X553515Y-11724460D02*
X572563Y-11733984D01*
X572563Y-11733984D02*
X610658Y-11733984D01*
X610658Y-11733984D02*
X629705Y-11724460D01*
X629705Y-11724460D02*
X639229Y-11714936D01*
X639229Y-11714936D02*
X648753Y-11695888D01*
X648753Y-11695888D02*
X648753Y-11657793D01*
X648753Y-11657793D02*
X639229Y-11638746D01*
X639229Y-11638746D02*
X629705Y-11629222D01*
X629705Y-11629222D02*
X610658Y-11619698D01*
X772562Y-11533984D02*
X791610Y-11533984D01*
X791610Y-11533984D02*
X810658Y-11543508D01*
X810658Y-11543508D02*
X820182Y-11553031D01*
X820182Y-11553031D02*
X829705Y-11572079D01*
X829705Y-11572079D02*
X839229Y-11610174D01*
X839229Y-11610174D02*
X839229Y-11657793D01*
X839229Y-11657793D02*
X829705Y-11695888D01*
X829705Y-11695888D02*
X820182Y-11714936D01*
X820182Y-11714936D02*
X810658Y-11724460D01*
X810658Y-11724460D02*
X791610Y-11733984D01*
X791610Y-11733984D02*
X772562Y-11733984D01*
X772562Y-11733984D02*
X753515Y-11724460D01*
X753515Y-11724460D02*
X743991Y-11714936D01*
X743991Y-11714936D02*
X734467Y-11695888D01*
X734467Y-11695888D02*
X724943Y-11657793D01*
X724943Y-11657793D02*
X724943Y-11610174D01*
X724943Y-11610174D02*
X734467Y-11572079D01*
X734467Y-11572079D02*
X743991Y-11553031D01*
X743991Y-11553031D02*
X753515Y-11543508D01*
X753515Y-11543508D02*
X772562Y-11533984D01*
X963039Y-11533984D02*
X982086Y-11533984D01*
X982086Y-11533984D02*
X1001134Y-11543508D01*
X1001134Y-11543508D02*
X1010658Y-11553031D01*
X1010658Y-11553031D02*
X1020182Y-11572079D01*
X1020182Y-11572079D02*
X1029705Y-11610174D01*
X1029705Y-11610174D02*
X1029705Y-11657793D01*
X1029705Y-11657793D02*
X1020182Y-11695888D01*
X1020182Y-11695888D02*
X1010658Y-11714936D01*
X1010658Y-11714936D02*
X1001134Y-11724460D01*
X1001134Y-11724460D02*
X982086Y-11733984D01*
X982086Y-11733984D02*
X963039Y-11733984D01*
X963039Y-11733984D02*
X943991Y-11724460D01*
X943991Y-11724460D02*
X934467Y-11714936D01*
X934467Y-11714936D02*
X924943Y-11695888D01*
X924943Y-11695888D02*
X915420Y-11657793D01*
X915420Y-11657793D02*
X915420Y-11610174D01*
X915420Y-11610174D02*
X924943Y-11572079D01*
X924943Y-11572079D02*
X934467Y-11553031D01*
X934467Y-11553031D02*
X943991Y-11543508D01*
X943991Y-11543508D02*
X963039Y-11533984D01*
X1115420Y-11733984D02*
X1115420Y-11600650D01*
X1115420Y-11619698D02*
X1124944Y-11610174D01*
X1124944Y-11610174D02*
X1143991Y-11600650D01*
X1143991Y-11600650D02*
X1172563Y-11600650D01*
X1172563Y-11600650D02*
X1191610Y-11610174D01*
X1191610Y-11610174D02*
X1201134Y-11629222D01*
X1201134Y-11629222D02*
X1201134Y-11733984D01*
X1201134Y-11629222D02*
X1210658Y-11610174D01*
X1210658Y-11610174D02*
X1229705Y-11600650D01*
X1229705Y-11600650D02*
X1258277Y-11600650D01*
X1258277Y-11600650D02*
X1277325Y-11610174D01*
X1277325Y-11610174D02*
X1286848Y-11629222D01*
X1286848Y-11629222D02*
X1286848Y-11733984D01*
X1382086Y-11733984D02*
X1382086Y-11600650D01*
X1382086Y-11619698D02*
X1391610Y-11610174D01*
X1391610Y-11610174D02*
X1410658Y-11600650D01*
X1410658Y-11600650D02*
X1439229Y-11600650D01*
X1439229Y-11600650D02*
X1458277Y-11610174D01*
X1458277Y-11610174D02*
X1467801Y-11629222D01*
X1467801Y-11629222D02*
X1467801Y-11733984D01*
X1467801Y-11629222D02*
X1477324Y-11610174D01*
X1477324Y-11610174D02*
X1496372Y-11600650D01*
X1496372Y-11600650D02*
X1524943Y-11600650D01*
X1524943Y-11600650D02*
X1543991Y-11610174D01*
X1543991Y-11610174D02*
X1553515Y-11629222D01*
X1553515Y-11629222D02*
X1553515Y-11733984D01*
X1943991Y-11524460D02*
X1772563Y-11781603D01*
X2201134Y-11533984D02*
X2220182Y-11533984D01*
X2220182Y-11533984D02*
X2239229Y-11543508D01*
X2239229Y-11543508D02*
X2248753Y-11553031D01*
X2248753Y-11553031D02*
X2258277Y-11572079D01*
X2258277Y-11572079D02*
X2267801Y-11610174D01*
X2267801Y-11610174D02*
X2267801Y-11657793D01*
X2267801Y-11657793D02*
X2258277Y-11695888D01*
X2258277Y-11695888D02*
X2248753Y-11714936D01*
X2248753Y-11714936D02*
X2239229Y-11724460D01*
X2239229Y-11724460D02*
X2220182Y-11733984D01*
X2220182Y-11733984D02*
X2201134Y-11733984D01*
X2201134Y-11733984D02*
X2182087Y-11724460D01*
X2182087Y-11724460D02*
X2172563Y-11714936D01*
X2172563Y-11714936D02*
X2163039Y-11695888D01*
X2163039Y-11695888D02*
X2153515Y-11657793D01*
X2153515Y-11657793D02*
X2153515Y-11610174D01*
X2153515Y-11610174D02*
X2163039Y-11572079D01*
X2163039Y-11572079D02*
X2172563Y-11553031D01*
X2172563Y-11553031D02*
X2182087Y-11543508D01*
X2182087Y-11543508D02*
X2201134Y-11533984D01*
X2353515Y-11714936D02*
X2363039Y-11724460D01*
X2363039Y-11724460D02*
X2353515Y-11733984D01*
X2353515Y-11733984D02*
X2343991Y-11724460D01*
X2343991Y-11724460D02*
X2353515Y-11714936D01*
X2353515Y-11714936D02*
X2353515Y-11733984D01*
X2486848Y-11533984D02*
X2505896Y-11533984D01*
X2505896Y-11533984D02*
X2524944Y-11543508D01*
X2524944Y-11543508D02*
X2534468Y-11553031D01*
X2534468Y-11553031D02*
X2543991Y-11572079D01*
X2543991Y-11572079D02*
X2553515Y-11610174D01*
X2553515Y-11610174D02*
X2553515Y-11657793D01*
X2553515Y-11657793D02*
X2543991Y-11695888D01*
X2543991Y-11695888D02*
X2534468Y-11714936D01*
X2534468Y-11714936D02*
X2524944Y-11724460D01*
X2524944Y-11724460D02*
X2505896Y-11733984D01*
X2505896Y-11733984D02*
X2486848Y-11733984D01*
X2486848Y-11733984D02*
X2467801Y-11724460D01*
X2467801Y-11724460D02*
X2458277Y-11714936D01*
X2458277Y-11714936D02*
X2448753Y-11695888D01*
X2448753Y-11695888D02*
X2439229Y-11657793D01*
X2439229Y-11657793D02*
X2439229Y-11610174D01*
X2439229Y-11610174D02*
X2448753Y-11572079D01*
X2448753Y-11572079D02*
X2458277Y-11553031D01*
X2458277Y-11553031D02*
X2467801Y-11543508D01*
X2467801Y-11543508D02*
X2486848Y-11533984D01*
X2620182Y-11533984D02*
X2743991Y-11533984D01*
X2743991Y-11533984D02*
X2677325Y-11610174D01*
X2677325Y-11610174D02*
X2705896Y-11610174D01*
X2705896Y-11610174D02*
X2724944Y-11619698D01*
X2724944Y-11619698D02*
X2734468Y-11629222D01*
X2734468Y-11629222D02*
X2743991Y-11648269D01*
X2743991Y-11648269D02*
X2743991Y-11695888D01*
X2743991Y-11695888D02*
X2734468Y-11714936D01*
X2734468Y-11714936D02*
X2724944Y-11724460D01*
X2724944Y-11724460D02*
X2705896Y-11733984D01*
X2705896Y-11733984D02*
X2648753Y-11733984D01*
X2648753Y-11733984D02*
X2629706Y-11724460D01*
X2629706Y-11724460D02*
X2620182Y-11714936D01*
X2934467Y-11733984D02*
X2820182Y-11733984D01*
X2877325Y-11733984D02*
X2877325Y-11533984D01*
X2877325Y-11533984D02*
X2858277Y-11562555D01*
X2858277Y-11562555D02*
X2839229Y-11581603D01*
X2839229Y-11581603D02*
X2820182Y-11591127D01*
X3115420Y-11533984D02*
X3020182Y-11533984D01*
X3020182Y-11533984D02*
X3010658Y-11629222D01*
X3010658Y-11629222D02*
X3020182Y-11619698D01*
X3020182Y-11619698D02*
X3039229Y-11610174D01*
X3039229Y-11610174D02*
X3086848Y-11610174D01*
X3086848Y-11610174D02*
X3105896Y-11619698D01*
X3105896Y-11619698D02*
X3115420Y-11629222D01*
X3115420Y-11629222D02*
X3124944Y-11648269D01*
X3124944Y-11648269D02*
X3124944Y-11695888D01*
X3124944Y-11695888D02*
X3115420Y-11714936D01*
X3115420Y-11714936D02*
X3105896Y-11724460D01*
X3105896Y-11724460D02*
X3086848Y-11733984D01*
X3086848Y-11733984D02*
X3039229Y-11733984D01*
X3039229Y-11733984D02*
X3020182Y-11724460D01*
X3020182Y-11724460D02*
X3010658Y-11714936D01*
X3201134Y-11533984D02*
X3201134Y-11572079D01*
X3277325Y-11533984D02*
X3277325Y-11572079D01*
X3572563Y-11810174D02*
X3563039Y-11800650D01*
X3563039Y-11800650D02*
X3543991Y-11772079D01*
X3543991Y-11772079D02*
X3534468Y-11753031D01*
X3534468Y-11753031D02*
X3524944Y-11724460D01*
X3524944Y-11724460D02*
X3515420Y-11676841D01*
X3515420Y-11676841D02*
X3515420Y-11638746D01*
X3515420Y-11638746D02*
X3524944Y-11591127D01*
X3524944Y-11591127D02*
X3534468Y-11562555D01*
X3534468Y-11562555D02*
X3543991Y-11543508D01*
X3543991Y-11543508D02*
X3563039Y-11514936D01*
X3563039Y-11514936D02*
X3572563Y-11505412D01*
X3734468Y-11533984D02*
X3696372Y-11533984D01*
X3696372Y-11533984D02*
X3677325Y-11543508D01*
X3677325Y-11543508D02*
X3667801Y-11553031D01*
X3667801Y-11553031D02*
X3648753Y-11581603D01*
X3648753Y-11581603D02*
X3639229Y-11619698D01*
X3639229Y-11619698D02*
X3639229Y-11695888D01*
X3639229Y-11695888D02*
X3648753Y-11714936D01*
X3648753Y-11714936D02*
X3658277Y-11724460D01*
X3658277Y-11724460D02*
X3677325Y-11733984D01*
X3677325Y-11733984D02*
X3715420Y-11733984D01*
X3715420Y-11733984D02*
X3734468Y-11724460D01*
X3734468Y-11724460D02*
X3743991Y-11714936D01*
X3743991Y-11714936D02*
X3753515Y-11695888D01*
X3753515Y-11695888D02*
X3753515Y-11648269D01*
X3753515Y-11648269D02*
X3743991Y-11629222D01*
X3743991Y-11629222D02*
X3734468Y-11619698D01*
X3734468Y-11619698D02*
X3715420Y-11610174D01*
X3715420Y-11610174D02*
X3677325Y-11610174D01*
X3677325Y-11610174D02*
X3658277Y-11619698D01*
X3658277Y-11619698D02*
X3648753Y-11629222D01*
X3648753Y-11629222D02*
X3639229Y-11648269D01*
X3991610Y-11733984D02*
X3991610Y-11533984D01*
X4077325Y-11733984D02*
X4077325Y-11629222D01*
X4077325Y-11629222D02*
X4067801Y-11610174D01*
X4067801Y-11610174D02*
X4048753Y-11600650D01*
X4048753Y-11600650D02*
X4020182Y-11600650D01*
X4020182Y-11600650D02*
X4001134Y-11610174D01*
X4001134Y-11610174D02*
X3991610Y-11619698D01*
X4201134Y-11733984D02*
X4182087Y-11724460D01*
X4182087Y-11724460D02*
X4172563Y-11714936D01*
X4172563Y-11714936D02*
X4163039Y-11695888D01*
X4163039Y-11695888D02*
X4163039Y-11638746D01*
X4163039Y-11638746D02*
X4172563Y-11619698D01*
X4172563Y-11619698D02*
X4182087Y-11610174D01*
X4182087Y-11610174D02*
X4201134Y-11600650D01*
X4201134Y-11600650D02*
X4229706Y-11600650D01*
X4229706Y-11600650D02*
X4248753Y-11610174D01*
X4248753Y-11610174D02*
X4258277Y-11619698D01*
X4258277Y-11619698D02*
X4267801Y-11638746D01*
X4267801Y-11638746D02*
X4267801Y-11695888D01*
X4267801Y-11695888D02*
X4258277Y-11714936D01*
X4258277Y-11714936D02*
X4248753Y-11724460D01*
X4248753Y-11724460D02*
X4229706Y-11733984D01*
X4229706Y-11733984D02*
X4201134Y-11733984D01*
X4382087Y-11733984D02*
X4363039Y-11724460D01*
X4363039Y-11724460D02*
X4353515Y-11705412D01*
X4353515Y-11705412D02*
X4353515Y-11533984D01*
X4534468Y-11724460D02*
X4515420Y-11733984D01*
X4515420Y-11733984D02*
X4477325Y-11733984D01*
X4477325Y-11733984D02*
X4458277Y-11724460D01*
X4458277Y-11724460D02*
X4448753Y-11705412D01*
X4448753Y-11705412D02*
X4448753Y-11629222D01*
X4448753Y-11629222D02*
X4458277Y-11610174D01*
X4458277Y-11610174D02*
X4477325Y-11600650D01*
X4477325Y-11600650D02*
X4515420Y-11600650D01*
X4515420Y-11600650D02*
X4534468Y-11610174D01*
X4534468Y-11610174D02*
X4543992Y-11629222D01*
X4543992Y-11629222D02*
X4543992Y-11648269D01*
X4543992Y-11648269D02*
X4448753Y-11667317D01*
X4620182Y-11724460D02*
X4639230Y-11733984D01*
X4639230Y-11733984D02*
X4677325Y-11733984D01*
X4677325Y-11733984D02*
X4696373Y-11724460D01*
X4696373Y-11724460D02*
X4705896Y-11705412D01*
X4705896Y-11705412D02*
X4705896Y-11695888D01*
X4705896Y-11695888D02*
X4696373Y-11676841D01*
X4696373Y-11676841D02*
X4677325Y-11667317D01*
X4677325Y-11667317D02*
X4648753Y-11667317D01*
X4648753Y-11667317D02*
X4629706Y-11657793D01*
X4629706Y-11657793D02*
X4620182Y-11638746D01*
X4620182Y-11638746D02*
X4620182Y-11629222D01*
X4620182Y-11629222D02*
X4629706Y-11610174D01*
X4629706Y-11610174D02*
X4648753Y-11600650D01*
X4648753Y-11600650D02*
X4677325Y-11600650D01*
X4677325Y-11600650D02*
X4696373Y-11610174D01*
X4772563Y-11810174D02*
X4782087Y-11800650D01*
X4782087Y-11800650D02*
X4801134Y-11772079D01*
X4801134Y-11772079D02*
X4810658Y-11753031D01*
X4810658Y-11753031D02*
X4820182Y-11724460D01*
X4820182Y-11724460D02*
X4829706Y-11676841D01*
X4829706Y-11676841D02*
X4829706Y-11638746D01*
X4829706Y-11638746D02*
X4820182Y-11591127D01*
X4820182Y-11591127D02*
X4810658Y-11562555D01*
X4810658Y-11562555D02*
X4801134Y-11543508D01*
X4801134Y-11543508D02*
X4782087Y-11514936D01*
X4782087Y-11514936D02*
X4772563Y-11505412D01*
D12*
X-2500Y-11906500D02*
G75*
G02*
X-92500Y-11906500I-45000J0D01*
G01*
X-92500Y-11906500D02*
G75*
G02*
X-2500Y-11906500I45000J0D01*
G01*
D11*
X296372Y-11797984D02*
X315420Y-11797984D01*
X315420Y-11797984D02*
X334467Y-11807508D01*
X334467Y-11807508D02*
X343991Y-11817031D01*
X343991Y-11817031D02*
X353515Y-11836079D01*
X353515Y-11836079D02*
X363039Y-11874174D01*
X363039Y-11874174D02*
X363039Y-11921793D01*
X363039Y-11921793D02*
X353515Y-11959888D01*
X353515Y-11959888D02*
X343991Y-11978936D01*
X343991Y-11978936D02*
X334467Y-11988460D01*
X334467Y-11988460D02*
X315420Y-11997984D01*
X315420Y-11997984D02*
X296372Y-11997984D01*
X296372Y-11997984D02*
X277324Y-11988460D01*
X277324Y-11988460D02*
X267801Y-11978936D01*
X267801Y-11978936D02*
X258277Y-11959888D01*
X258277Y-11959888D02*
X248753Y-11921793D01*
X248753Y-11921793D02*
X248753Y-11874174D01*
X248753Y-11874174D02*
X258277Y-11836079D01*
X258277Y-11836079D02*
X267801Y-11817031D01*
X267801Y-11817031D02*
X277324Y-11807508D01*
X277324Y-11807508D02*
X296372Y-11797984D01*
X448753Y-11978936D02*
X458277Y-11988460D01*
X458277Y-11988460D02*
X448753Y-11997984D01*
X448753Y-11997984D02*
X439229Y-11988460D01*
X439229Y-11988460D02*
X448753Y-11978936D01*
X448753Y-11978936D02*
X448753Y-11997984D01*
X553515Y-11997984D02*
X591610Y-11997984D01*
X591610Y-11997984D02*
X610658Y-11988460D01*
X610658Y-11988460D02*
X620182Y-11978936D01*
X620182Y-11978936D02*
X639229Y-11950365D01*
X639229Y-11950365D02*
X648753Y-11912269D01*
X648753Y-11912269D02*
X648753Y-11836079D01*
X648753Y-11836079D02*
X639229Y-11817031D01*
X639229Y-11817031D02*
X629705Y-11807508D01*
X629705Y-11807508D02*
X610658Y-11797984D01*
X610658Y-11797984D02*
X572563Y-11797984D01*
X572563Y-11797984D02*
X553515Y-11807508D01*
X553515Y-11807508D02*
X543991Y-11817031D01*
X543991Y-11817031D02*
X534467Y-11836079D01*
X534467Y-11836079D02*
X534467Y-11883698D01*
X534467Y-11883698D02*
X543991Y-11902746D01*
X543991Y-11902746D02*
X553515Y-11912269D01*
X553515Y-11912269D02*
X572563Y-11921793D01*
X572563Y-11921793D02*
X610658Y-11921793D01*
X610658Y-11921793D02*
X629705Y-11912269D01*
X629705Y-11912269D02*
X639229Y-11902746D01*
X639229Y-11902746D02*
X648753Y-11883698D01*
X772562Y-11797984D02*
X791610Y-11797984D01*
X791610Y-11797984D02*
X810658Y-11807508D01*
X810658Y-11807508D02*
X820182Y-11817031D01*
X820182Y-11817031D02*
X829705Y-11836079D01*
X829705Y-11836079D02*
X839229Y-11874174D01*
X839229Y-11874174D02*
X839229Y-11921793D01*
X839229Y-11921793D02*
X829705Y-11959888D01*
X829705Y-11959888D02*
X820182Y-11978936D01*
X820182Y-11978936D02*
X810658Y-11988460D01*
X810658Y-11988460D02*
X791610Y-11997984D01*
X791610Y-11997984D02*
X772562Y-11997984D01*
X772562Y-11997984D02*
X753515Y-11988460D01*
X753515Y-11988460D02*
X743991Y-11978936D01*
X743991Y-11978936D02*
X734467Y-11959888D01*
X734467Y-11959888D02*
X724943Y-11921793D01*
X724943Y-11921793D02*
X724943Y-11874174D01*
X724943Y-11874174D02*
X734467Y-11836079D01*
X734467Y-11836079D02*
X743991Y-11817031D01*
X743991Y-11817031D02*
X753515Y-11807508D01*
X753515Y-11807508D02*
X772562Y-11797984D01*
X963039Y-11797984D02*
X982086Y-11797984D01*
X982086Y-11797984D02*
X1001134Y-11807508D01*
X1001134Y-11807508D02*
X1010658Y-11817031D01*
X1010658Y-11817031D02*
X1020182Y-11836079D01*
X1020182Y-11836079D02*
X1029705Y-11874174D01*
X1029705Y-11874174D02*
X1029705Y-11921793D01*
X1029705Y-11921793D02*
X1020182Y-11959888D01*
X1020182Y-11959888D02*
X1010658Y-11978936D01*
X1010658Y-11978936D02*
X1001134Y-11988460D01*
X1001134Y-11988460D02*
X982086Y-11997984D01*
X982086Y-11997984D02*
X963039Y-11997984D01*
X963039Y-11997984D02*
X943991Y-11988460D01*
X943991Y-11988460D02*
X934467Y-11978936D01*
X934467Y-11978936D02*
X924943Y-11959888D01*
X924943Y-11959888D02*
X915420Y-11921793D01*
X915420Y-11921793D02*
X915420Y-11874174D01*
X915420Y-11874174D02*
X924943Y-11836079D01*
X924943Y-11836079D02*
X934467Y-11817031D01*
X934467Y-11817031D02*
X943991Y-11807508D01*
X943991Y-11807508D02*
X963039Y-11797984D01*
X1115420Y-11997984D02*
X1115420Y-11864650D01*
X1115420Y-11883698D02*
X1124944Y-11874174D01*
X1124944Y-11874174D02*
X1143991Y-11864650D01*
X1143991Y-11864650D02*
X1172563Y-11864650D01*
X1172563Y-11864650D02*
X1191610Y-11874174D01*
X1191610Y-11874174D02*
X1201134Y-11893222D01*
X1201134Y-11893222D02*
X1201134Y-11997984D01*
X1201134Y-11893222D02*
X1210658Y-11874174D01*
X1210658Y-11874174D02*
X1229705Y-11864650D01*
X1229705Y-11864650D02*
X1258277Y-11864650D01*
X1258277Y-11864650D02*
X1277325Y-11874174D01*
X1277325Y-11874174D02*
X1286848Y-11893222D01*
X1286848Y-11893222D02*
X1286848Y-11997984D01*
X1382086Y-11997984D02*
X1382086Y-11864650D01*
X1382086Y-11883698D02*
X1391610Y-11874174D01*
X1391610Y-11874174D02*
X1410658Y-11864650D01*
X1410658Y-11864650D02*
X1439229Y-11864650D01*
X1439229Y-11864650D02*
X1458277Y-11874174D01*
X1458277Y-11874174D02*
X1467801Y-11893222D01*
X1467801Y-11893222D02*
X1467801Y-11997984D01*
X1467801Y-11893222D02*
X1477324Y-11874174D01*
X1477324Y-11874174D02*
X1496372Y-11864650D01*
X1496372Y-11864650D02*
X1524943Y-11864650D01*
X1524943Y-11864650D02*
X1543991Y-11874174D01*
X1543991Y-11874174D02*
X1553515Y-11893222D01*
X1553515Y-11893222D02*
X1553515Y-11997984D01*
X1943991Y-11788460D02*
X1772563Y-12045603D01*
X2201134Y-11797984D02*
X2220182Y-11797984D01*
X2220182Y-11797984D02*
X2239229Y-11807508D01*
X2239229Y-11807508D02*
X2248753Y-11817031D01*
X2248753Y-11817031D02*
X2258277Y-11836079D01*
X2258277Y-11836079D02*
X2267801Y-11874174D01*
X2267801Y-11874174D02*
X2267801Y-11921793D01*
X2267801Y-11921793D02*
X2258277Y-11959888D01*
X2258277Y-11959888D02*
X2248753Y-11978936D01*
X2248753Y-11978936D02*
X2239229Y-11988460D01*
X2239229Y-11988460D02*
X2220182Y-11997984D01*
X2220182Y-11997984D02*
X2201134Y-11997984D01*
X2201134Y-11997984D02*
X2182087Y-11988460D01*
X2182087Y-11988460D02*
X2172563Y-11978936D01*
X2172563Y-11978936D02*
X2163039Y-11959888D01*
X2163039Y-11959888D02*
X2153515Y-11921793D01*
X2153515Y-11921793D02*
X2153515Y-11874174D01*
X2153515Y-11874174D02*
X2163039Y-11836079D01*
X2163039Y-11836079D02*
X2172563Y-11817031D01*
X2172563Y-11817031D02*
X2182087Y-11807508D01*
X2182087Y-11807508D02*
X2201134Y-11797984D01*
X2353515Y-11978936D02*
X2363039Y-11988460D01*
X2363039Y-11988460D02*
X2353515Y-11997984D01*
X2353515Y-11997984D02*
X2343991Y-11988460D01*
X2343991Y-11988460D02*
X2353515Y-11978936D01*
X2353515Y-11978936D02*
X2353515Y-11997984D01*
X2486848Y-11797984D02*
X2505896Y-11797984D01*
X2505896Y-11797984D02*
X2524944Y-11807508D01*
X2524944Y-11807508D02*
X2534468Y-11817031D01*
X2534468Y-11817031D02*
X2543991Y-11836079D01*
X2543991Y-11836079D02*
X2553515Y-11874174D01*
X2553515Y-11874174D02*
X2553515Y-11921793D01*
X2553515Y-11921793D02*
X2543991Y-11959888D01*
X2543991Y-11959888D02*
X2534468Y-11978936D01*
X2534468Y-11978936D02*
X2524944Y-11988460D01*
X2524944Y-11988460D02*
X2505896Y-11997984D01*
X2505896Y-11997984D02*
X2486848Y-11997984D01*
X2486848Y-11997984D02*
X2467801Y-11988460D01*
X2467801Y-11988460D02*
X2458277Y-11978936D01*
X2458277Y-11978936D02*
X2448753Y-11959888D01*
X2448753Y-11959888D02*
X2439229Y-11921793D01*
X2439229Y-11921793D02*
X2439229Y-11874174D01*
X2439229Y-11874174D02*
X2448753Y-11836079D01*
X2448753Y-11836079D02*
X2458277Y-11817031D01*
X2458277Y-11817031D02*
X2467801Y-11807508D01*
X2467801Y-11807508D02*
X2486848Y-11797984D01*
X2620182Y-11797984D02*
X2743991Y-11797984D01*
X2743991Y-11797984D02*
X2677325Y-11874174D01*
X2677325Y-11874174D02*
X2705896Y-11874174D01*
X2705896Y-11874174D02*
X2724944Y-11883698D01*
X2724944Y-11883698D02*
X2734468Y-11893222D01*
X2734468Y-11893222D02*
X2743991Y-11912269D01*
X2743991Y-11912269D02*
X2743991Y-11959888D01*
X2743991Y-11959888D02*
X2734468Y-11978936D01*
X2734468Y-11978936D02*
X2724944Y-11988460D01*
X2724944Y-11988460D02*
X2705896Y-11997984D01*
X2705896Y-11997984D02*
X2648753Y-11997984D01*
X2648753Y-11997984D02*
X2629706Y-11988460D01*
X2629706Y-11988460D02*
X2620182Y-11978936D01*
X2924944Y-11797984D02*
X2829706Y-11797984D01*
X2829706Y-11797984D02*
X2820182Y-11893222D01*
X2820182Y-11893222D02*
X2829706Y-11883698D01*
X2829706Y-11883698D02*
X2848753Y-11874174D01*
X2848753Y-11874174D02*
X2896372Y-11874174D01*
X2896372Y-11874174D02*
X2915420Y-11883698D01*
X2915420Y-11883698D02*
X2924944Y-11893222D01*
X2924944Y-11893222D02*
X2934467Y-11912269D01*
X2934467Y-11912269D02*
X2934467Y-11959888D01*
X2934467Y-11959888D02*
X2924944Y-11978936D01*
X2924944Y-11978936D02*
X2915420Y-11988460D01*
X2915420Y-11988460D02*
X2896372Y-11997984D01*
X2896372Y-11997984D02*
X2848753Y-11997984D01*
X2848753Y-11997984D02*
X2829706Y-11988460D01*
X2829706Y-11988460D02*
X2820182Y-11978936D01*
X3105896Y-11864650D02*
X3105896Y-11997984D01*
X3058277Y-11788460D02*
X3010658Y-11931317D01*
X3010658Y-11931317D02*
X3134467Y-11931317D01*
X3201134Y-11797984D02*
X3201134Y-11836079D01*
X3277325Y-11797984D02*
X3277325Y-11836079D01*
X3572563Y-12074174D02*
X3563039Y-12064650D01*
X3563039Y-12064650D02*
X3543991Y-12036079D01*
X3543991Y-12036079D02*
X3534468Y-12017031D01*
X3534468Y-12017031D02*
X3524944Y-11988460D01*
X3524944Y-11988460D02*
X3515420Y-11940841D01*
X3515420Y-11940841D02*
X3515420Y-11902746D01*
X3515420Y-11902746D02*
X3524944Y-11855127D01*
X3524944Y-11855127D02*
X3534468Y-11826555D01*
X3534468Y-11826555D02*
X3543991Y-11807508D01*
X3543991Y-11807508D02*
X3563039Y-11778936D01*
X3563039Y-11778936D02*
X3572563Y-11769412D01*
X3629706Y-11797984D02*
X3753515Y-11797984D01*
X3753515Y-11797984D02*
X3686848Y-11874174D01*
X3686848Y-11874174D02*
X3715420Y-11874174D01*
X3715420Y-11874174D02*
X3734468Y-11883698D01*
X3734468Y-11883698D02*
X3743991Y-11893222D01*
X3743991Y-11893222D02*
X3753515Y-11912269D01*
X3753515Y-11912269D02*
X3753515Y-11959888D01*
X3753515Y-11959888D02*
X3743991Y-11978936D01*
X3743991Y-11978936D02*
X3734468Y-11988460D01*
X3734468Y-11988460D02*
X3715420Y-11997984D01*
X3715420Y-11997984D02*
X3658277Y-11997984D01*
X3658277Y-11997984D02*
X3639229Y-11988460D01*
X3639229Y-11988460D02*
X3629706Y-11978936D01*
X3991610Y-11997984D02*
X3991610Y-11797984D01*
X4077325Y-11997984D02*
X4077325Y-11893222D01*
X4077325Y-11893222D02*
X4067801Y-11874174D01*
X4067801Y-11874174D02*
X4048753Y-11864650D01*
X4048753Y-11864650D02*
X4020182Y-11864650D01*
X4020182Y-11864650D02*
X4001134Y-11874174D01*
X4001134Y-11874174D02*
X3991610Y-11883698D01*
X4201134Y-11997984D02*
X4182087Y-11988460D01*
X4182087Y-11988460D02*
X4172563Y-11978936D01*
X4172563Y-11978936D02*
X4163039Y-11959888D01*
X4163039Y-11959888D02*
X4163039Y-11902746D01*
X4163039Y-11902746D02*
X4172563Y-11883698D01*
X4172563Y-11883698D02*
X4182087Y-11874174D01*
X4182087Y-11874174D02*
X4201134Y-11864650D01*
X4201134Y-11864650D02*
X4229706Y-11864650D01*
X4229706Y-11864650D02*
X4248753Y-11874174D01*
X4248753Y-11874174D02*
X4258277Y-11883698D01*
X4258277Y-11883698D02*
X4267801Y-11902746D01*
X4267801Y-11902746D02*
X4267801Y-11959888D01*
X4267801Y-11959888D02*
X4258277Y-11978936D01*
X4258277Y-11978936D02*
X4248753Y-11988460D01*
X4248753Y-11988460D02*
X4229706Y-11997984D01*
X4229706Y-11997984D02*
X4201134Y-11997984D01*
X4382087Y-11997984D02*
X4363039Y-11988460D01*
X4363039Y-11988460D02*
X4353515Y-11969412D01*
X4353515Y-11969412D02*
X4353515Y-11797984D01*
X4534468Y-11988460D02*
X4515420Y-11997984D01*
X4515420Y-11997984D02*
X4477325Y-11997984D01*
X4477325Y-11997984D02*
X4458277Y-11988460D01*
X4458277Y-11988460D02*
X4448753Y-11969412D01*
X4448753Y-11969412D02*
X4448753Y-11893222D01*
X4448753Y-11893222D02*
X4458277Y-11874174D01*
X4458277Y-11874174D02*
X4477325Y-11864650D01*
X4477325Y-11864650D02*
X4515420Y-11864650D01*
X4515420Y-11864650D02*
X4534468Y-11874174D01*
X4534468Y-11874174D02*
X4543992Y-11893222D01*
X4543992Y-11893222D02*
X4543992Y-11912269D01*
X4543992Y-11912269D02*
X4448753Y-11931317D01*
X4620182Y-11988460D02*
X4639230Y-11997984D01*
X4639230Y-11997984D02*
X4677325Y-11997984D01*
X4677325Y-11997984D02*
X4696373Y-11988460D01*
X4696373Y-11988460D02*
X4705896Y-11969412D01*
X4705896Y-11969412D02*
X4705896Y-11959888D01*
X4705896Y-11959888D02*
X4696373Y-11940841D01*
X4696373Y-11940841D02*
X4677325Y-11931317D01*
X4677325Y-11931317D02*
X4648753Y-11931317D01*
X4648753Y-11931317D02*
X4629706Y-11921793D01*
X4629706Y-11921793D02*
X4620182Y-11902746D01*
X4620182Y-11902746D02*
X4620182Y-11893222D01*
X4620182Y-11893222D02*
X4629706Y-11874174D01*
X4629706Y-11874174D02*
X4648753Y-11864650D01*
X4648753Y-11864650D02*
X4677325Y-11864650D01*
X4677325Y-11864650D02*
X4696373Y-11874174D01*
X4772563Y-12074174D02*
X4782087Y-12064650D01*
X4782087Y-12064650D02*
X4801134Y-12036079D01*
X4801134Y-12036079D02*
X4810658Y-12017031D01*
X4810658Y-12017031D02*
X4820182Y-11988460D01*
X4820182Y-11988460D02*
X4829706Y-11940841D01*
X4829706Y-11940841D02*
X4829706Y-11902746D01*
X4829706Y-11902746D02*
X4820182Y-11855127D01*
X4820182Y-11855127D02*
X4810658Y-11826555D01*
X4810658Y-11826555D02*
X4801134Y-11807508D01*
X4801134Y-11807508D02*
X4782087Y-11778936D01*
X4782087Y-11778936D02*
X4772563Y-11769412D01*
D12*
X-52500Y-12120500D02*
X-52500Y-12220500D01*
X-102500Y-12170500D02*
X-2500Y-12170500D01*
D11*
X363039Y-12261984D02*
X248753Y-12261984D01*
X305896Y-12261984D02*
X305896Y-12061984D01*
X305896Y-12061984D02*
X286848Y-12090555D01*
X286848Y-12090555D02*
X267801Y-12109603D01*
X267801Y-12109603D02*
X248753Y-12119127D01*
X448753Y-12242936D02*
X458277Y-12252460D01*
X458277Y-12252460D02*
X448753Y-12261984D01*
X448753Y-12261984D02*
X439229Y-12252460D01*
X439229Y-12252460D02*
X448753Y-12242936D01*
X448753Y-12242936D02*
X448753Y-12261984D01*
X582086Y-12061984D02*
X601134Y-12061984D01*
X601134Y-12061984D02*
X620182Y-12071508D01*
X620182Y-12071508D02*
X629705Y-12081031D01*
X629705Y-12081031D02*
X639229Y-12100079D01*
X639229Y-12100079D02*
X648753Y-12138174D01*
X648753Y-12138174D02*
X648753Y-12185793D01*
X648753Y-12185793D02*
X639229Y-12223888D01*
X639229Y-12223888D02*
X629705Y-12242936D01*
X629705Y-12242936D02*
X620182Y-12252460D01*
X620182Y-12252460D02*
X601134Y-12261984D01*
X601134Y-12261984D02*
X582086Y-12261984D01*
X582086Y-12261984D02*
X563039Y-12252460D01*
X563039Y-12252460D02*
X553515Y-12242936D01*
X553515Y-12242936D02*
X543991Y-12223888D01*
X543991Y-12223888D02*
X534467Y-12185793D01*
X534467Y-12185793D02*
X534467Y-12138174D01*
X534467Y-12138174D02*
X543991Y-12100079D01*
X543991Y-12100079D02*
X553515Y-12081031D01*
X553515Y-12081031D02*
X563039Y-12071508D01*
X563039Y-12071508D02*
X582086Y-12061984D01*
X772562Y-12061984D02*
X791610Y-12061984D01*
X791610Y-12061984D02*
X810658Y-12071508D01*
X810658Y-12071508D02*
X820182Y-12081031D01*
X820182Y-12081031D02*
X829705Y-12100079D01*
X829705Y-12100079D02*
X839229Y-12138174D01*
X839229Y-12138174D02*
X839229Y-12185793D01*
X839229Y-12185793D02*
X829705Y-12223888D01*
X829705Y-12223888D02*
X820182Y-12242936D01*
X820182Y-12242936D02*
X810658Y-12252460D01*
X810658Y-12252460D02*
X791610Y-12261984D01*
X791610Y-12261984D02*
X772562Y-12261984D01*
X772562Y-12261984D02*
X753515Y-12252460D01*
X753515Y-12252460D02*
X743991Y-12242936D01*
X743991Y-12242936D02*
X734467Y-12223888D01*
X734467Y-12223888D02*
X724943Y-12185793D01*
X724943Y-12185793D02*
X724943Y-12138174D01*
X724943Y-12138174D02*
X734467Y-12100079D01*
X734467Y-12100079D02*
X743991Y-12081031D01*
X743991Y-12081031D02*
X753515Y-12071508D01*
X753515Y-12071508D02*
X772562Y-12061984D01*
X963039Y-12061984D02*
X982086Y-12061984D01*
X982086Y-12061984D02*
X1001134Y-12071508D01*
X1001134Y-12071508D02*
X1010658Y-12081031D01*
X1010658Y-12081031D02*
X1020182Y-12100079D01*
X1020182Y-12100079D02*
X1029705Y-12138174D01*
X1029705Y-12138174D02*
X1029705Y-12185793D01*
X1029705Y-12185793D02*
X1020182Y-12223888D01*
X1020182Y-12223888D02*
X1010658Y-12242936D01*
X1010658Y-12242936D02*
X1001134Y-12252460D01*
X1001134Y-12252460D02*
X982086Y-12261984D01*
X982086Y-12261984D02*
X963039Y-12261984D01*
X963039Y-12261984D02*
X943991Y-12252460D01*
X943991Y-12252460D02*
X934467Y-12242936D01*
X934467Y-12242936D02*
X924943Y-12223888D01*
X924943Y-12223888D02*
X915420Y-12185793D01*
X915420Y-12185793D02*
X915420Y-12138174D01*
X915420Y-12138174D02*
X924943Y-12100079D01*
X924943Y-12100079D02*
X934467Y-12081031D01*
X934467Y-12081031D02*
X943991Y-12071508D01*
X943991Y-12071508D02*
X963039Y-12061984D01*
X1115420Y-12261984D02*
X1115420Y-12128650D01*
X1115420Y-12147698D02*
X1124944Y-12138174D01*
X1124944Y-12138174D02*
X1143991Y-12128650D01*
X1143991Y-12128650D02*
X1172563Y-12128650D01*
X1172563Y-12128650D02*
X1191610Y-12138174D01*
X1191610Y-12138174D02*
X1201134Y-12157222D01*
X1201134Y-12157222D02*
X1201134Y-12261984D01*
X1201134Y-12157222D02*
X1210658Y-12138174D01*
X1210658Y-12138174D02*
X1229705Y-12128650D01*
X1229705Y-12128650D02*
X1258277Y-12128650D01*
X1258277Y-12128650D02*
X1277325Y-12138174D01*
X1277325Y-12138174D02*
X1286848Y-12157222D01*
X1286848Y-12157222D02*
X1286848Y-12261984D01*
X1382086Y-12261984D02*
X1382086Y-12128650D01*
X1382086Y-12147698D02*
X1391610Y-12138174D01*
X1391610Y-12138174D02*
X1410658Y-12128650D01*
X1410658Y-12128650D02*
X1439229Y-12128650D01*
X1439229Y-12128650D02*
X1458277Y-12138174D01*
X1458277Y-12138174D02*
X1467801Y-12157222D01*
X1467801Y-12157222D02*
X1467801Y-12261984D01*
X1467801Y-12157222D02*
X1477324Y-12138174D01*
X1477324Y-12138174D02*
X1496372Y-12128650D01*
X1496372Y-12128650D02*
X1524943Y-12128650D01*
X1524943Y-12128650D02*
X1543991Y-12138174D01*
X1543991Y-12138174D02*
X1553515Y-12157222D01*
X1553515Y-12157222D02*
X1553515Y-12261984D01*
X1943991Y-12052460D02*
X1772563Y-12309603D01*
X2201134Y-12061984D02*
X2220182Y-12061984D01*
X2220182Y-12061984D02*
X2239229Y-12071508D01*
X2239229Y-12071508D02*
X2248753Y-12081031D01*
X2248753Y-12081031D02*
X2258277Y-12100079D01*
X2258277Y-12100079D02*
X2267801Y-12138174D01*
X2267801Y-12138174D02*
X2267801Y-12185793D01*
X2267801Y-12185793D02*
X2258277Y-12223888D01*
X2258277Y-12223888D02*
X2248753Y-12242936D01*
X2248753Y-12242936D02*
X2239229Y-12252460D01*
X2239229Y-12252460D02*
X2220182Y-12261984D01*
X2220182Y-12261984D02*
X2201134Y-12261984D01*
X2201134Y-12261984D02*
X2182087Y-12252460D01*
X2182087Y-12252460D02*
X2172563Y-12242936D01*
X2172563Y-12242936D02*
X2163039Y-12223888D01*
X2163039Y-12223888D02*
X2153515Y-12185793D01*
X2153515Y-12185793D02*
X2153515Y-12138174D01*
X2153515Y-12138174D02*
X2163039Y-12100079D01*
X2163039Y-12100079D02*
X2172563Y-12081031D01*
X2172563Y-12081031D02*
X2182087Y-12071508D01*
X2182087Y-12071508D02*
X2201134Y-12061984D01*
X2353515Y-12242936D02*
X2363039Y-12252460D01*
X2363039Y-12252460D02*
X2353515Y-12261984D01*
X2353515Y-12261984D02*
X2343991Y-12252460D01*
X2343991Y-12252460D02*
X2353515Y-12242936D01*
X2353515Y-12242936D02*
X2353515Y-12261984D01*
X2486848Y-12061984D02*
X2505896Y-12061984D01*
X2505896Y-12061984D02*
X2524944Y-12071508D01*
X2524944Y-12071508D02*
X2534468Y-12081031D01*
X2534468Y-12081031D02*
X2543991Y-12100079D01*
X2543991Y-12100079D02*
X2553515Y-12138174D01*
X2553515Y-12138174D02*
X2553515Y-12185793D01*
X2553515Y-12185793D02*
X2543991Y-12223888D01*
X2543991Y-12223888D02*
X2534468Y-12242936D01*
X2534468Y-12242936D02*
X2524944Y-12252460D01*
X2524944Y-12252460D02*
X2505896Y-12261984D01*
X2505896Y-12261984D02*
X2486848Y-12261984D01*
X2486848Y-12261984D02*
X2467801Y-12252460D01*
X2467801Y-12252460D02*
X2458277Y-12242936D01*
X2458277Y-12242936D02*
X2448753Y-12223888D01*
X2448753Y-12223888D02*
X2439229Y-12185793D01*
X2439229Y-12185793D02*
X2439229Y-12138174D01*
X2439229Y-12138174D02*
X2448753Y-12100079D01*
X2448753Y-12100079D02*
X2458277Y-12081031D01*
X2458277Y-12081031D02*
X2467801Y-12071508D01*
X2467801Y-12071508D02*
X2486848Y-12061984D01*
X2620182Y-12061984D02*
X2743991Y-12061984D01*
X2743991Y-12061984D02*
X2677325Y-12138174D01*
X2677325Y-12138174D02*
X2705896Y-12138174D01*
X2705896Y-12138174D02*
X2724944Y-12147698D01*
X2724944Y-12147698D02*
X2734468Y-12157222D01*
X2734468Y-12157222D02*
X2743991Y-12176269D01*
X2743991Y-12176269D02*
X2743991Y-12223888D01*
X2743991Y-12223888D02*
X2734468Y-12242936D01*
X2734468Y-12242936D02*
X2724944Y-12252460D01*
X2724944Y-12252460D02*
X2705896Y-12261984D01*
X2705896Y-12261984D02*
X2648753Y-12261984D01*
X2648753Y-12261984D02*
X2629706Y-12252460D01*
X2629706Y-12252460D02*
X2620182Y-12242936D01*
X2839229Y-12261984D02*
X2877325Y-12261984D01*
X2877325Y-12261984D02*
X2896372Y-12252460D01*
X2896372Y-12252460D02*
X2905896Y-12242936D01*
X2905896Y-12242936D02*
X2924944Y-12214365D01*
X2924944Y-12214365D02*
X2934467Y-12176269D01*
X2934467Y-12176269D02*
X2934467Y-12100079D01*
X2934467Y-12100079D02*
X2924944Y-12081031D01*
X2924944Y-12081031D02*
X2915420Y-12071508D01*
X2915420Y-12071508D02*
X2896372Y-12061984D01*
X2896372Y-12061984D02*
X2858277Y-12061984D01*
X2858277Y-12061984D02*
X2839229Y-12071508D01*
X2839229Y-12071508D02*
X2829706Y-12081031D01*
X2829706Y-12081031D02*
X2820182Y-12100079D01*
X2820182Y-12100079D02*
X2820182Y-12147698D01*
X2820182Y-12147698D02*
X2829706Y-12166746D01*
X2829706Y-12166746D02*
X2839229Y-12176269D01*
X2839229Y-12176269D02*
X2858277Y-12185793D01*
X2858277Y-12185793D02*
X2896372Y-12185793D01*
X2896372Y-12185793D02*
X2915420Y-12176269D01*
X2915420Y-12176269D02*
X2924944Y-12166746D01*
X2924944Y-12166746D02*
X2934467Y-12147698D01*
X3105896Y-12128650D02*
X3105896Y-12261984D01*
X3058277Y-12052460D02*
X3010658Y-12195317D01*
X3010658Y-12195317D02*
X3134467Y-12195317D01*
X3201134Y-12061984D02*
X3201134Y-12100079D01*
X3277325Y-12061984D02*
X3277325Y-12100079D01*
X3572563Y-12338174D02*
X3563039Y-12328650D01*
X3563039Y-12328650D02*
X3543991Y-12300079D01*
X3543991Y-12300079D02*
X3534468Y-12281031D01*
X3534468Y-12281031D02*
X3524944Y-12252460D01*
X3524944Y-12252460D02*
X3515420Y-12204841D01*
X3515420Y-12204841D02*
X3515420Y-12166746D01*
X3515420Y-12166746D02*
X3524944Y-12119127D01*
X3524944Y-12119127D02*
X3534468Y-12090555D01*
X3534468Y-12090555D02*
X3543991Y-12071508D01*
X3543991Y-12071508D02*
X3563039Y-12042936D01*
X3563039Y-12042936D02*
X3572563Y-12033412D01*
X3743991Y-12061984D02*
X3648753Y-12061984D01*
X3648753Y-12061984D02*
X3639229Y-12157222D01*
X3639229Y-12157222D02*
X3648753Y-12147698D01*
X3648753Y-12147698D02*
X3667801Y-12138174D01*
X3667801Y-12138174D02*
X3715420Y-12138174D01*
X3715420Y-12138174D02*
X3734468Y-12147698D01*
X3734468Y-12147698D02*
X3743991Y-12157222D01*
X3743991Y-12157222D02*
X3753515Y-12176269D01*
X3753515Y-12176269D02*
X3753515Y-12223888D01*
X3753515Y-12223888D02*
X3743991Y-12242936D01*
X3743991Y-12242936D02*
X3734468Y-12252460D01*
X3734468Y-12252460D02*
X3715420Y-12261984D01*
X3715420Y-12261984D02*
X3667801Y-12261984D01*
X3667801Y-12261984D02*
X3648753Y-12252460D01*
X3648753Y-12252460D02*
X3639229Y-12242936D01*
X3924944Y-12061984D02*
X3886848Y-12061984D01*
X3886848Y-12061984D02*
X3867801Y-12071508D01*
X3867801Y-12071508D02*
X3858277Y-12081031D01*
X3858277Y-12081031D02*
X3839229Y-12109603D01*
X3839229Y-12109603D02*
X3829706Y-12147698D01*
X3829706Y-12147698D02*
X3829706Y-12223888D01*
X3829706Y-12223888D02*
X3839229Y-12242936D01*
X3839229Y-12242936D02*
X3848753Y-12252460D01*
X3848753Y-12252460D02*
X3867801Y-12261984D01*
X3867801Y-12261984D02*
X3905896Y-12261984D01*
X3905896Y-12261984D02*
X3924944Y-12252460D01*
X3924944Y-12252460D02*
X3934468Y-12242936D01*
X3934468Y-12242936D02*
X3943991Y-12223888D01*
X3943991Y-12223888D02*
X3943991Y-12176269D01*
X3943991Y-12176269D02*
X3934468Y-12157222D01*
X3934468Y-12157222D02*
X3924944Y-12147698D01*
X3924944Y-12147698D02*
X3905896Y-12138174D01*
X3905896Y-12138174D02*
X3867801Y-12138174D01*
X3867801Y-12138174D02*
X3848753Y-12147698D01*
X3848753Y-12147698D02*
X3839229Y-12157222D01*
X3839229Y-12157222D02*
X3829706Y-12176269D01*
X4182087Y-12261984D02*
X4182087Y-12061984D01*
X4267801Y-12261984D02*
X4267801Y-12157222D01*
X4267801Y-12157222D02*
X4258277Y-12138174D01*
X4258277Y-12138174D02*
X4239230Y-12128650D01*
X4239230Y-12128650D02*
X4210658Y-12128650D01*
X4210658Y-12128650D02*
X4191610Y-12138174D01*
X4191610Y-12138174D02*
X4182087Y-12147698D01*
X4391611Y-12261984D02*
X4372563Y-12252460D01*
X4372563Y-12252460D02*
X4363039Y-12242936D01*
X4363039Y-12242936D02*
X4353515Y-12223888D01*
X4353515Y-12223888D02*
X4353515Y-12166746D01*
X4353515Y-12166746D02*
X4363039Y-12147698D01*
X4363039Y-12147698D02*
X4372563Y-12138174D01*
X4372563Y-12138174D02*
X4391611Y-12128650D01*
X4391611Y-12128650D02*
X4420182Y-12128650D01*
X4420182Y-12128650D02*
X4439230Y-12138174D01*
X4439230Y-12138174D02*
X4448753Y-12147698D01*
X4448753Y-12147698D02*
X4458277Y-12166746D01*
X4458277Y-12166746D02*
X4458277Y-12223888D01*
X4458277Y-12223888D02*
X4448753Y-12242936D01*
X4448753Y-12242936D02*
X4439230Y-12252460D01*
X4439230Y-12252460D02*
X4420182Y-12261984D01*
X4420182Y-12261984D02*
X4391611Y-12261984D01*
X4572563Y-12261984D02*
X4553515Y-12252460D01*
X4553515Y-12252460D02*
X4543992Y-12233412D01*
X4543992Y-12233412D02*
X4543992Y-12061984D01*
X4724944Y-12252460D02*
X4705896Y-12261984D01*
X4705896Y-12261984D02*
X4667801Y-12261984D01*
X4667801Y-12261984D02*
X4648753Y-12252460D01*
X4648753Y-12252460D02*
X4639230Y-12233412D01*
X4639230Y-12233412D02*
X4639230Y-12157222D01*
X4639230Y-12157222D02*
X4648753Y-12138174D01*
X4648753Y-12138174D02*
X4667801Y-12128650D01*
X4667801Y-12128650D02*
X4705896Y-12128650D01*
X4705896Y-12128650D02*
X4724944Y-12138174D01*
X4724944Y-12138174D02*
X4734468Y-12157222D01*
X4734468Y-12157222D02*
X4734468Y-12176269D01*
X4734468Y-12176269D02*
X4639230Y-12195317D01*
X4810658Y-12252460D02*
X4829706Y-12261984D01*
X4829706Y-12261984D02*
X4867801Y-12261984D01*
X4867801Y-12261984D02*
X4886849Y-12252460D01*
X4886849Y-12252460D02*
X4896373Y-12233412D01*
X4896373Y-12233412D02*
X4896373Y-12223888D01*
X4896373Y-12223888D02*
X4886849Y-12204841D01*
X4886849Y-12204841D02*
X4867801Y-12195317D01*
X4867801Y-12195317D02*
X4839230Y-12195317D01*
X4839230Y-12195317D02*
X4820182Y-12185793D01*
X4820182Y-12185793D02*
X4810658Y-12166746D01*
X4810658Y-12166746D02*
X4810658Y-12157222D01*
X4810658Y-12157222D02*
X4820182Y-12138174D01*
X4820182Y-12138174D02*
X4839230Y-12128650D01*
X4839230Y-12128650D02*
X4867801Y-12128650D01*
X4867801Y-12128650D02*
X4886849Y-12138174D01*
X4963039Y-12338174D02*
X4972563Y-12328650D01*
X4972563Y-12328650D02*
X4991611Y-12300079D01*
X4991611Y-12300079D02*
X5001134Y-12281031D01*
X5001134Y-12281031D02*
X5010658Y-12252460D01*
X5010658Y-12252460D02*
X5020182Y-12204841D01*
X5020182Y-12204841D02*
X5020182Y-12166746D01*
X5020182Y-12166746D02*
X5010658Y-12119127D01*
X5010658Y-12119127D02*
X5001134Y-12090555D01*
X5001134Y-12090555D02*
X4991611Y-12071508D01*
X4991611Y-12071508D02*
X4972563Y-12042936D01*
X4972563Y-12042936D02*
X4963039Y-12033412D01*
D13*
X-21538Y-12480462D02*
X-21538Y-12388538D01*
X-113462Y-12388538D01*
X-113462Y-12480462D01*
X-21538Y-12480462D01*
D11*
X363039Y-12525984D02*
X248753Y-12525984D01*
X305896Y-12525984D02*
X305896Y-12325984D01*
X305896Y-12325984D02*
X286848Y-12354555D01*
X286848Y-12354555D02*
X267801Y-12373603D01*
X267801Y-12373603D02*
X248753Y-12383127D01*
X448753Y-12506936D02*
X458277Y-12516460D01*
X458277Y-12516460D02*
X448753Y-12525984D01*
X448753Y-12525984D02*
X439229Y-12516460D01*
X439229Y-12516460D02*
X448753Y-12506936D01*
X448753Y-12506936D02*
X448753Y-12525984D01*
X524944Y-12325984D02*
X648753Y-12325984D01*
X648753Y-12325984D02*
X582086Y-12402174D01*
X582086Y-12402174D02*
X610658Y-12402174D01*
X610658Y-12402174D02*
X629705Y-12411698D01*
X629705Y-12411698D02*
X639229Y-12421222D01*
X639229Y-12421222D02*
X648753Y-12440269D01*
X648753Y-12440269D02*
X648753Y-12487888D01*
X648753Y-12487888D02*
X639229Y-12506936D01*
X639229Y-12506936D02*
X629705Y-12516460D01*
X629705Y-12516460D02*
X610658Y-12525984D01*
X610658Y-12525984D02*
X553515Y-12525984D01*
X553515Y-12525984D02*
X534467Y-12516460D01*
X534467Y-12516460D02*
X524944Y-12506936D01*
X772562Y-12325984D02*
X791610Y-12325984D01*
X791610Y-12325984D02*
X810658Y-12335508D01*
X810658Y-12335508D02*
X820182Y-12345031D01*
X820182Y-12345031D02*
X829705Y-12364079D01*
X829705Y-12364079D02*
X839229Y-12402174D01*
X839229Y-12402174D02*
X839229Y-12449793D01*
X839229Y-12449793D02*
X829705Y-12487888D01*
X829705Y-12487888D02*
X820182Y-12506936D01*
X820182Y-12506936D02*
X810658Y-12516460D01*
X810658Y-12516460D02*
X791610Y-12525984D01*
X791610Y-12525984D02*
X772562Y-12525984D01*
X772562Y-12525984D02*
X753515Y-12516460D01*
X753515Y-12516460D02*
X743991Y-12506936D01*
X743991Y-12506936D02*
X734467Y-12487888D01*
X734467Y-12487888D02*
X724943Y-12449793D01*
X724943Y-12449793D02*
X724943Y-12402174D01*
X724943Y-12402174D02*
X734467Y-12364079D01*
X734467Y-12364079D02*
X743991Y-12345031D01*
X743991Y-12345031D02*
X753515Y-12335508D01*
X753515Y-12335508D02*
X772562Y-12325984D01*
X963039Y-12325984D02*
X982086Y-12325984D01*
X982086Y-12325984D02*
X1001134Y-12335508D01*
X1001134Y-12335508D02*
X1010658Y-12345031D01*
X1010658Y-12345031D02*
X1020182Y-12364079D01*
X1020182Y-12364079D02*
X1029705Y-12402174D01*
X1029705Y-12402174D02*
X1029705Y-12449793D01*
X1029705Y-12449793D02*
X1020182Y-12487888D01*
X1020182Y-12487888D02*
X1010658Y-12506936D01*
X1010658Y-12506936D02*
X1001134Y-12516460D01*
X1001134Y-12516460D02*
X982086Y-12525984D01*
X982086Y-12525984D02*
X963039Y-12525984D01*
X963039Y-12525984D02*
X943991Y-12516460D01*
X943991Y-12516460D02*
X934467Y-12506936D01*
X934467Y-12506936D02*
X924943Y-12487888D01*
X924943Y-12487888D02*
X915420Y-12449793D01*
X915420Y-12449793D02*
X915420Y-12402174D01*
X915420Y-12402174D02*
X924943Y-12364079D01*
X924943Y-12364079D02*
X934467Y-12345031D01*
X934467Y-12345031D02*
X943991Y-12335508D01*
X943991Y-12335508D02*
X963039Y-12325984D01*
X1115420Y-12525984D02*
X1115420Y-12392650D01*
X1115420Y-12411698D02*
X1124944Y-12402174D01*
X1124944Y-12402174D02*
X1143991Y-12392650D01*
X1143991Y-12392650D02*
X1172563Y-12392650D01*
X1172563Y-12392650D02*
X1191610Y-12402174D01*
X1191610Y-12402174D02*
X1201134Y-12421222D01*
X1201134Y-12421222D02*
X1201134Y-12525984D01*
X1201134Y-12421222D02*
X1210658Y-12402174D01*
X1210658Y-12402174D02*
X1229705Y-12392650D01*
X1229705Y-12392650D02*
X1258277Y-12392650D01*
X1258277Y-12392650D02*
X1277325Y-12402174D01*
X1277325Y-12402174D02*
X1286848Y-12421222D01*
X1286848Y-12421222D02*
X1286848Y-12525984D01*
X1382086Y-12525984D02*
X1382086Y-12392650D01*
X1382086Y-12411698D02*
X1391610Y-12402174D01*
X1391610Y-12402174D02*
X1410658Y-12392650D01*
X1410658Y-12392650D02*
X1439229Y-12392650D01*
X1439229Y-12392650D02*
X1458277Y-12402174D01*
X1458277Y-12402174D02*
X1467801Y-12421222D01*
X1467801Y-12421222D02*
X1467801Y-12525984D01*
X1467801Y-12421222D02*
X1477324Y-12402174D01*
X1477324Y-12402174D02*
X1496372Y-12392650D01*
X1496372Y-12392650D02*
X1524943Y-12392650D01*
X1524943Y-12392650D02*
X1543991Y-12402174D01*
X1543991Y-12402174D02*
X1553515Y-12421222D01*
X1553515Y-12421222D02*
X1553515Y-12525984D01*
X1943991Y-12316460D02*
X1772563Y-12573603D01*
X2201134Y-12325984D02*
X2220182Y-12325984D01*
X2220182Y-12325984D02*
X2239229Y-12335508D01*
X2239229Y-12335508D02*
X2248753Y-12345031D01*
X2248753Y-12345031D02*
X2258277Y-12364079D01*
X2258277Y-12364079D02*
X2267801Y-12402174D01*
X2267801Y-12402174D02*
X2267801Y-12449793D01*
X2267801Y-12449793D02*
X2258277Y-12487888D01*
X2258277Y-12487888D02*
X2248753Y-12506936D01*
X2248753Y-12506936D02*
X2239229Y-12516460D01*
X2239229Y-12516460D02*
X2220182Y-12525984D01*
X2220182Y-12525984D02*
X2201134Y-12525984D01*
X2201134Y-12525984D02*
X2182087Y-12516460D01*
X2182087Y-12516460D02*
X2172563Y-12506936D01*
X2172563Y-12506936D02*
X2163039Y-12487888D01*
X2163039Y-12487888D02*
X2153515Y-12449793D01*
X2153515Y-12449793D02*
X2153515Y-12402174D01*
X2153515Y-12402174D02*
X2163039Y-12364079D01*
X2163039Y-12364079D02*
X2172563Y-12345031D01*
X2172563Y-12345031D02*
X2182087Y-12335508D01*
X2182087Y-12335508D02*
X2201134Y-12325984D01*
X2353515Y-12506936D02*
X2363039Y-12516460D01*
X2363039Y-12516460D02*
X2353515Y-12525984D01*
X2353515Y-12525984D02*
X2343991Y-12516460D01*
X2343991Y-12516460D02*
X2353515Y-12506936D01*
X2353515Y-12506936D02*
X2353515Y-12525984D01*
X2486848Y-12325984D02*
X2505896Y-12325984D01*
X2505896Y-12325984D02*
X2524944Y-12335508D01*
X2524944Y-12335508D02*
X2534468Y-12345031D01*
X2534468Y-12345031D02*
X2543991Y-12364079D01*
X2543991Y-12364079D02*
X2553515Y-12402174D01*
X2553515Y-12402174D02*
X2553515Y-12449793D01*
X2553515Y-12449793D02*
X2543991Y-12487888D01*
X2543991Y-12487888D02*
X2534468Y-12506936D01*
X2534468Y-12506936D02*
X2524944Y-12516460D01*
X2524944Y-12516460D02*
X2505896Y-12525984D01*
X2505896Y-12525984D02*
X2486848Y-12525984D01*
X2486848Y-12525984D02*
X2467801Y-12516460D01*
X2467801Y-12516460D02*
X2458277Y-12506936D01*
X2458277Y-12506936D02*
X2448753Y-12487888D01*
X2448753Y-12487888D02*
X2439229Y-12449793D01*
X2439229Y-12449793D02*
X2439229Y-12402174D01*
X2439229Y-12402174D02*
X2448753Y-12364079D01*
X2448753Y-12364079D02*
X2458277Y-12345031D01*
X2458277Y-12345031D02*
X2467801Y-12335508D01*
X2467801Y-12335508D02*
X2486848Y-12325984D01*
X2734468Y-12325984D02*
X2639229Y-12325984D01*
X2639229Y-12325984D02*
X2629706Y-12421222D01*
X2629706Y-12421222D02*
X2639229Y-12411698D01*
X2639229Y-12411698D02*
X2658277Y-12402174D01*
X2658277Y-12402174D02*
X2705896Y-12402174D01*
X2705896Y-12402174D02*
X2724944Y-12411698D01*
X2724944Y-12411698D02*
X2734468Y-12421222D01*
X2734468Y-12421222D02*
X2743991Y-12440269D01*
X2743991Y-12440269D02*
X2743991Y-12487888D01*
X2743991Y-12487888D02*
X2734468Y-12506936D01*
X2734468Y-12506936D02*
X2724944Y-12516460D01*
X2724944Y-12516460D02*
X2705896Y-12525984D01*
X2705896Y-12525984D02*
X2658277Y-12525984D01*
X2658277Y-12525984D02*
X2639229Y-12516460D01*
X2639229Y-12516460D02*
X2629706Y-12506936D01*
X2934467Y-12525984D02*
X2820182Y-12525984D01*
X2877325Y-12525984D02*
X2877325Y-12325984D01*
X2877325Y-12325984D02*
X2858277Y-12354555D01*
X2858277Y-12354555D02*
X2839229Y-12373603D01*
X2839229Y-12373603D02*
X2820182Y-12383127D01*
X3010658Y-12345031D02*
X3020182Y-12335508D01*
X3020182Y-12335508D02*
X3039229Y-12325984D01*
X3039229Y-12325984D02*
X3086848Y-12325984D01*
X3086848Y-12325984D02*
X3105896Y-12335508D01*
X3105896Y-12335508D02*
X3115420Y-12345031D01*
X3115420Y-12345031D02*
X3124944Y-12364079D01*
X3124944Y-12364079D02*
X3124944Y-12383127D01*
X3124944Y-12383127D02*
X3115420Y-12411698D01*
X3115420Y-12411698D02*
X3001134Y-12525984D01*
X3001134Y-12525984D02*
X3124944Y-12525984D01*
X3201134Y-12325984D02*
X3201134Y-12364079D01*
X3277325Y-12325984D02*
X3277325Y-12364079D01*
X3572563Y-12602174D02*
X3563039Y-12592650D01*
X3563039Y-12592650D02*
X3543991Y-12564079D01*
X3543991Y-12564079D02*
X3534468Y-12545031D01*
X3534468Y-12545031D02*
X3524944Y-12516460D01*
X3524944Y-12516460D02*
X3515420Y-12468841D01*
X3515420Y-12468841D02*
X3515420Y-12430746D01*
X3515420Y-12430746D02*
X3524944Y-12383127D01*
X3524944Y-12383127D02*
X3534468Y-12354555D01*
X3534468Y-12354555D02*
X3543991Y-12335508D01*
X3543991Y-12335508D02*
X3563039Y-12306936D01*
X3563039Y-12306936D02*
X3572563Y-12297412D01*
X3734468Y-12392650D02*
X3734468Y-12525984D01*
X3686848Y-12316460D02*
X3639229Y-12459317D01*
X3639229Y-12459317D02*
X3763039Y-12459317D01*
X3991610Y-12525984D02*
X3991610Y-12325984D01*
X4077325Y-12525984D02*
X4077325Y-12421222D01*
X4077325Y-12421222D02*
X4067801Y-12402174D01*
X4067801Y-12402174D02*
X4048753Y-12392650D01*
X4048753Y-12392650D02*
X4020182Y-12392650D01*
X4020182Y-12392650D02*
X4001134Y-12402174D01*
X4001134Y-12402174D02*
X3991610Y-12411698D01*
X4201134Y-12525984D02*
X4182087Y-12516460D01*
X4182087Y-12516460D02*
X4172563Y-12506936D01*
X4172563Y-12506936D02*
X4163039Y-12487888D01*
X4163039Y-12487888D02*
X4163039Y-12430746D01*
X4163039Y-12430746D02*
X4172563Y-12411698D01*
X4172563Y-12411698D02*
X4182087Y-12402174D01*
X4182087Y-12402174D02*
X4201134Y-12392650D01*
X4201134Y-12392650D02*
X4229706Y-12392650D01*
X4229706Y-12392650D02*
X4248753Y-12402174D01*
X4248753Y-12402174D02*
X4258277Y-12411698D01*
X4258277Y-12411698D02*
X4267801Y-12430746D01*
X4267801Y-12430746D02*
X4267801Y-12487888D01*
X4267801Y-12487888D02*
X4258277Y-12506936D01*
X4258277Y-12506936D02*
X4248753Y-12516460D01*
X4248753Y-12516460D02*
X4229706Y-12525984D01*
X4229706Y-12525984D02*
X4201134Y-12525984D01*
X4382087Y-12525984D02*
X4363039Y-12516460D01*
X4363039Y-12516460D02*
X4353515Y-12497412D01*
X4353515Y-12497412D02*
X4353515Y-12325984D01*
X4534468Y-12516460D02*
X4515420Y-12525984D01*
X4515420Y-12525984D02*
X4477325Y-12525984D01*
X4477325Y-12525984D02*
X4458277Y-12516460D01*
X4458277Y-12516460D02*
X4448753Y-12497412D01*
X4448753Y-12497412D02*
X4448753Y-12421222D01*
X4448753Y-12421222D02*
X4458277Y-12402174D01*
X4458277Y-12402174D02*
X4477325Y-12392650D01*
X4477325Y-12392650D02*
X4515420Y-12392650D01*
X4515420Y-12392650D02*
X4534468Y-12402174D01*
X4534468Y-12402174D02*
X4543992Y-12421222D01*
X4543992Y-12421222D02*
X4543992Y-12440269D01*
X4543992Y-12440269D02*
X4448753Y-12459317D01*
X4620182Y-12516460D02*
X4639230Y-12525984D01*
X4639230Y-12525984D02*
X4677325Y-12525984D01*
X4677325Y-12525984D02*
X4696373Y-12516460D01*
X4696373Y-12516460D02*
X4705896Y-12497412D01*
X4705896Y-12497412D02*
X4705896Y-12487888D01*
X4705896Y-12487888D02*
X4696373Y-12468841D01*
X4696373Y-12468841D02*
X4677325Y-12459317D01*
X4677325Y-12459317D02*
X4648753Y-12459317D01*
X4648753Y-12459317D02*
X4629706Y-12449793D01*
X4629706Y-12449793D02*
X4620182Y-12430746D01*
X4620182Y-12430746D02*
X4620182Y-12421222D01*
X4620182Y-12421222D02*
X4629706Y-12402174D01*
X4629706Y-12402174D02*
X4648753Y-12392650D01*
X4648753Y-12392650D02*
X4677325Y-12392650D01*
X4677325Y-12392650D02*
X4696373Y-12402174D01*
X4772563Y-12602174D02*
X4782087Y-12592650D01*
X4782087Y-12592650D02*
X4801134Y-12564079D01*
X4801134Y-12564079D02*
X4810658Y-12545031D01*
X4810658Y-12545031D02*
X4820182Y-12516460D01*
X4820182Y-12516460D02*
X4829706Y-12468841D01*
X4829706Y-12468841D02*
X4829706Y-12430746D01*
X4829706Y-12430746D02*
X4820182Y-12383127D01*
X4820182Y-12383127D02*
X4810658Y-12354555D01*
X4810658Y-12354555D02*
X4801134Y-12335508D01*
X4801134Y-12335508D02*
X4782087Y-12306936D01*
X4782087Y-12306936D02*
X4772563Y-12297412D01*
X-102500Y-12798500D02*
X-2500Y-12698500D01*
X-102500Y-12598500D01*
X-202500Y-12698500D01*
X-102500Y-12798500D01*
X248753Y-12609031D02*
X258277Y-12599508D01*
X258277Y-12599508D02*
X277324Y-12589984D01*
X277324Y-12589984D02*
X324944Y-12589984D01*
X324944Y-12589984D02*
X343991Y-12599508D01*
X343991Y-12599508D02*
X353515Y-12609031D01*
X353515Y-12609031D02*
X363039Y-12628079D01*
X363039Y-12628079D02*
X363039Y-12647127D01*
X363039Y-12647127D02*
X353515Y-12675698D01*
X353515Y-12675698D02*
X239229Y-12789984D01*
X239229Y-12789984D02*
X363039Y-12789984D01*
X448753Y-12770936D02*
X458277Y-12780460D01*
X458277Y-12780460D02*
X448753Y-12789984D01*
X448753Y-12789984D02*
X439229Y-12780460D01*
X439229Y-12780460D02*
X448753Y-12770936D01*
X448753Y-12770936D02*
X448753Y-12789984D01*
X639229Y-12589984D02*
X543991Y-12589984D01*
X543991Y-12589984D02*
X534467Y-12685222D01*
X534467Y-12685222D02*
X543991Y-12675698D01*
X543991Y-12675698D02*
X563039Y-12666174D01*
X563039Y-12666174D02*
X610658Y-12666174D01*
X610658Y-12666174D02*
X629705Y-12675698D01*
X629705Y-12675698D02*
X639229Y-12685222D01*
X639229Y-12685222D02*
X648753Y-12704269D01*
X648753Y-12704269D02*
X648753Y-12751888D01*
X648753Y-12751888D02*
X639229Y-12770936D01*
X639229Y-12770936D02*
X629705Y-12780460D01*
X629705Y-12780460D02*
X610658Y-12789984D01*
X610658Y-12789984D02*
X563039Y-12789984D01*
X563039Y-12789984D02*
X543991Y-12780460D01*
X543991Y-12780460D02*
X534467Y-12770936D01*
X772562Y-12589984D02*
X791610Y-12589984D01*
X791610Y-12589984D02*
X810658Y-12599508D01*
X810658Y-12599508D02*
X820182Y-12609031D01*
X820182Y-12609031D02*
X829705Y-12628079D01*
X829705Y-12628079D02*
X839229Y-12666174D01*
X839229Y-12666174D02*
X839229Y-12713793D01*
X839229Y-12713793D02*
X829705Y-12751888D01*
X829705Y-12751888D02*
X820182Y-12770936D01*
X820182Y-12770936D02*
X810658Y-12780460D01*
X810658Y-12780460D02*
X791610Y-12789984D01*
X791610Y-12789984D02*
X772562Y-12789984D01*
X772562Y-12789984D02*
X753515Y-12780460D01*
X753515Y-12780460D02*
X743991Y-12770936D01*
X743991Y-12770936D02*
X734467Y-12751888D01*
X734467Y-12751888D02*
X724943Y-12713793D01*
X724943Y-12713793D02*
X724943Y-12666174D01*
X724943Y-12666174D02*
X734467Y-12628079D01*
X734467Y-12628079D02*
X743991Y-12609031D01*
X743991Y-12609031D02*
X753515Y-12599508D01*
X753515Y-12599508D02*
X772562Y-12589984D01*
X963039Y-12589984D02*
X982086Y-12589984D01*
X982086Y-12589984D02*
X1001134Y-12599508D01*
X1001134Y-12599508D02*
X1010658Y-12609031D01*
X1010658Y-12609031D02*
X1020182Y-12628079D01*
X1020182Y-12628079D02*
X1029705Y-12666174D01*
X1029705Y-12666174D02*
X1029705Y-12713793D01*
X1029705Y-12713793D02*
X1020182Y-12751888D01*
X1020182Y-12751888D02*
X1010658Y-12770936D01*
X1010658Y-12770936D02*
X1001134Y-12780460D01*
X1001134Y-12780460D02*
X982086Y-12789984D01*
X982086Y-12789984D02*
X963039Y-12789984D01*
X963039Y-12789984D02*
X943991Y-12780460D01*
X943991Y-12780460D02*
X934467Y-12770936D01*
X934467Y-12770936D02*
X924943Y-12751888D01*
X924943Y-12751888D02*
X915420Y-12713793D01*
X915420Y-12713793D02*
X915420Y-12666174D01*
X915420Y-12666174D02*
X924943Y-12628079D01*
X924943Y-12628079D02*
X934467Y-12609031D01*
X934467Y-12609031D02*
X943991Y-12599508D01*
X943991Y-12599508D02*
X963039Y-12589984D01*
X1115420Y-12789984D02*
X1115420Y-12656650D01*
X1115420Y-12675698D02*
X1124944Y-12666174D01*
X1124944Y-12666174D02*
X1143991Y-12656650D01*
X1143991Y-12656650D02*
X1172563Y-12656650D01*
X1172563Y-12656650D02*
X1191610Y-12666174D01*
X1191610Y-12666174D02*
X1201134Y-12685222D01*
X1201134Y-12685222D02*
X1201134Y-12789984D01*
X1201134Y-12685222D02*
X1210658Y-12666174D01*
X1210658Y-12666174D02*
X1229705Y-12656650D01*
X1229705Y-12656650D02*
X1258277Y-12656650D01*
X1258277Y-12656650D02*
X1277325Y-12666174D01*
X1277325Y-12666174D02*
X1286848Y-12685222D01*
X1286848Y-12685222D02*
X1286848Y-12789984D01*
X1382086Y-12789984D02*
X1382086Y-12656650D01*
X1382086Y-12675698D02*
X1391610Y-12666174D01*
X1391610Y-12666174D02*
X1410658Y-12656650D01*
X1410658Y-12656650D02*
X1439229Y-12656650D01*
X1439229Y-12656650D02*
X1458277Y-12666174D01*
X1458277Y-12666174D02*
X1467801Y-12685222D01*
X1467801Y-12685222D02*
X1467801Y-12789984D01*
X1467801Y-12685222D02*
X1477324Y-12666174D01*
X1477324Y-12666174D02*
X1496372Y-12656650D01*
X1496372Y-12656650D02*
X1524943Y-12656650D01*
X1524943Y-12656650D02*
X1543991Y-12666174D01*
X1543991Y-12666174D02*
X1553515Y-12685222D01*
X1553515Y-12685222D02*
X1553515Y-12789984D01*
X1943991Y-12580460D02*
X1772563Y-12837603D01*
X2201134Y-12589984D02*
X2220182Y-12589984D01*
X2220182Y-12589984D02*
X2239229Y-12599508D01*
X2239229Y-12599508D02*
X2248753Y-12609031D01*
X2248753Y-12609031D02*
X2258277Y-12628079D01*
X2258277Y-12628079D02*
X2267801Y-12666174D01*
X2267801Y-12666174D02*
X2267801Y-12713793D01*
X2267801Y-12713793D02*
X2258277Y-12751888D01*
X2258277Y-12751888D02*
X2248753Y-12770936D01*
X2248753Y-12770936D02*
X2239229Y-12780460D01*
X2239229Y-12780460D02*
X2220182Y-12789984D01*
X2220182Y-12789984D02*
X2201134Y-12789984D01*
X2201134Y-12789984D02*
X2182087Y-12780460D01*
X2182087Y-12780460D02*
X2172563Y-12770936D01*
X2172563Y-12770936D02*
X2163039Y-12751888D01*
X2163039Y-12751888D02*
X2153515Y-12713793D01*
X2153515Y-12713793D02*
X2153515Y-12666174D01*
X2153515Y-12666174D02*
X2163039Y-12628079D01*
X2163039Y-12628079D02*
X2172563Y-12609031D01*
X2172563Y-12609031D02*
X2182087Y-12599508D01*
X2182087Y-12599508D02*
X2201134Y-12589984D01*
X2353515Y-12770936D02*
X2363039Y-12780460D01*
X2363039Y-12780460D02*
X2353515Y-12789984D01*
X2353515Y-12789984D02*
X2343991Y-12780460D01*
X2343991Y-12780460D02*
X2353515Y-12770936D01*
X2353515Y-12770936D02*
X2353515Y-12789984D01*
X2486848Y-12589984D02*
X2505896Y-12589984D01*
X2505896Y-12589984D02*
X2524944Y-12599508D01*
X2524944Y-12599508D02*
X2534468Y-12609031D01*
X2534468Y-12609031D02*
X2543991Y-12628079D01*
X2543991Y-12628079D02*
X2553515Y-12666174D01*
X2553515Y-12666174D02*
X2553515Y-12713793D01*
X2553515Y-12713793D02*
X2543991Y-12751888D01*
X2543991Y-12751888D02*
X2534468Y-12770936D01*
X2534468Y-12770936D02*
X2524944Y-12780460D01*
X2524944Y-12780460D02*
X2505896Y-12789984D01*
X2505896Y-12789984D02*
X2486848Y-12789984D01*
X2486848Y-12789984D02*
X2467801Y-12780460D01*
X2467801Y-12780460D02*
X2458277Y-12770936D01*
X2458277Y-12770936D02*
X2448753Y-12751888D01*
X2448753Y-12751888D02*
X2439229Y-12713793D01*
X2439229Y-12713793D02*
X2439229Y-12666174D01*
X2439229Y-12666174D02*
X2448753Y-12628079D01*
X2448753Y-12628079D02*
X2458277Y-12609031D01*
X2458277Y-12609031D02*
X2467801Y-12599508D01*
X2467801Y-12599508D02*
X2486848Y-12589984D01*
X2648753Y-12789984D02*
X2686848Y-12789984D01*
X2686848Y-12789984D02*
X2705896Y-12780460D01*
X2705896Y-12780460D02*
X2715420Y-12770936D01*
X2715420Y-12770936D02*
X2734468Y-12742365D01*
X2734468Y-12742365D02*
X2743991Y-12704269D01*
X2743991Y-12704269D02*
X2743991Y-12628079D01*
X2743991Y-12628079D02*
X2734468Y-12609031D01*
X2734468Y-12609031D02*
X2724944Y-12599508D01*
X2724944Y-12599508D02*
X2705896Y-12589984D01*
X2705896Y-12589984D02*
X2667801Y-12589984D01*
X2667801Y-12589984D02*
X2648753Y-12599508D01*
X2648753Y-12599508D02*
X2639229Y-12609031D01*
X2639229Y-12609031D02*
X2629706Y-12628079D01*
X2629706Y-12628079D02*
X2629706Y-12675698D01*
X2629706Y-12675698D02*
X2639229Y-12694746D01*
X2639229Y-12694746D02*
X2648753Y-12704269D01*
X2648753Y-12704269D02*
X2667801Y-12713793D01*
X2667801Y-12713793D02*
X2705896Y-12713793D01*
X2705896Y-12713793D02*
X2724944Y-12704269D01*
X2724944Y-12704269D02*
X2734468Y-12694746D01*
X2734468Y-12694746D02*
X2743991Y-12675698D01*
X2858277Y-12675698D02*
X2839229Y-12666174D01*
X2839229Y-12666174D02*
X2829706Y-12656650D01*
X2829706Y-12656650D02*
X2820182Y-12637603D01*
X2820182Y-12637603D02*
X2820182Y-12628079D01*
X2820182Y-12628079D02*
X2829706Y-12609031D01*
X2829706Y-12609031D02*
X2839229Y-12599508D01*
X2839229Y-12599508D02*
X2858277Y-12589984D01*
X2858277Y-12589984D02*
X2896372Y-12589984D01*
X2896372Y-12589984D02*
X2915420Y-12599508D01*
X2915420Y-12599508D02*
X2924944Y-12609031D01*
X2924944Y-12609031D02*
X2934467Y-12628079D01*
X2934467Y-12628079D02*
X2934467Y-12637603D01*
X2934467Y-12637603D02*
X2924944Y-12656650D01*
X2924944Y-12656650D02*
X2915420Y-12666174D01*
X2915420Y-12666174D02*
X2896372Y-12675698D01*
X2896372Y-12675698D02*
X2858277Y-12675698D01*
X2858277Y-12675698D02*
X2839229Y-12685222D01*
X2839229Y-12685222D02*
X2829706Y-12694746D01*
X2829706Y-12694746D02*
X2820182Y-12713793D01*
X2820182Y-12713793D02*
X2820182Y-12751888D01*
X2820182Y-12751888D02*
X2829706Y-12770936D01*
X2829706Y-12770936D02*
X2839229Y-12780460D01*
X2839229Y-12780460D02*
X2858277Y-12789984D01*
X2858277Y-12789984D02*
X2896372Y-12789984D01*
X2896372Y-12789984D02*
X2915420Y-12780460D01*
X2915420Y-12780460D02*
X2924944Y-12770936D01*
X2924944Y-12770936D02*
X2934467Y-12751888D01*
X2934467Y-12751888D02*
X2934467Y-12713793D01*
X2934467Y-12713793D02*
X2924944Y-12694746D01*
X2924944Y-12694746D02*
X2915420Y-12685222D01*
X2915420Y-12685222D02*
X2896372Y-12675698D01*
X3105896Y-12656650D02*
X3105896Y-12789984D01*
X3058277Y-12580460D02*
X3010658Y-12723317D01*
X3010658Y-12723317D02*
X3134467Y-12723317D01*
X3201134Y-12589984D02*
X3201134Y-12628079D01*
X3277325Y-12589984D02*
X3277325Y-12628079D01*
X3572563Y-12866174D02*
X3563039Y-12856650D01*
X3563039Y-12856650D02*
X3543991Y-12828079D01*
X3543991Y-12828079D02*
X3534468Y-12809031D01*
X3534468Y-12809031D02*
X3524944Y-12780460D01*
X3524944Y-12780460D02*
X3515420Y-12732841D01*
X3515420Y-12732841D02*
X3515420Y-12694746D01*
X3515420Y-12694746D02*
X3524944Y-12647127D01*
X3524944Y-12647127D02*
X3534468Y-12618555D01*
X3534468Y-12618555D02*
X3543991Y-12599508D01*
X3543991Y-12599508D02*
X3563039Y-12570936D01*
X3563039Y-12570936D02*
X3572563Y-12561412D01*
X3639229Y-12609031D02*
X3648753Y-12599508D01*
X3648753Y-12599508D02*
X3667801Y-12589984D01*
X3667801Y-12589984D02*
X3715420Y-12589984D01*
X3715420Y-12589984D02*
X3734468Y-12599508D01*
X3734468Y-12599508D02*
X3743991Y-12609031D01*
X3743991Y-12609031D02*
X3753515Y-12628079D01*
X3753515Y-12628079D02*
X3753515Y-12647127D01*
X3753515Y-12647127D02*
X3743991Y-12675698D01*
X3743991Y-12675698D02*
X3629706Y-12789984D01*
X3629706Y-12789984D02*
X3753515Y-12789984D01*
X3991610Y-12789984D02*
X3991610Y-12589984D01*
X4077325Y-12789984D02*
X4077325Y-12685222D01*
X4077325Y-12685222D02*
X4067801Y-12666174D01*
X4067801Y-12666174D02*
X4048753Y-12656650D01*
X4048753Y-12656650D02*
X4020182Y-12656650D01*
X4020182Y-12656650D02*
X4001134Y-12666174D01*
X4001134Y-12666174D02*
X3991610Y-12675698D01*
X4201134Y-12789984D02*
X4182087Y-12780460D01*
X4182087Y-12780460D02*
X4172563Y-12770936D01*
X4172563Y-12770936D02*
X4163039Y-12751888D01*
X4163039Y-12751888D02*
X4163039Y-12694746D01*
X4163039Y-12694746D02*
X4172563Y-12675698D01*
X4172563Y-12675698D02*
X4182087Y-12666174D01*
X4182087Y-12666174D02*
X4201134Y-12656650D01*
X4201134Y-12656650D02*
X4229706Y-12656650D01*
X4229706Y-12656650D02*
X4248753Y-12666174D01*
X4248753Y-12666174D02*
X4258277Y-12675698D01*
X4258277Y-12675698D02*
X4267801Y-12694746D01*
X4267801Y-12694746D02*
X4267801Y-12751888D01*
X4267801Y-12751888D02*
X4258277Y-12770936D01*
X4258277Y-12770936D02*
X4248753Y-12780460D01*
X4248753Y-12780460D02*
X4229706Y-12789984D01*
X4229706Y-12789984D02*
X4201134Y-12789984D01*
X4382087Y-12789984D02*
X4363039Y-12780460D01*
X4363039Y-12780460D02*
X4353515Y-12761412D01*
X4353515Y-12761412D02*
X4353515Y-12589984D01*
X4534468Y-12780460D02*
X4515420Y-12789984D01*
X4515420Y-12789984D02*
X4477325Y-12789984D01*
X4477325Y-12789984D02*
X4458277Y-12780460D01*
X4458277Y-12780460D02*
X4448753Y-12761412D01*
X4448753Y-12761412D02*
X4448753Y-12685222D01*
X4448753Y-12685222D02*
X4458277Y-12666174D01*
X4458277Y-12666174D02*
X4477325Y-12656650D01*
X4477325Y-12656650D02*
X4515420Y-12656650D01*
X4515420Y-12656650D02*
X4534468Y-12666174D01*
X4534468Y-12666174D02*
X4543992Y-12685222D01*
X4543992Y-12685222D02*
X4543992Y-12704269D01*
X4543992Y-12704269D02*
X4448753Y-12723317D01*
X4620182Y-12780460D02*
X4639230Y-12789984D01*
X4639230Y-12789984D02*
X4677325Y-12789984D01*
X4677325Y-12789984D02*
X4696373Y-12780460D01*
X4696373Y-12780460D02*
X4705896Y-12761412D01*
X4705896Y-12761412D02*
X4705896Y-12751888D01*
X4705896Y-12751888D02*
X4696373Y-12732841D01*
X4696373Y-12732841D02*
X4677325Y-12723317D01*
X4677325Y-12723317D02*
X4648753Y-12723317D01*
X4648753Y-12723317D02*
X4629706Y-12713793D01*
X4629706Y-12713793D02*
X4620182Y-12694746D01*
X4620182Y-12694746D02*
X4620182Y-12685222D01*
X4620182Y-12685222D02*
X4629706Y-12666174D01*
X4629706Y-12666174D02*
X4648753Y-12656650D01*
X4648753Y-12656650D02*
X4677325Y-12656650D01*
X4677325Y-12656650D02*
X4696373Y-12666174D01*
X4772563Y-12866174D02*
X4782087Y-12856650D01*
X4782087Y-12856650D02*
X4801134Y-12828079D01*
X4801134Y-12828079D02*
X4810658Y-12809031D01*
X4810658Y-12809031D02*
X4820182Y-12780460D01*
X4820182Y-12780460D02*
X4829706Y-12732841D01*
X4829706Y-12732841D02*
X4829706Y-12694746D01*
X4829706Y-12694746D02*
X4820182Y-12647127D01*
X4820182Y-12647127D02*
X4810658Y-12618555D01*
X4810658Y-12618555D02*
X4801134Y-12599508D01*
X4801134Y-12599508D02*
X4782087Y-12570936D01*
X4782087Y-12570936D02*
X4772563Y-12561412D01*
M02*
