%TF.GenerationSoftware,KiCad,Pcbnew,9.0.2*%
%TF.CreationDate,2025-07-02T02:47:12-04:00*%
%TF.ProjectId,PaperCam_Kicad,50617065-7243-4616-9d5f-4b696361642e,rev?*%
%TF.SameCoordinates,Original*%
%TF.FileFunction,Copper,L2,Bot*%
%TF.FilePolarity,Positive*%
%FSLAX46Y46*%
G04 Gerber Fmt 4.6, Leading zero omitted, Abs format (unit mm)*
G04 Created by KiCad (PCBNEW 9.0.2) date 2025-07-02 02:47:12*
%MOMM*%
%LPD*%
G01*
G04 APERTURE LIST*
G04 Aperture macros list*
%AMRoundRect*
0 Rectangle with rounded corners*
0 $1 Rounding radius*
0 $2 $3 $4 $5 $6 $7 $8 $9 X,Y pos of 4 corners*
0 Add a 4 corners polygon primitive as box body*
4,1,4,$2,$3,$4,$5,$6,$7,$8,$9,$2,$3,0*
0 Add four circle primitives for the rounded corners*
1,1,$1+$1,$2,$3*
1,1,$1+$1,$4,$5*
1,1,$1+$1,$6,$7*
1,1,$1+$1,$8,$9*
0 Add four rect primitives between the rounded corners*
20,1,$1+$1,$2,$3,$4,$5,0*
20,1,$1+$1,$4,$5,$6,$7,0*
20,1,$1+$1,$6,$7,$8,$9,0*
20,1,$1+$1,$8,$9,$2,$3,0*%
G04 Aperture macros list end*
%TA.AperFunction,ComponentPad*%
%ADD10R,1.508000X1.508000*%
%TD*%
%TA.AperFunction,ComponentPad*%
%ADD11C,1.508000*%
%TD*%
%TA.AperFunction,ComponentPad*%
%ADD12C,3.516000*%
%TD*%
%TA.AperFunction,ComponentPad*%
%ADD13C,1.600000*%
%TD*%
%TA.AperFunction,ComponentPad*%
%ADD14RoundRect,0.250000X0.550000X-0.550000X0.550000X0.550000X-0.550000X0.550000X-0.550000X-0.550000X0*%
%TD*%
%TA.AperFunction,ComponentPad*%
%ADD15R,1.408000X1.408000*%
%TD*%
%TA.AperFunction,ComponentPad*%
%ADD16C,1.408000*%
%TD*%
%TA.AperFunction,ComponentPad*%
%ADD17R,1.700000X1.700000*%
%TD*%
%TA.AperFunction,ComponentPad*%
%ADD18C,1.700000*%
%TD*%
%TA.AperFunction,ComponentPad*%
%ADD19O,3.200000X1.900000*%
%TD*%
%TA.AperFunction,ComponentPad*%
%ADD20O,1.700000X1.700000*%
%TD*%
%TA.AperFunction,Conductor*%
%ADD21C,0.200000*%
%TD*%
G04 APERTURE END LIST*
D10*
%TO.P,U1,1,VBUS*%
%TO.N,unconnected-(U1-VBUS-Pad1)*%
X94488000Y-4127500D03*
D11*
%TO.P,U1,2,VLIPO*%
%TO.N,unconnected-(U1-VLIPO-Pad2)*%
X91948000Y-4127500D03*
%TO.P,U1,3,VBAT*%
%TO.N,unconnected-(U1-VBAT-Pad3)*%
X89408000Y-4127500D03*
%TO.P,U1,4,EN*%
%TO.N,Net-(PowerSwitch1-B)*%
X86868000Y-4127500D03*
%TO.P,U1,5,GND*%
%TO.N,GND*%
X84328000Y-4127500D03*
%TO.P,U1,6,LBO*%
%TO.N,Net-(U1-LBO)*%
X81788000Y-4127500D03*
%TO.P,U1,7,GND*%
%TO.N,GND*%
X79248000Y-4127500D03*
%TO.P,U1,8,5V*%
%TO.N,+5V*%
X76708000Y-4127500D03*
D12*
%TO.P,U1,P2*%
%TO.N,N/C*%
X104775000Y-23177500D03*
%TO.P,U1,P1*%
X104775000Y-5397500D03*
%TD*%
D13*
%TO.P,C1,2*%
%TO.N,GND*%
X83343750Y-100012500D03*
%TO.P,C1,1*%
%TO.N,+3V3*%
X83343750Y-102512500D03*
%TD*%
D14*
%TO.P,C3,1*%
%TO.N,+5V*%
X97631250Y-102393750D03*
D13*
%TO.P,C3,2*%
%TO.N,GND*%
X97631250Y-99893750D03*
%TD*%
%TO.P,C2,1*%
%TO.N,+3V3*%
X90487500Y-102512500D03*
%TO.P,C2,2*%
%TO.N,GND*%
X90487500Y-100012500D03*
%TD*%
D15*
%TO.P,PowerSwitch1,1,A*%
%TO.N,GND*%
X35694745Y-10142305D03*
D16*
%TO.P,PowerSwitch1,2,B*%
%TO.N,Net-(PowerSwitch1-B)*%
X35694745Y-7642305D03*
%TO.P,PowerSwitch1,3,C*%
%TO.N,unconnected-(PowerSwitch1-C-Pad3)*%
X35694745Y-5142305D03*
%TD*%
D17*
%TO.P,Display1,1,Pin_1*%
%TO.N,+5V*%
X103460219Y-46071437D03*
D18*
%TO.P,Display1,2,Pin_2*%
%TO.N,GND*%
X103460219Y-48611437D03*
%TO.P,Display1,3,Pin_3*%
%TO.N,/DIN*%
X103460219Y-51151437D03*
%TO.P,Display1,4,Pin_4*%
%TO.N,/CLK*%
X103460219Y-53691437D03*
%TO.P,Display1,5,Pin_5*%
%TO.N,/CS*%
X103460219Y-56231437D03*
%TO.P,Display1,6,Pin_6*%
%TO.N,/DC*%
X103460219Y-58771437D03*
%TO.P,Display1,7,Pin_7*%
%TO.N,/RST*%
X103460219Y-61311437D03*
%TO.P,Display1,8,Pin_8*%
%TO.N,/BUSY*%
X103460219Y-63851437D03*
%TD*%
D19*
%TO.P,CameraButton1,1,1*%
%TO.N,Net-(CameraButton1-Pad1)*%
X28791828Y-4908870D03*
X16291828Y-4908870D03*
%TO.P,CameraButton1,2,2*%
%TO.N,GND*%
X28791828Y-9908870D03*
X16291828Y-9908870D03*
%TD*%
D20*
%TO.P,RaspberryPiGPIO1,40,40*%
%TO.N,unconnected-(RaspberryPiGPIO1-Pad40)*%
X59123750Y-104282500D03*
%TO.P,RaspberryPiGPIO1,39,39*%
%TO.N,unconnected-(RaspberryPiGPIO1-Pad39)*%
X59123750Y-101742500D03*
%TO.P,RaspberryPiGPIO1,38,38*%
%TO.N,unconnected-(RaspberryPiGPIO1-Pad38)*%
X56583750Y-104282500D03*
%TO.P,RaspberryPiGPIO1,37,37*%
%TO.N,unconnected-(RaspberryPiGPIO1-Pad37)*%
X56583750Y-101742500D03*
%TO.P,RaspberryPiGPIO1,36,36*%
%TO.N,unconnected-(RaspberryPiGPIO1-Pad36)*%
X54043750Y-104282500D03*
%TO.P,RaspberryPiGPIO1,35,35*%
%TO.N,unconnected-(RaspberryPiGPIO1-Pad35)*%
X54043750Y-101742500D03*
%TO.P,RaspberryPiGPIO1,34,34*%
%TO.N,unconnected-(RaspberryPiGPIO1-Pad34)*%
X51503750Y-104282500D03*
%TO.P,RaspberryPiGPIO1,33,33*%
%TO.N,unconnected-(RaspberryPiGPIO1-Pad33)*%
X51503750Y-101742500D03*
%TO.P,RaspberryPiGPIO1,32,32*%
%TO.N,unconnected-(RaspberryPiGPIO1-Pad32)*%
X48963750Y-104282500D03*
%TO.P,RaspberryPiGPIO1,31,31*%
%TO.N,unconnected-(RaspberryPiGPIO1-Pad31)*%
X48963750Y-101742500D03*
%TO.P,RaspberryPiGPIO1,30,30*%
%TO.N,unconnected-(RaspberryPiGPIO1-Pad30)*%
X46423750Y-104282500D03*
%TO.P,RaspberryPiGPIO1,29,29*%
%TO.N,unconnected-(RaspberryPiGPIO1-Pad29)*%
X46423750Y-101742500D03*
%TO.P,RaspberryPiGPIO1,28,28*%
%TO.N,unconnected-(RaspberryPiGPIO1-Pad28)*%
X43883750Y-104282500D03*
%TO.P,RaspberryPiGPIO1,27,27*%
%TO.N,unconnected-(RaspberryPiGPIO1-Pad27)*%
X43883750Y-101742500D03*
%TO.P,RaspberryPiGPIO1,26,26*%
%TO.N,unconnected-(RaspberryPiGPIO1-Pad26)*%
X41343750Y-104282500D03*
%TO.P,RaspberryPiGPIO1,25,25*%
%TO.N,unconnected-(RaspberryPiGPIO1-Pad25)*%
X41343750Y-101742500D03*
%TO.P,RaspberryPiGPIO1,24,24*%
%TO.N,/CS*%
X38803750Y-104282500D03*
%TO.P,RaspberryPiGPIO1,23,23*%
%TO.N,/CLK*%
X38803750Y-101742500D03*
%TO.P,RaspberryPiGPIO1,22,22*%
%TO.N,/DC*%
X36263750Y-104282500D03*
%TO.P,RaspberryPiGPIO1,21,21*%
%TO.N,unconnected-(RaspberryPiGPIO1-Pad21)*%
X36263750Y-101742500D03*
%TO.P,RaspberryPiGPIO1,20,20*%
%TO.N,unconnected-(RaspberryPiGPIO1-Pad20)*%
X33723750Y-104282500D03*
%TO.P,RaspberryPiGPIO1,19,19*%
%TO.N,/DIN*%
X33723750Y-101742500D03*
%TO.P,RaspberryPiGPIO1,18,18*%
%TO.N,/RST*%
X31183750Y-104282500D03*
%TO.P,RaspberryPiGPIO1,17,17*%
%TO.N,unconnected-(RaspberryPiGPIO1-Pad17)*%
X31183750Y-101742500D03*
%TO.P,RaspberryPiGPIO1,16,16*%
%TO.N,/BUSY*%
X28643750Y-104282500D03*
%TO.P,RaspberryPiGPIO1,15,15*%
%TO.N,Net-(U1-LBO)*%
X28643750Y-101742500D03*
%TO.P,RaspberryPiGPIO1,14,14*%
%TO.N,unconnected-(RaspberryPiGPIO1-Pad14)*%
X26103750Y-104282500D03*
%TO.P,RaspberryPiGPIO1,13,13*%
%TO.N,unconnected-(RaspberryPiGPIO1-Pad13)*%
X26103750Y-101742500D03*
%TO.P,RaspberryPiGPIO1,12,12*%
%TO.N,unconnected-(RaspberryPiGPIO1-Pad12)*%
X23563750Y-104282500D03*
%TO.P,RaspberryPiGPIO1,11,11*%
%TO.N,Net-(CameraButton1-Pad1)*%
X23563750Y-101742500D03*
%TO.P,RaspberryPiGPIO1,10,10*%
%TO.N,unconnected-(RaspberryPiGPIO1-Pad10)*%
X21023750Y-104282500D03*
%TO.P,RaspberryPiGPIO1,9,9*%
%TO.N,GND*%
X21023750Y-101742500D03*
%TO.P,RaspberryPiGPIO1,8,8*%
%TO.N,unconnected-(RaspberryPiGPIO1-Pad8)*%
X18483750Y-104282500D03*
%TO.P,RaspberryPiGPIO1,7,7*%
%TO.N,unconnected-(RaspberryPiGPIO1-Pad7)*%
X18483750Y-101742500D03*
%TO.P,RaspberryPiGPIO1,6,6*%
%TO.N,GND*%
X15943750Y-104282500D03*
%TO.P,RaspberryPiGPIO1,5,5*%
%TO.N,unconnected-(RaspberryPiGPIO1-Pad5)*%
X15943750Y-101742500D03*
%TO.P,RaspberryPiGPIO1,4,4*%
%TO.N,unconnected-(RaspberryPiGPIO1-Pad4)*%
X13403750Y-104282500D03*
%TO.P,RaspberryPiGPIO1,3,3*%
%TO.N,unconnected-(RaspberryPiGPIO1-Pad3)*%
X13403750Y-101742500D03*
%TO.P,RaspberryPiGPIO1,2,2*%
%TO.N,+5V*%
X10863750Y-104282500D03*
D17*
%TO.P,RaspberryPiGPIO1,1,1*%
%TO.N,+3V3*%
X10863750Y-101742500D03*
%TD*%
D21*
%TO.N,GND*%
X35718750Y-83343750D02*
X28575000Y-83343750D01*
X84328000Y-34734500D02*
X84328000Y-29559250D01*
X35718750Y-83343750D02*
X84328000Y-34734500D01*
X47625000Y-16668750D02*
X42221190Y-16668750D01*
X83343750Y-7143750D02*
X58340625Y-32146875D01*
X47625000Y-16668750D02*
X58340625Y-27384375D01*
X58340625Y-27384375D02*
X58340625Y-32146875D01*
X97631250Y-99893750D02*
X97631250Y-83343750D01*
X26193750Y-100012500D02*
X26193750Y-85725000D01*
X97631250Y-83343750D02*
X35718750Y-83343750D01*
X28575000Y-83343750D02*
X26193750Y-85725000D01*
X26193750Y-85725000D02*
X26193750Y-64293750D01*
X58340625Y-32146875D02*
X26193750Y-64293750D01*
X26193750Y-100012500D02*
X83343750Y-100012500D01*
X16291828Y-9908870D02*
X23812500Y-9908870D01*
X26193750Y-64293750D02*
X26193750Y-12290120D01*
X26193750Y-12290120D02*
X23812500Y-9908870D01*
%TO.N,+5V*%
X10863750Y-104282500D02*
X12014750Y-103131500D01*
X15123647Y-8657870D02*
X37432928Y-8657870D01*
X66675000Y-16267750D02*
X76708000Y-6234750D01*
X37432928Y-8657870D02*
X45042808Y-16267750D01*
X12014750Y-11766767D02*
X15123647Y-8657870D01*
X12014750Y-103131500D02*
X12014750Y-11766767D01*
X45042808Y-16267750D02*
X66675000Y-16267750D01*
X76708000Y-6234750D02*
X76708000Y-4127500D01*
%TO.N,GND*%
X79248000Y-5429250D02*
X68008500Y-16668750D01*
X68008500Y-16668750D02*
X47625000Y-16668750D01*
X42221190Y-16668750D02*
X35694745Y-10142305D01*
X83343750Y-7143750D02*
X80962500Y-7143750D01*
X84328000Y-4127500D02*
X84328000Y-6159500D01*
X84328000Y-6159500D02*
X83343750Y-7143750D01*
X79248000Y-5429250D02*
X79248000Y-4127500D01*
X80962500Y-7143750D02*
X79248000Y-5429250D01*
X103460219Y-48611437D02*
X103380187Y-48611437D01*
X103380187Y-48611437D02*
X84328000Y-29559250D01*
X84328000Y-29559250D02*
X84328000Y-4127500D01*
X97631250Y-83343750D02*
X97631250Y-54440406D01*
X97631250Y-54440406D02*
X103460219Y-48611437D01*
X21023750Y-101742500D02*
X22753750Y-100012500D01*
X22753750Y-100012500D02*
X26193750Y-100012500D01*
X90487500Y-100012500D02*
X92868750Y-100012500D01*
X92868750Y-100012500D02*
X92987500Y-99893750D01*
X92987500Y-99893750D02*
X97631250Y-99893750D01*
X83343750Y-100012500D02*
X90487500Y-100012500D01*
X15943750Y-104282500D02*
X17094750Y-103131500D01*
X17094750Y-103131500D02*
X19634750Y-103131500D01*
X19634750Y-103131500D02*
X21023750Y-101742500D01*
X28791828Y-9908870D02*
X35461310Y-9908870D01*
X35461310Y-9908870D02*
X35694745Y-10142305D01*
%TO.N,Net-(CameraButton1-Pad1)*%
X16291828Y-4908870D02*
X28791828Y-4908870D01*
%TO.N,GND*%
X23812500Y-9908870D02*
X28791828Y-9908870D01*
%TO.N,+5V*%
X76708000Y-4127500D02*
X78454250Y-2381250D01*
X100012500Y-102393750D02*
X97631250Y-102393750D01*
X78454250Y-2381250D02*
X107156250Y-2381250D01*
X107156250Y-2381250D02*
X107156250Y-95250000D01*
X107156250Y-95250000D02*
X100012500Y-102393750D01*
%TD*%
M02*
