M48
; DRILL file {KiCad 9.0.2} date 2025-07-02T02:47:08-0400
; FORMAT={-:-/ absolute / metric / decimal}
; #@! TF.CreationDate,2025-07-02T02:47:08-04:00
; #@! TF.GenerationSoftware,Kicad,Pcbnew,9.0.2
; #@! TF.FileFunction,Plated,1,2,PTH
FMAT,2
METRIC
; #@! TA.AperFunction,Plated,PTH,ComponentDrill
T1C0.800
; #@! TA.AperFunction,Plated,PTH,ComponentDrill
T2C0.900
; #@! TA.AperFunction,Plated,PTH,ComponentDrill
T3C1.000
; #@! TA.AperFunction,Plated,PTH,ComponentDrill
T4C1.300
; #@! TA.AperFunction,Plated,PTH,ComponentDrill
T5C2.500
%
G90
G05
T1
X83.344Y-100.012
X83.344Y-102.512
X90.487Y-100.012
X90.487Y-102.512
X97.631Y-99.894
X97.631Y-102.394
T2
X35.695Y-5.142
X35.695Y-7.642
X35.695Y-10.142
T3
X10.864Y-101.742
X10.864Y-104.282
X13.404Y-101.742
X13.404Y-104.282
X15.944Y-101.742
X15.944Y-104.282
X18.484Y-101.742
X18.484Y-104.282
X21.024Y-101.742
X21.024Y-104.282
X23.564Y-101.742
X23.564Y-104.282
X26.104Y-101.742
X26.104Y-104.282
X28.644Y-101.742
X28.644Y-104.282
X31.184Y-101.742
X31.184Y-104.282
X33.724Y-101.742
X33.724Y-104.282
X36.264Y-101.742
X36.264Y-104.282
X38.804Y-101.742
X38.804Y-104.282
X41.344Y-101.742
X41.344Y-104.282
X43.884Y-101.742
X43.884Y-104.282
X46.424Y-101.742
X46.424Y-104.282
X48.964Y-101.742
X48.964Y-104.282
X51.504Y-101.742
X51.504Y-104.282
X54.044Y-101.742
X54.044Y-104.282
X56.584Y-101.742
X56.584Y-104.282
X59.124Y-101.742
X59.124Y-104.282
X76.708Y-4.127
X79.248Y-4.127
X81.788Y-4.127
X84.328Y-4.127
X86.868Y-4.127
X89.408Y-4.127
X91.948Y-4.127
X94.488Y-4.127
X103.46Y-46.071
X103.46Y-48.611
X103.46Y-51.151
X103.46Y-53.691
X103.46Y-56.231
X103.46Y-58.771
X103.46Y-61.311
X103.46Y-63.851
T4
X16.292Y-4.909
X16.292Y-9.909
X28.792Y-4.909
X28.792Y-9.909
T5
X104.775Y-5.397
X104.775Y-23.177
M30
