%TF.GenerationSoftware,KiCad,Pcbnew,9.0.2*%
%TF.CreationDate,2025-06-25T13:35:39-04:00*%
%TF.ProjectId,PaperCam_Kicad,50617065-7243-4616-9d5f-4b696361642e,rev?*%
%TF.SameCoordinates,Original*%
%TF.FileFunction,Drillmap*%
%TF.FilePolarity,Positive*%
%FSLAX45Y45*%
G04 Gerber Fmt 4.5, Leading zero omitted, Abs format (unit mm)*
G04 Created by KiCad (PCBNEW 9.0.2) date 2025-06-25 13:35:39*
%MOMM*%
%LPD*%
G01*
G04 APERTURE LIST*
%ADD10C,0.050000*%
%ADD11C,0.200000*%
%ADD12C,0.100000*%
%ADD13C,0.130000*%
%ADD14C,0.250000*%
G04 APERTURE END LIST*
D10*
X0Y-10500000D02*
X0Y-500000D01*
X10500000Y-11000000D02*
X500000Y-11000000D01*
X10500000Y0D02*
G75*
G02*
X11000000Y-500000I0J-500000D01*
G01*
X500000Y-11000000D02*
G75*
G02*
X0Y-10500000I0J500000D01*
G01*
X11000000Y-500000D02*
X11000000Y-10500000D01*
X0Y-500000D02*
G75*
G02*
X500000Y0I500000J0D01*
G01*
X500000Y0D02*
X10500000Y0D01*
X4500000Y-287500D02*
X6500000Y-287500D01*
X6500000Y-1287500D01*
X4500000Y-1287500D01*
X4500000Y-287500D01*
X11000000Y-10500000D02*
G75*
G02*
X10500000Y-11000000I-500000J0D01*
G01*
D11*
D12*
X2678438Y-9822188D02*
X2708438Y-9852188D01*
X2708438Y-9822188D02*
X2678438Y-9852188D01*
X3080625Y-9748125D02*
X3110625Y-9778125D01*
X3110625Y-9748125D02*
X3080625Y-9778125D01*
X3318750Y-9510000D02*
X3348750Y-9540000D01*
X3348750Y-9510000D02*
X3318750Y-9540000D01*
X3556875Y-9748125D02*
X3586875Y-9778125D01*
X3586875Y-9748125D02*
X3556875Y-9778125D01*
X3556875Y-9986250D02*
X3586875Y-10016250D01*
X3586875Y-9986250D02*
X3556875Y-10016250D01*
X3755831Y-10334350D02*
X3785831Y-10364350D01*
X3785831Y-10334350D02*
X3755831Y-10364350D01*
X3795000Y-9748125D02*
X3825000Y-9778125D01*
X3825000Y-9748125D02*
X3795000Y-9778125D01*
X4009831Y-10334350D02*
X4039831Y-10364350D01*
X4039831Y-10334350D02*
X4009831Y-10364350D01*
X4033125Y-9271875D02*
X4063125Y-9301875D01*
X4063125Y-9271875D02*
X4033125Y-9301875D01*
X4271250Y-9748125D02*
X4301250Y-9778125D01*
X4301250Y-9748125D02*
X4271250Y-9778125D01*
X4509375Y-9033750D02*
X4539375Y-9063750D01*
X4539375Y-9033750D02*
X4509375Y-9063750D01*
X4985625Y-9033750D02*
X5015625Y-9063750D01*
X5015625Y-9033750D02*
X4985625Y-9063750D01*
X5223750Y-9033750D02*
X5253750Y-9063750D01*
X5253750Y-9033750D02*
X5223750Y-9063750D01*
X5938125Y-9748125D02*
X5968125Y-9778125D01*
X5968125Y-9748125D02*
X5938125Y-9778125D01*
X6652500Y-9033750D02*
X6682500Y-9063750D01*
X6682500Y-9033750D02*
X6652500Y-9063750D01*
X8319375Y-937500D02*
X8349375Y-967500D01*
X8349375Y-937500D02*
X8319375Y-967500D01*
X8557500Y-6176250D02*
X8587500Y-6206250D01*
X8587500Y-6176250D02*
X8557500Y-6206250D01*
X8973750Y-6181427D02*
X9003750Y-6211427D01*
X9003750Y-6181427D02*
X8973750Y-6211427D01*
X8973750Y-6652500D02*
X9003750Y-6682500D01*
X9003750Y-6652500D02*
X8973750Y-6682500D01*
X8973750Y-7366875D02*
X9003750Y-7396875D01*
X9003750Y-7366875D02*
X8973750Y-7396875D01*
X9033750Y-5938125D02*
X9063750Y-5968125D01*
X9063750Y-5938125D02*
X9033750Y-5968125D01*
X9271875Y-6176250D02*
X9301875Y-6206250D01*
X9301875Y-6176250D02*
X9271875Y-6206250D01*
X9271875Y-7366875D02*
X9301875Y-7396875D01*
X9301875Y-7366875D02*
X9271875Y-7396875D01*
X9297884Y-5964134D02*
X9327884Y-5994134D01*
X9327884Y-5964134D02*
X9297884Y-5994134D01*
X9451156Y-5641156D02*
X9481156Y-5671156D01*
X9481156Y-5641156D02*
X9451156Y-5671156D01*
X9510000Y-5904134D02*
X9540000Y-5934134D01*
X9540000Y-5904134D02*
X9510000Y-5934134D01*
X9748125Y-5760000D02*
X9778125Y-5790000D01*
X9778125Y-5760000D02*
X9748125Y-5790000D01*
X7660000Y-9763125D02*
G75*
G02*
X7580000Y-9763125I-40000J0D01*
G01*
X7580000Y-9763125D02*
G75*
G02*
X7660000Y-9763125I40000J0D01*
G01*
X7660000Y-10477500D02*
G75*
G02*
X7580000Y-10477500I-40000J0D01*
G01*
X7580000Y-10477500D02*
G75*
G02*
X7660000Y-10477500I40000J0D01*
G01*
X7910000Y-9763125D02*
G75*
G02*
X7830000Y-9763125I-40000J0D01*
G01*
X7830000Y-9763125D02*
G75*
G02*
X7910000Y-9763125I40000J0D01*
G01*
X7910000Y-10477500D02*
G75*
G02*
X7830000Y-10477500I-40000J0D01*
G01*
X7830000Y-10477500D02*
G75*
G02*
X7910000Y-10477500I40000J0D01*
G01*
X8374375Y-9715500D02*
G75*
G02*
X8294375Y-9715500I-40000J0D01*
G01*
X8294375Y-9715500D02*
G75*
G02*
X8374375Y-9715500I40000J0D01*
G01*
X8374375Y-10477500D02*
G75*
G02*
X8294375Y-10477500I-40000J0D01*
G01*
X8294375Y-10477500D02*
G75*
G02*
X8374375Y-10477500I40000J0D01*
G01*
X9088750Y-9989375D02*
G75*
G02*
X9008750Y-9989375I-40000J0D01*
G01*
X9008750Y-9989375D02*
G75*
G02*
X9088750Y-9989375I40000J0D01*
G01*
X9088750Y-10239375D02*
G75*
G02*
X9008750Y-10239375I-40000J0D01*
G01*
X9008750Y-10239375D02*
G75*
G02*
X9088750Y-10239375I40000J0D01*
G01*
X3569474Y-469230D02*
X3569474Y-559231D01*
X3524474Y-514230D02*
X3614474Y-514230D01*
X3569474Y-719230D02*
X3569474Y-809230D01*
X3524474Y-764230D02*
X3614474Y-764230D01*
X3569474Y-969230D02*
X3569474Y-1059231D01*
X3524474Y-1014230D02*
X3614474Y-1014230D01*
X1121731Y-10209606D02*
X1121731Y-10138894D01*
X1051019Y-10138894D01*
X1051019Y-10209606D01*
X1121731Y-10209606D01*
X1121731Y-10463606D02*
X1121731Y-10392894D01*
X1051019Y-10392894D01*
X1051019Y-10463606D01*
X1121731Y-10463606D01*
X1375731Y-10209606D02*
X1375731Y-10138894D01*
X1305019Y-10138894D01*
X1305019Y-10209606D01*
X1375731Y-10209606D01*
X1375731Y-10463606D02*
X1375731Y-10392894D01*
X1305019Y-10392894D01*
X1305019Y-10463606D01*
X1375731Y-10463606D01*
X1629731Y-10209606D02*
X1629731Y-10138894D01*
X1559019Y-10138894D01*
X1559019Y-10209606D01*
X1629731Y-10209606D01*
X1629731Y-10463606D02*
X1629731Y-10392894D01*
X1559019Y-10392894D01*
X1559019Y-10463606D01*
X1629731Y-10463606D01*
X1883731Y-10209606D02*
X1883731Y-10138894D01*
X1813019Y-10138894D01*
X1813019Y-10209606D01*
X1883731Y-10209606D01*
X1883731Y-10463606D02*
X1883731Y-10392894D01*
X1813019Y-10392894D01*
X1813019Y-10463606D01*
X1883731Y-10463606D01*
X2137731Y-10209606D02*
X2137731Y-10138894D01*
X2067019Y-10138894D01*
X2067019Y-10209606D01*
X2137731Y-10209606D01*
X2137731Y-10463606D02*
X2137731Y-10392894D01*
X2067019Y-10392894D01*
X2067019Y-10463606D01*
X2137731Y-10463606D01*
X2391731Y-10209606D02*
X2391731Y-10138894D01*
X2321019Y-10138894D01*
X2321019Y-10209606D01*
X2391731Y-10209606D01*
X2391731Y-10463606D02*
X2391731Y-10392894D01*
X2321019Y-10392894D01*
X2321019Y-10463606D01*
X2391731Y-10463606D01*
X2645731Y-10209606D02*
X2645731Y-10138894D01*
X2575019Y-10138894D01*
X2575019Y-10209606D01*
X2645731Y-10209606D01*
X2645731Y-10463606D02*
X2645731Y-10392894D01*
X2575019Y-10392894D01*
X2575019Y-10463606D01*
X2645731Y-10463606D01*
X2899731Y-10209606D02*
X2899731Y-10138894D01*
X2829019Y-10138894D01*
X2829019Y-10209606D01*
X2899731Y-10209606D01*
X2899731Y-10463606D02*
X2899731Y-10392894D01*
X2829019Y-10392894D01*
X2829019Y-10463606D01*
X2899731Y-10463606D01*
X3153731Y-10209606D02*
X3153731Y-10138894D01*
X3083019Y-10138894D01*
X3083019Y-10209606D01*
X3153731Y-10209606D01*
X3153731Y-10463606D02*
X3153731Y-10392894D01*
X3083019Y-10392894D01*
X3083019Y-10463606D01*
X3153731Y-10463606D01*
X3407731Y-10209606D02*
X3407731Y-10138894D01*
X3337019Y-10138894D01*
X3337019Y-10209606D01*
X3407731Y-10209606D01*
X3407731Y-10463606D02*
X3407731Y-10392894D01*
X3337019Y-10392894D01*
X3337019Y-10463606D01*
X3407731Y-10463606D01*
X3661731Y-10209606D02*
X3661731Y-10138894D01*
X3591019Y-10138894D01*
X3591019Y-10209606D01*
X3661731Y-10209606D01*
X3661731Y-10463606D02*
X3661731Y-10392894D01*
X3591019Y-10392894D01*
X3591019Y-10463606D01*
X3661731Y-10463606D01*
X3915731Y-10209606D02*
X3915731Y-10138894D01*
X3845019Y-10138894D01*
X3845019Y-10209606D01*
X3915731Y-10209606D01*
X3915731Y-10463606D02*
X3915731Y-10392894D01*
X3845019Y-10392894D01*
X3845019Y-10463606D01*
X3915731Y-10463606D01*
X4169731Y-10209606D02*
X4169731Y-10138894D01*
X4099019Y-10138894D01*
X4099019Y-10209606D01*
X4169731Y-10209606D01*
X4169731Y-10463606D02*
X4169731Y-10392894D01*
X4099019Y-10392894D01*
X4099019Y-10463606D01*
X4169731Y-10463606D01*
X4423731Y-10209606D02*
X4423731Y-10138894D01*
X4353019Y-10138894D01*
X4353019Y-10209606D01*
X4423731Y-10209606D01*
X4423731Y-10463606D02*
X4423731Y-10392894D01*
X4353019Y-10392894D01*
X4353019Y-10463606D01*
X4423731Y-10463606D01*
X4677731Y-10209606D02*
X4677731Y-10138894D01*
X4607019Y-10138894D01*
X4607019Y-10209606D01*
X4677731Y-10209606D01*
X4677731Y-10463606D02*
X4677731Y-10392894D01*
X4607019Y-10392894D01*
X4607019Y-10463606D01*
X4677731Y-10463606D01*
X4931731Y-10209606D02*
X4931731Y-10138894D01*
X4861019Y-10138894D01*
X4861019Y-10209606D01*
X4931731Y-10209606D01*
X4931731Y-10463606D02*
X4931731Y-10392894D01*
X4861019Y-10392894D01*
X4861019Y-10463606D01*
X4931731Y-10463606D01*
X5185731Y-10209606D02*
X5185731Y-10138894D01*
X5115019Y-10138894D01*
X5115019Y-10209606D01*
X5185731Y-10209606D01*
X5185731Y-10463606D02*
X5185731Y-10392894D01*
X5115019Y-10392894D01*
X5115019Y-10463606D01*
X5185731Y-10463606D01*
X5439731Y-10209606D02*
X5439731Y-10138894D01*
X5369019Y-10138894D01*
X5369019Y-10209606D01*
X5439731Y-10209606D01*
X5439731Y-10463606D02*
X5439731Y-10392894D01*
X5369019Y-10392894D01*
X5369019Y-10463606D01*
X5439731Y-10463606D01*
X5693731Y-10209606D02*
X5693731Y-10138894D01*
X5623019Y-10138894D01*
X5623019Y-10209606D01*
X5693731Y-10209606D01*
X5693731Y-10463606D02*
X5693731Y-10392894D01*
X5623019Y-10392894D01*
X5623019Y-10463606D01*
X5693731Y-10463606D01*
X5947731Y-10209606D02*
X5947731Y-10138894D01*
X5877019Y-10138894D01*
X5877019Y-10209606D01*
X5947731Y-10209606D01*
X5947731Y-10463606D02*
X5947731Y-10392894D01*
X5877019Y-10392894D01*
X5877019Y-10463606D01*
X5947731Y-10463606D01*
X7706156Y-448106D02*
X7706156Y-377394D01*
X7635444Y-377394D01*
X7635444Y-448106D01*
X7706156Y-448106D01*
X7960156Y-448106D02*
X7960156Y-377394D01*
X7889444Y-377394D01*
X7889444Y-448106D01*
X7960156Y-448106D01*
X8214156Y-448106D02*
X8214156Y-377394D01*
X8143444Y-377394D01*
X8143444Y-448106D01*
X8214156Y-448106D01*
X8468156Y-448106D02*
X8468156Y-377394D01*
X8397444Y-377394D01*
X8397444Y-448106D01*
X8468156Y-448106D01*
X8722156Y-448106D02*
X8722156Y-377394D01*
X8651444Y-377394D01*
X8651444Y-448106D01*
X8722156Y-448106D01*
X8976156Y-448106D02*
X8976156Y-377394D01*
X8905444Y-377394D01*
X8905444Y-448106D01*
X8976156Y-448106D01*
X9230156Y-448106D02*
X9230156Y-377394D01*
X9159444Y-377394D01*
X9159444Y-448106D01*
X9230156Y-448106D01*
X9484156Y-448106D02*
X9484156Y-377394D01*
X9413444Y-377394D01*
X9413444Y-448106D01*
X9484156Y-448106D01*
X10381378Y-4642499D02*
X10381378Y-4571788D01*
X10310666Y-4571788D01*
X10310666Y-4642499D01*
X10381378Y-4642499D01*
X10381378Y-4896499D02*
X10381378Y-4825788D01*
X10310666Y-4825788D01*
X10310666Y-4896499D01*
X10381378Y-4896499D01*
X10381378Y-5150499D02*
X10381378Y-5079788D01*
X10310666Y-5079788D01*
X10310666Y-5150499D01*
X10381378Y-5150499D01*
X10381378Y-5404499D02*
X10381378Y-5333788D01*
X10310666Y-5333788D01*
X10310666Y-5404499D01*
X10381378Y-5404499D01*
X10381378Y-5658499D02*
X10381378Y-5587788D01*
X10310666Y-5587788D01*
X10310666Y-5658499D01*
X10381378Y-5658499D01*
X10381378Y-5912499D02*
X10381378Y-5841788D01*
X10310666Y-5841788D01*
X10310666Y-5912499D01*
X10381378Y-5912499D01*
X10381378Y-6166499D02*
X10381378Y-6095788D01*
X10310666Y-6095788D01*
X10310666Y-6166499D01*
X10381378Y-6166499D01*
X10381378Y-6420499D02*
X10381378Y-6349788D01*
X10310666Y-6349788D01*
X10310666Y-6420499D01*
X10381378Y-6420499D01*
D13*
X1629183Y-555887D02*
X1694183Y-490887D01*
X1629183Y-425887D01*
X1564183Y-490887D01*
X1629183Y-555887D01*
X1629183Y-1055887D02*
X1694183Y-990887D01*
X1629183Y-925887D01*
X1564183Y-990887D01*
X1629183Y-1055887D01*
X2879183Y-555887D02*
X2944183Y-490887D01*
X2879183Y-425887D01*
X2814183Y-490887D01*
X2879183Y-555887D01*
X2879183Y-1055887D02*
X2944183Y-990887D01*
X2879183Y-925887D01*
X2814183Y-990887D01*
X2879183Y-1055887D01*
D14*
X10352500Y-414750D02*
X10602500Y-664750D01*
X10602500Y-414750D02*
X10352500Y-664750D01*
X10602500Y-539750D02*
G75*
G02*
X10352500Y-539750I-125000J0D01*
G01*
X10352500Y-539750D02*
G75*
G02*
X10602500Y-539750I125000J0D01*
G01*
X10352500Y-2192750D02*
X10602500Y-2442750D01*
X10602500Y-2192750D02*
X10352500Y-2442750D01*
X10602500Y-2317750D02*
G75*
G02*
X10352500Y-2317750I-125000J0D01*
G01*
X10352500Y-2317750D02*
G75*
G02*
X10602500Y-2317750I125000J0D01*
G01*
D11*
X258277Y-11313984D02*
X258277Y-11113984D01*
X258277Y-11113984D02*
X305896Y-11113984D01*
X305896Y-11113984D02*
X334467Y-11123508D01*
X334467Y-11123508D02*
X353515Y-11142555D01*
X353515Y-11142555D02*
X363039Y-11161603D01*
X363039Y-11161603D02*
X372562Y-11199698D01*
X372562Y-11199698D02*
X372562Y-11228269D01*
X372562Y-11228269D02*
X363039Y-11266365D01*
X363039Y-11266365D02*
X353515Y-11285412D01*
X353515Y-11285412D02*
X334467Y-11304460D01*
X334467Y-11304460D02*
X305896Y-11313984D01*
X305896Y-11313984D02*
X258277Y-11313984D01*
X458277Y-11313984D02*
X458277Y-11180650D01*
X458277Y-11218746D02*
X467801Y-11199698D01*
X467801Y-11199698D02*
X477324Y-11190174D01*
X477324Y-11190174D02*
X496372Y-11180650D01*
X496372Y-11180650D02*
X515420Y-11180650D01*
X582086Y-11313984D02*
X582086Y-11180650D01*
X582086Y-11113984D02*
X572563Y-11123508D01*
X572563Y-11123508D02*
X582086Y-11133031D01*
X582086Y-11133031D02*
X591610Y-11123508D01*
X591610Y-11123508D02*
X582086Y-11113984D01*
X582086Y-11113984D02*
X582086Y-11133031D01*
X705896Y-11313984D02*
X686848Y-11304460D01*
X686848Y-11304460D02*
X677324Y-11285412D01*
X677324Y-11285412D02*
X677324Y-11113984D01*
X810658Y-11313984D02*
X791610Y-11304460D01*
X791610Y-11304460D02*
X782086Y-11285412D01*
X782086Y-11285412D02*
X782086Y-11113984D01*
X1039229Y-11313984D02*
X1039229Y-11113984D01*
X1039229Y-11113984D02*
X1105896Y-11256841D01*
X1105896Y-11256841D02*
X1172563Y-11113984D01*
X1172563Y-11113984D02*
X1172563Y-11313984D01*
X1353515Y-11313984D02*
X1353515Y-11209222D01*
X1353515Y-11209222D02*
X1343991Y-11190174D01*
X1343991Y-11190174D02*
X1324944Y-11180650D01*
X1324944Y-11180650D02*
X1286848Y-11180650D01*
X1286848Y-11180650D02*
X1267801Y-11190174D01*
X1353515Y-11304460D02*
X1334467Y-11313984D01*
X1334467Y-11313984D02*
X1286848Y-11313984D01*
X1286848Y-11313984D02*
X1267801Y-11304460D01*
X1267801Y-11304460D02*
X1258277Y-11285412D01*
X1258277Y-11285412D02*
X1258277Y-11266365D01*
X1258277Y-11266365D02*
X1267801Y-11247317D01*
X1267801Y-11247317D02*
X1286848Y-11237793D01*
X1286848Y-11237793D02*
X1334467Y-11237793D01*
X1334467Y-11237793D02*
X1353515Y-11228269D01*
X1448753Y-11180650D02*
X1448753Y-11380650D01*
X1448753Y-11190174D02*
X1467801Y-11180650D01*
X1467801Y-11180650D02*
X1505896Y-11180650D01*
X1505896Y-11180650D02*
X1524943Y-11190174D01*
X1524943Y-11190174D02*
X1534467Y-11199698D01*
X1534467Y-11199698D02*
X1543991Y-11218746D01*
X1543991Y-11218746D02*
X1543991Y-11275888D01*
X1543991Y-11275888D02*
X1534467Y-11294936D01*
X1534467Y-11294936D02*
X1524943Y-11304460D01*
X1524943Y-11304460D02*
X1505896Y-11313984D01*
X1505896Y-11313984D02*
X1467801Y-11313984D01*
X1467801Y-11313984D02*
X1448753Y-11304460D01*
X1629705Y-11294936D02*
X1639229Y-11304460D01*
X1639229Y-11304460D02*
X1629705Y-11313984D01*
X1629705Y-11313984D02*
X1620182Y-11304460D01*
X1620182Y-11304460D02*
X1629705Y-11294936D01*
X1629705Y-11294936D02*
X1629705Y-11313984D01*
X1629705Y-11190174D02*
X1639229Y-11199698D01*
X1639229Y-11199698D02*
X1629705Y-11209222D01*
X1629705Y-11209222D02*
X1620182Y-11199698D01*
X1620182Y-11199698D02*
X1629705Y-11190174D01*
X1629705Y-11190174D02*
X1629705Y-11209222D01*
D12*
X-32500Y-11627500D02*
X-2500Y-11657500D01*
X-2500Y-11627500D02*
X-32500Y-11657500D01*
D11*
X296372Y-11533984D02*
X315420Y-11533984D01*
X315420Y-11533984D02*
X334467Y-11543508D01*
X334467Y-11543508D02*
X343991Y-11553031D01*
X343991Y-11553031D02*
X353515Y-11572079D01*
X353515Y-11572079D02*
X363039Y-11610174D01*
X363039Y-11610174D02*
X363039Y-11657793D01*
X363039Y-11657793D02*
X353515Y-11695888D01*
X353515Y-11695888D02*
X343991Y-11714936D01*
X343991Y-11714936D02*
X334467Y-11724460D01*
X334467Y-11724460D02*
X315420Y-11733984D01*
X315420Y-11733984D02*
X296372Y-11733984D01*
X296372Y-11733984D02*
X277324Y-11724460D01*
X277324Y-11724460D02*
X267801Y-11714936D01*
X267801Y-11714936D02*
X258277Y-11695888D01*
X258277Y-11695888D02*
X248753Y-11657793D01*
X248753Y-11657793D02*
X248753Y-11610174D01*
X248753Y-11610174D02*
X258277Y-11572079D01*
X258277Y-11572079D02*
X267801Y-11553031D01*
X267801Y-11553031D02*
X277324Y-11543508D01*
X277324Y-11543508D02*
X296372Y-11533984D01*
X448753Y-11714936D02*
X458277Y-11724460D01*
X458277Y-11724460D02*
X448753Y-11733984D01*
X448753Y-11733984D02*
X439229Y-11724460D01*
X439229Y-11724460D02*
X448753Y-11714936D01*
X448753Y-11714936D02*
X448753Y-11733984D01*
X524944Y-11533984D02*
X648753Y-11533984D01*
X648753Y-11533984D02*
X582086Y-11610174D01*
X582086Y-11610174D02*
X610658Y-11610174D01*
X610658Y-11610174D02*
X629705Y-11619698D01*
X629705Y-11619698D02*
X639229Y-11629222D01*
X639229Y-11629222D02*
X648753Y-11648269D01*
X648753Y-11648269D02*
X648753Y-11695888D01*
X648753Y-11695888D02*
X639229Y-11714936D01*
X639229Y-11714936D02*
X629705Y-11724460D01*
X629705Y-11724460D02*
X610658Y-11733984D01*
X610658Y-11733984D02*
X553515Y-11733984D01*
X553515Y-11733984D02*
X534467Y-11724460D01*
X534467Y-11724460D02*
X524944Y-11714936D01*
X772562Y-11533984D02*
X791610Y-11533984D01*
X791610Y-11533984D02*
X810658Y-11543508D01*
X810658Y-11543508D02*
X820182Y-11553031D01*
X820182Y-11553031D02*
X829705Y-11572079D01*
X829705Y-11572079D02*
X839229Y-11610174D01*
X839229Y-11610174D02*
X839229Y-11657793D01*
X839229Y-11657793D02*
X829705Y-11695888D01*
X829705Y-11695888D02*
X820182Y-11714936D01*
X820182Y-11714936D02*
X810658Y-11724460D01*
X810658Y-11724460D02*
X791610Y-11733984D01*
X791610Y-11733984D02*
X772562Y-11733984D01*
X772562Y-11733984D02*
X753515Y-11724460D01*
X753515Y-11724460D02*
X743991Y-11714936D01*
X743991Y-11714936D02*
X734467Y-11695888D01*
X734467Y-11695888D02*
X724943Y-11657793D01*
X724943Y-11657793D02*
X724943Y-11610174D01*
X724943Y-11610174D02*
X734467Y-11572079D01*
X734467Y-11572079D02*
X743991Y-11553031D01*
X743991Y-11553031D02*
X753515Y-11543508D01*
X753515Y-11543508D02*
X772562Y-11533984D01*
X963039Y-11533984D02*
X982086Y-11533984D01*
X982086Y-11533984D02*
X1001134Y-11543508D01*
X1001134Y-11543508D02*
X1010658Y-11553031D01*
X1010658Y-11553031D02*
X1020182Y-11572079D01*
X1020182Y-11572079D02*
X1029705Y-11610174D01*
X1029705Y-11610174D02*
X1029705Y-11657793D01*
X1029705Y-11657793D02*
X1020182Y-11695888D01*
X1020182Y-11695888D02*
X1010658Y-11714936D01*
X1010658Y-11714936D02*
X1001134Y-11724460D01*
X1001134Y-11724460D02*
X982086Y-11733984D01*
X982086Y-11733984D02*
X963039Y-11733984D01*
X963039Y-11733984D02*
X943991Y-11724460D01*
X943991Y-11724460D02*
X934467Y-11714936D01*
X934467Y-11714936D02*
X924943Y-11695888D01*
X924943Y-11695888D02*
X915420Y-11657793D01*
X915420Y-11657793D02*
X915420Y-11610174D01*
X915420Y-11610174D02*
X924943Y-11572079D01*
X924943Y-11572079D02*
X934467Y-11553031D01*
X934467Y-11553031D02*
X943991Y-11543508D01*
X943991Y-11543508D02*
X963039Y-11533984D01*
X1115420Y-11733984D02*
X1115420Y-11600650D01*
X1115420Y-11619698D02*
X1124944Y-11610174D01*
X1124944Y-11610174D02*
X1143991Y-11600650D01*
X1143991Y-11600650D02*
X1172563Y-11600650D01*
X1172563Y-11600650D02*
X1191610Y-11610174D01*
X1191610Y-11610174D02*
X1201134Y-11629222D01*
X1201134Y-11629222D02*
X1201134Y-11733984D01*
X1201134Y-11629222D02*
X1210658Y-11610174D01*
X1210658Y-11610174D02*
X1229705Y-11600650D01*
X1229705Y-11600650D02*
X1258277Y-11600650D01*
X1258277Y-11600650D02*
X1277325Y-11610174D01*
X1277325Y-11610174D02*
X1286848Y-11629222D01*
X1286848Y-11629222D02*
X1286848Y-11733984D01*
X1382086Y-11733984D02*
X1382086Y-11600650D01*
X1382086Y-11619698D02*
X1391610Y-11610174D01*
X1391610Y-11610174D02*
X1410658Y-11600650D01*
X1410658Y-11600650D02*
X1439229Y-11600650D01*
X1439229Y-11600650D02*
X1458277Y-11610174D01*
X1458277Y-11610174D02*
X1467801Y-11629222D01*
X1467801Y-11629222D02*
X1467801Y-11733984D01*
X1467801Y-11629222D02*
X1477324Y-11610174D01*
X1477324Y-11610174D02*
X1496372Y-11600650D01*
X1496372Y-11600650D02*
X1524943Y-11600650D01*
X1524943Y-11600650D02*
X1543991Y-11610174D01*
X1543991Y-11610174D02*
X1553515Y-11629222D01*
X1553515Y-11629222D02*
X1553515Y-11733984D01*
X1943991Y-11524460D02*
X1772563Y-11781603D01*
X2201134Y-11533984D02*
X2220182Y-11533984D01*
X2220182Y-11533984D02*
X2239229Y-11543508D01*
X2239229Y-11543508D02*
X2248753Y-11553031D01*
X2248753Y-11553031D02*
X2258277Y-11572079D01*
X2258277Y-11572079D02*
X2267801Y-11610174D01*
X2267801Y-11610174D02*
X2267801Y-11657793D01*
X2267801Y-11657793D02*
X2258277Y-11695888D01*
X2258277Y-11695888D02*
X2248753Y-11714936D01*
X2248753Y-11714936D02*
X2239229Y-11724460D01*
X2239229Y-11724460D02*
X2220182Y-11733984D01*
X2220182Y-11733984D02*
X2201134Y-11733984D01*
X2201134Y-11733984D02*
X2182087Y-11724460D01*
X2182087Y-11724460D02*
X2172563Y-11714936D01*
X2172563Y-11714936D02*
X2163039Y-11695888D01*
X2163039Y-11695888D02*
X2153515Y-11657793D01*
X2153515Y-11657793D02*
X2153515Y-11610174D01*
X2153515Y-11610174D02*
X2163039Y-11572079D01*
X2163039Y-11572079D02*
X2172563Y-11553031D01*
X2172563Y-11553031D02*
X2182087Y-11543508D01*
X2182087Y-11543508D02*
X2201134Y-11533984D01*
X2353515Y-11714936D02*
X2363039Y-11724460D01*
X2363039Y-11724460D02*
X2353515Y-11733984D01*
X2353515Y-11733984D02*
X2343991Y-11724460D01*
X2343991Y-11724460D02*
X2353515Y-11714936D01*
X2353515Y-11714936D02*
X2353515Y-11733984D01*
X2486848Y-11533984D02*
X2505896Y-11533984D01*
X2505896Y-11533984D02*
X2524944Y-11543508D01*
X2524944Y-11543508D02*
X2534468Y-11553031D01*
X2534468Y-11553031D02*
X2543991Y-11572079D01*
X2543991Y-11572079D02*
X2553515Y-11610174D01*
X2553515Y-11610174D02*
X2553515Y-11657793D01*
X2553515Y-11657793D02*
X2543991Y-11695888D01*
X2543991Y-11695888D02*
X2534468Y-11714936D01*
X2534468Y-11714936D02*
X2524944Y-11724460D01*
X2524944Y-11724460D02*
X2505896Y-11733984D01*
X2505896Y-11733984D02*
X2486848Y-11733984D01*
X2486848Y-11733984D02*
X2467801Y-11724460D01*
X2467801Y-11724460D02*
X2458277Y-11714936D01*
X2458277Y-11714936D02*
X2448753Y-11695888D01*
X2448753Y-11695888D02*
X2439229Y-11657793D01*
X2439229Y-11657793D02*
X2439229Y-11610174D01*
X2439229Y-11610174D02*
X2448753Y-11572079D01*
X2448753Y-11572079D02*
X2458277Y-11553031D01*
X2458277Y-11553031D02*
X2467801Y-11543508D01*
X2467801Y-11543508D02*
X2486848Y-11533984D01*
X2743991Y-11733984D02*
X2629706Y-11733984D01*
X2686848Y-11733984D02*
X2686848Y-11533984D01*
X2686848Y-11533984D02*
X2667801Y-11562555D01*
X2667801Y-11562555D02*
X2648753Y-11581603D01*
X2648753Y-11581603D02*
X2629706Y-11591127D01*
X2934467Y-11733984D02*
X2820182Y-11733984D01*
X2877325Y-11733984D02*
X2877325Y-11533984D01*
X2877325Y-11533984D02*
X2858277Y-11562555D01*
X2858277Y-11562555D02*
X2839229Y-11581603D01*
X2839229Y-11581603D02*
X2820182Y-11591127D01*
X3048753Y-11619698D02*
X3029706Y-11610174D01*
X3029706Y-11610174D02*
X3020182Y-11600650D01*
X3020182Y-11600650D02*
X3010658Y-11581603D01*
X3010658Y-11581603D02*
X3010658Y-11572079D01*
X3010658Y-11572079D02*
X3020182Y-11553031D01*
X3020182Y-11553031D02*
X3029706Y-11543508D01*
X3029706Y-11543508D02*
X3048753Y-11533984D01*
X3048753Y-11533984D02*
X3086848Y-11533984D01*
X3086848Y-11533984D02*
X3105896Y-11543508D01*
X3105896Y-11543508D02*
X3115420Y-11553031D01*
X3115420Y-11553031D02*
X3124944Y-11572079D01*
X3124944Y-11572079D02*
X3124944Y-11581603D01*
X3124944Y-11581603D02*
X3115420Y-11600650D01*
X3115420Y-11600650D02*
X3105896Y-11610174D01*
X3105896Y-11610174D02*
X3086848Y-11619698D01*
X3086848Y-11619698D02*
X3048753Y-11619698D01*
X3048753Y-11619698D02*
X3029706Y-11629222D01*
X3029706Y-11629222D02*
X3020182Y-11638746D01*
X3020182Y-11638746D02*
X3010658Y-11657793D01*
X3010658Y-11657793D02*
X3010658Y-11695888D01*
X3010658Y-11695888D02*
X3020182Y-11714936D01*
X3020182Y-11714936D02*
X3029706Y-11724460D01*
X3029706Y-11724460D02*
X3048753Y-11733984D01*
X3048753Y-11733984D02*
X3086848Y-11733984D01*
X3086848Y-11733984D02*
X3105896Y-11724460D01*
X3105896Y-11724460D02*
X3115420Y-11714936D01*
X3115420Y-11714936D02*
X3124944Y-11695888D01*
X3124944Y-11695888D02*
X3124944Y-11657793D01*
X3124944Y-11657793D02*
X3115420Y-11638746D01*
X3115420Y-11638746D02*
X3105896Y-11629222D01*
X3105896Y-11629222D02*
X3086848Y-11619698D01*
X3201134Y-11533984D02*
X3201134Y-11572079D01*
X3277325Y-11533984D02*
X3277325Y-11572079D01*
X3572563Y-11810174D02*
X3563039Y-11800650D01*
X3563039Y-11800650D02*
X3543991Y-11772079D01*
X3543991Y-11772079D02*
X3534468Y-11753031D01*
X3534468Y-11753031D02*
X3524944Y-11724460D01*
X3524944Y-11724460D02*
X3515420Y-11676841D01*
X3515420Y-11676841D02*
X3515420Y-11638746D01*
X3515420Y-11638746D02*
X3524944Y-11591127D01*
X3524944Y-11591127D02*
X3534468Y-11562555D01*
X3534468Y-11562555D02*
X3543991Y-11543508D01*
X3543991Y-11543508D02*
X3563039Y-11514936D01*
X3563039Y-11514936D02*
X3572563Y-11505412D01*
X3639229Y-11553031D02*
X3648753Y-11543508D01*
X3648753Y-11543508D02*
X3667801Y-11533984D01*
X3667801Y-11533984D02*
X3715420Y-11533984D01*
X3715420Y-11533984D02*
X3734468Y-11543508D01*
X3734468Y-11543508D02*
X3743991Y-11553031D01*
X3743991Y-11553031D02*
X3753515Y-11572079D01*
X3753515Y-11572079D02*
X3753515Y-11591127D01*
X3753515Y-11591127D02*
X3743991Y-11619698D01*
X3743991Y-11619698D02*
X3629706Y-11733984D01*
X3629706Y-11733984D02*
X3753515Y-11733984D01*
X3820182Y-11533984D02*
X3953515Y-11533984D01*
X3953515Y-11533984D02*
X3867801Y-11733984D01*
X4182087Y-11733984D02*
X4182087Y-11533984D01*
X4267801Y-11733984D02*
X4267801Y-11629222D01*
X4267801Y-11629222D02*
X4258277Y-11610174D01*
X4258277Y-11610174D02*
X4239230Y-11600650D01*
X4239230Y-11600650D02*
X4210658Y-11600650D01*
X4210658Y-11600650D02*
X4191610Y-11610174D01*
X4191610Y-11610174D02*
X4182087Y-11619698D01*
X4391611Y-11733984D02*
X4372563Y-11724460D01*
X4372563Y-11724460D02*
X4363039Y-11714936D01*
X4363039Y-11714936D02*
X4353515Y-11695888D01*
X4353515Y-11695888D02*
X4353515Y-11638746D01*
X4353515Y-11638746D02*
X4363039Y-11619698D01*
X4363039Y-11619698D02*
X4372563Y-11610174D01*
X4372563Y-11610174D02*
X4391611Y-11600650D01*
X4391611Y-11600650D02*
X4420182Y-11600650D01*
X4420182Y-11600650D02*
X4439230Y-11610174D01*
X4439230Y-11610174D02*
X4448753Y-11619698D01*
X4448753Y-11619698D02*
X4458277Y-11638746D01*
X4458277Y-11638746D02*
X4458277Y-11695888D01*
X4458277Y-11695888D02*
X4448753Y-11714936D01*
X4448753Y-11714936D02*
X4439230Y-11724460D01*
X4439230Y-11724460D02*
X4420182Y-11733984D01*
X4420182Y-11733984D02*
X4391611Y-11733984D01*
X4572563Y-11733984D02*
X4553515Y-11724460D01*
X4553515Y-11724460D02*
X4543992Y-11705412D01*
X4543992Y-11705412D02*
X4543992Y-11533984D01*
X4724944Y-11724460D02*
X4705896Y-11733984D01*
X4705896Y-11733984D02*
X4667801Y-11733984D01*
X4667801Y-11733984D02*
X4648753Y-11724460D01*
X4648753Y-11724460D02*
X4639230Y-11705412D01*
X4639230Y-11705412D02*
X4639230Y-11629222D01*
X4639230Y-11629222D02*
X4648753Y-11610174D01*
X4648753Y-11610174D02*
X4667801Y-11600650D01*
X4667801Y-11600650D02*
X4705896Y-11600650D01*
X4705896Y-11600650D02*
X4724944Y-11610174D01*
X4724944Y-11610174D02*
X4734468Y-11629222D01*
X4734468Y-11629222D02*
X4734468Y-11648269D01*
X4734468Y-11648269D02*
X4639230Y-11667317D01*
X4810658Y-11724460D02*
X4829706Y-11733984D01*
X4829706Y-11733984D02*
X4867801Y-11733984D01*
X4867801Y-11733984D02*
X4886849Y-11724460D01*
X4886849Y-11724460D02*
X4896373Y-11705412D01*
X4896373Y-11705412D02*
X4896373Y-11695888D01*
X4896373Y-11695888D02*
X4886849Y-11676841D01*
X4886849Y-11676841D02*
X4867801Y-11667317D01*
X4867801Y-11667317D02*
X4839230Y-11667317D01*
X4839230Y-11667317D02*
X4820182Y-11657793D01*
X4820182Y-11657793D02*
X4810658Y-11638746D01*
X4810658Y-11638746D02*
X4810658Y-11629222D01*
X4810658Y-11629222D02*
X4820182Y-11610174D01*
X4820182Y-11610174D02*
X4839230Y-11600650D01*
X4839230Y-11600650D02*
X4867801Y-11600650D01*
X4867801Y-11600650D02*
X4886849Y-11610174D01*
X4963039Y-11810174D02*
X4972563Y-11800650D01*
X4972563Y-11800650D02*
X4991611Y-11772079D01*
X4991611Y-11772079D02*
X5001134Y-11753031D01*
X5001134Y-11753031D02*
X5010658Y-11724460D01*
X5010658Y-11724460D02*
X5020182Y-11676841D01*
X5020182Y-11676841D02*
X5020182Y-11638746D01*
X5020182Y-11638746D02*
X5010658Y-11591127D01*
X5010658Y-11591127D02*
X5001134Y-11562555D01*
X5001134Y-11562555D02*
X4991611Y-11543508D01*
X4991611Y-11543508D02*
X4972563Y-11514936D01*
X4972563Y-11514936D02*
X4963039Y-11505412D01*
D12*
X-2500Y-11906500D02*
G75*
G02*
X-82500Y-11906500I-40000J0D01*
G01*
X-82500Y-11906500D02*
G75*
G02*
X-2500Y-11906500I40000J0D01*
G01*
D11*
X296372Y-11797984D02*
X315420Y-11797984D01*
X315420Y-11797984D02*
X334467Y-11807508D01*
X334467Y-11807508D02*
X343991Y-11817031D01*
X343991Y-11817031D02*
X353515Y-11836079D01*
X353515Y-11836079D02*
X363039Y-11874174D01*
X363039Y-11874174D02*
X363039Y-11921793D01*
X363039Y-11921793D02*
X353515Y-11959888D01*
X353515Y-11959888D02*
X343991Y-11978936D01*
X343991Y-11978936D02*
X334467Y-11988460D01*
X334467Y-11988460D02*
X315420Y-11997984D01*
X315420Y-11997984D02*
X296372Y-11997984D01*
X296372Y-11997984D02*
X277324Y-11988460D01*
X277324Y-11988460D02*
X267801Y-11978936D01*
X267801Y-11978936D02*
X258277Y-11959888D01*
X258277Y-11959888D02*
X248753Y-11921793D01*
X248753Y-11921793D02*
X248753Y-11874174D01*
X248753Y-11874174D02*
X258277Y-11836079D01*
X258277Y-11836079D02*
X267801Y-11817031D01*
X267801Y-11817031D02*
X277324Y-11807508D01*
X277324Y-11807508D02*
X296372Y-11797984D01*
X448753Y-11978936D02*
X458277Y-11988460D01*
X458277Y-11988460D02*
X448753Y-11997984D01*
X448753Y-11997984D02*
X439229Y-11988460D01*
X439229Y-11988460D02*
X448753Y-11978936D01*
X448753Y-11978936D02*
X448753Y-11997984D01*
X572563Y-11883698D02*
X553515Y-11874174D01*
X553515Y-11874174D02*
X543991Y-11864650D01*
X543991Y-11864650D02*
X534467Y-11845603D01*
X534467Y-11845603D02*
X534467Y-11836079D01*
X534467Y-11836079D02*
X543991Y-11817031D01*
X543991Y-11817031D02*
X553515Y-11807508D01*
X553515Y-11807508D02*
X572563Y-11797984D01*
X572563Y-11797984D02*
X610658Y-11797984D01*
X610658Y-11797984D02*
X629705Y-11807508D01*
X629705Y-11807508D02*
X639229Y-11817031D01*
X639229Y-11817031D02*
X648753Y-11836079D01*
X648753Y-11836079D02*
X648753Y-11845603D01*
X648753Y-11845603D02*
X639229Y-11864650D01*
X639229Y-11864650D02*
X629705Y-11874174D01*
X629705Y-11874174D02*
X610658Y-11883698D01*
X610658Y-11883698D02*
X572563Y-11883698D01*
X572563Y-11883698D02*
X553515Y-11893222D01*
X553515Y-11893222D02*
X543991Y-11902746D01*
X543991Y-11902746D02*
X534467Y-11921793D01*
X534467Y-11921793D02*
X534467Y-11959888D01*
X534467Y-11959888D02*
X543991Y-11978936D01*
X543991Y-11978936D02*
X553515Y-11988460D01*
X553515Y-11988460D02*
X572563Y-11997984D01*
X572563Y-11997984D02*
X610658Y-11997984D01*
X610658Y-11997984D02*
X629705Y-11988460D01*
X629705Y-11988460D02*
X639229Y-11978936D01*
X639229Y-11978936D02*
X648753Y-11959888D01*
X648753Y-11959888D02*
X648753Y-11921793D01*
X648753Y-11921793D02*
X639229Y-11902746D01*
X639229Y-11902746D02*
X629705Y-11893222D01*
X629705Y-11893222D02*
X610658Y-11883698D01*
X772562Y-11797984D02*
X791610Y-11797984D01*
X791610Y-11797984D02*
X810658Y-11807508D01*
X810658Y-11807508D02*
X820182Y-11817031D01*
X820182Y-11817031D02*
X829705Y-11836079D01*
X829705Y-11836079D02*
X839229Y-11874174D01*
X839229Y-11874174D02*
X839229Y-11921793D01*
X839229Y-11921793D02*
X829705Y-11959888D01*
X829705Y-11959888D02*
X820182Y-11978936D01*
X820182Y-11978936D02*
X810658Y-11988460D01*
X810658Y-11988460D02*
X791610Y-11997984D01*
X791610Y-11997984D02*
X772562Y-11997984D01*
X772562Y-11997984D02*
X753515Y-11988460D01*
X753515Y-11988460D02*
X743991Y-11978936D01*
X743991Y-11978936D02*
X734467Y-11959888D01*
X734467Y-11959888D02*
X724943Y-11921793D01*
X724943Y-11921793D02*
X724943Y-11874174D01*
X724943Y-11874174D02*
X734467Y-11836079D01*
X734467Y-11836079D02*
X743991Y-11817031D01*
X743991Y-11817031D02*
X753515Y-11807508D01*
X753515Y-11807508D02*
X772562Y-11797984D01*
X963039Y-11797984D02*
X982086Y-11797984D01*
X982086Y-11797984D02*
X1001134Y-11807508D01*
X1001134Y-11807508D02*
X1010658Y-11817031D01*
X1010658Y-11817031D02*
X1020182Y-11836079D01*
X1020182Y-11836079D02*
X1029705Y-11874174D01*
X1029705Y-11874174D02*
X1029705Y-11921793D01*
X1029705Y-11921793D02*
X1020182Y-11959888D01*
X1020182Y-11959888D02*
X1010658Y-11978936D01*
X1010658Y-11978936D02*
X1001134Y-11988460D01*
X1001134Y-11988460D02*
X982086Y-11997984D01*
X982086Y-11997984D02*
X963039Y-11997984D01*
X963039Y-11997984D02*
X943991Y-11988460D01*
X943991Y-11988460D02*
X934467Y-11978936D01*
X934467Y-11978936D02*
X924943Y-11959888D01*
X924943Y-11959888D02*
X915420Y-11921793D01*
X915420Y-11921793D02*
X915420Y-11874174D01*
X915420Y-11874174D02*
X924943Y-11836079D01*
X924943Y-11836079D02*
X934467Y-11817031D01*
X934467Y-11817031D02*
X943991Y-11807508D01*
X943991Y-11807508D02*
X963039Y-11797984D01*
X1115420Y-11997984D02*
X1115420Y-11864650D01*
X1115420Y-11883698D02*
X1124944Y-11874174D01*
X1124944Y-11874174D02*
X1143991Y-11864650D01*
X1143991Y-11864650D02*
X1172563Y-11864650D01*
X1172563Y-11864650D02*
X1191610Y-11874174D01*
X1191610Y-11874174D02*
X1201134Y-11893222D01*
X1201134Y-11893222D02*
X1201134Y-11997984D01*
X1201134Y-11893222D02*
X1210658Y-11874174D01*
X1210658Y-11874174D02*
X1229705Y-11864650D01*
X1229705Y-11864650D02*
X1258277Y-11864650D01*
X1258277Y-11864650D02*
X1277325Y-11874174D01*
X1277325Y-11874174D02*
X1286848Y-11893222D01*
X1286848Y-11893222D02*
X1286848Y-11997984D01*
X1382086Y-11997984D02*
X1382086Y-11864650D01*
X1382086Y-11883698D02*
X1391610Y-11874174D01*
X1391610Y-11874174D02*
X1410658Y-11864650D01*
X1410658Y-11864650D02*
X1439229Y-11864650D01*
X1439229Y-11864650D02*
X1458277Y-11874174D01*
X1458277Y-11874174D02*
X1467801Y-11893222D01*
X1467801Y-11893222D02*
X1467801Y-11997984D01*
X1467801Y-11893222D02*
X1477324Y-11874174D01*
X1477324Y-11874174D02*
X1496372Y-11864650D01*
X1496372Y-11864650D02*
X1524943Y-11864650D01*
X1524943Y-11864650D02*
X1543991Y-11874174D01*
X1543991Y-11874174D02*
X1553515Y-11893222D01*
X1553515Y-11893222D02*
X1553515Y-11997984D01*
X1943991Y-11788460D02*
X1772563Y-12045603D01*
X2201134Y-11797984D02*
X2220182Y-11797984D01*
X2220182Y-11797984D02*
X2239229Y-11807508D01*
X2239229Y-11807508D02*
X2248753Y-11817031D01*
X2248753Y-11817031D02*
X2258277Y-11836079D01*
X2258277Y-11836079D02*
X2267801Y-11874174D01*
X2267801Y-11874174D02*
X2267801Y-11921793D01*
X2267801Y-11921793D02*
X2258277Y-11959888D01*
X2258277Y-11959888D02*
X2248753Y-11978936D01*
X2248753Y-11978936D02*
X2239229Y-11988460D01*
X2239229Y-11988460D02*
X2220182Y-11997984D01*
X2220182Y-11997984D02*
X2201134Y-11997984D01*
X2201134Y-11997984D02*
X2182087Y-11988460D01*
X2182087Y-11988460D02*
X2172563Y-11978936D01*
X2172563Y-11978936D02*
X2163039Y-11959888D01*
X2163039Y-11959888D02*
X2153515Y-11921793D01*
X2153515Y-11921793D02*
X2153515Y-11874174D01*
X2153515Y-11874174D02*
X2163039Y-11836079D01*
X2163039Y-11836079D02*
X2172563Y-11817031D01*
X2172563Y-11817031D02*
X2182087Y-11807508D01*
X2182087Y-11807508D02*
X2201134Y-11797984D01*
X2353515Y-11978936D02*
X2363039Y-11988460D01*
X2363039Y-11988460D02*
X2353515Y-11997984D01*
X2353515Y-11997984D02*
X2343991Y-11988460D01*
X2343991Y-11988460D02*
X2353515Y-11978936D01*
X2353515Y-11978936D02*
X2353515Y-11997984D01*
X2486848Y-11797984D02*
X2505896Y-11797984D01*
X2505896Y-11797984D02*
X2524944Y-11807508D01*
X2524944Y-11807508D02*
X2534468Y-11817031D01*
X2534468Y-11817031D02*
X2543991Y-11836079D01*
X2543991Y-11836079D02*
X2553515Y-11874174D01*
X2553515Y-11874174D02*
X2553515Y-11921793D01*
X2553515Y-11921793D02*
X2543991Y-11959888D01*
X2543991Y-11959888D02*
X2534468Y-11978936D01*
X2534468Y-11978936D02*
X2524944Y-11988460D01*
X2524944Y-11988460D02*
X2505896Y-11997984D01*
X2505896Y-11997984D02*
X2486848Y-11997984D01*
X2486848Y-11997984D02*
X2467801Y-11988460D01*
X2467801Y-11988460D02*
X2458277Y-11978936D01*
X2458277Y-11978936D02*
X2448753Y-11959888D01*
X2448753Y-11959888D02*
X2439229Y-11921793D01*
X2439229Y-11921793D02*
X2439229Y-11874174D01*
X2439229Y-11874174D02*
X2448753Y-11836079D01*
X2448753Y-11836079D02*
X2458277Y-11817031D01*
X2458277Y-11817031D02*
X2467801Y-11807508D01*
X2467801Y-11807508D02*
X2486848Y-11797984D01*
X2620182Y-11797984D02*
X2743991Y-11797984D01*
X2743991Y-11797984D02*
X2677325Y-11874174D01*
X2677325Y-11874174D02*
X2705896Y-11874174D01*
X2705896Y-11874174D02*
X2724944Y-11883698D01*
X2724944Y-11883698D02*
X2734468Y-11893222D01*
X2734468Y-11893222D02*
X2743991Y-11912269D01*
X2743991Y-11912269D02*
X2743991Y-11959888D01*
X2743991Y-11959888D02*
X2734468Y-11978936D01*
X2734468Y-11978936D02*
X2724944Y-11988460D01*
X2724944Y-11988460D02*
X2705896Y-11997984D01*
X2705896Y-11997984D02*
X2648753Y-11997984D01*
X2648753Y-11997984D02*
X2629706Y-11988460D01*
X2629706Y-11988460D02*
X2620182Y-11978936D01*
X2934467Y-11997984D02*
X2820182Y-11997984D01*
X2877325Y-11997984D02*
X2877325Y-11797984D01*
X2877325Y-11797984D02*
X2858277Y-11826555D01*
X2858277Y-11826555D02*
X2839229Y-11845603D01*
X2839229Y-11845603D02*
X2820182Y-11855127D01*
X3115420Y-11797984D02*
X3020182Y-11797984D01*
X3020182Y-11797984D02*
X3010658Y-11893222D01*
X3010658Y-11893222D02*
X3020182Y-11883698D01*
X3020182Y-11883698D02*
X3039229Y-11874174D01*
X3039229Y-11874174D02*
X3086848Y-11874174D01*
X3086848Y-11874174D02*
X3105896Y-11883698D01*
X3105896Y-11883698D02*
X3115420Y-11893222D01*
X3115420Y-11893222D02*
X3124944Y-11912269D01*
X3124944Y-11912269D02*
X3124944Y-11959888D01*
X3124944Y-11959888D02*
X3115420Y-11978936D01*
X3115420Y-11978936D02*
X3105896Y-11988460D01*
X3105896Y-11988460D02*
X3086848Y-11997984D01*
X3086848Y-11997984D02*
X3039229Y-11997984D01*
X3039229Y-11997984D02*
X3020182Y-11988460D01*
X3020182Y-11988460D02*
X3010658Y-11978936D01*
X3201134Y-11797984D02*
X3201134Y-11836079D01*
X3277325Y-11797984D02*
X3277325Y-11836079D01*
X3572563Y-12074174D02*
X3563039Y-12064650D01*
X3563039Y-12064650D02*
X3543991Y-12036079D01*
X3543991Y-12036079D02*
X3534468Y-12017031D01*
X3534468Y-12017031D02*
X3524944Y-11988460D01*
X3524944Y-11988460D02*
X3515420Y-11940841D01*
X3515420Y-11940841D02*
X3515420Y-11902746D01*
X3515420Y-11902746D02*
X3524944Y-11855127D01*
X3524944Y-11855127D02*
X3534468Y-11826555D01*
X3534468Y-11826555D02*
X3543991Y-11807508D01*
X3543991Y-11807508D02*
X3563039Y-11778936D01*
X3563039Y-11778936D02*
X3572563Y-11769412D01*
X3677325Y-11883698D02*
X3658277Y-11874174D01*
X3658277Y-11874174D02*
X3648753Y-11864650D01*
X3648753Y-11864650D02*
X3639229Y-11845603D01*
X3639229Y-11845603D02*
X3639229Y-11836079D01*
X3639229Y-11836079D02*
X3648753Y-11817031D01*
X3648753Y-11817031D02*
X3658277Y-11807508D01*
X3658277Y-11807508D02*
X3677325Y-11797984D01*
X3677325Y-11797984D02*
X3715420Y-11797984D01*
X3715420Y-11797984D02*
X3734468Y-11807508D01*
X3734468Y-11807508D02*
X3743991Y-11817031D01*
X3743991Y-11817031D02*
X3753515Y-11836079D01*
X3753515Y-11836079D02*
X3753515Y-11845603D01*
X3753515Y-11845603D02*
X3743991Y-11864650D01*
X3743991Y-11864650D02*
X3734468Y-11874174D01*
X3734468Y-11874174D02*
X3715420Y-11883698D01*
X3715420Y-11883698D02*
X3677325Y-11883698D01*
X3677325Y-11883698D02*
X3658277Y-11893222D01*
X3658277Y-11893222D02*
X3648753Y-11902746D01*
X3648753Y-11902746D02*
X3639229Y-11921793D01*
X3639229Y-11921793D02*
X3639229Y-11959888D01*
X3639229Y-11959888D02*
X3648753Y-11978936D01*
X3648753Y-11978936D02*
X3658277Y-11988460D01*
X3658277Y-11988460D02*
X3677325Y-11997984D01*
X3677325Y-11997984D02*
X3715420Y-11997984D01*
X3715420Y-11997984D02*
X3734468Y-11988460D01*
X3734468Y-11988460D02*
X3743991Y-11978936D01*
X3743991Y-11978936D02*
X3753515Y-11959888D01*
X3753515Y-11959888D02*
X3753515Y-11921793D01*
X3753515Y-11921793D02*
X3743991Y-11902746D01*
X3743991Y-11902746D02*
X3734468Y-11893222D01*
X3734468Y-11893222D02*
X3715420Y-11883698D01*
X3991610Y-11997984D02*
X3991610Y-11797984D01*
X4077325Y-11997984D02*
X4077325Y-11893222D01*
X4077325Y-11893222D02*
X4067801Y-11874174D01*
X4067801Y-11874174D02*
X4048753Y-11864650D01*
X4048753Y-11864650D02*
X4020182Y-11864650D01*
X4020182Y-11864650D02*
X4001134Y-11874174D01*
X4001134Y-11874174D02*
X3991610Y-11883698D01*
X4201134Y-11997984D02*
X4182087Y-11988460D01*
X4182087Y-11988460D02*
X4172563Y-11978936D01*
X4172563Y-11978936D02*
X4163039Y-11959888D01*
X4163039Y-11959888D02*
X4163039Y-11902746D01*
X4163039Y-11902746D02*
X4172563Y-11883698D01*
X4172563Y-11883698D02*
X4182087Y-11874174D01*
X4182087Y-11874174D02*
X4201134Y-11864650D01*
X4201134Y-11864650D02*
X4229706Y-11864650D01*
X4229706Y-11864650D02*
X4248753Y-11874174D01*
X4248753Y-11874174D02*
X4258277Y-11883698D01*
X4258277Y-11883698D02*
X4267801Y-11902746D01*
X4267801Y-11902746D02*
X4267801Y-11959888D01*
X4267801Y-11959888D02*
X4258277Y-11978936D01*
X4258277Y-11978936D02*
X4248753Y-11988460D01*
X4248753Y-11988460D02*
X4229706Y-11997984D01*
X4229706Y-11997984D02*
X4201134Y-11997984D01*
X4382087Y-11997984D02*
X4363039Y-11988460D01*
X4363039Y-11988460D02*
X4353515Y-11969412D01*
X4353515Y-11969412D02*
X4353515Y-11797984D01*
X4534468Y-11988460D02*
X4515420Y-11997984D01*
X4515420Y-11997984D02*
X4477325Y-11997984D01*
X4477325Y-11997984D02*
X4458277Y-11988460D01*
X4458277Y-11988460D02*
X4448753Y-11969412D01*
X4448753Y-11969412D02*
X4448753Y-11893222D01*
X4448753Y-11893222D02*
X4458277Y-11874174D01*
X4458277Y-11874174D02*
X4477325Y-11864650D01*
X4477325Y-11864650D02*
X4515420Y-11864650D01*
X4515420Y-11864650D02*
X4534468Y-11874174D01*
X4534468Y-11874174D02*
X4543992Y-11893222D01*
X4543992Y-11893222D02*
X4543992Y-11912269D01*
X4543992Y-11912269D02*
X4448753Y-11931317D01*
X4620182Y-11988460D02*
X4639230Y-11997984D01*
X4639230Y-11997984D02*
X4677325Y-11997984D01*
X4677325Y-11997984D02*
X4696373Y-11988460D01*
X4696373Y-11988460D02*
X4705896Y-11969412D01*
X4705896Y-11969412D02*
X4705896Y-11959888D01*
X4705896Y-11959888D02*
X4696373Y-11940841D01*
X4696373Y-11940841D02*
X4677325Y-11931317D01*
X4677325Y-11931317D02*
X4648753Y-11931317D01*
X4648753Y-11931317D02*
X4629706Y-11921793D01*
X4629706Y-11921793D02*
X4620182Y-11902746D01*
X4620182Y-11902746D02*
X4620182Y-11893222D01*
X4620182Y-11893222D02*
X4629706Y-11874174D01*
X4629706Y-11874174D02*
X4648753Y-11864650D01*
X4648753Y-11864650D02*
X4677325Y-11864650D01*
X4677325Y-11864650D02*
X4696373Y-11874174D01*
X4772563Y-12074174D02*
X4782087Y-12064650D01*
X4782087Y-12064650D02*
X4801134Y-12036079D01*
X4801134Y-12036079D02*
X4810658Y-12017031D01*
X4810658Y-12017031D02*
X4820182Y-11988460D01*
X4820182Y-11988460D02*
X4829706Y-11940841D01*
X4829706Y-11940841D02*
X4829706Y-11902746D01*
X4829706Y-11902746D02*
X4820182Y-11855127D01*
X4820182Y-11855127D02*
X4810658Y-11826555D01*
X4810658Y-11826555D02*
X4801134Y-11807508D01*
X4801134Y-11807508D02*
X4782087Y-11778936D01*
X4782087Y-11778936D02*
X4772563Y-11769412D01*
D12*
X-47500Y-12125500D02*
X-47500Y-12215500D01*
X-92500Y-12170500D02*
X-2500Y-12170500D01*
D11*
X296372Y-12061984D02*
X315420Y-12061984D01*
X315420Y-12061984D02*
X334467Y-12071508D01*
X334467Y-12071508D02*
X343991Y-12081031D01*
X343991Y-12081031D02*
X353515Y-12100079D01*
X353515Y-12100079D02*
X363039Y-12138174D01*
X363039Y-12138174D02*
X363039Y-12185793D01*
X363039Y-12185793D02*
X353515Y-12223888D01*
X353515Y-12223888D02*
X343991Y-12242936D01*
X343991Y-12242936D02*
X334467Y-12252460D01*
X334467Y-12252460D02*
X315420Y-12261984D01*
X315420Y-12261984D02*
X296372Y-12261984D01*
X296372Y-12261984D02*
X277324Y-12252460D01*
X277324Y-12252460D02*
X267801Y-12242936D01*
X267801Y-12242936D02*
X258277Y-12223888D01*
X258277Y-12223888D02*
X248753Y-12185793D01*
X248753Y-12185793D02*
X248753Y-12138174D01*
X248753Y-12138174D02*
X258277Y-12100079D01*
X258277Y-12100079D02*
X267801Y-12081031D01*
X267801Y-12081031D02*
X277324Y-12071508D01*
X277324Y-12071508D02*
X296372Y-12061984D01*
X448753Y-12242936D02*
X458277Y-12252460D01*
X458277Y-12252460D02*
X448753Y-12261984D01*
X448753Y-12261984D02*
X439229Y-12252460D01*
X439229Y-12252460D02*
X448753Y-12242936D01*
X448753Y-12242936D02*
X448753Y-12261984D01*
X553515Y-12261984D02*
X591610Y-12261984D01*
X591610Y-12261984D02*
X610658Y-12252460D01*
X610658Y-12252460D02*
X620182Y-12242936D01*
X620182Y-12242936D02*
X639229Y-12214365D01*
X639229Y-12214365D02*
X648753Y-12176269D01*
X648753Y-12176269D02*
X648753Y-12100079D01*
X648753Y-12100079D02*
X639229Y-12081031D01*
X639229Y-12081031D02*
X629705Y-12071508D01*
X629705Y-12071508D02*
X610658Y-12061984D01*
X610658Y-12061984D02*
X572563Y-12061984D01*
X572563Y-12061984D02*
X553515Y-12071508D01*
X553515Y-12071508D02*
X543991Y-12081031D01*
X543991Y-12081031D02*
X534467Y-12100079D01*
X534467Y-12100079D02*
X534467Y-12147698D01*
X534467Y-12147698D02*
X543991Y-12166746D01*
X543991Y-12166746D02*
X553515Y-12176269D01*
X553515Y-12176269D02*
X572563Y-12185793D01*
X572563Y-12185793D02*
X610658Y-12185793D01*
X610658Y-12185793D02*
X629705Y-12176269D01*
X629705Y-12176269D02*
X639229Y-12166746D01*
X639229Y-12166746D02*
X648753Y-12147698D01*
X772562Y-12061984D02*
X791610Y-12061984D01*
X791610Y-12061984D02*
X810658Y-12071508D01*
X810658Y-12071508D02*
X820182Y-12081031D01*
X820182Y-12081031D02*
X829705Y-12100079D01*
X829705Y-12100079D02*
X839229Y-12138174D01*
X839229Y-12138174D02*
X839229Y-12185793D01*
X839229Y-12185793D02*
X829705Y-12223888D01*
X829705Y-12223888D02*
X820182Y-12242936D01*
X820182Y-12242936D02*
X810658Y-12252460D01*
X810658Y-12252460D02*
X791610Y-12261984D01*
X791610Y-12261984D02*
X772562Y-12261984D01*
X772562Y-12261984D02*
X753515Y-12252460D01*
X753515Y-12252460D02*
X743991Y-12242936D01*
X743991Y-12242936D02*
X734467Y-12223888D01*
X734467Y-12223888D02*
X724943Y-12185793D01*
X724943Y-12185793D02*
X724943Y-12138174D01*
X724943Y-12138174D02*
X734467Y-12100079D01*
X734467Y-12100079D02*
X743991Y-12081031D01*
X743991Y-12081031D02*
X753515Y-12071508D01*
X753515Y-12071508D02*
X772562Y-12061984D01*
X963039Y-12061984D02*
X982086Y-12061984D01*
X982086Y-12061984D02*
X1001134Y-12071508D01*
X1001134Y-12071508D02*
X1010658Y-12081031D01*
X1010658Y-12081031D02*
X1020182Y-12100079D01*
X1020182Y-12100079D02*
X1029705Y-12138174D01*
X1029705Y-12138174D02*
X1029705Y-12185793D01*
X1029705Y-12185793D02*
X1020182Y-12223888D01*
X1020182Y-12223888D02*
X1010658Y-12242936D01*
X1010658Y-12242936D02*
X1001134Y-12252460D01*
X1001134Y-12252460D02*
X982086Y-12261984D01*
X982086Y-12261984D02*
X963039Y-12261984D01*
X963039Y-12261984D02*
X943991Y-12252460D01*
X943991Y-12252460D02*
X934467Y-12242936D01*
X934467Y-12242936D02*
X924943Y-12223888D01*
X924943Y-12223888D02*
X915420Y-12185793D01*
X915420Y-12185793D02*
X915420Y-12138174D01*
X915420Y-12138174D02*
X924943Y-12100079D01*
X924943Y-12100079D02*
X934467Y-12081031D01*
X934467Y-12081031D02*
X943991Y-12071508D01*
X943991Y-12071508D02*
X963039Y-12061984D01*
X1115420Y-12261984D02*
X1115420Y-12128650D01*
X1115420Y-12147698D02*
X1124944Y-12138174D01*
X1124944Y-12138174D02*
X1143991Y-12128650D01*
X1143991Y-12128650D02*
X1172563Y-12128650D01*
X1172563Y-12128650D02*
X1191610Y-12138174D01*
X1191610Y-12138174D02*
X1201134Y-12157222D01*
X1201134Y-12157222D02*
X1201134Y-12261984D01*
X1201134Y-12157222D02*
X1210658Y-12138174D01*
X1210658Y-12138174D02*
X1229705Y-12128650D01*
X1229705Y-12128650D02*
X1258277Y-12128650D01*
X1258277Y-12128650D02*
X1277325Y-12138174D01*
X1277325Y-12138174D02*
X1286848Y-12157222D01*
X1286848Y-12157222D02*
X1286848Y-12261984D01*
X1382086Y-12261984D02*
X1382086Y-12128650D01*
X1382086Y-12147698D02*
X1391610Y-12138174D01*
X1391610Y-12138174D02*
X1410658Y-12128650D01*
X1410658Y-12128650D02*
X1439229Y-12128650D01*
X1439229Y-12128650D02*
X1458277Y-12138174D01*
X1458277Y-12138174D02*
X1467801Y-12157222D01*
X1467801Y-12157222D02*
X1467801Y-12261984D01*
X1467801Y-12157222D02*
X1477324Y-12138174D01*
X1477324Y-12138174D02*
X1496372Y-12128650D01*
X1496372Y-12128650D02*
X1524943Y-12128650D01*
X1524943Y-12128650D02*
X1543991Y-12138174D01*
X1543991Y-12138174D02*
X1553515Y-12157222D01*
X1553515Y-12157222D02*
X1553515Y-12261984D01*
X1943991Y-12052460D02*
X1772563Y-12309603D01*
X2201134Y-12061984D02*
X2220182Y-12061984D01*
X2220182Y-12061984D02*
X2239229Y-12071508D01*
X2239229Y-12071508D02*
X2248753Y-12081031D01*
X2248753Y-12081031D02*
X2258277Y-12100079D01*
X2258277Y-12100079D02*
X2267801Y-12138174D01*
X2267801Y-12138174D02*
X2267801Y-12185793D01*
X2267801Y-12185793D02*
X2258277Y-12223888D01*
X2258277Y-12223888D02*
X2248753Y-12242936D01*
X2248753Y-12242936D02*
X2239229Y-12252460D01*
X2239229Y-12252460D02*
X2220182Y-12261984D01*
X2220182Y-12261984D02*
X2201134Y-12261984D01*
X2201134Y-12261984D02*
X2182087Y-12252460D01*
X2182087Y-12252460D02*
X2172563Y-12242936D01*
X2172563Y-12242936D02*
X2163039Y-12223888D01*
X2163039Y-12223888D02*
X2153515Y-12185793D01*
X2153515Y-12185793D02*
X2153515Y-12138174D01*
X2153515Y-12138174D02*
X2163039Y-12100079D01*
X2163039Y-12100079D02*
X2172563Y-12081031D01*
X2172563Y-12081031D02*
X2182087Y-12071508D01*
X2182087Y-12071508D02*
X2201134Y-12061984D01*
X2353515Y-12242936D02*
X2363039Y-12252460D01*
X2363039Y-12252460D02*
X2353515Y-12261984D01*
X2353515Y-12261984D02*
X2343991Y-12252460D01*
X2343991Y-12252460D02*
X2353515Y-12242936D01*
X2353515Y-12242936D02*
X2353515Y-12261984D01*
X2486848Y-12061984D02*
X2505896Y-12061984D01*
X2505896Y-12061984D02*
X2524944Y-12071508D01*
X2524944Y-12071508D02*
X2534468Y-12081031D01*
X2534468Y-12081031D02*
X2543991Y-12100079D01*
X2543991Y-12100079D02*
X2553515Y-12138174D01*
X2553515Y-12138174D02*
X2553515Y-12185793D01*
X2553515Y-12185793D02*
X2543991Y-12223888D01*
X2543991Y-12223888D02*
X2534468Y-12242936D01*
X2534468Y-12242936D02*
X2524944Y-12252460D01*
X2524944Y-12252460D02*
X2505896Y-12261984D01*
X2505896Y-12261984D02*
X2486848Y-12261984D01*
X2486848Y-12261984D02*
X2467801Y-12252460D01*
X2467801Y-12252460D02*
X2458277Y-12242936D01*
X2458277Y-12242936D02*
X2448753Y-12223888D01*
X2448753Y-12223888D02*
X2439229Y-12185793D01*
X2439229Y-12185793D02*
X2439229Y-12138174D01*
X2439229Y-12138174D02*
X2448753Y-12100079D01*
X2448753Y-12100079D02*
X2458277Y-12081031D01*
X2458277Y-12081031D02*
X2467801Y-12071508D01*
X2467801Y-12071508D02*
X2486848Y-12061984D01*
X2620182Y-12061984D02*
X2743991Y-12061984D01*
X2743991Y-12061984D02*
X2677325Y-12138174D01*
X2677325Y-12138174D02*
X2705896Y-12138174D01*
X2705896Y-12138174D02*
X2724944Y-12147698D01*
X2724944Y-12147698D02*
X2734468Y-12157222D01*
X2734468Y-12157222D02*
X2743991Y-12176269D01*
X2743991Y-12176269D02*
X2743991Y-12223888D01*
X2743991Y-12223888D02*
X2734468Y-12242936D01*
X2734468Y-12242936D02*
X2724944Y-12252460D01*
X2724944Y-12252460D02*
X2705896Y-12261984D01*
X2705896Y-12261984D02*
X2648753Y-12261984D01*
X2648753Y-12261984D02*
X2629706Y-12252460D01*
X2629706Y-12252460D02*
X2620182Y-12242936D01*
X2924944Y-12061984D02*
X2829706Y-12061984D01*
X2829706Y-12061984D02*
X2820182Y-12157222D01*
X2820182Y-12157222D02*
X2829706Y-12147698D01*
X2829706Y-12147698D02*
X2848753Y-12138174D01*
X2848753Y-12138174D02*
X2896372Y-12138174D01*
X2896372Y-12138174D02*
X2915420Y-12147698D01*
X2915420Y-12147698D02*
X2924944Y-12157222D01*
X2924944Y-12157222D02*
X2934467Y-12176269D01*
X2934467Y-12176269D02*
X2934467Y-12223888D01*
X2934467Y-12223888D02*
X2924944Y-12242936D01*
X2924944Y-12242936D02*
X2915420Y-12252460D01*
X2915420Y-12252460D02*
X2896372Y-12261984D01*
X2896372Y-12261984D02*
X2848753Y-12261984D01*
X2848753Y-12261984D02*
X2829706Y-12252460D01*
X2829706Y-12252460D02*
X2820182Y-12242936D01*
X3105896Y-12128650D02*
X3105896Y-12261984D01*
X3058277Y-12052460D02*
X3010658Y-12195317D01*
X3010658Y-12195317D02*
X3134467Y-12195317D01*
X3201134Y-12061984D02*
X3201134Y-12100079D01*
X3277325Y-12061984D02*
X3277325Y-12100079D01*
X3572563Y-12338174D02*
X3563039Y-12328650D01*
X3563039Y-12328650D02*
X3543991Y-12300079D01*
X3543991Y-12300079D02*
X3534468Y-12281031D01*
X3534468Y-12281031D02*
X3524944Y-12252460D01*
X3524944Y-12252460D02*
X3515420Y-12204841D01*
X3515420Y-12204841D02*
X3515420Y-12166746D01*
X3515420Y-12166746D02*
X3524944Y-12119127D01*
X3524944Y-12119127D02*
X3534468Y-12090555D01*
X3534468Y-12090555D02*
X3543991Y-12071508D01*
X3543991Y-12071508D02*
X3563039Y-12042936D01*
X3563039Y-12042936D02*
X3572563Y-12033412D01*
X3629706Y-12061984D02*
X3753515Y-12061984D01*
X3753515Y-12061984D02*
X3686848Y-12138174D01*
X3686848Y-12138174D02*
X3715420Y-12138174D01*
X3715420Y-12138174D02*
X3734468Y-12147698D01*
X3734468Y-12147698D02*
X3743991Y-12157222D01*
X3743991Y-12157222D02*
X3753515Y-12176269D01*
X3753515Y-12176269D02*
X3753515Y-12223888D01*
X3753515Y-12223888D02*
X3743991Y-12242936D01*
X3743991Y-12242936D02*
X3734468Y-12252460D01*
X3734468Y-12252460D02*
X3715420Y-12261984D01*
X3715420Y-12261984D02*
X3658277Y-12261984D01*
X3658277Y-12261984D02*
X3639229Y-12252460D01*
X3639229Y-12252460D02*
X3629706Y-12242936D01*
X3991610Y-12261984D02*
X3991610Y-12061984D01*
X4077325Y-12261984D02*
X4077325Y-12157222D01*
X4077325Y-12157222D02*
X4067801Y-12138174D01*
X4067801Y-12138174D02*
X4048753Y-12128650D01*
X4048753Y-12128650D02*
X4020182Y-12128650D01*
X4020182Y-12128650D02*
X4001134Y-12138174D01*
X4001134Y-12138174D02*
X3991610Y-12147698D01*
X4201134Y-12261984D02*
X4182087Y-12252460D01*
X4182087Y-12252460D02*
X4172563Y-12242936D01*
X4172563Y-12242936D02*
X4163039Y-12223888D01*
X4163039Y-12223888D02*
X4163039Y-12166746D01*
X4163039Y-12166746D02*
X4172563Y-12147698D01*
X4172563Y-12147698D02*
X4182087Y-12138174D01*
X4182087Y-12138174D02*
X4201134Y-12128650D01*
X4201134Y-12128650D02*
X4229706Y-12128650D01*
X4229706Y-12128650D02*
X4248753Y-12138174D01*
X4248753Y-12138174D02*
X4258277Y-12147698D01*
X4258277Y-12147698D02*
X4267801Y-12166746D01*
X4267801Y-12166746D02*
X4267801Y-12223888D01*
X4267801Y-12223888D02*
X4258277Y-12242936D01*
X4258277Y-12242936D02*
X4248753Y-12252460D01*
X4248753Y-12252460D02*
X4229706Y-12261984D01*
X4229706Y-12261984D02*
X4201134Y-12261984D01*
X4382087Y-12261984D02*
X4363039Y-12252460D01*
X4363039Y-12252460D02*
X4353515Y-12233412D01*
X4353515Y-12233412D02*
X4353515Y-12061984D01*
X4534468Y-12252460D02*
X4515420Y-12261984D01*
X4515420Y-12261984D02*
X4477325Y-12261984D01*
X4477325Y-12261984D02*
X4458277Y-12252460D01*
X4458277Y-12252460D02*
X4448753Y-12233412D01*
X4448753Y-12233412D02*
X4448753Y-12157222D01*
X4448753Y-12157222D02*
X4458277Y-12138174D01*
X4458277Y-12138174D02*
X4477325Y-12128650D01*
X4477325Y-12128650D02*
X4515420Y-12128650D01*
X4515420Y-12128650D02*
X4534468Y-12138174D01*
X4534468Y-12138174D02*
X4543992Y-12157222D01*
X4543992Y-12157222D02*
X4543992Y-12176269D01*
X4543992Y-12176269D02*
X4448753Y-12195317D01*
X4620182Y-12252460D02*
X4639230Y-12261984D01*
X4639230Y-12261984D02*
X4677325Y-12261984D01*
X4677325Y-12261984D02*
X4696373Y-12252460D01*
X4696373Y-12252460D02*
X4705896Y-12233412D01*
X4705896Y-12233412D02*
X4705896Y-12223888D01*
X4705896Y-12223888D02*
X4696373Y-12204841D01*
X4696373Y-12204841D02*
X4677325Y-12195317D01*
X4677325Y-12195317D02*
X4648753Y-12195317D01*
X4648753Y-12195317D02*
X4629706Y-12185793D01*
X4629706Y-12185793D02*
X4620182Y-12166746D01*
X4620182Y-12166746D02*
X4620182Y-12157222D01*
X4620182Y-12157222D02*
X4629706Y-12138174D01*
X4629706Y-12138174D02*
X4648753Y-12128650D01*
X4648753Y-12128650D02*
X4677325Y-12128650D01*
X4677325Y-12128650D02*
X4696373Y-12138174D01*
X4772563Y-12338174D02*
X4782087Y-12328650D01*
X4782087Y-12328650D02*
X4801134Y-12300079D01*
X4801134Y-12300079D02*
X4810658Y-12281031D01*
X4810658Y-12281031D02*
X4820182Y-12252460D01*
X4820182Y-12252460D02*
X4829706Y-12204841D01*
X4829706Y-12204841D02*
X4829706Y-12166746D01*
X4829706Y-12166746D02*
X4820182Y-12119127D01*
X4820182Y-12119127D02*
X4810658Y-12090555D01*
X4810658Y-12090555D02*
X4801134Y-12071508D01*
X4801134Y-12071508D02*
X4782087Y-12042936D01*
X4782087Y-12042936D02*
X4772563Y-12033412D01*
D12*
X-17144Y-12469856D02*
X-17144Y-12399144D01*
X-87856Y-12399144D01*
X-87856Y-12469856D01*
X-17144Y-12469856D01*
D11*
X363039Y-12525984D02*
X248753Y-12525984D01*
X305896Y-12525984D02*
X305896Y-12325984D01*
X305896Y-12325984D02*
X286848Y-12354555D01*
X286848Y-12354555D02*
X267801Y-12373603D01*
X267801Y-12373603D02*
X248753Y-12383127D01*
X448753Y-12506936D02*
X458277Y-12516460D01*
X458277Y-12516460D02*
X448753Y-12525984D01*
X448753Y-12525984D02*
X439229Y-12516460D01*
X439229Y-12516460D02*
X448753Y-12506936D01*
X448753Y-12506936D02*
X448753Y-12525984D01*
X582086Y-12325984D02*
X601134Y-12325984D01*
X601134Y-12325984D02*
X620182Y-12335508D01*
X620182Y-12335508D02*
X629705Y-12345031D01*
X629705Y-12345031D02*
X639229Y-12364079D01*
X639229Y-12364079D02*
X648753Y-12402174D01*
X648753Y-12402174D02*
X648753Y-12449793D01*
X648753Y-12449793D02*
X639229Y-12487888D01*
X639229Y-12487888D02*
X629705Y-12506936D01*
X629705Y-12506936D02*
X620182Y-12516460D01*
X620182Y-12516460D02*
X601134Y-12525984D01*
X601134Y-12525984D02*
X582086Y-12525984D01*
X582086Y-12525984D02*
X563039Y-12516460D01*
X563039Y-12516460D02*
X553515Y-12506936D01*
X553515Y-12506936D02*
X543991Y-12487888D01*
X543991Y-12487888D02*
X534467Y-12449793D01*
X534467Y-12449793D02*
X534467Y-12402174D01*
X534467Y-12402174D02*
X543991Y-12364079D01*
X543991Y-12364079D02*
X553515Y-12345031D01*
X553515Y-12345031D02*
X563039Y-12335508D01*
X563039Y-12335508D02*
X582086Y-12325984D01*
X772562Y-12325984D02*
X791610Y-12325984D01*
X791610Y-12325984D02*
X810658Y-12335508D01*
X810658Y-12335508D02*
X820182Y-12345031D01*
X820182Y-12345031D02*
X829705Y-12364079D01*
X829705Y-12364079D02*
X839229Y-12402174D01*
X839229Y-12402174D02*
X839229Y-12449793D01*
X839229Y-12449793D02*
X829705Y-12487888D01*
X829705Y-12487888D02*
X820182Y-12506936D01*
X820182Y-12506936D02*
X810658Y-12516460D01*
X810658Y-12516460D02*
X791610Y-12525984D01*
X791610Y-12525984D02*
X772562Y-12525984D01*
X772562Y-12525984D02*
X753515Y-12516460D01*
X753515Y-12516460D02*
X743991Y-12506936D01*
X743991Y-12506936D02*
X734467Y-12487888D01*
X734467Y-12487888D02*
X724943Y-12449793D01*
X724943Y-12449793D02*
X724943Y-12402174D01*
X724943Y-12402174D02*
X734467Y-12364079D01*
X734467Y-12364079D02*
X743991Y-12345031D01*
X743991Y-12345031D02*
X753515Y-12335508D01*
X753515Y-12335508D02*
X772562Y-12325984D01*
X963039Y-12325984D02*
X982086Y-12325984D01*
X982086Y-12325984D02*
X1001134Y-12335508D01*
X1001134Y-12335508D02*
X1010658Y-12345031D01*
X1010658Y-12345031D02*
X1020182Y-12364079D01*
X1020182Y-12364079D02*
X1029705Y-12402174D01*
X1029705Y-12402174D02*
X1029705Y-12449793D01*
X1029705Y-12449793D02*
X1020182Y-12487888D01*
X1020182Y-12487888D02*
X1010658Y-12506936D01*
X1010658Y-12506936D02*
X1001134Y-12516460D01*
X1001134Y-12516460D02*
X982086Y-12525984D01*
X982086Y-12525984D02*
X963039Y-12525984D01*
X963039Y-12525984D02*
X943991Y-12516460D01*
X943991Y-12516460D02*
X934467Y-12506936D01*
X934467Y-12506936D02*
X924943Y-12487888D01*
X924943Y-12487888D02*
X915420Y-12449793D01*
X915420Y-12449793D02*
X915420Y-12402174D01*
X915420Y-12402174D02*
X924943Y-12364079D01*
X924943Y-12364079D02*
X934467Y-12345031D01*
X934467Y-12345031D02*
X943991Y-12335508D01*
X943991Y-12335508D02*
X963039Y-12325984D01*
X1115420Y-12525984D02*
X1115420Y-12392650D01*
X1115420Y-12411698D02*
X1124944Y-12402174D01*
X1124944Y-12402174D02*
X1143991Y-12392650D01*
X1143991Y-12392650D02*
X1172563Y-12392650D01*
X1172563Y-12392650D02*
X1191610Y-12402174D01*
X1191610Y-12402174D02*
X1201134Y-12421222D01*
X1201134Y-12421222D02*
X1201134Y-12525984D01*
X1201134Y-12421222D02*
X1210658Y-12402174D01*
X1210658Y-12402174D02*
X1229705Y-12392650D01*
X1229705Y-12392650D02*
X1258277Y-12392650D01*
X1258277Y-12392650D02*
X1277325Y-12402174D01*
X1277325Y-12402174D02*
X1286848Y-12421222D01*
X1286848Y-12421222D02*
X1286848Y-12525984D01*
X1382086Y-12525984D02*
X1382086Y-12392650D01*
X1382086Y-12411698D02*
X1391610Y-12402174D01*
X1391610Y-12402174D02*
X1410658Y-12392650D01*
X1410658Y-12392650D02*
X1439229Y-12392650D01*
X1439229Y-12392650D02*
X1458277Y-12402174D01*
X1458277Y-12402174D02*
X1467801Y-12421222D01*
X1467801Y-12421222D02*
X1467801Y-12525984D01*
X1467801Y-12421222D02*
X1477324Y-12402174D01*
X1477324Y-12402174D02*
X1496372Y-12392650D01*
X1496372Y-12392650D02*
X1524943Y-12392650D01*
X1524943Y-12392650D02*
X1543991Y-12402174D01*
X1543991Y-12402174D02*
X1553515Y-12421222D01*
X1553515Y-12421222D02*
X1553515Y-12525984D01*
X1943991Y-12316460D02*
X1772563Y-12573603D01*
X2201134Y-12325984D02*
X2220182Y-12325984D01*
X2220182Y-12325984D02*
X2239229Y-12335508D01*
X2239229Y-12335508D02*
X2248753Y-12345031D01*
X2248753Y-12345031D02*
X2258277Y-12364079D01*
X2258277Y-12364079D02*
X2267801Y-12402174D01*
X2267801Y-12402174D02*
X2267801Y-12449793D01*
X2267801Y-12449793D02*
X2258277Y-12487888D01*
X2258277Y-12487888D02*
X2248753Y-12506936D01*
X2248753Y-12506936D02*
X2239229Y-12516460D01*
X2239229Y-12516460D02*
X2220182Y-12525984D01*
X2220182Y-12525984D02*
X2201134Y-12525984D01*
X2201134Y-12525984D02*
X2182087Y-12516460D01*
X2182087Y-12516460D02*
X2172563Y-12506936D01*
X2172563Y-12506936D02*
X2163039Y-12487888D01*
X2163039Y-12487888D02*
X2153515Y-12449793D01*
X2153515Y-12449793D02*
X2153515Y-12402174D01*
X2153515Y-12402174D02*
X2163039Y-12364079D01*
X2163039Y-12364079D02*
X2172563Y-12345031D01*
X2172563Y-12345031D02*
X2182087Y-12335508D01*
X2182087Y-12335508D02*
X2201134Y-12325984D01*
X2353515Y-12506936D02*
X2363039Y-12516460D01*
X2363039Y-12516460D02*
X2353515Y-12525984D01*
X2353515Y-12525984D02*
X2343991Y-12516460D01*
X2343991Y-12516460D02*
X2353515Y-12506936D01*
X2353515Y-12506936D02*
X2353515Y-12525984D01*
X2486848Y-12325984D02*
X2505896Y-12325984D01*
X2505896Y-12325984D02*
X2524944Y-12335508D01*
X2524944Y-12335508D02*
X2534468Y-12345031D01*
X2534468Y-12345031D02*
X2543991Y-12364079D01*
X2543991Y-12364079D02*
X2553515Y-12402174D01*
X2553515Y-12402174D02*
X2553515Y-12449793D01*
X2553515Y-12449793D02*
X2543991Y-12487888D01*
X2543991Y-12487888D02*
X2534468Y-12506936D01*
X2534468Y-12506936D02*
X2524944Y-12516460D01*
X2524944Y-12516460D02*
X2505896Y-12525984D01*
X2505896Y-12525984D02*
X2486848Y-12525984D01*
X2486848Y-12525984D02*
X2467801Y-12516460D01*
X2467801Y-12516460D02*
X2458277Y-12506936D01*
X2458277Y-12506936D02*
X2448753Y-12487888D01*
X2448753Y-12487888D02*
X2439229Y-12449793D01*
X2439229Y-12449793D02*
X2439229Y-12402174D01*
X2439229Y-12402174D02*
X2448753Y-12364079D01*
X2448753Y-12364079D02*
X2458277Y-12345031D01*
X2458277Y-12345031D02*
X2467801Y-12335508D01*
X2467801Y-12335508D02*
X2486848Y-12325984D01*
X2620182Y-12325984D02*
X2743991Y-12325984D01*
X2743991Y-12325984D02*
X2677325Y-12402174D01*
X2677325Y-12402174D02*
X2705896Y-12402174D01*
X2705896Y-12402174D02*
X2724944Y-12411698D01*
X2724944Y-12411698D02*
X2734468Y-12421222D01*
X2734468Y-12421222D02*
X2743991Y-12440269D01*
X2743991Y-12440269D02*
X2743991Y-12487888D01*
X2743991Y-12487888D02*
X2734468Y-12506936D01*
X2734468Y-12506936D02*
X2724944Y-12516460D01*
X2724944Y-12516460D02*
X2705896Y-12525984D01*
X2705896Y-12525984D02*
X2648753Y-12525984D01*
X2648753Y-12525984D02*
X2629706Y-12516460D01*
X2629706Y-12516460D02*
X2620182Y-12506936D01*
X2839229Y-12525984D02*
X2877325Y-12525984D01*
X2877325Y-12525984D02*
X2896372Y-12516460D01*
X2896372Y-12516460D02*
X2905896Y-12506936D01*
X2905896Y-12506936D02*
X2924944Y-12478365D01*
X2924944Y-12478365D02*
X2934467Y-12440269D01*
X2934467Y-12440269D02*
X2934467Y-12364079D01*
X2934467Y-12364079D02*
X2924944Y-12345031D01*
X2924944Y-12345031D02*
X2915420Y-12335508D01*
X2915420Y-12335508D02*
X2896372Y-12325984D01*
X2896372Y-12325984D02*
X2858277Y-12325984D01*
X2858277Y-12325984D02*
X2839229Y-12335508D01*
X2839229Y-12335508D02*
X2829706Y-12345031D01*
X2829706Y-12345031D02*
X2820182Y-12364079D01*
X2820182Y-12364079D02*
X2820182Y-12411698D01*
X2820182Y-12411698D02*
X2829706Y-12430746D01*
X2829706Y-12430746D02*
X2839229Y-12440269D01*
X2839229Y-12440269D02*
X2858277Y-12449793D01*
X2858277Y-12449793D02*
X2896372Y-12449793D01*
X2896372Y-12449793D02*
X2915420Y-12440269D01*
X2915420Y-12440269D02*
X2924944Y-12430746D01*
X2924944Y-12430746D02*
X2934467Y-12411698D01*
X3105896Y-12392650D02*
X3105896Y-12525984D01*
X3058277Y-12316460D02*
X3010658Y-12459317D01*
X3010658Y-12459317D02*
X3134467Y-12459317D01*
X3201134Y-12325984D02*
X3201134Y-12364079D01*
X3277325Y-12325984D02*
X3277325Y-12364079D01*
X3572563Y-12602174D02*
X3563039Y-12592650D01*
X3563039Y-12592650D02*
X3543991Y-12564079D01*
X3543991Y-12564079D02*
X3534468Y-12545031D01*
X3534468Y-12545031D02*
X3524944Y-12516460D01*
X3524944Y-12516460D02*
X3515420Y-12468841D01*
X3515420Y-12468841D02*
X3515420Y-12430746D01*
X3515420Y-12430746D02*
X3524944Y-12383127D01*
X3524944Y-12383127D02*
X3534468Y-12354555D01*
X3534468Y-12354555D02*
X3543991Y-12335508D01*
X3543991Y-12335508D02*
X3563039Y-12306936D01*
X3563039Y-12306936D02*
X3572563Y-12297412D01*
X3743991Y-12325984D02*
X3648753Y-12325984D01*
X3648753Y-12325984D02*
X3639229Y-12421222D01*
X3639229Y-12421222D02*
X3648753Y-12411698D01*
X3648753Y-12411698D02*
X3667801Y-12402174D01*
X3667801Y-12402174D02*
X3715420Y-12402174D01*
X3715420Y-12402174D02*
X3734468Y-12411698D01*
X3734468Y-12411698D02*
X3743991Y-12421222D01*
X3743991Y-12421222D02*
X3753515Y-12440269D01*
X3753515Y-12440269D02*
X3753515Y-12487888D01*
X3753515Y-12487888D02*
X3743991Y-12506936D01*
X3743991Y-12506936D02*
X3734468Y-12516460D01*
X3734468Y-12516460D02*
X3715420Y-12525984D01*
X3715420Y-12525984D02*
X3667801Y-12525984D01*
X3667801Y-12525984D02*
X3648753Y-12516460D01*
X3648753Y-12516460D02*
X3639229Y-12506936D01*
X3924944Y-12325984D02*
X3886848Y-12325984D01*
X3886848Y-12325984D02*
X3867801Y-12335508D01*
X3867801Y-12335508D02*
X3858277Y-12345031D01*
X3858277Y-12345031D02*
X3839229Y-12373603D01*
X3839229Y-12373603D02*
X3829706Y-12411698D01*
X3829706Y-12411698D02*
X3829706Y-12487888D01*
X3829706Y-12487888D02*
X3839229Y-12506936D01*
X3839229Y-12506936D02*
X3848753Y-12516460D01*
X3848753Y-12516460D02*
X3867801Y-12525984D01*
X3867801Y-12525984D02*
X3905896Y-12525984D01*
X3905896Y-12525984D02*
X3924944Y-12516460D01*
X3924944Y-12516460D02*
X3934468Y-12506936D01*
X3934468Y-12506936D02*
X3943991Y-12487888D01*
X3943991Y-12487888D02*
X3943991Y-12440269D01*
X3943991Y-12440269D02*
X3934468Y-12421222D01*
X3934468Y-12421222D02*
X3924944Y-12411698D01*
X3924944Y-12411698D02*
X3905896Y-12402174D01*
X3905896Y-12402174D02*
X3867801Y-12402174D01*
X3867801Y-12402174D02*
X3848753Y-12411698D01*
X3848753Y-12411698D02*
X3839229Y-12421222D01*
X3839229Y-12421222D02*
X3829706Y-12440269D01*
X4182087Y-12525984D02*
X4182087Y-12325984D01*
X4267801Y-12525984D02*
X4267801Y-12421222D01*
X4267801Y-12421222D02*
X4258277Y-12402174D01*
X4258277Y-12402174D02*
X4239230Y-12392650D01*
X4239230Y-12392650D02*
X4210658Y-12392650D01*
X4210658Y-12392650D02*
X4191610Y-12402174D01*
X4191610Y-12402174D02*
X4182087Y-12411698D01*
X4391611Y-12525984D02*
X4372563Y-12516460D01*
X4372563Y-12516460D02*
X4363039Y-12506936D01*
X4363039Y-12506936D02*
X4353515Y-12487888D01*
X4353515Y-12487888D02*
X4353515Y-12430746D01*
X4353515Y-12430746D02*
X4363039Y-12411698D01*
X4363039Y-12411698D02*
X4372563Y-12402174D01*
X4372563Y-12402174D02*
X4391611Y-12392650D01*
X4391611Y-12392650D02*
X4420182Y-12392650D01*
X4420182Y-12392650D02*
X4439230Y-12402174D01*
X4439230Y-12402174D02*
X4448753Y-12411698D01*
X4448753Y-12411698D02*
X4458277Y-12430746D01*
X4458277Y-12430746D02*
X4458277Y-12487888D01*
X4458277Y-12487888D02*
X4448753Y-12506936D01*
X4448753Y-12506936D02*
X4439230Y-12516460D01*
X4439230Y-12516460D02*
X4420182Y-12525984D01*
X4420182Y-12525984D02*
X4391611Y-12525984D01*
X4572563Y-12525984D02*
X4553515Y-12516460D01*
X4553515Y-12516460D02*
X4543992Y-12497412D01*
X4543992Y-12497412D02*
X4543992Y-12325984D01*
X4724944Y-12516460D02*
X4705896Y-12525984D01*
X4705896Y-12525984D02*
X4667801Y-12525984D01*
X4667801Y-12525984D02*
X4648753Y-12516460D01*
X4648753Y-12516460D02*
X4639230Y-12497412D01*
X4639230Y-12497412D02*
X4639230Y-12421222D01*
X4639230Y-12421222D02*
X4648753Y-12402174D01*
X4648753Y-12402174D02*
X4667801Y-12392650D01*
X4667801Y-12392650D02*
X4705896Y-12392650D01*
X4705896Y-12392650D02*
X4724944Y-12402174D01*
X4724944Y-12402174D02*
X4734468Y-12421222D01*
X4734468Y-12421222D02*
X4734468Y-12440269D01*
X4734468Y-12440269D02*
X4639230Y-12459317D01*
X4810658Y-12516460D02*
X4829706Y-12525984D01*
X4829706Y-12525984D02*
X4867801Y-12525984D01*
X4867801Y-12525984D02*
X4886849Y-12516460D01*
X4886849Y-12516460D02*
X4896373Y-12497412D01*
X4896373Y-12497412D02*
X4896373Y-12487888D01*
X4896373Y-12487888D02*
X4886849Y-12468841D01*
X4886849Y-12468841D02*
X4867801Y-12459317D01*
X4867801Y-12459317D02*
X4839230Y-12459317D01*
X4839230Y-12459317D02*
X4820182Y-12449793D01*
X4820182Y-12449793D02*
X4810658Y-12430746D01*
X4810658Y-12430746D02*
X4810658Y-12421222D01*
X4810658Y-12421222D02*
X4820182Y-12402174D01*
X4820182Y-12402174D02*
X4839230Y-12392650D01*
X4839230Y-12392650D02*
X4867801Y-12392650D01*
X4867801Y-12392650D02*
X4886849Y-12402174D01*
X4963039Y-12602174D02*
X4972563Y-12592650D01*
X4972563Y-12592650D02*
X4991611Y-12564079D01*
X4991611Y-12564079D02*
X5001134Y-12545031D01*
X5001134Y-12545031D02*
X5010658Y-12516460D01*
X5010658Y-12516460D02*
X5020182Y-12468841D01*
X5020182Y-12468841D02*
X5020182Y-12430746D01*
X5020182Y-12430746D02*
X5010658Y-12383127D01*
X5010658Y-12383127D02*
X5001134Y-12354555D01*
X5001134Y-12354555D02*
X4991611Y-12335508D01*
X4991611Y-12335508D02*
X4972563Y-12306936D01*
X4972563Y-12306936D02*
X4963039Y-12297412D01*
D13*
X-67500Y-12763500D02*
X-2500Y-12698500D01*
X-67500Y-12633500D01*
X-132500Y-12698500D01*
X-67500Y-12763500D01*
D11*
X363039Y-12789984D02*
X248753Y-12789984D01*
X305896Y-12789984D02*
X305896Y-12589984D01*
X305896Y-12589984D02*
X286848Y-12618555D01*
X286848Y-12618555D02*
X267801Y-12637603D01*
X267801Y-12637603D02*
X248753Y-12647127D01*
X448753Y-12770936D02*
X458277Y-12780460D01*
X458277Y-12780460D02*
X448753Y-12789984D01*
X448753Y-12789984D02*
X439229Y-12780460D01*
X439229Y-12780460D02*
X448753Y-12770936D01*
X448753Y-12770936D02*
X448753Y-12789984D01*
X524944Y-12589984D02*
X648753Y-12589984D01*
X648753Y-12589984D02*
X582086Y-12666174D01*
X582086Y-12666174D02*
X610658Y-12666174D01*
X610658Y-12666174D02*
X629705Y-12675698D01*
X629705Y-12675698D02*
X639229Y-12685222D01*
X639229Y-12685222D02*
X648753Y-12704269D01*
X648753Y-12704269D02*
X648753Y-12751888D01*
X648753Y-12751888D02*
X639229Y-12770936D01*
X639229Y-12770936D02*
X629705Y-12780460D01*
X629705Y-12780460D02*
X610658Y-12789984D01*
X610658Y-12789984D02*
X553515Y-12789984D01*
X553515Y-12789984D02*
X534467Y-12780460D01*
X534467Y-12780460D02*
X524944Y-12770936D01*
X772562Y-12589984D02*
X791610Y-12589984D01*
X791610Y-12589984D02*
X810658Y-12599508D01*
X810658Y-12599508D02*
X820182Y-12609031D01*
X820182Y-12609031D02*
X829705Y-12628079D01*
X829705Y-12628079D02*
X839229Y-12666174D01*
X839229Y-12666174D02*
X839229Y-12713793D01*
X839229Y-12713793D02*
X829705Y-12751888D01*
X829705Y-12751888D02*
X820182Y-12770936D01*
X820182Y-12770936D02*
X810658Y-12780460D01*
X810658Y-12780460D02*
X791610Y-12789984D01*
X791610Y-12789984D02*
X772562Y-12789984D01*
X772562Y-12789984D02*
X753515Y-12780460D01*
X753515Y-12780460D02*
X743991Y-12770936D01*
X743991Y-12770936D02*
X734467Y-12751888D01*
X734467Y-12751888D02*
X724943Y-12713793D01*
X724943Y-12713793D02*
X724943Y-12666174D01*
X724943Y-12666174D02*
X734467Y-12628079D01*
X734467Y-12628079D02*
X743991Y-12609031D01*
X743991Y-12609031D02*
X753515Y-12599508D01*
X753515Y-12599508D02*
X772562Y-12589984D01*
X963039Y-12589984D02*
X982086Y-12589984D01*
X982086Y-12589984D02*
X1001134Y-12599508D01*
X1001134Y-12599508D02*
X1010658Y-12609031D01*
X1010658Y-12609031D02*
X1020182Y-12628079D01*
X1020182Y-12628079D02*
X1029705Y-12666174D01*
X1029705Y-12666174D02*
X1029705Y-12713793D01*
X1029705Y-12713793D02*
X1020182Y-12751888D01*
X1020182Y-12751888D02*
X1010658Y-12770936D01*
X1010658Y-12770936D02*
X1001134Y-12780460D01*
X1001134Y-12780460D02*
X982086Y-12789984D01*
X982086Y-12789984D02*
X963039Y-12789984D01*
X963039Y-12789984D02*
X943991Y-12780460D01*
X943991Y-12780460D02*
X934467Y-12770936D01*
X934467Y-12770936D02*
X924943Y-12751888D01*
X924943Y-12751888D02*
X915420Y-12713793D01*
X915420Y-12713793D02*
X915420Y-12666174D01*
X915420Y-12666174D02*
X924943Y-12628079D01*
X924943Y-12628079D02*
X934467Y-12609031D01*
X934467Y-12609031D02*
X943991Y-12599508D01*
X943991Y-12599508D02*
X963039Y-12589984D01*
X1115420Y-12789984D02*
X1115420Y-12656650D01*
X1115420Y-12675698D02*
X1124944Y-12666174D01*
X1124944Y-12666174D02*
X1143991Y-12656650D01*
X1143991Y-12656650D02*
X1172563Y-12656650D01*
X1172563Y-12656650D02*
X1191610Y-12666174D01*
X1191610Y-12666174D02*
X1201134Y-12685222D01*
X1201134Y-12685222D02*
X1201134Y-12789984D01*
X1201134Y-12685222D02*
X1210658Y-12666174D01*
X1210658Y-12666174D02*
X1229705Y-12656650D01*
X1229705Y-12656650D02*
X1258277Y-12656650D01*
X1258277Y-12656650D02*
X1277325Y-12666174D01*
X1277325Y-12666174D02*
X1286848Y-12685222D01*
X1286848Y-12685222D02*
X1286848Y-12789984D01*
X1382086Y-12789984D02*
X1382086Y-12656650D01*
X1382086Y-12675698D02*
X1391610Y-12666174D01*
X1391610Y-12666174D02*
X1410658Y-12656650D01*
X1410658Y-12656650D02*
X1439229Y-12656650D01*
X1439229Y-12656650D02*
X1458277Y-12666174D01*
X1458277Y-12666174D02*
X1467801Y-12685222D01*
X1467801Y-12685222D02*
X1467801Y-12789984D01*
X1467801Y-12685222D02*
X1477324Y-12666174D01*
X1477324Y-12666174D02*
X1496372Y-12656650D01*
X1496372Y-12656650D02*
X1524943Y-12656650D01*
X1524943Y-12656650D02*
X1543991Y-12666174D01*
X1543991Y-12666174D02*
X1553515Y-12685222D01*
X1553515Y-12685222D02*
X1553515Y-12789984D01*
X1943991Y-12580460D02*
X1772563Y-12837603D01*
X2201134Y-12589984D02*
X2220182Y-12589984D01*
X2220182Y-12589984D02*
X2239229Y-12599508D01*
X2239229Y-12599508D02*
X2248753Y-12609031D01*
X2248753Y-12609031D02*
X2258277Y-12628079D01*
X2258277Y-12628079D02*
X2267801Y-12666174D01*
X2267801Y-12666174D02*
X2267801Y-12713793D01*
X2267801Y-12713793D02*
X2258277Y-12751888D01*
X2258277Y-12751888D02*
X2248753Y-12770936D01*
X2248753Y-12770936D02*
X2239229Y-12780460D01*
X2239229Y-12780460D02*
X2220182Y-12789984D01*
X2220182Y-12789984D02*
X2201134Y-12789984D01*
X2201134Y-12789984D02*
X2182087Y-12780460D01*
X2182087Y-12780460D02*
X2172563Y-12770936D01*
X2172563Y-12770936D02*
X2163039Y-12751888D01*
X2163039Y-12751888D02*
X2153515Y-12713793D01*
X2153515Y-12713793D02*
X2153515Y-12666174D01*
X2153515Y-12666174D02*
X2163039Y-12628079D01*
X2163039Y-12628079D02*
X2172563Y-12609031D01*
X2172563Y-12609031D02*
X2182087Y-12599508D01*
X2182087Y-12599508D02*
X2201134Y-12589984D01*
X2353515Y-12770936D02*
X2363039Y-12780460D01*
X2363039Y-12780460D02*
X2353515Y-12789984D01*
X2353515Y-12789984D02*
X2343991Y-12780460D01*
X2343991Y-12780460D02*
X2353515Y-12770936D01*
X2353515Y-12770936D02*
X2353515Y-12789984D01*
X2486848Y-12589984D02*
X2505896Y-12589984D01*
X2505896Y-12589984D02*
X2524944Y-12599508D01*
X2524944Y-12599508D02*
X2534468Y-12609031D01*
X2534468Y-12609031D02*
X2543991Y-12628079D01*
X2543991Y-12628079D02*
X2553515Y-12666174D01*
X2553515Y-12666174D02*
X2553515Y-12713793D01*
X2553515Y-12713793D02*
X2543991Y-12751888D01*
X2543991Y-12751888D02*
X2534468Y-12770936D01*
X2534468Y-12770936D02*
X2524944Y-12780460D01*
X2524944Y-12780460D02*
X2505896Y-12789984D01*
X2505896Y-12789984D02*
X2486848Y-12789984D01*
X2486848Y-12789984D02*
X2467801Y-12780460D01*
X2467801Y-12780460D02*
X2458277Y-12770936D01*
X2458277Y-12770936D02*
X2448753Y-12751888D01*
X2448753Y-12751888D02*
X2439229Y-12713793D01*
X2439229Y-12713793D02*
X2439229Y-12666174D01*
X2439229Y-12666174D02*
X2448753Y-12628079D01*
X2448753Y-12628079D02*
X2458277Y-12609031D01*
X2458277Y-12609031D02*
X2467801Y-12599508D01*
X2467801Y-12599508D02*
X2486848Y-12589984D01*
X2734468Y-12589984D02*
X2639229Y-12589984D01*
X2639229Y-12589984D02*
X2629706Y-12685222D01*
X2629706Y-12685222D02*
X2639229Y-12675698D01*
X2639229Y-12675698D02*
X2658277Y-12666174D01*
X2658277Y-12666174D02*
X2705896Y-12666174D01*
X2705896Y-12666174D02*
X2724944Y-12675698D01*
X2724944Y-12675698D02*
X2734468Y-12685222D01*
X2734468Y-12685222D02*
X2743991Y-12704269D01*
X2743991Y-12704269D02*
X2743991Y-12751888D01*
X2743991Y-12751888D02*
X2734468Y-12770936D01*
X2734468Y-12770936D02*
X2724944Y-12780460D01*
X2724944Y-12780460D02*
X2705896Y-12789984D01*
X2705896Y-12789984D02*
X2658277Y-12789984D01*
X2658277Y-12789984D02*
X2639229Y-12780460D01*
X2639229Y-12780460D02*
X2629706Y-12770936D01*
X2934467Y-12789984D02*
X2820182Y-12789984D01*
X2877325Y-12789984D02*
X2877325Y-12589984D01*
X2877325Y-12589984D02*
X2858277Y-12618555D01*
X2858277Y-12618555D02*
X2839229Y-12637603D01*
X2839229Y-12637603D02*
X2820182Y-12647127D01*
X3010658Y-12609031D02*
X3020182Y-12599508D01*
X3020182Y-12599508D02*
X3039229Y-12589984D01*
X3039229Y-12589984D02*
X3086848Y-12589984D01*
X3086848Y-12589984D02*
X3105896Y-12599508D01*
X3105896Y-12599508D02*
X3115420Y-12609031D01*
X3115420Y-12609031D02*
X3124944Y-12628079D01*
X3124944Y-12628079D02*
X3124944Y-12647127D01*
X3124944Y-12647127D02*
X3115420Y-12675698D01*
X3115420Y-12675698D02*
X3001134Y-12789984D01*
X3001134Y-12789984D02*
X3124944Y-12789984D01*
X3201134Y-12589984D02*
X3201134Y-12628079D01*
X3277325Y-12589984D02*
X3277325Y-12628079D01*
X3572563Y-12866174D02*
X3563039Y-12856650D01*
X3563039Y-12856650D02*
X3543991Y-12828079D01*
X3543991Y-12828079D02*
X3534468Y-12809031D01*
X3534468Y-12809031D02*
X3524944Y-12780460D01*
X3524944Y-12780460D02*
X3515420Y-12732841D01*
X3515420Y-12732841D02*
X3515420Y-12694746D01*
X3515420Y-12694746D02*
X3524944Y-12647127D01*
X3524944Y-12647127D02*
X3534468Y-12618555D01*
X3534468Y-12618555D02*
X3543991Y-12599508D01*
X3543991Y-12599508D02*
X3563039Y-12570936D01*
X3563039Y-12570936D02*
X3572563Y-12561412D01*
X3734468Y-12656650D02*
X3734468Y-12789984D01*
X3686848Y-12580460D02*
X3639229Y-12723317D01*
X3639229Y-12723317D02*
X3763039Y-12723317D01*
X3991610Y-12789984D02*
X3991610Y-12589984D01*
X4077325Y-12789984D02*
X4077325Y-12685222D01*
X4077325Y-12685222D02*
X4067801Y-12666174D01*
X4067801Y-12666174D02*
X4048753Y-12656650D01*
X4048753Y-12656650D02*
X4020182Y-12656650D01*
X4020182Y-12656650D02*
X4001134Y-12666174D01*
X4001134Y-12666174D02*
X3991610Y-12675698D01*
X4201134Y-12789984D02*
X4182087Y-12780460D01*
X4182087Y-12780460D02*
X4172563Y-12770936D01*
X4172563Y-12770936D02*
X4163039Y-12751888D01*
X4163039Y-12751888D02*
X4163039Y-12694746D01*
X4163039Y-12694746D02*
X4172563Y-12675698D01*
X4172563Y-12675698D02*
X4182087Y-12666174D01*
X4182087Y-12666174D02*
X4201134Y-12656650D01*
X4201134Y-12656650D02*
X4229706Y-12656650D01*
X4229706Y-12656650D02*
X4248753Y-12666174D01*
X4248753Y-12666174D02*
X4258277Y-12675698D01*
X4258277Y-12675698D02*
X4267801Y-12694746D01*
X4267801Y-12694746D02*
X4267801Y-12751888D01*
X4267801Y-12751888D02*
X4258277Y-12770936D01*
X4258277Y-12770936D02*
X4248753Y-12780460D01*
X4248753Y-12780460D02*
X4229706Y-12789984D01*
X4229706Y-12789984D02*
X4201134Y-12789984D01*
X4382087Y-12789984D02*
X4363039Y-12780460D01*
X4363039Y-12780460D02*
X4353515Y-12761412D01*
X4353515Y-12761412D02*
X4353515Y-12589984D01*
X4534468Y-12780460D02*
X4515420Y-12789984D01*
X4515420Y-12789984D02*
X4477325Y-12789984D01*
X4477325Y-12789984D02*
X4458277Y-12780460D01*
X4458277Y-12780460D02*
X4448753Y-12761412D01*
X4448753Y-12761412D02*
X4448753Y-12685222D01*
X4448753Y-12685222D02*
X4458277Y-12666174D01*
X4458277Y-12666174D02*
X4477325Y-12656650D01*
X4477325Y-12656650D02*
X4515420Y-12656650D01*
X4515420Y-12656650D02*
X4534468Y-12666174D01*
X4534468Y-12666174D02*
X4543992Y-12685222D01*
X4543992Y-12685222D02*
X4543992Y-12704269D01*
X4543992Y-12704269D02*
X4448753Y-12723317D01*
X4620182Y-12780460D02*
X4639230Y-12789984D01*
X4639230Y-12789984D02*
X4677325Y-12789984D01*
X4677325Y-12789984D02*
X4696373Y-12780460D01*
X4696373Y-12780460D02*
X4705896Y-12761412D01*
X4705896Y-12761412D02*
X4705896Y-12751888D01*
X4705896Y-12751888D02*
X4696373Y-12732841D01*
X4696373Y-12732841D02*
X4677325Y-12723317D01*
X4677325Y-12723317D02*
X4648753Y-12723317D01*
X4648753Y-12723317D02*
X4629706Y-12713793D01*
X4629706Y-12713793D02*
X4620182Y-12694746D01*
X4620182Y-12694746D02*
X4620182Y-12685222D01*
X4620182Y-12685222D02*
X4629706Y-12666174D01*
X4629706Y-12666174D02*
X4648753Y-12656650D01*
X4648753Y-12656650D02*
X4677325Y-12656650D01*
X4677325Y-12656650D02*
X4696373Y-12666174D01*
X4772563Y-12866174D02*
X4782087Y-12856650D01*
X4782087Y-12856650D02*
X4801134Y-12828079D01*
X4801134Y-12828079D02*
X4810658Y-12809031D01*
X4810658Y-12809031D02*
X4820182Y-12780460D01*
X4820182Y-12780460D02*
X4829706Y-12732841D01*
X4829706Y-12732841D02*
X4829706Y-12694746D01*
X4829706Y-12694746D02*
X4820182Y-12647127D01*
X4820182Y-12647127D02*
X4810658Y-12618555D01*
X4810658Y-12618555D02*
X4801134Y-12599508D01*
X4801134Y-12599508D02*
X4782087Y-12570936D01*
X4782087Y-12570936D02*
X4772563Y-12561412D01*
X-202500Y-12862500D02*
X-2500Y-13062500D01*
X-2500Y-12862500D02*
X-202500Y-13062500D01*
X-2500Y-12962500D02*
G75*
G02*
X-202500Y-12962500I-100000J0D01*
G01*
X-202500Y-12962500D02*
G75*
G02*
X-2500Y-12962500I100000J0D01*
G01*
X248753Y-12873031D02*
X258277Y-12863508D01*
X258277Y-12863508D02*
X277324Y-12853984D01*
X277324Y-12853984D02*
X324944Y-12853984D01*
X324944Y-12853984D02*
X343991Y-12863508D01*
X343991Y-12863508D02*
X353515Y-12873031D01*
X353515Y-12873031D02*
X363039Y-12892079D01*
X363039Y-12892079D02*
X363039Y-12911127D01*
X363039Y-12911127D02*
X353515Y-12939698D01*
X353515Y-12939698D02*
X239229Y-13053984D01*
X239229Y-13053984D02*
X363039Y-13053984D01*
X448753Y-13034936D02*
X458277Y-13044460D01*
X458277Y-13044460D02*
X448753Y-13053984D01*
X448753Y-13053984D02*
X439229Y-13044460D01*
X439229Y-13044460D02*
X448753Y-13034936D01*
X448753Y-13034936D02*
X448753Y-13053984D01*
X639229Y-12853984D02*
X543991Y-12853984D01*
X543991Y-12853984D02*
X534467Y-12949222D01*
X534467Y-12949222D02*
X543991Y-12939698D01*
X543991Y-12939698D02*
X563039Y-12930174D01*
X563039Y-12930174D02*
X610658Y-12930174D01*
X610658Y-12930174D02*
X629705Y-12939698D01*
X629705Y-12939698D02*
X639229Y-12949222D01*
X639229Y-12949222D02*
X648753Y-12968269D01*
X648753Y-12968269D02*
X648753Y-13015888D01*
X648753Y-13015888D02*
X639229Y-13034936D01*
X639229Y-13034936D02*
X629705Y-13044460D01*
X629705Y-13044460D02*
X610658Y-13053984D01*
X610658Y-13053984D02*
X563039Y-13053984D01*
X563039Y-13053984D02*
X543991Y-13044460D01*
X543991Y-13044460D02*
X534467Y-13034936D01*
X772562Y-12853984D02*
X791610Y-12853984D01*
X791610Y-12853984D02*
X810658Y-12863508D01*
X810658Y-12863508D02*
X820182Y-12873031D01*
X820182Y-12873031D02*
X829705Y-12892079D01*
X829705Y-12892079D02*
X839229Y-12930174D01*
X839229Y-12930174D02*
X839229Y-12977793D01*
X839229Y-12977793D02*
X829705Y-13015888D01*
X829705Y-13015888D02*
X820182Y-13034936D01*
X820182Y-13034936D02*
X810658Y-13044460D01*
X810658Y-13044460D02*
X791610Y-13053984D01*
X791610Y-13053984D02*
X772562Y-13053984D01*
X772562Y-13053984D02*
X753515Y-13044460D01*
X753515Y-13044460D02*
X743991Y-13034936D01*
X743991Y-13034936D02*
X734467Y-13015888D01*
X734467Y-13015888D02*
X724943Y-12977793D01*
X724943Y-12977793D02*
X724943Y-12930174D01*
X724943Y-12930174D02*
X734467Y-12892079D01*
X734467Y-12892079D02*
X743991Y-12873031D01*
X743991Y-12873031D02*
X753515Y-12863508D01*
X753515Y-12863508D02*
X772562Y-12853984D01*
X963039Y-12853984D02*
X982086Y-12853984D01*
X982086Y-12853984D02*
X1001134Y-12863508D01*
X1001134Y-12863508D02*
X1010658Y-12873031D01*
X1010658Y-12873031D02*
X1020182Y-12892079D01*
X1020182Y-12892079D02*
X1029705Y-12930174D01*
X1029705Y-12930174D02*
X1029705Y-12977793D01*
X1029705Y-12977793D02*
X1020182Y-13015888D01*
X1020182Y-13015888D02*
X1010658Y-13034936D01*
X1010658Y-13034936D02*
X1001134Y-13044460D01*
X1001134Y-13044460D02*
X982086Y-13053984D01*
X982086Y-13053984D02*
X963039Y-13053984D01*
X963039Y-13053984D02*
X943991Y-13044460D01*
X943991Y-13044460D02*
X934467Y-13034936D01*
X934467Y-13034936D02*
X924943Y-13015888D01*
X924943Y-13015888D02*
X915420Y-12977793D01*
X915420Y-12977793D02*
X915420Y-12930174D01*
X915420Y-12930174D02*
X924943Y-12892079D01*
X924943Y-12892079D02*
X934467Y-12873031D01*
X934467Y-12873031D02*
X943991Y-12863508D01*
X943991Y-12863508D02*
X963039Y-12853984D01*
X1115420Y-13053984D02*
X1115420Y-12920650D01*
X1115420Y-12939698D02*
X1124944Y-12930174D01*
X1124944Y-12930174D02*
X1143991Y-12920650D01*
X1143991Y-12920650D02*
X1172563Y-12920650D01*
X1172563Y-12920650D02*
X1191610Y-12930174D01*
X1191610Y-12930174D02*
X1201134Y-12949222D01*
X1201134Y-12949222D02*
X1201134Y-13053984D01*
X1201134Y-12949222D02*
X1210658Y-12930174D01*
X1210658Y-12930174D02*
X1229705Y-12920650D01*
X1229705Y-12920650D02*
X1258277Y-12920650D01*
X1258277Y-12920650D02*
X1277325Y-12930174D01*
X1277325Y-12930174D02*
X1286848Y-12949222D01*
X1286848Y-12949222D02*
X1286848Y-13053984D01*
X1382086Y-13053984D02*
X1382086Y-12920650D01*
X1382086Y-12939698D02*
X1391610Y-12930174D01*
X1391610Y-12930174D02*
X1410658Y-12920650D01*
X1410658Y-12920650D02*
X1439229Y-12920650D01*
X1439229Y-12920650D02*
X1458277Y-12930174D01*
X1458277Y-12930174D02*
X1467801Y-12949222D01*
X1467801Y-12949222D02*
X1467801Y-13053984D01*
X1467801Y-12949222D02*
X1477324Y-12930174D01*
X1477324Y-12930174D02*
X1496372Y-12920650D01*
X1496372Y-12920650D02*
X1524943Y-12920650D01*
X1524943Y-12920650D02*
X1543991Y-12930174D01*
X1543991Y-12930174D02*
X1553515Y-12949222D01*
X1553515Y-12949222D02*
X1553515Y-13053984D01*
X1943991Y-12844460D02*
X1772563Y-13101603D01*
X2201134Y-12853984D02*
X2220182Y-12853984D01*
X2220182Y-12853984D02*
X2239229Y-12863508D01*
X2239229Y-12863508D02*
X2248753Y-12873031D01*
X2248753Y-12873031D02*
X2258277Y-12892079D01*
X2258277Y-12892079D02*
X2267801Y-12930174D01*
X2267801Y-12930174D02*
X2267801Y-12977793D01*
X2267801Y-12977793D02*
X2258277Y-13015888D01*
X2258277Y-13015888D02*
X2248753Y-13034936D01*
X2248753Y-13034936D02*
X2239229Y-13044460D01*
X2239229Y-13044460D02*
X2220182Y-13053984D01*
X2220182Y-13053984D02*
X2201134Y-13053984D01*
X2201134Y-13053984D02*
X2182087Y-13044460D01*
X2182087Y-13044460D02*
X2172563Y-13034936D01*
X2172563Y-13034936D02*
X2163039Y-13015888D01*
X2163039Y-13015888D02*
X2153515Y-12977793D01*
X2153515Y-12977793D02*
X2153515Y-12930174D01*
X2153515Y-12930174D02*
X2163039Y-12892079D01*
X2163039Y-12892079D02*
X2172563Y-12873031D01*
X2172563Y-12873031D02*
X2182087Y-12863508D01*
X2182087Y-12863508D02*
X2201134Y-12853984D01*
X2353515Y-13034936D02*
X2363039Y-13044460D01*
X2363039Y-13044460D02*
X2353515Y-13053984D01*
X2353515Y-13053984D02*
X2343991Y-13044460D01*
X2343991Y-13044460D02*
X2353515Y-13034936D01*
X2353515Y-13034936D02*
X2353515Y-13053984D01*
X2486848Y-12853984D02*
X2505896Y-12853984D01*
X2505896Y-12853984D02*
X2524944Y-12863508D01*
X2524944Y-12863508D02*
X2534468Y-12873031D01*
X2534468Y-12873031D02*
X2543991Y-12892079D01*
X2543991Y-12892079D02*
X2553515Y-12930174D01*
X2553515Y-12930174D02*
X2553515Y-12977793D01*
X2553515Y-12977793D02*
X2543991Y-13015888D01*
X2543991Y-13015888D02*
X2534468Y-13034936D01*
X2534468Y-13034936D02*
X2524944Y-13044460D01*
X2524944Y-13044460D02*
X2505896Y-13053984D01*
X2505896Y-13053984D02*
X2486848Y-13053984D01*
X2486848Y-13053984D02*
X2467801Y-13044460D01*
X2467801Y-13044460D02*
X2458277Y-13034936D01*
X2458277Y-13034936D02*
X2448753Y-13015888D01*
X2448753Y-13015888D02*
X2439229Y-12977793D01*
X2439229Y-12977793D02*
X2439229Y-12930174D01*
X2439229Y-12930174D02*
X2448753Y-12892079D01*
X2448753Y-12892079D02*
X2458277Y-12873031D01*
X2458277Y-12873031D02*
X2467801Y-12863508D01*
X2467801Y-12863508D02*
X2486848Y-12853984D01*
X2648753Y-13053984D02*
X2686848Y-13053984D01*
X2686848Y-13053984D02*
X2705896Y-13044460D01*
X2705896Y-13044460D02*
X2715420Y-13034936D01*
X2715420Y-13034936D02*
X2734468Y-13006365D01*
X2734468Y-13006365D02*
X2743991Y-12968269D01*
X2743991Y-12968269D02*
X2743991Y-12892079D01*
X2743991Y-12892079D02*
X2734468Y-12873031D01*
X2734468Y-12873031D02*
X2724944Y-12863508D01*
X2724944Y-12863508D02*
X2705896Y-12853984D01*
X2705896Y-12853984D02*
X2667801Y-12853984D01*
X2667801Y-12853984D02*
X2648753Y-12863508D01*
X2648753Y-12863508D02*
X2639229Y-12873031D01*
X2639229Y-12873031D02*
X2629706Y-12892079D01*
X2629706Y-12892079D02*
X2629706Y-12939698D01*
X2629706Y-12939698D02*
X2639229Y-12958746D01*
X2639229Y-12958746D02*
X2648753Y-12968269D01*
X2648753Y-12968269D02*
X2667801Y-12977793D01*
X2667801Y-12977793D02*
X2705896Y-12977793D01*
X2705896Y-12977793D02*
X2724944Y-12968269D01*
X2724944Y-12968269D02*
X2734468Y-12958746D01*
X2734468Y-12958746D02*
X2743991Y-12939698D01*
X2858277Y-12939698D02*
X2839229Y-12930174D01*
X2839229Y-12930174D02*
X2829706Y-12920650D01*
X2829706Y-12920650D02*
X2820182Y-12901603D01*
X2820182Y-12901603D02*
X2820182Y-12892079D01*
X2820182Y-12892079D02*
X2829706Y-12873031D01*
X2829706Y-12873031D02*
X2839229Y-12863508D01*
X2839229Y-12863508D02*
X2858277Y-12853984D01*
X2858277Y-12853984D02*
X2896372Y-12853984D01*
X2896372Y-12853984D02*
X2915420Y-12863508D01*
X2915420Y-12863508D02*
X2924944Y-12873031D01*
X2924944Y-12873031D02*
X2934467Y-12892079D01*
X2934467Y-12892079D02*
X2934467Y-12901603D01*
X2934467Y-12901603D02*
X2924944Y-12920650D01*
X2924944Y-12920650D02*
X2915420Y-12930174D01*
X2915420Y-12930174D02*
X2896372Y-12939698D01*
X2896372Y-12939698D02*
X2858277Y-12939698D01*
X2858277Y-12939698D02*
X2839229Y-12949222D01*
X2839229Y-12949222D02*
X2829706Y-12958746D01*
X2829706Y-12958746D02*
X2820182Y-12977793D01*
X2820182Y-12977793D02*
X2820182Y-13015888D01*
X2820182Y-13015888D02*
X2829706Y-13034936D01*
X2829706Y-13034936D02*
X2839229Y-13044460D01*
X2839229Y-13044460D02*
X2858277Y-13053984D01*
X2858277Y-13053984D02*
X2896372Y-13053984D01*
X2896372Y-13053984D02*
X2915420Y-13044460D01*
X2915420Y-13044460D02*
X2924944Y-13034936D01*
X2924944Y-13034936D02*
X2934467Y-13015888D01*
X2934467Y-13015888D02*
X2934467Y-12977793D01*
X2934467Y-12977793D02*
X2924944Y-12958746D01*
X2924944Y-12958746D02*
X2915420Y-12949222D01*
X2915420Y-12949222D02*
X2896372Y-12939698D01*
X3105896Y-12920650D02*
X3105896Y-13053984D01*
X3058277Y-12844460D02*
X3010658Y-12987317D01*
X3010658Y-12987317D02*
X3134467Y-12987317D01*
X3201134Y-12853984D02*
X3201134Y-12892079D01*
X3277325Y-12853984D02*
X3277325Y-12892079D01*
X3572563Y-13130174D02*
X3563039Y-13120650D01*
X3563039Y-13120650D02*
X3543991Y-13092079D01*
X3543991Y-13092079D02*
X3534468Y-13073031D01*
X3534468Y-13073031D02*
X3524944Y-13044460D01*
X3524944Y-13044460D02*
X3515420Y-12996841D01*
X3515420Y-12996841D02*
X3515420Y-12958746D01*
X3515420Y-12958746D02*
X3524944Y-12911127D01*
X3524944Y-12911127D02*
X3534468Y-12882555D01*
X3534468Y-12882555D02*
X3543991Y-12863508D01*
X3543991Y-12863508D02*
X3563039Y-12834936D01*
X3563039Y-12834936D02*
X3572563Y-12825412D01*
X3639229Y-12873031D02*
X3648753Y-12863508D01*
X3648753Y-12863508D02*
X3667801Y-12853984D01*
X3667801Y-12853984D02*
X3715420Y-12853984D01*
X3715420Y-12853984D02*
X3734468Y-12863508D01*
X3734468Y-12863508D02*
X3743991Y-12873031D01*
X3743991Y-12873031D02*
X3753515Y-12892079D01*
X3753515Y-12892079D02*
X3753515Y-12911127D01*
X3753515Y-12911127D02*
X3743991Y-12939698D01*
X3743991Y-12939698D02*
X3629706Y-13053984D01*
X3629706Y-13053984D02*
X3753515Y-13053984D01*
X3991610Y-13053984D02*
X3991610Y-12853984D01*
X4077325Y-13053984D02*
X4077325Y-12949222D01*
X4077325Y-12949222D02*
X4067801Y-12930174D01*
X4067801Y-12930174D02*
X4048753Y-12920650D01*
X4048753Y-12920650D02*
X4020182Y-12920650D01*
X4020182Y-12920650D02*
X4001134Y-12930174D01*
X4001134Y-12930174D02*
X3991610Y-12939698D01*
X4201134Y-13053984D02*
X4182087Y-13044460D01*
X4182087Y-13044460D02*
X4172563Y-13034936D01*
X4172563Y-13034936D02*
X4163039Y-13015888D01*
X4163039Y-13015888D02*
X4163039Y-12958746D01*
X4163039Y-12958746D02*
X4172563Y-12939698D01*
X4172563Y-12939698D02*
X4182087Y-12930174D01*
X4182087Y-12930174D02*
X4201134Y-12920650D01*
X4201134Y-12920650D02*
X4229706Y-12920650D01*
X4229706Y-12920650D02*
X4248753Y-12930174D01*
X4248753Y-12930174D02*
X4258277Y-12939698D01*
X4258277Y-12939698D02*
X4267801Y-12958746D01*
X4267801Y-12958746D02*
X4267801Y-13015888D01*
X4267801Y-13015888D02*
X4258277Y-13034936D01*
X4258277Y-13034936D02*
X4248753Y-13044460D01*
X4248753Y-13044460D02*
X4229706Y-13053984D01*
X4229706Y-13053984D02*
X4201134Y-13053984D01*
X4382087Y-13053984D02*
X4363039Y-13044460D01*
X4363039Y-13044460D02*
X4353515Y-13025412D01*
X4353515Y-13025412D02*
X4353515Y-12853984D01*
X4534468Y-13044460D02*
X4515420Y-13053984D01*
X4515420Y-13053984D02*
X4477325Y-13053984D01*
X4477325Y-13053984D02*
X4458277Y-13044460D01*
X4458277Y-13044460D02*
X4448753Y-13025412D01*
X4448753Y-13025412D02*
X4448753Y-12949222D01*
X4448753Y-12949222D02*
X4458277Y-12930174D01*
X4458277Y-12930174D02*
X4477325Y-12920650D01*
X4477325Y-12920650D02*
X4515420Y-12920650D01*
X4515420Y-12920650D02*
X4534468Y-12930174D01*
X4534468Y-12930174D02*
X4543992Y-12949222D01*
X4543992Y-12949222D02*
X4543992Y-12968269D01*
X4543992Y-12968269D02*
X4448753Y-12987317D01*
X4620182Y-13044460D02*
X4639230Y-13053984D01*
X4639230Y-13053984D02*
X4677325Y-13053984D01*
X4677325Y-13053984D02*
X4696373Y-13044460D01*
X4696373Y-13044460D02*
X4705896Y-13025412D01*
X4705896Y-13025412D02*
X4705896Y-13015888D01*
X4705896Y-13015888D02*
X4696373Y-12996841D01*
X4696373Y-12996841D02*
X4677325Y-12987317D01*
X4677325Y-12987317D02*
X4648753Y-12987317D01*
X4648753Y-12987317D02*
X4629706Y-12977793D01*
X4629706Y-12977793D02*
X4620182Y-12958746D01*
X4620182Y-12958746D02*
X4620182Y-12949222D01*
X4620182Y-12949222D02*
X4629706Y-12930174D01*
X4629706Y-12930174D02*
X4648753Y-12920650D01*
X4648753Y-12920650D02*
X4677325Y-12920650D01*
X4677325Y-12920650D02*
X4696373Y-12930174D01*
X4772563Y-13130174D02*
X4782087Y-13120650D01*
X4782087Y-13120650D02*
X4801134Y-13092079D01*
X4801134Y-13092079D02*
X4810658Y-13073031D01*
X4810658Y-13073031D02*
X4820182Y-13044460D01*
X4820182Y-13044460D02*
X4829706Y-12996841D01*
X4829706Y-12996841D02*
X4829706Y-12958746D01*
X4829706Y-12958746D02*
X4820182Y-12911127D01*
X4820182Y-12911127D02*
X4810658Y-12882555D01*
X4810658Y-12882555D02*
X4801134Y-12863508D01*
X4801134Y-12863508D02*
X4782087Y-12834936D01*
X4782087Y-12834936D02*
X4772563Y-12825412D01*
M02*
