%TF.GenerationSoftware,KiCad,Pcbnew,9.0.2*%
%TF.CreationDate,2025-06-25T13:35:58-04:00*%
%TF.ProjectId,PaperCam_Kicad,50617065-7243-4616-9d5f-4b696361642e,rev?*%
%TF.SameCoordinates,Original*%
%TF.FileFunction,Copper,L1,Top*%
%TF.FilePolarity,Positive*%
%FSLAX46Y46*%
G04 Gerber Fmt 4.6, Leading zero omitted, Abs format (unit mm)*
G04 Created by KiCad (PCBNEW 9.0.2) date 2025-06-25 13:35:58*
%MOMM*%
%LPD*%
G01*
G04 APERTURE LIST*
G04 Aperture macros list*
%AMRoundRect*
0 Rectangle with rounded corners*
0 $1 Rounding radius*
0 $2 $3 $4 $5 $6 $7 $8 $9 X,Y pos of 4 corners*
0 Add a 4 corners polygon primitive as box body*
4,1,4,$2,$3,$4,$5,$6,$7,$8,$9,$2,$3,0*
0 Add four circle primitives for the rounded corners*
1,1,$1+$1,$2,$3*
1,1,$1+$1,$4,$5*
1,1,$1+$1,$6,$7*
1,1,$1+$1,$8,$9*
0 Add four rect primitives between the rounded corners*
20,1,$1+$1,$2,$3,$4,$5,0*
20,1,$1+$1,$4,$5,$6,$7,0*
20,1,$1+$1,$6,$7,$8,$9,0*
20,1,$1+$1,$8,$9,$2,$3,0*%
G04 Aperture macros list end*
%TA.AperFunction,ComponentPad*%
%ADD10C,1.600000*%
%TD*%
%TA.AperFunction,ComponentPad*%
%ADD11RoundRect,0.250000X0.550000X-0.550000X0.550000X0.550000X-0.550000X0.550000X-0.550000X-0.550000X0*%
%TD*%
%TA.AperFunction,ComponentPad*%
%ADD12R,1.700000X1.700000*%
%TD*%
%TA.AperFunction,ComponentPad*%
%ADD13O,1.700000X1.700000*%
%TD*%
%TA.AperFunction,ComponentPad*%
%ADD14R,1.508000X1.508000*%
%TD*%
%TA.AperFunction,ComponentPad*%
%ADD15C,1.508000*%
%TD*%
%TA.AperFunction,ComponentPad*%
%ADD16C,3.516000*%
%TD*%
%TA.AperFunction,ComponentPad*%
%ADD17R,1.408000X1.408000*%
%TD*%
%TA.AperFunction,ComponentPad*%
%ADD18C,1.408000*%
%TD*%
%TA.AperFunction,ComponentPad*%
%ADD19C,1.700000*%
%TD*%
%TA.AperFunction,ComponentPad*%
%ADD20O,3.200000X1.900000*%
%TD*%
%TA.AperFunction,ViaPad*%
%ADD21C,0.600000*%
%TD*%
%TA.AperFunction,Conductor*%
%ADD22C,0.200000*%
%TD*%
G04 APERTURE END LIST*
D10*
%TO.P,C1,1*%
%TO.N,+3V3*%
X76200000Y-104775000D03*
%TO.P,C1,2*%
%TO.N,GND*%
X78700000Y-104775000D03*
%TD*%
D11*
%TO.P,C3,1*%
%TO.N,+5V*%
X90487500Y-102393750D03*
D10*
%TO.P,C3,2*%
%TO.N,GND*%
X90487500Y-99893750D03*
%TD*%
%TO.P,R1,1*%
%TO.N,Net-(CameraButton1-Pad1)*%
X83343750Y-97155000D03*
%TO.P,R1,2*%
%TO.N,+3V3*%
X83343750Y-104775000D03*
%TD*%
%TO.P,C2,1*%
%TO.N,+3V3*%
X76200000Y-97631250D03*
%TO.P,C2,2*%
%TO.N,GND*%
X78700000Y-97631250D03*
%TD*%
D12*
%TO.P,RaspberryPiGPIO1,1,1*%
%TO.N,+3V3*%
X10863750Y-101742500D03*
D13*
%TO.P,RaspberryPiGPIO1,2,2*%
%TO.N,+5V*%
X10863750Y-104282500D03*
%TO.P,RaspberryPiGPIO1,3,3*%
%TO.N,unconnected-(RaspberryPiGPIO1-Pad3)*%
X13403750Y-101742500D03*
%TO.P,RaspberryPiGPIO1,4,4*%
%TO.N,unconnected-(RaspberryPiGPIO1-Pad4)*%
X13403750Y-104282500D03*
%TO.P,RaspberryPiGPIO1,5,5*%
%TO.N,unconnected-(RaspberryPiGPIO1-Pad5)*%
X15943750Y-101742500D03*
%TO.P,RaspberryPiGPIO1,6,6*%
%TO.N,GND*%
X15943750Y-104282500D03*
%TO.P,RaspberryPiGPIO1,7,7*%
%TO.N,unconnected-(RaspberryPiGPIO1-Pad7)*%
X18483750Y-101742500D03*
%TO.P,RaspberryPiGPIO1,8,8*%
%TO.N,unconnected-(RaspberryPiGPIO1-Pad8)*%
X18483750Y-104282500D03*
%TO.P,RaspberryPiGPIO1,9,9*%
%TO.N,GND*%
X21023750Y-101742500D03*
%TO.P,RaspberryPiGPIO1,10,10*%
%TO.N,unconnected-(RaspberryPiGPIO1-Pad10)*%
X21023750Y-104282500D03*
%TO.P,RaspberryPiGPIO1,11,11*%
%TO.N,Net-(CameraButton1-Pad1)*%
X23563750Y-101742500D03*
%TO.P,RaspberryPiGPIO1,12,12*%
%TO.N,unconnected-(RaspberryPiGPIO1-Pad12)*%
X23563750Y-104282500D03*
%TO.P,RaspberryPiGPIO1,13,13*%
%TO.N,unconnected-(RaspberryPiGPIO1-Pad13)*%
X26103750Y-101742500D03*
%TO.P,RaspberryPiGPIO1,14,14*%
%TO.N,unconnected-(RaspberryPiGPIO1-Pad14)*%
X26103750Y-104282500D03*
%TO.P,RaspberryPiGPIO1,15,15*%
%TO.N,unconnected-(RaspberryPiGPIO1-Pad15)*%
X28643750Y-101742500D03*
%TO.P,RaspberryPiGPIO1,16,16*%
%TO.N,/BUSY*%
X28643750Y-104282500D03*
%TO.P,RaspberryPiGPIO1,17,17*%
%TO.N,unconnected-(RaspberryPiGPIO1-Pad17)*%
X31183750Y-101742500D03*
%TO.P,RaspberryPiGPIO1,18,18*%
%TO.N,/RST*%
X31183750Y-104282500D03*
%TO.P,RaspberryPiGPIO1,19,19*%
%TO.N,/DIN*%
X33723750Y-101742500D03*
%TO.P,RaspberryPiGPIO1,20,20*%
%TO.N,unconnected-(RaspberryPiGPIO1-Pad20)*%
X33723750Y-104282500D03*
%TO.P,RaspberryPiGPIO1,21,21*%
%TO.N,unconnected-(RaspberryPiGPIO1-Pad21)*%
X36263750Y-101742500D03*
%TO.P,RaspberryPiGPIO1,22,22*%
%TO.N,/DC*%
X36263750Y-104282500D03*
%TO.P,RaspberryPiGPIO1,23,23*%
%TO.N,/CLK*%
X38803750Y-101742500D03*
%TO.P,RaspberryPiGPIO1,24,24*%
%TO.N,/CS*%
X38803750Y-104282500D03*
%TO.P,RaspberryPiGPIO1,25,25*%
%TO.N,unconnected-(RaspberryPiGPIO1-Pad25)*%
X41343750Y-101742500D03*
%TO.P,RaspberryPiGPIO1,26,26*%
%TO.N,unconnected-(RaspberryPiGPIO1-Pad26)*%
X41343750Y-104282500D03*
%TO.P,RaspberryPiGPIO1,27,27*%
%TO.N,unconnected-(RaspberryPiGPIO1-Pad27)*%
X43883750Y-101742500D03*
%TO.P,RaspberryPiGPIO1,28,28*%
%TO.N,unconnected-(RaspberryPiGPIO1-Pad28)*%
X43883750Y-104282500D03*
%TO.P,RaspberryPiGPIO1,29,29*%
%TO.N,unconnected-(RaspberryPiGPIO1-Pad29)*%
X46423750Y-101742500D03*
%TO.P,RaspberryPiGPIO1,30,30*%
%TO.N,unconnected-(RaspberryPiGPIO1-Pad30)*%
X46423750Y-104282500D03*
%TO.P,RaspberryPiGPIO1,31,31*%
%TO.N,unconnected-(RaspberryPiGPIO1-Pad31)*%
X48963750Y-101742500D03*
%TO.P,RaspberryPiGPIO1,32,32*%
%TO.N,unconnected-(RaspberryPiGPIO1-Pad32)*%
X48963750Y-104282500D03*
%TO.P,RaspberryPiGPIO1,33,33*%
%TO.N,unconnected-(RaspberryPiGPIO1-Pad33)*%
X51503750Y-101742500D03*
%TO.P,RaspberryPiGPIO1,34,34*%
%TO.N,unconnected-(RaspberryPiGPIO1-Pad34)*%
X51503750Y-104282500D03*
%TO.P,RaspberryPiGPIO1,35,35*%
%TO.N,unconnected-(RaspberryPiGPIO1-Pad35)*%
X54043750Y-101742500D03*
%TO.P,RaspberryPiGPIO1,36,36*%
%TO.N,unconnected-(RaspberryPiGPIO1-Pad36)*%
X54043750Y-104282500D03*
%TO.P,RaspberryPiGPIO1,37,37*%
%TO.N,/DIN*%
X56583750Y-101742500D03*
%TO.P,RaspberryPiGPIO1,38,38*%
%TO.N,unconnected-(RaspberryPiGPIO1-Pad38)*%
X56583750Y-104282500D03*
%TO.P,RaspberryPiGPIO1,39,39*%
%TO.N,unconnected-(RaspberryPiGPIO1-Pad39)*%
X59123750Y-101742500D03*
%TO.P,RaspberryPiGPIO1,40,40*%
%TO.N,unconnected-(RaspberryPiGPIO1-Pad40)*%
X59123750Y-104282500D03*
%TD*%
D14*
%TO.P,U1,1,VBUS*%
%TO.N,unconnected-(U1-VBUS-Pad1)*%
X94488000Y-4127500D03*
D15*
%TO.P,U1,2,VLIPO*%
%TO.N,unconnected-(U1-VLIPO-Pad2)*%
X91948000Y-4127500D03*
%TO.P,U1,3,VBAT*%
%TO.N,unconnected-(U1-VBAT-Pad3)*%
X89408000Y-4127500D03*
%TO.P,U1,4,EN*%
%TO.N,Net-(PowerSwitch1-B)*%
X86868000Y-4127500D03*
%TO.P,U1,5,GND*%
%TO.N,GND*%
X84328000Y-4127500D03*
%TO.P,U1,6,LBO*%
%TO.N,/DIN*%
X81788000Y-4127500D03*
%TO.P,U1,7,GND*%
%TO.N,GND*%
X79248000Y-4127500D03*
%TO.P,U1,8,5V*%
%TO.N,+5V*%
X76708000Y-4127500D03*
D16*
%TO.P,U1,P1*%
%TO.N,N/C*%
X104775000Y-5397500D03*
%TO.P,U1,P2*%
X104775000Y-23177500D03*
%TD*%
D17*
%TO.P,PowerSwitch1,1,A*%
%TO.N,GND*%
X35694745Y-10142305D03*
D18*
%TO.P,PowerSwitch1,2,B*%
%TO.N,Net-(PowerSwitch1-B)*%
X35694745Y-7642305D03*
%TO.P,PowerSwitch1,3,C*%
%TO.N,unconnected-(PowerSwitch1-C-Pad3)*%
X35694745Y-5142305D03*
%TD*%
D12*
%TO.P,Display1,1,Pin_1*%
%TO.N,+5V*%
X103460219Y-46071437D03*
D19*
%TO.P,Display1,2,Pin_2*%
%TO.N,GND*%
X103460219Y-48611437D03*
%TO.P,Display1,3,Pin_3*%
%TO.N,/DIN*%
X103460219Y-51151437D03*
%TO.P,Display1,4,Pin_4*%
%TO.N,/CLK*%
X103460219Y-53691437D03*
%TO.P,Display1,5,Pin_5*%
%TO.N,/CS*%
X103460219Y-56231437D03*
%TO.P,Display1,6,Pin_6*%
%TO.N,/DC*%
X103460219Y-58771437D03*
%TO.P,Display1,7,Pin_7*%
%TO.N,/RST*%
X103460219Y-61311437D03*
%TO.P,Display1,8,Pin_8*%
%TO.N,/BUSY*%
X103460219Y-63851437D03*
%TD*%
D20*
%TO.P,CameraButton1,1,1*%
%TO.N,Net-(CameraButton1-Pad1)*%
X28791828Y-4908870D03*
X16291828Y-4908870D03*
%TO.P,CameraButton1,2,2*%
%TO.N,GND*%
X28791828Y-9908870D03*
X16291828Y-9908870D03*
%TD*%
D21*
%TO.N,Net-(CameraButton1-Pad1)*%
X26934375Y-98371875D03*
%TO.N,/DC*%
X35718750Y-100012500D03*
X45243750Y-90487500D03*
X90487500Y-59531250D03*
X37708313Y-103493500D03*
X93128843Y-59791343D03*
X38100000Y-97631250D03*
%TO.N,/BUSY*%
X30956250Y-97631250D03*
X89887500Y-73818750D03*
X92868750Y-73818750D03*
X33337500Y-95250000D03*
%TO.N,/CS*%
X94661563Y-56561563D03*
X40248314Y-103493500D03*
X52387500Y-90487500D03*
%TO.N,/CLK*%
X50006250Y-90487500D03*
X95250000Y-59191343D03*
X42862500Y-97631250D03*
X85725000Y-61912500D03*
%TO.N,/RST*%
X89887500Y-61964274D03*
X92868750Y-61912500D03*
X35718750Y-97631250D03*
X40481250Y-92868750D03*
%TO.N,/DIN*%
X97631250Y-57750000D03*
X89887500Y-66675000D03*
X83343750Y-9525000D03*
X59531250Y-97631250D03*
X66675000Y-90487500D03*
%TD*%
D22*
%TO.N,+5V*%
X90487500Y-102393750D02*
X90487500Y-100994750D01*
X90487500Y-100994750D02*
X90943550Y-100994750D01*
X90943550Y-100994750D02*
X91588500Y-100349800D01*
X91588500Y-100349800D02*
X91588500Y-99437700D01*
X91588500Y-99437700D02*
X90943550Y-98792750D01*
X90943550Y-98792750D02*
X90888500Y-98792750D01*
X90888500Y-98792750D02*
X90888500Y-82942750D01*
X90888500Y-82942750D02*
X104611219Y-69220031D01*
X104611219Y-69220031D02*
X104611219Y-47222437D01*
X104611219Y-47222437D02*
X103460219Y-46071437D01*
%TO.N,+3V3*%
X77301000Y-105876000D02*
X82242750Y-105876000D01*
X82242750Y-105876000D02*
X83343750Y-104775000D01*
X76200000Y-104775000D02*
X76200000Y-97631250D01*
X76200000Y-104775000D02*
X77301000Y-105876000D01*
%TO.N,GND*%
X78700000Y-102156250D02*
X79899550Y-102156250D01*
X81101500Y-2274000D02*
X82474500Y-2274000D01*
X79899550Y-102156250D02*
X84444750Y-97611050D01*
X82474500Y-2274000D02*
X43563050Y-2274000D01*
X26812249Y-95954001D02*
X21023750Y-101742500D01*
X84328000Y-4127500D02*
X82474500Y-2274000D01*
X84328000Y-29479218D02*
X103460219Y-48611437D01*
X84444750Y-97611050D02*
X84444750Y-96698950D01*
X84444750Y-96698950D02*
X83699801Y-95954001D01*
X84328000Y-4127500D02*
X84328000Y-29479218D01*
X28791828Y-9908870D02*
X40481250Y-21598292D01*
X90487500Y-61584156D02*
X90487500Y-99893750D01*
X40481250Y-21598292D02*
X40481250Y-82285000D01*
X78700000Y-102156250D02*
X80962500Y-99893750D01*
X15943750Y-104282500D02*
X17094750Y-103131500D01*
X19634750Y-103131500D02*
X21023750Y-101742500D01*
X103460219Y-48611437D02*
X90487500Y-61584156D01*
X79248000Y-4127500D02*
X81101500Y-2274000D01*
X90487500Y-99893750D02*
X80962500Y-99893750D01*
X17094750Y-103131500D02*
X19634750Y-103131500D01*
X83699801Y-95954001D02*
X26812249Y-95954001D01*
X40481250Y-82285000D02*
X21023750Y-101742500D01*
X29025263Y-10142305D02*
X28791828Y-9908870D01*
X43563050Y-2274000D02*
X35694745Y-10142305D01*
X28791828Y-9908870D02*
X16291828Y-9908870D01*
X78700000Y-104775000D02*
X78700000Y-102156250D01*
X35694745Y-10142305D02*
X29025263Y-10142305D01*
X80962500Y-99893750D02*
X78700000Y-97631250D01*
%TO.N,+5V*%
X90487500Y-102393750D02*
X86604250Y-106277000D01*
X12858250Y-106277000D02*
X10863750Y-104282500D01*
X12858250Y-106277000D02*
X86604250Y-106277000D01*
%TO.N,Net-(CameraButton1-Pad1)*%
X83343750Y-97155000D02*
X82543751Y-96355001D01*
X82543751Y-96355001D02*
X28951249Y-96355001D01*
X28951249Y-96355001D02*
X26934375Y-98371875D01*
X26934375Y-98371875D02*
X23563750Y-101742500D01*
X16291828Y-4908870D02*
X28791828Y-4908870D01*
%TO.N,/DC*%
X102440313Y-59791343D02*
X103460219Y-58771437D01*
X36919313Y-104282500D02*
X37708313Y-103493500D01*
X76200000Y-59531250D02*
X90487500Y-59531250D01*
X93128843Y-59791343D02*
X102440313Y-59791343D01*
X45243750Y-90487500D02*
X76200000Y-59531250D01*
X36263750Y-104282500D02*
X36919313Y-104282500D01*
X35718750Y-100012500D02*
X38100000Y-97631250D01*
%TO.N,/BUSY*%
X33337500Y-95250000D02*
X68456250Y-95250000D01*
X68456250Y-95250000D02*
X89887500Y-73818750D01*
X93492906Y-73818750D02*
X103460219Y-63851437D01*
X30032750Y-98554750D02*
X30956250Y-97631250D01*
X28643750Y-104282500D02*
X30032750Y-102893500D01*
X30032750Y-102893500D02*
X30032750Y-98554750D01*
X92868750Y-73818750D02*
X93492906Y-73818750D01*
%TO.N,/CS*%
X39459314Y-104282500D02*
X40248314Y-103493500D01*
X52387500Y-90487500D02*
X60381193Y-90487500D01*
X38803750Y-104282500D02*
X39459314Y-104282500D01*
X60381193Y-90487500D02*
X94307130Y-56561563D01*
X94307130Y-56561563D02*
X94661563Y-56561563D01*
%TO.N,/CLK*%
X38803750Y-101742500D02*
X42862500Y-97683750D01*
X42862500Y-97683750D02*
X42862500Y-97631250D01*
X78581250Y-61912500D02*
X85725000Y-61912500D01*
X97960313Y-59191343D02*
X103460219Y-53691437D01*
X50006250Y-90487500D02*
X78581250Y-61912500D01*
X95250000Y-59191343D02*
X97960313Y-59191343D01*
%TO.N,/RST*%
X31183750Y-104282500D02*
X32572750Y-102893500D01*
X32572750Y-102893500D02*
X32572750Y-100777250D01*
X40481250Y-92868750D02*
X58983024Y-92868750D01*
X58983024Y-92868750D02*
X89887500Y-61964274D01*
X32572750Y-100777250D02*
X35718750Y-97631250D01*
X93469813Y-61311437D02*
X103460219Y-61311437D01*
X92868750Y-61912500D02*
X93469813Y-61311437D01*
%TO.N,/DIN*%
X83343750Y-5683250D02*
X83343750Y-9525000D01*
X89887500Y-67275000D02*
X89887500Y-66675000D01*
X97631250Y-56980406D02*
X103460219Y-51151437D01*
X55432750Y-102893500D02*
X56583750Y-101742500D01*
X97631250Y-57750000D02*
X97631250Y-56980406D01*
X81788000Y-4127500D02*
X83343750Y-5683250D01*
X34874750Y-102893500D02*
X55432750Y-102893500D01*
X66675000Y-90487500D02*
X89887500Y-67275000D01*
X33723750Y-101742500D02*
X34874750Y-102893500D01*
X59531250Y-98795000D02*
X59531250Y-97631250D01*
X56583750Y-101742500D02*
X59531250Y-98795000D01*
%TO.N,Net-(PowerSwitch1-B)*%
X41464050Y-1873000D02*
X84613500Y-1873000D01*
X35694745Y-7642305D02*
X41464050Y-1873000D01*
X84613500Y-1873000D02*
X86868000Y-4127500D01*
%TD*%
M02*
