%TF.GenerationSoftware,KiCad,Pcbnew,9.0.2*%
%TF.CreationDate,2025-07-02T04:32:50-04:00*%
%TF.ProjectId,PaperCam_Kicad,50617065-7243-4616-9d5f-4b696361642e,rev?*%
%TF.SameCoordinates,Original*%
%TF.FileFunction,Legend,Bot*%
%TF.FilePolarity,Positive*%
%FSLAX46Y46*%
G04 Gerber Fmt 4.6, Leading zero omitted, Abs format (unit mm)*
G04 Created by KiCad (PCBNEW 9.0.2) date 2025-07-02 04:32:50*
%MOMM*%
%LPD*%
G01*
G04 APERTURE LIST*
%ADD10C,0.100000*%
%ADD11C,0.375000*%
%ADD12C,0.150000*%
%ADD13C,0.127000*%
%ADD14C,0.200000*%
%ADD15C,0.120000*%
G04 APERTURE END LIST*
D10*
X3460219Y-15721437D02*
X106460219Y-15721437D01*
X106460219Y-94221437D01*
X3460219Y-94221437D01*
X3460219Y-15721437D01*
D11*
X103956861Y-11376750D02*
X103671147Y-11519607D01*
X103671147Y-11519607D02*
X103099718Y-11519607D01*
X103099718Y-11519607D02*
X102814004Y-11376750D01*
X102814004Y-11376750D02*
X102671147Y-11091035D01*
X102671147Y-11091035D02*
X102671147Y-10948178D01*
X102671147Y-10948178D02*
X102814004Y-10662464D01*
X102814004Y-10662464D02*
X103099718Y-10519607D01*
X103099718Y-10519607D02*
X103528290Y-10519607D01*
X103528290Y-10519607D02*
X103814004Y-10376750D01*
X103814004Y-10376750D02*
X103956861Y-10091035D01*
X103956861Y-10091035D02*
X103956861Y-9948178D01*
X103956861Y-9948178D02*
X103814004Y-9662464D01*
X103814004Y-9662464D02*
X103528290Y-9519607D01*
X103528290Y-9519607D02*
X103099718Y-9519607D01*
X103099718Y-9519607D02*
X102814004Y-9662464D01*
X101385433Y-9519607D02*
X101385433Y-12519607D01*
X101385433Y-9662464D02*
X101099719Y-9519607D01*
X101099719Y-9519607D02*
X100528290Y-9519607D01*
X100528290Y-9519607D02*
X100242576Y-9662464D01*
X100242576Y-9662464D02*
X100099719Y-9805321D01*
X100099719Y-9805321D02*
X99956861Y-10091035D01*
X99956861Y-10091035D02*
X99956861Y-10948178D01*
X99956861Y-10948178D02*
X100099719Y-11233892D01*
X100099719Y-11233892D02*
X100242576Y-11376750D01*
X100242576Y-11376750D02*
X100528290Y-11519607D01*
X100528290Y-11519607D02*
X101099719Y-11519607D01*
X101099719Y-11519607D02*
X101385433Y-11376750D01*
X98671147Y-11519607D02*
X98671147Y-8519607D01*
X97385433Y-11519607D02*
X97385433Y-9948178D01*
X97385433Y-9948178D02*
X97528290Y-9662464D01*
X97528290Y-9662464D02*
X97814004Y-9519607D01*
X97814004Y-9519607D02*
X98242575Y-9519607D01*
X98242575Y-9519607D02*
X98528290Y-9662464D01*
X98528290Y-9662464D02*
X98671147Y-9805321D01*
X94814004Y-11376750D02*
X95099718Y-11519607D01*
X95099718Y-11519607D02*
X95671147Y-11519607D01*
X95671147Y-11519607D02*
X95956861Y-11376750D01*
X95956861Y-11376750D02*
X96099718Y-11091035D01*
X96099718Y-11091035D02*
X96099718Y-9948178D01*
X96099718Y-9948178D02*
X95956861Y-9662464D01*
X95956861Y-9662464D02*
X95671147Y-9519607D01*
X95671147Y-9519607D02*
X95099718Y-9519607D01*
X95099718Y-9519607D02*
X94814004Y-9662464D01*
X94814004Y-9662464D02*
X94671147Y-9948178D01*
X94671147Y-9948178D02*
X94671147Y-10233892D01*
X94671147Y-10233892D02*
X96099718Y-10519607D01*
X93385432Y-11519607D02*
X93385432Y-9519607D01*
X93385432Y-10091035D02*
X93242575Y-9805321D01*
X93242575Y-9805321D02*
X93099718Y-9662464D01*
X93099718Y-9662464D02*
X92814003Y-9519607D01*
X92814003Y-9519607D02*
X92528289Y-9519607D01*
X91528289Y-11519607D02*
X91528289Y-9519607D01*
X91528289Y-8519607D02*
X91671146Y-8662464D01*
X91671146Y-8662464D02*
X91528289Y-8805321D01*
X91528289Y-8805321D02*
X91385432Y-8662464D01*
X91385432Y-8662464D02*
X91528289Y-8519607D01*
X91528289Y-8519607D02*
X91528289Y-8805321D01*
X88814004Y-11376750D02*
X89099718Y-11519607D01*
X89099718Y-11519607D02*
X89671146Y-11519607D01*
X89671146Y-11519607D02*
X89956861Y-11376750D01*
X89956861Y-11376750D02*
X90099718Y-11233892D01*
X90099718Y-11233892D02*
X90242575Y-10948178D01*
X90242575Y-10948178D02*
X90242575Y-10091035D01*
X90242575Y-10091035D02*
X90099718Y-9805321D01*
X90099718Y-9805321D02*
X89956861Y-9662464D01*
X89956861Y-9662464D02*
X89671146Y-9519607D01*
X89671146Y-9519607D02*
X89099718Y-9519607D01*
X89099718Y-9519607D02*
X88814004Y-9662464D01*
X86242575Y-11519607D02*
X86242575Y-9948178D01*
X86242575Y-9948178D02*
X86385432Y-9662464D01*
X86385432Y-9662464D02*
X86671146Y-9519607D01*
X86671146Y-9519607D02*
X87242575Y-9519607D01*
X87242575Y-9519607D02*
X87528289Y-9662464D01*
X86242575Y-11376750D02*
X86528289Y-11519607D01*
X86528289Y-11519607D02*
X87242575Y-11519607D01*
X87242575Y-11519607D02*
X87528289Y-11376750D01*
X87528289Y-11376750D02*
X87671146Y-11091035D01*
X87671146Y-11091035D02*
X87671146Y-10805321D01*
X87671146Y-10805321D02*
X87528289Y-10519607D01*
X87528289Y-10519607D02*
X87242575Y-10376750D01*
X87242575Y-10376750D02*
X86528289Y-10376750D01*
X86528289Y-10376750D02*
X86242575Y-10233892D01*
X84385431Y-11519607D02*
X84671146Y-11376750D01*
X84671146Y-11376750D02*
X84814003Y-11091035D01*
X84814003Y-11091035D02*
X84814003Y-8519607D01*
X79671146Y-11376750D02*
X79956860Y-11519607D01*
X79956860Y-11519607D02*
X80528288Y-11519607D01*
X80528288Y-11519607D02*
X80814003Y-11376750D01*
X80814003Y-11376750D02*
X80956860Y-11233892D01*
X80956860Y-11233892D02*
X81099717Y-10948178D01*
X81099717Y-10948178D02*
X81099717Y-10091035D01*
X81099717Y-10091035D02*
X80956860Y-9805321D01*
X80956860Y-9805321D02*
X80814003Y-9662464D01*
X80814003Y-9662464D02*
X80528288Y-9519607D01*
X80528288Y-9519607D02*
X79956860Y-9519607D01*
X79956860Y-9519607D02*
X79671146Y-9662464D01*
X77956859Y-11519607D02*
X78242574Y-11376750D01*
X78242574Y-11376750D02*
X78385431Y-11233892D01*
X78385431Y-11233892D02*
X78528288Y-10948178D01*
X78528288Y-10948178D02*
X78528288Y-10091035D01*
X78528288Y-10091035D02*
X78385431Y-9805321D01*
X78385431Y-9805321D02*
X78242574Y-9662464D01*
X78242574Y-9662464D02*
X77956859Y-9519607D01*
X77956859Y-9519607D02*
X77528288Y-9519607D01*
X77528288Y-9519607D02*
X77242574Y-9662464D01*
X77242574Y-9662464D02*
X77099717Y-9805321D01*
X77099717Y-9805321D02*
X76956859Y-10091035D01*
X76956859Y-10091035D02*
X76956859Y-10948178D01*
X76956859Y-10948178D02*
X77099717Y-11233892D01*
X77099717Y-11233892D02*
X77242574Y-11376750D01*
X77242574Y-11376750D02*
X77528288Y-11519607D01*
X77528288Y-11519607D02*
X77956859Y-11519607D01*
X75956859Y-9519607D02*
X75385431Y-11519607D01*
X75385431Y-11519607D02*
X74814002Y-10091035D01*
X74814002Y-10091035D02*
X74242573Y-11519607D01*
X74242573Y-11519607D02*
X73671145Y-9519607D01*
X70242574Y-11233892D02*
X70099717Y-11376750D01*
X70099717Y-11376750D02*
X70242574Y-11519607D01*
X70242574Y-11519607D02*
X70385431Y-11376750D01*
X70385431Y-11376750D02*
X70242574Y-11233892D01*
X70242574Y-11233892D02*
X70242574Y-11519607D01*
X70242574Y-9662464D02*
X70099717Y-9805321D01*
X70099717Y-9805321D02*
X70242574Y-9948178D01*
X70242574Y-9948178D02*
X70385431Y-9805321D01*
X70385431Y-9805321D02*
X70242574Y-9662464D01*
X70242574Y-9662464D02*
X70242574Y-9948178D01*
X68814003Y-11233892D02*
X68671146Y-11376750D01*
X68671146Y-11376750D02*
X68814003Y-11519607D01*
X68814003Y-11519607D02*
X68956860Y-11376750D01*
X68956860Y-11376750D02*
X68814003Y-11233892D01*
X68814003Y-11233892D02*
X68814003Y-11519607D01*
X68814003Y-9662464D02*
X68671146Y-9805321D01*
X68671146Y-9805321D02*
X68814003Y-9948178D01*
X68814003Y-9948178D02*
X68956860Y-9805321D01*
X68956860Y-9805321D02*
X68814003Y-9662464D01*
X68814003Y-9662464D02*
X68814003Y-9948178D01*
X67671146Y-12662464D02*
X67528289Y-12519607D01*
X67528289Y-12519607D02*
X67242575Y-12091035D01*
X67242575Y-12091035D02*
X67099718Y-11805321D01*
X67099718Y-11805321D02*
X66956860Y-11376750D01*
X66956860Y-11376750D02*
X66814003Y-10662464D01*
X66814003Y-10662464D02*
X66814003Y-10091035D01*
X66814003Y-10091035D02*
X66956860Y-9376750D01*
X66956860Y-9376750D02*
X67099718Y-8948178D01*
X67099718Y-8948178D02*
X67242575Y-8662464D01*
X67242575Y-8662464D02*
X67528289Y-8233892D01*
X67528289Y-8233892D02*
X67671146Y-8091035D01*
D12*
X104190052Y-87706840D02*
X104190052Y-86706840D01*
X104190052Y-87183030D02*
X103618624Y-87183030D01*
X103618624Y-87706840D02*
X103618624Y-86706840D01*
X103237671Y-86706840D02*
X102618624Y-86706840D01*
X102618624Y-86706840D02*
X102951957Y-87087792D01*
X102951957Y-87087792D02*
X102809100Y-87087792D01*
X102809100Y-87087792D02*
X102713862Y-87135411D01*
X102713862Y-87135411D02*
X102666243Y-87183030D01*
X102666243Y-87183030D02*
X102618624Y-87278268D01*
X102618624Y-87278268D02*
X102618624Y-87516363D01*
X102618624Y-87516363D02*
X102666243Y-87611601D01*
X102666243Y-87611601D02*
X102713862Y-87659221D01*
X102713862Y-87659221D02*
X102809100Y-87706840D01*
X102809100Y-87706840D02*
X103094814Y-87706840D01*
X103094814Y-87706840D02*
X103190052Y-87659221D01*
X103190052Y-87659221D02*
X103237671Y-87611601D01*
D10*
X39006040Y-7439591D02*
X38206040Y-7439591D01*
X38206040Y-7439591D02*
X38206040Y-7744353D01*
X38206040Y-7744353D02*
X38244135Y-7820543D01*
X38244135Y-7820543D02*
X38282230Y-7858638D01*
X38282230Y-7858638D02*
X38358421Y-7896734D01*
X38358421Y-7896734D02*
X38472706Y-7896734D01*
X38472706Y-7896734D02*
X38548897Y-7858638D01*
X38548897Y-7858638D02*
X38586992Y-7820543D01*
X38586992Y-7820543D02*
X38625087Y-7744353D01*
X38625087Y-7744353D02*
X38625087Y-7439591D01*
X39006040Y-8353876D02*
X38967945Y-8277686D01*
X38967945Y-8277686D02*
X38929849Y-8239591D01*
X38929849Y-8239591D02*
X38853659Y-8201495D01*
X38853659Y-8201495D02*
X38625087Y-8201495D01*
X38625087Y-8201495D02*
X38548897Y-8239591D01*
X38548897Y-8239591D02*
X38510802Y-8277686D01*
X38510802Y-8277686D02*
X38472706Y-8353876D01*
X38472706Y-8353876D02*
X38472706Y-8468162D01*
X38472706Y-8468162D02*
X38510802Y-8544353D01*
X38510802Y-8544353D02*
X38548897Y-8582448D01*
X38548897Y-8582448D02*
X38625087Y-8620543D01*
X38625087Y-8620543D02*
X38853659Y-8620543D01*
X38853659Y-8620543D02*
X38929849Y-8582448D01*
X38929849Y-8582448D02*
X38967945Y-8544353D01*
X38967945Y-8544353D02*
X39006040Y-8468162D01*
X39006040Y-8468162D02*
X39006040Y-8353876D01*
X38472706Y-8887210D02*
X39006040Y-9039591D01*
X39006040Y-9039591D02*
X38625087Y-9191972D01*
X38625087Y-9191972D02*
X39006040Y-9344353D01*
X39006040Y-9344353D02*
X38472706Y-9496734D01*
X38967945Y-10106258D02*
X39006040Y-10030067D01*
X39006040Y-10030067D02*
X39006040Y-9877686D01*
X39006040Y-9877686D02*
X38967945Y-9801496D01*
X38967945Y-9801496D02*
X38891754Y-9763400D01*
X38891754Y-9763400D02*
X38586992Y-9763400D01*
X38586992Y-9763400D02*
X38510802Y-9801496D01*
X38510802Y-9801496D02*
X38472706Y-9877686D01*
X38472706Y-9877686D02*
X38472706Y-10030067D01*
X38472706Y-10030067D02*
X38510802Y-10106258D01*
X38510802Y-10106258D02*
X38586992Y-10144353D01*
X38586992Y-10144353D02*
X38663183Y-10144353D01*
X38663183Y-10144353D02*
X38739373Y-9763400D01*
X39006040Y-10487210D02*
X38472706Y-10487210D01*
X38625087Y-10487210D02*
X38548897Y-10525305D01*
X38548897Y-10525305D02*
X38510802Y-10563400D01*
X38510802Y-10563400D02*
X38472706Y-10639591D01*
X38472706Y-10639591D02*
X38472706Y-10715781D01*
X38967945Y-10944352D02*
X39006040Y-11058638D01*
X39006040Y-11058638D02*
X39006040Y-11249114D01*
X39006040Y-11249114D02*
X38967945Y-11325305D01*
X38967945Y-11325305D02*
X38929849Y-11363400D01*
X38929849Y-11363400D02*
X38853659Y-11401495D01*
X38853659Y-11401495D02*
X38777468Y-11401495D01*
X38777468Y-11401495D02*
X38701278Y-11363400D01*
X38701278Y-11363400D02*
X38663183Y-11325305D01*
X38663183Y-11325305D02*
X38625087Y-11249114D01*
X38625087Y-11249114D02*
X38586992Y-11096733D01*
X38586992Y-11096733D02*
X38548897Y-11020543D01*
X38548897Y-11020543D02*
X38510802Y-10982448D01*
X38510802Y-10982448D02*
X38434611Y-10944352D01*
X38434611Y-10944352D02*
X38358421Y-10944352D01*
X38358421Y-10944352D02*
X38282230Y-10982448D01*
X38282230Y-10982448D02*
X38244135Y-11020543D01*
X38244135Y-11020543D02*
X38206040Y-11096733D01*
X38206040Y-11096733D02*
X38206040Y-11287210D01*
X38206040Y-11287210D02*
X38244135Y-11401495D01*
X38472706Y-11668162D02*
X39006040Y-11820543D01*
X39006040Y-11820543D02*
X38625087Y-11972924D01*
X38625087Y-11972924D02*
X39006040Y-12125305D01*
X39006040Y-12125305D02*
X38472706Y-12277686D01*
X39006040Y-12582448D02*
X38472706Y-12582448D01*
X38206040Y-12582448D02*
X38244135Y-12544352D01*
X38244135Y-12544352D02*
X38282230Y-12582448D01*
X38282230Y-12582448D02*
X38244135Y-12620543D01*
X38244135Y-12620543D02*
X38206040Y-12582448D01*
X38206040Y-12582448D02*
X38282230Y-12582448D01*
X38472706Y-12849114D02*
X38472706Y-13153876D01*
X38206040Y-12963400D02*
X38891754Y-12963400D01*
X38891754Y-12963400D02*
X38967945Y-13001495D01*
X38967945Y-13001495D02*
X39006040Y-13077685D01*
X39006040Y-13077685D02*
X39006040Y-13153876D01*
X38967945Y-13763400D02*
X39006040Y-13687209D01*
X39006040Y-13687209D02*
X39006040Y-13534828D01*
X39006040Y-13534828D02*
X38967945Y-13458638D01*
X38967945Y-13458638D02*
X38929849Y-13420543D01*
X38929849Y-13420543D02*
X38853659Y-13382447D01*
X38853659Y-13382447D02*
X38625087Y-13382447D01*
X38625087Y-13382447D02*
X38548897Y-13420543D01*
X38548897Y-13420543D02*
X38510802Y-13458638D01*
X38510802Y-13458638D02*
X38472706Y-13534828D01*
X38472706Y-13534828D02*
X38472706Y-13687209D01*
X38472706Y-13687209D02*
X38510802Y-13763400D01*
X39006040Y-14106257D02*
X38206040Y-14106257D01*
X39006040Y-14449114D02*
X38586992Y-14449114D01*
X38586992Y-14449114D02*
X38510802Y-14411019D01*
X38510802Y-14411019D02*
X38472706Y-14334828D01*
X38472706Y-14334828D02*
X38472706Y-14220542D01*
X38472706Y-14220542D02*
X38510802Y-14144352D01*
X38510802Y-14144352D02*
X38548897Y-14106257D01*
X39006040Y-15249114D02*
X39006040Y-14791971D01*
X39006040Y-15020543D02*
X38206040Y-15020543D01*
X38206040Y-15020543D02*
X38320325Y-14944352D01*
X38320325Y-14944352D02*
X38396516Y-14868162D01*
X38396516Y-14868162D02*
X38434611Y-14791971D01*
D12*
X105322321Y-43317319D02*
X105322321Y-42317319D01*
X105322321Y-42317319D02*
X105084226Y-42317319D01*
X105084226Y-42317319D02*
X104941369Y-42364938D01*
X104941369Y-42364938D02*
X104846131Y-42460176D01*
X104846131Y-42460176D02*
X104798512Y-42555414D01*
X104798512Y-42555414D02*
X104750893Y-42745890D01*
X104750893Y-42745890D02*
X104750893Y-42888747D01*
X104750893Y-42888747D02*
X104798512Y-43079223D01*
X104798512Y-43079223D02*
X104846131Y-43174461D01*
X104846131Y-43174461D02*
X104941369Y-43269700D01*
X104941369Y-43269700D02*
X105084226Y-43317319D01*
X105084226Y-43317319D02*
X105322321Y-43317319D01*
X104322321Y-43317319D02*
X104322321Y-42650652D01*
X104322321Y-42317319D02*
X104369940Y-42364938D01*
X104369940Y-42364938D02*
X104322321Y-42412557D01*
X104322321Y-42412557D02*
X104274702Y-42364938D01*
X104274702Y-42364938D02*
X104322321Y-42317319D01*
X104322321Y-42317319D02*
X104322321Y-42412557D01*
X103893750Y-43269700D02*
X103798512Y-43317319D01*
X103798512Y-43317319D02*
X103608036Y-43317319D01*
X103608036Y-43317319D02*
X103512798Y-43269700D01*
X103512798Y-43269700D02*
X103465179Y-43174461D01*
X103465179Y-43174461D02*
X103465179Y-43126842D01*
X103465179Y-43126842D02*
X103512798Y-43031604D01*
X103512798Y-43031604D02*
X103608036Y-42983985D01*
X103608036Y-42983985D02*
X103750893Y-42983985D01*
X103750893Y-42983985D02*
X103846131Y-42936366D01*
X103846131Y-42936366D02*
X103893750Y-42841128D01*
X103893750Y-42841128D02*
X103893750Y-42793509D01*
X103893750Y-42793509D02*
X103846131Y-42698271D01*
X103846131Y-42698271D02*
X103750893Y-42650652D01*
X103750893Y-42650652D02*
X103608036Y-42650652D01*
X103608036Y-42650652D02*
X103512798Y-42698271D01*
X103036607Y-42650652D02*
X103036607Y-43650652D01*
X103036607Y-42698271D02*
X102941369Y-42650652D01*
X102941369Y-42650652D02*
X102750893Y-42650652D01*
X102750893Y-42650652D02*
X102655655Y-42698271D01*
X102655655Y-42698271D02*
X102608036Y-42745890D01*
X102608036Y-42745890D02*
X102560417Y-42841128D01*
X102560417Y-42841128D02*
X102560417Y-43126842D01*
X102560417Y-43126842D02*
X102608036Y-43222080D01*
X102608036Y-43222080D02*
X102655655Y-43269700D01*
X102655655Y-43269700D02*
X102750893Y-43317319D01*
X102750893Y-43317319D02*
X102941369Y-43317319D01*
X102941369Y-43317319D02*
X103036607Y-43269700D01*
X101988988Y-43317319D02*
X102084226Y-43269700D01*
X102084226Y-43269700D02*
X102131845Y-43174461D01*
X102131845Y-43174461D02*
X102131845Y-42317319D01*
X101179464Y-43317319D02*
X101179464Y-42793509D01*
X101179464Y-42793509D02*
X101227083Y-42698271D01*
X101227083Y-42698271D02*
X101322321Y-42650652D01*
X101322321Y-42650652D02*
X101512797Y-42650652D01*
X101512797Y-42650652D02*
X101608035Y-42698271D01*
X101179464Y-43269700D02*
X101274702Y-43317319D01*
X101274702Y-43317319D02*
X101512797Y-43317319D01*
X101512797Y-43317319D02*
X101608035Y-43269700D01*
X101608035Y-43269700D02*
X101655654Y-43174461D01*
X101655654Y-43174461D02*
X101655654Y-43079223D01*
X101655654Y-43079223D02*
X101608035Y-42983985D01*
X101608035Y-42983985D02*
X101512797Y-42936366D01*
X101512797Y-42936366D02*
X101274702Y-42936366D01*
X101274702Y-42936366D02*
X101179464Y-42888747D01*
X100798511Y-42650652D02*
X100560416Y-43317319D01*
X100322321Y-42650652D02*
X100560416Y-43317319D01*
X100560416Y-43317319D02*
X100655654Y-43555414D01*
X100655654Y-43555414D02*
X100703273Y-43603033D01*
X100703273Y-43603033D02*
X100798511Y-43650652D01*
X99417559Y-43317319D02*
X99988987Y-43317319D01*
X99703273Y-43317319D02*
X99703273Y-42317319D01*
X99703273Y-42317319D02*
X99798511Y-42460176D01*
X99798511Y-42460176D02*
X99893749Y-42555414D01*
X99893749Y-42555414D02*
X99988987Y-42603033D01*
X27446590Y-14647080D02*
X27494209Y-14694700D01*
X27494209Y-14694700D02*
X27637066Y-14742319D01*
X27637066Y-14742319D02*
X27732304Y-14742319D01*
X27732304Y-14742319D02*
X27875161Y-14694700D01*
X27875161Y-14694700D02*
X27970399Y-14599461D01*
X27970399Y-14599461D02*
X28018018Y-14504223D01*
X28018018Y-14504223D02*
X28065637Y-14313747D01*
X28065637Y-14313747D02*
X28065637Y-14170890D01*
X28065637Y-14170890D02*
X28018018Y-13980414D01*
X28018018Y-13980414D02*
X27970399Y-13885176D01*
X27970399Y-13885176D02*
X27875161Y-13789938D01*
X27875161Y-13789938D02*
X27732304Y-13742319D01*
X27732304Y-13742319D02*
X27637066Y-13742319D01*
X27637066Y-13742319D02*
X27494209Y-13789938D01*
X27494209Y-13789938D02*
X27446590Y-13837557D01*
X26589447Y-14742319D02*
X26589447Y-14218509D01*
X26589447Y-14218509D02*
X26637066Y-14123271D01*
X26637066Y-14123271D02*
X26732304Y-14075652D01*
X26732304Y-14075652D02*
X26922780Y-14075652D01*
X26922780Y-14075652D02*
X27018018Y-14123271D01*
X26589447Y-14694700D02*
X26684685Y-14742319D01*
X26684685Y-14742319D02*
X26922780Y-14742319D01*
X26922780Y-14742319D02*
X27018018Y-14694700D01*
X27018018Y-14694700D02*
X27065637Y-14599461D01*
X27065637Y-14599461D02*
X27065637Y-14504223D01*
X27065637Y-14504223D02*
X27018018Y-14408985D01*
X27018018Y-14408985D02*
X26922780Y-14361366D01*
X26922780Y-14361366D02*
X26684685Y-14361366D01*
X26684685Y-14361366D02*
X26589447Y-14313747D01*
X26113256Y-14742319D02*
X26113256Y-14075652D01*
X26113256Y-14170890D02*
X26065637Y-14123271D01*
X26065637Y-14123271D02*
X25970399Y-14075652D01*
X25970399Y-14075652D02*
X25827542Y-14075652D01*
X25827542Y-14075652D02*
X25732304Y-14123271D01*
X25732304Y-14123271D02*
X25684685Y-14218509D01*
X25684685Y-14218509D02*
X25684685Y-14742319D01*
X25684685Y-14218509D02*
X25637066Y-14123271D01*
X25637066Y-14123271D02*
X25541828Y-14075652D01*
X25541828Y-14075652D02*
X25398971Y-14075652D01*
X25398971Y-14075652D02*
X25303732Y-14123271D01*
X25303732Y-14123271D02*
X25256113Y-14218509D01*
X25256113Y-14218509D02*
X25256113Y-14742319D01*
X24398971Y-14694700D02*
X24494209Y-14742319D01*
X24494209Y-14742319D02*
X24684685Y-14742319D01*
X24684685Y-14742319D02*
X24779923Y-14694700D01*
X24779923Y-14694700D02*
X24827542Y-14599461D01*
X24827542Y-14599461D02*
X24827542Y-14218509D01*
X24827542Y-14218509D02*
X24779923Y-14123271D01*
X24779923Y-14123271D02*
X24684685Y-14075652D01*
X24684685Y-14075652D02*
X24494209Y-14075652D01*
X24494209Y-14075652D02*
X24398971Y-14123271D01*
X24398971Y-14123271D02*
X24351352Y-14218509D01*
X24351352Y-14218509D02*
X24351352Y-14313747D01*
X24351352Y-14313747D02*
X24827542Y-14408985D01*
X23922780Y-14742319D02*
X23922780Y-14075652D01*
X23922780Y-14266128D02*
X23875161Y-14170890D01*
X23875161Y-14170890D02*
X23827542Y-14123271D01*
X23827542Y-14123271D02*
X23732304Y-14075652D01*
X23732304Y-14075652D02*
X23637066Y-14075652D01*
X22875161Y-14742319D02*
X22875161Y-14218509D01*
X22875161Y-14218509D02*
X22922780Y-14123271D01*
X22922780Y-14123271D02*
X23018018Y-14075652D01*
X23018018Y-14075652D02*
X23208494Y-14075652D01*
X23208494Y-14075652D02*
X23303732Y-14123271D01*
X22875161Y-14694700D02*
X22970399Y-14742319D01*
X22970399Y-14742319D02*
X23208494Y-14742319D01*
X23208494Y-14742319D02*
X23303732Y-14694700D01*
X23303732Y-14694700D02*
X23351351Y-14599461D01*
X23351351Y-14599461D02*
X23351351Y-14504223D01*
X23351351Y-14504223D02*
X23303732Y-14408985D01*
X23303732Y-14408985D02*
X23208494Y-14361366D01*
X23208494Y-14361366D02*
X22970399Y-14361366D01*
X22970399Y-14361366D02*
X22875161Y-14313747D01*
X22065637Y-14218509D02*
X21922780Y-14266128D01*
X21922780Y-14266128D02*
X21875161Y-14313747D01*
X21875161Y-14313747D02*
X21827542Y-14408985D01*
X21827542Y-14408985D02*
X21827542Y-14551842D01*
X21827542Y-14551842D02*
X21875161Y-14647080D01*
X21875161Y-14647080D02*
X21922780Y-14694700D01*
X21922780Y-14694700D02*
X22018018Y-14742319D01*
X22018018Y-14742319D02*
X22398970Y-14742319D01*
X22398970Y-14742319D02*
X22398970Y-13742319D01*
X22398970Y-13742319D02*
X22065637Y-13742319D01*
X22065637Y-13742319D02*
X21970399Y-13789938D01*
X21970399Y-13789938D02*
X21922780Y-13837557D01*
X21922780Y-13837557D02*
X21875161Y-13932795D01*
X21875161Y-13932795D02*
X21875161Y-14028033D01*
X21875161Y-14028033D02*
X21922780Y-14123271D01*
X21922780Y-14123271D02*
X21970399Y-14170890D01*
X21970399Y-14170890D02*
X22065637Y-14218509D01*
X22065637Y-14218509D02*
X22398970Y-14218509D01*
X20970399Y-14075652D02*
X20970399Y-14742319D01*
X21398970Y-14075652D02*
X21398970Y-14599461D01*
X21398970Y-14599461D02*
X21351351Y-14694700D01*
X21351351Y-14694700D02*
X21256113Y-14742319D01*
X21256113Y-14742319D02*
X21113256Y-14742319D01*
X21113256Y-14742319D02*
X21018018Y-14694700D01*
X21018018Y-14694700D02*
X20970399Y-14647080D01*
X20637065Y-14075652D02*
X20256113Y-14075652D01*
X20494208Y-13742319D02*
X20494208Y-14599461D01*
X20494208Y-14599461D02*
X20446589Y-14694700D01*
X20446589Y-14694700D02*
X20351351Y-14742319D01*
X20351351Y-14742319D02*
X20256113Y-14742319D01*
X20065636Y-14075652D02*
X19684684Y-14075652D01*
X19922779Y-13742319D02*
X19922779Y-14599461D01*
X19922779Y-14599461D02*
X19875160Y-14694700D01*
X19875160Y-14694700D02*
X19779922Y-14742319D01*
X19779922Y-14742319D02*
X19684684Y-14742319D01*
X19208493Y-14742319D02*
X19303731Y-14694700D01*
X19303731Y-14694700D02*
X19351350Y-14647080D01*
X19351350Y-14647080D02*
X19398969Y-14551842D01*
X19398969Y-14551842D02*
X19398969Y-14266128D01*
X19398969Y-14266128D02*
X19351350Y-14170890D01*
X19351350Y-14170890D02*
X19303731Y-14123271D01*
X19303731Y-14123271D02*
X19208493Y-14075652D01*
X19208493Y-14075652D02*
X19065636Y-14075652D01*
X19065636Y-14075652D02*
X18970398Y-14123271D01*
X18970398Y-14123271D02*
X18922779Y-14170890D01*
X18922779Y-14170890D02*
X18875160Y-14266128D01*
X18875160Y-14266128D02*
X18875160Y-14551842D01*
X18875160Y-14551842D02*
X18922779Y-14647080D01*
X18922779Y-14647080D02*
X18970398Y-14694700D01*
X18970398Y-14694700D02*
X19065636Y-14742319D01*
X19065636Y-14742319D02*
X19208493Y-14742319D01*
X18446588Y-14075652D02*
X18446588Y-14742319D01*
X18446588Y-14170890D02*
X18398969Y-14123271D01*
X18398969Y-14123271D02*
X18303731Y-14075652D01*
X18303731Y-14075652D02*
X18160874Y-14075652D01*
X18160874Y-14075652D02*
X18065636Y-14123271D01*
X18065636Y-14123271D02*
X18018017Y-14218509D01*
X18018017Y-14218509D02*
X18018017Y-14742319D01*
X17018017Y-14742319D02*
X17589445Y-14742319D01*
X17303731Y-14742319D02*
X17303731Y-13742319D01*
X17303731Y-13742319D02*
X17398969Y-13885176D01*
X17398969Y-13885176D02*
X17494207Y-13980414D01*
X17494207Y-13980414D02*
X17589445Y-14028033D01*
X7264655Y-15244658D02*
X7264655Y-14244658D01*
X7264655Y-14720848D02*
X6693227Y-14720848D01*
X6693227Y-15244658D02*
X6693227Y-14244658D01*
X5788465Y-14577991D02*
X5788465Y-15244658D01*
X6026560Y-14197039D02*
X6264655Y-14911324D01*
X6264655Y-14911324D02*
X5645608Y-14911324D01*
D13*
%TO.C,PowerSwitch1*%
X33694745Y-1842305D02*
X37694745Y-1842305D01*
X33694745Y-13442305D02*
X33694745Y-1842305D01*
X37694745Y-1842305D02*
X37694745Y-13442305D01*
X37694745Y-13442305D02*
X33694745Y-13442305D01*
D14*
X35794745Y-14142305D02*
G75*
G02*
X35594745Y-14142305I-100000J0D01*
G01*
X35594745Y-14142305D02*
G75*
G02*
X35794745Y-14142305I100000J0D01*
G01*
D15*
%TO.C,Display1*%
X102080219Y-47341437D02*
X102080219Y-65231437D01*
X104840219Y-44691437D02*
X103460219Y-44691437D01*
X104840219Y-46071437D02*
X104840219Y-44691437D01*
X104840219Y-47341437D02*
X102080219Y-47341437D01*
X104840219Y-47341437D02*
X104840219Y-65231437D01*
X104840219Y-65231437D02*
X102080219Y-65231437D01*
%TO.C,CameraButton1*%
X16431828Y-1298870D02*
X16431828Y-3808870D01*
X16431828Y-6108870D02*
X16431828Y-8708870D01*
X16431828Y-11008870D02*
X16431828Y-13518870D01*
X16431828Y-13518870D02*
X28651828Y-13518870D01*
X28651828Y-1298870D02*
X16431828Y-1298870D01*
X28651828Y-1298870D02*
X28651828Y-3808870D01*
X28651828Y-6108870D02*
X28651828Y-8708870D01*
X28651828Y-11008870D02*
X28651828Y-13518870D01*
X26091828Y-7408870D02*
G75*
G02*
X18991828Y-7408870I-3550000J0D01*
G01*
X18991828Y-7408870D02*
G75*
G02*
X26091828Y-7408870I3550000J0D01*
G01*
%TD*%
M02*
